<svg xmlns="http://www.w3.org/2000/svg" fill="none" viewBox="0 0 119 119" height="119" width="119">
<circle stroke-linecap="round" stroke="#201C1A" fill="#E0F0B2" r="59" cy="59.5" cx="59.5"></circle>
<path fill="#FFFEFB" d="M76.9597 81.9081C78.3855 80.8966 79.4432 79.3653 79.8405 77.6608C80.1337 76.4455 80.1087 75.1952 80.069 73.9483C80.0235 72.0048 79.9746 70.0467 79.9291 68.1032C79.8188 63.4609 79.713 58.7711 78.7839 54.2093C78.5981 53.3372 78.2866 52.3236 77.4417 52.0225C76.8301 51.7915 76.1551 52.0248 75.5605 52.2707C73.2332 53.2732 70.8997 54.7858 69.0827 56.1033L70.0989 58.9747L74.5868 55.6435C75.2108 55.1893 76.1825 54.7633 76.6515 55.3839C76.8304 55.6217 76.8395 55.9298 76.8452 56.2231C77.0564 61.9742 77.3627 67.7342 77.7721 73.4705C77.9025 75.3789 77.939 77.619 76.4543 78.8457L76.9382 81.882L76.9597 81.9081Z"></path>
<path stroke-linejoin="round" stroke-linecap="round" stroke="#201C1A" d="M68.9183 56.4984C71.0356 55.1115 73.6929 52.8994 75.4169 52.1396C76.008 51.879 76.8336 51.8022 77.4452 52.0331C78.2787 52.3524 78.6016 53.3479 78.7874 54.22C79.5591 61.1897 79.9187 67.3879 80.0725 73.9589C80.0941 75.1945 80.1225 76.4596 79.844 77.6714C79.4467 79.376 78.389 80.9073 76.9632 81.9188"></path>
<path stroke-linejoin="round" stroke-linecap="round" stroke="#201C1A" d="M70.1018 58.9867L74.5897 55.6555C75.2137 55.2013 76.1854 54.7754 76.6543 55.396C76.8333 55.6338 76.8424 55.9418 76.8481 56.2351C77.2912 61.6491 77.5358 69.9834 77.775 73.4826C77.9072 75.4165 77.9419 77.6311 76.4572 78.8578"></path>
<path fill="#FFFEFB" d="M67.684 52.8167C67.684 52.8167 67.7372 52.7114 67.7417 52.6638C67.8583 51.8926 66.8503 51.4895 66.0711 51.4057C65.3689 51.3197 64.6848 51.245 63.9928 51.2032C59.645 50.8423 55.27 50.9684 50.9426 51.5023C48.7862 51.7675 46.639 52.1392 44.4974 52.6026C43.4815 52.8371 36.9615 53.8151 37.5098 54.712C37.6061 54.8604 37.7397 54.9691 37.9062 55.0857C39.0074 59.4527 40.9288 65.0881 42.6269 69.6895C44.2556 71.0348 47.3202 70.808 49.3249 71.0275C50.8833 71.195 54.3624 70.3452 57.4099 68.8353C60.5684 67.2687 63.8504 65.7666 67.3578 65.3755C68.2027 65.2735 70.3172 65.4987 72.2188 65.742C70.7574 61.4272 69.2224 57.1293 67.6726 52.8349L67.684 52.8167Z"></path>
<path fill="#A4C73E" d="M78.4718 88.2569C78.6338 89.0258 78.7698 89.8163 78.7189 90.6035C78.5888 92.727 76.8007 94.52 74.7135 95.0174C66.8867 96.9174 58.9013 98.6679 50.8613 98.3685C49.5759 98.3086 48.193 98.1627 47.2484 97.2952C46.1384 96.2489 46.0148 94.5716 46.0203 93.0506C45.9814 89.1207 45.7509 82.0094 45.8807 78.0716C45.8807 78.0716 44.3888 74.4306 42.6533 69.6673C44.3262 71.0024 46.4792 71.1256 49.3513 71.0053C51.9301 70.8907 54.3186 70.5563 57.4363 68.8131C60.5133 67.0947 63.8768 65.7444 67.3843 65.3533C68.2292 65.2513 70.3436 65.4765 72.2452 65.7198C74.7432 73.114 76.9682 80.6021 78.4718 88.2569Z"></path>
<path stroke-linejoin="round" stroke-linecap="round" stroke="#201C1A" d="M37.5237 54.7062C36.9789 53.824 43.4954 52.8313 44.5 52.6149C46.6234 52.1401 48.7854 51.7651 50.9418 51.4998C55.2692 50.966 59.6442 50.8399 63.9773 51.2042C64.6727 51.2607 65.3715 51.332 66.0556 51.4067C66.8382 51.5051 67.5811 51.7678 67.7296 52.6795"></path>
<path stroke-linejoin="round" stroke-linecap="round" stroke="#201C1A" d="M37.5098 54.7119C39.7451 63.857 42.4786 70.1888 45.8974 78.9521"></path>
<path stroke-linejoin="round" stroke-linecap="round" stroke="#201C1A" d="M67.742 52.6631C71.9335 64.303 76.0707 76.1105 78.4717 88.2568C78.619 89.0292 78.7697 89.8163 78.7188 90.6034C78.5741 92.7304 76.7859 94.5233 74.7168 95.0321C66.89 96.9321 58.9046 98.6826 50.8646 98.3832C49.5826 98.338 48.1997 98.1921 47.2517 97.3099C46.1451 96.2783 46.0181 94.5863 46.0089 93.0687C45.956 84.04 45.9746 64.977 44.8978 56.0142"></path>
<mask height="7" width="32" y="50" x="37" maskUnits="userSpaceOnUse" style="mask-type:alpha" id="mask0_11218_862159">
<path fill="#D9D9D9" d="M40.3532 52.9157C41.2023 52.7205 42.098 52.5472 42.8399 52.4095C43.5929 52.2696 44.1666 52.1698 44.4075 52.1177L44.4068 52.1188C46.5343 51.6405 48.7006 51.2615 50.8614 50.9942C55.1975 50.4562 59.5852 50.3287 63.9334 50.6962C64.2825 50.7247 64.633 50.7576 64.9806 50.792L66.0159 50.9007L66.0239 50.9009C66.437 50.9531 66.9041 51.0556 67.2979 51.3072C67.6769 51.5493 67.9604 51.9154 68.083 52.4289C68.1298 52.5223 68.1504 52.63 68.1306 52.7408C68.0633 53.1174 67.843 53.3998 67.6075 53.5986C67.3769 53.793 67.1058 53.9293 66.863 54.0222C65.5661 54.5529 64.1736 54.7436 62.8519 54.8955C58.3804 55.4357 53.8816 55.7954 49.3827 55.9527C47.1277 56.0405 44.8749 56.0652 42.6331 56.0576C42.3577 56.0592 41.2178 56.1195 40.0901 56.0362C39.5236 55.9943 38.9292 55.9156 38.4211 55.7647C37.993 55.6375 37.5378 55.4333 37.2485 55.079C37.2102 55.0462 37.175 55.0085 37.1471 54.9632C37.0404 54.7892 37.0102 54.5809 37.0749 54.3791C37.1316 54.2028 37.2481 54.075 37.3454 53.9893C37.5389 53.819 37.8173 53.6815 38.1012 53.567C38.6869 53.3308 39.5106 53.1094 40.3532 52.9157Z"></path>
</mask>
<g mask="url(#mask0_11218_862159)">
<path fill="#201C1A" d="M49.0107 50.5017C48.9607 50.6217 48.9207 50.7417 48.8707 50.8517C48.7807 51.0717 48.6207 51.1617 48.3907 51.1517C48.3107 51.1517 48.2407 51.1517 48.1607 51.1517C47.5907 51.1517 47.5507 51.1117 47.4707 50.4917L49.0007 50.4917L49.0107 50.5017Z" clip-rule="evenodd" fill-rule="evenodd"></path>
<path fill="#201C1A" d="M45.1806 50.5017L45.1806 50.8917C45.0806 50.9617 44.9806 51.0417 44.8806 51.1117C44.4506 51.4017 44.1406 51.3017 43.9806 50.8017C43.9506 50.7117 43.9606 50.6017 43.9606 50.5017L45.1906 50.5017L45.1806 50.5017Z" clip-rule="evenodd" fill-rule="evenodd"></path>
<path fill="#201C1A" d="M63.7309 50.5017C63.7309 50.5017 63.7509 50.6217 63.7309 50.6517C63.5109 50.9017 63.2609 51.1217 62.9809 51.2917C62.8509 51.3717 62.6909 51.2817 62.6009 51.1417C62.4609 50.9317 62.3409 50.7217 62.2109 50.5117L63.7409 50.5117L63.7309 50.5017Z" clip-rule="evenodd" fill-rule="evenodd"></path>
<path fill="#201C1A" d="M56.3705 50.5017C56.3705 50.5017 56.3505 50.6017 56.3305 50.6517C56.1205 51.1317 56.1105 51.1817 55.4405 51.1517C55.1505 51.1417 55.0705 51.0517 55.0005 50.7317C54.9805 50.6617 54.9905 50.5817 54.9805 50.5017L56.3605 50.5017L56.3705 50.5017Z" clip-rule="evenodd" fill-rule="evenodd"></path>
<path fill="#201C1A" d="M59.9016 50.5017C59.9016 50.6017 59.9016 50.7017 59.9016 50.8017C59.8816 51.0017 59.7616 51.1217 59.5716 51.1417C59.3016 51.1717 59.0316 51.1917 58.7216 51.0817C58.7016 50.8817 58.6916 50.6917 58.6816 50.5017L59.9116 50.5017L59.9016 50.5017Z" clip-rule="evenodd" fill-rule="evenodd"></path>
<path fill="#201C1A" d="M52.6905 50.5017C52.6905 50.6917 52.6905 50.8817 52.6705 51.0817C52.0005 51.3017 51.6205 50.9917 51.3105 50.5017L52.6905 50.5017Z" clip-rule="evenodd" fill-rule="evenodd"></path>
<path fill="#201C1A" d="M41.3419 50.5017C41.2919 50.6417 41.2519 50.7917 41.2019 50.9317C41.1619 51.0417 41.1119 51.1617 41.0319 51.2617C40.9419 51.3817 40.8019 51.5017 40.6519 51.4117C40.5619 51.3617 40.4719 51.2217 40.4519 51.1117C40.4119 50.9117 40.4319 50.7117 40.4219 50.5117L41.3419 50.5117L41.3419 50.5017Z" clip-rule="evenodd" fill-rule="evenodd"></path>
<path fill="#201C1A" d="M37.051 53.7217C37.121 53.7417 37.201 53.7517 37.261 53.7717C37.661 53.9017 37.721 54.0117 37.581 54.4217C37.541 54.5417 37.521 54.6617 37.471 54.7717C37.391 54.9517 37.241 55.0117 37.041 54.9517L37.041 53.7217L37.051 53.7217Z" clip-rule="evenodd" fill-rule="evenodd"></path>
<path fill="#201C1A" d="M67.2602 50.5017C67.1502 50.8917 66.7903 50.9917 66.4903 51.1317C66.4003 51.1717 66.2202 51.0617 66.1002 50.9817C65.9002 50.8617 66.0203 50.6717 66.0403 50.5017L67.2702 50.5017L67.2602 50.5017Z" clip-rule="evenodd" fill-rule="evenodd"></path>
<path fill="#201C1A" d="M37.5108 50.5017C37.4774 50.735 37.3241 50.8384 37.0508 50.8117L37.0508 50.5017L37.5108 50.5017Z" clip-rule="evenodd" fill-rule="evenodd"></path>
<path fill="#201C1A" d="M52.8402 54.3717C52.8002 54.4617 52.7702 54.5617 52.7202 54.6417C52.5202 55.0017 52.1002 55.1017 51.7602 54.8817C51.7402 54.8717 51.7202 54.8517 51.7002 54.8317C51.5302 54.6917 51.3602 54.5417 51.2002 54.4117C51.1202 54.1817 51.1802 53.9817 51.3102 53.8217C51.6202 53.3917 51.9902 53.3817 52.3302 53.7017C52.5302 53.8917 52.6602 54.1317 52.8402 54.3717Z" clip-rule="evenodd" fill-rule="evenodd"></path>
<path fill="#201C1A" d="M53.8417 53.1517C53.6917 53.1017 53.6217 53.0717 53.5517 53.0517C53.0417 52.8717 52.8917 52.5917 53.0417 52.0817C53.0817 51.9217 53.2017 51.8217 53.3617 51.8017C53.7017 51.7417 54.0117 51.7817 54.3017 51.9717C54.5717 52.1417 54.6417 52.5217 54.4017 52.7517C54.2417 52.9117 54.0417 53.0117 53.8417 53.1517Z" clip-rule="evenodd" fill-rule="evenodd"></path>
<path fill="#201C1A" d="M53.4217 55.5117C53.6117 55.5417 53.8117 55.5717 54.0117 55.6217C54.1317 55.6517 54.2517 55.7017 54.3617 55.7617C54.5317 55.8517 54.6417 56.0017 54.6117 56.1917C54.5817 56.3917 54.4817 56.5917 54.2617 56.6517C54.0417 56.7217 53.8217 56.7717 53.6017 56.8117C53.4317 56.8417 53.2617 56.7717 53.2217 56.6217C53.1317 56.2817 53.0617 55.9217 53.2917 55.6017C53.3217 55.5617 53.3717 55.5417 53.4217 55.5117Z" clip-rule="evenodd" fill-rule="evenodd"></path>
<path fill="#201C1A" d="M58.2003 55.8817C58.1403 56.0917 58.1103 56.2617 58.0403 56.4217C57.9603 56.6117 57.8103 56.7617 57.6003 56.8117C57.3203 56.8817 57.0103 56.8017 56.9103 56.6317C56.7403 56.3417 56.7403 56.0217 56.9303 55.7817C57.0703 55.6017 57.2403 55.4617 57.5003 55.4517C57.8203 55.4417 58.0303 55.5917 58.2003 55.8817Z" clip-rule="evenodd" fill-rule="evenodd"></path>
<path fill="#201C1A" d="M61.1402 56.9917C60.7502 56.7417 60.8202 56.2817 60.4902 56.0517C60.5602 55.9017 60.5902 55.7817 60.6602 55.6817C60.8502 55.3817 61.0302 55.3317 61.3502 55.4917C61.4402 55.5317 61.5302 55.5817 61.6102 55.6417C61.9302 55.8917 61.9702 56.3517 61.6802 56.6317C61.5402 56.7717 61.3502 56.8617 61.1402 57.0017L61.1402 56.9917Z" clip-rule="evenodd" fill-rule="evenodd"></path>
<path fill="#201C1A" d="M63.2813 53.5617C63.4213 53.7017 63.5713 53.8617 63.7313 54.0217C63.6813 54.1917 63.6413 54.3317 63.5913 54.4717C63.4713 54.8117 63.4013 54.8817 63.0413 54.7817C62.7813 54.7117 62.4613 54.9417 62.2413 54.4817C62.2413 54.4617 62.2213 54.3117 62.2313 54.1617C62.2413 53.9617 62.3713 53.8417 62.5513 53.7917C62.7813 53.7217 63.0213 53.6517 63.2913 53.5617L63.2813 53.5617Z" clip-rule="evenodd" fill-rule="evenodd"></path>
<path fill="#201C1A" d="M65.5616 52.4017C65.5616 52.4017 65.5416 52.4417 65.5216 52.4617C65.4016 52.5817 65.2716 52.7017 65.1116 52.8417C64.9816 52.8017 64.8416 52.7417 64.7016 52.7317C64.5516 52.7117 64.4016 52.7417 64.2616 52.7517C63.9916 52.4517 64.0216 52.1017 64.0816 51.7317C64.3516 51.5817 64.6916 51.5217 64.8716 51.7117C65.0916 51.9517 65.6316 51.8817 65.5616 52.4017Z" clip-rule="evenodd" fill-rule="evenodd"></path>
<path fill="#201C1A" d="M60.7015 51.7117C61.1015 51.7917 61.5315 51.7017 61.8715 52.0517C61.8715 52.1717 61.9115 52.3317 61.8915 52.4717C61.8615 52.7317 61.6515 52.9417 61.4015 52.9817C61.1515 53.0217 60.9615 52.9417 60.8315 52.7117C60.7615 52.5817 60.6415 52.4717 60.5815 52.3317C60.4915 52.1417 60.4815 51.9417 60.7015 51.7117Z" clip-rule="evenodd" fill-rule="evenodd"></path>
<path fill="#201C1A" d="M56.1706 53.8517C56.2372 54.3917 56.0506 54.765 55.6106 54.9717C55.5406 54.9417 55.4506 54.8917 55.3606 54.8617C55.0706 54.7617 55.0106 54.5417 55.0206 54.2617C55.0206 53.9717 55.1906 53.7917 55.4206 53.6717C55.5006 53.6317 55.6206 53.6417 55.7106 53.6717C55.8706 53.7217 56.0306 53.8017 56.1806 53.8617L56.1706 53.8517Z" clip-rule="evenodd" fill-rule="evenodd"></path>
<path fill="#201C1A" d="M66.0508 54.2817C66.0708 53.7317 66.4108 53.5917 66.8108 53.5117C67.0808 53.5817 67.2008 53.8017 67.3108 54.0317C67.4508 54.3317 67.4208 54.5017 67.1808 54.7017C66.9708 54.8717 66.6708 54.9017 66.4808 54.7317C66.3108 54.5917 66.1708 54.4117 66.0508 54.2817Z" clip-rule="evenodd" fill-rule="evenodd"></path>
<path fill="#201C1A" d="M40.291 54.7217C40.311 54.5817 40.291 54.3817 40.381 54.2617C40.521 54.0617 40.711 53.8817 40.911 53.7217C41.081 53.5817 41.281 53.5817 41.471 53.6917C41.621 53.7817 41.701 54.0117 41.651 54.2317C41.551 54.6817 41.341 54.8417 40.851 54.8417C40.731 54.8417 40.601 54.8317 40.481 54.8117C40.431 54.8117 40.391 54.7717 40.301 54.7217L40.291 54.7217Z" clip-rule="evenodd" fill-rule="evenodd"></path>
<path fill="#201C1A" d="M59.8813 53.8317C59.8913 54.0217 59.9013 54.1517 59.9013 54.2717C59.9013 54.3717 59.8813 54.4717 59.8813 54.5717C59.5813 54.7417 59.2813 54.8617 58.9413 54.8217C58.7813 54.8117 58.6413 54.7417 58.5713 54.5917C58.5013 54.4417 58.5613 54.3017 58.6613 54.1717C58.8113 54.0017 58.9513 53.8317 59.1413 53.6117C59.3513 53.6717 59.5813 53.7417 59.8713 53.8217L59.8813 53.8317Z" clip-rule="evenodd" fill-rule="evenodd"></path>
<path fill="#201C1A" d="M49.9101 52.1017L50.7201 52.1017C50.7701 52.1617 50.8401 52.2317 50.8901 52.3217C51.0201 52.5517 51.0901 52.8017 50.8901 53.0217C50.7101 53.2117 50.4701 53.1517 50.2401 53.1317C50.1701 53.1317 50.1001 53.0817 50.0301 53.0517C49.5901 52.8717 49.5301 52.6217 49.7701 52.2917C49.8001 52.2517 49.8301 52.2117 49.9001 52.1117L49.9101 52.1017Z" clip-rule="evenodd" fill-rule="evenodd"></path>
<path fill="#201C1A" d="M38.4609 52.4117C38.5109 52.2717 38.5409 52.1717 38.5809 52.0817C38.7209 51.7217 38.8409 51.6617 39.2109 51.7617C39.6209 51.8717 39.6909 52.0017 39.5809 52.4117C39.5509 52.5117 39.5309 52.6017 39.5109 52.7017C39.4909 52.7717 39.4809 52.8517 39.4609 52.9317C39.3709 52.9817 39.2909 53.0317 39.2009 53.0817C39.0709 53.1517 38.9409 53.1217 38.8609 53.0117C38.7209 52.8317 38.6109 52.6317 38.4609 52.4117Z" clip-rule="evenodd" fill-rule="evenodd"></path>
<path fill="#201C1A" d="M49.7604 56.7217C49.7204 56.3717 49.6804 56.0617 49.6504 55.7717C49.8904 55.5017 50.1304 55.4917 50.4304 55.5917C50.6604 55.6717 50.7504 55.8317 50.8204 56.0117C50.8504 56.0917 50.8604 56.2417 50.8204 56.3017C50.6904 56.4517 50.5404 56.5817 50.3804 56.7017C50.2104 56.8217 50.0204 56.8917 49.7704 56.7217L49.7604 56.7217Z" clip-rule="evenodd" fill-rule="evenodd"></path>
<path fill="#201C1A" d="M46.9605 52.8717C46.2905 53.1017 46.1405 52.5617 45.8105 52.3117C45.9105 51.9317 46.2605 51.8717 46.4905 51.6917C46.6805 51.5417 46.9805 51.6917 47.0105 51.9417C47.0405 52.2417 47.0705 52.5417 46.9705 52.8717L46.9605 52.8717Z" clip-rule="evenodd" fill-rule="evenodd"></path>
<path fill="#201C1A" d="M69.2017 56.0017C69.0817 56.2217 68.9817 56.4217 68.8417 56.6717C68.6717 56.6717 68.4717 56.6917 68.2717 56.6717C67.9617 56.6417 67.7917 56.3417 67.9117 56.0617C68.0317 55.7917 68.2517 55.5817 68.5417 55.5617C68.8217 55.5417 69.1017 55.6117 69.1917 56.0017L69.2017 56.0017Z" clip-rule="evenodd" fill-rule="evenodd"></path>
<path fill="#201C1A" d="M39.0601 55.3117C39.1801 55.4617 39.2901 55.5917 39.4001 55.7317C39.8101 56.2317 39.7801 56.4017 39.2001 56.8117C38.8401 56.6117 38.5601 56.3617 38.5901 55.8817C38.6101 55.6017 38.6501 55.3717 39.0601 55.3117Z" clip-rule="evenodd" fill-rule="evenodd"></path>
<path fill="#201C1A" d="M43.3313 52.4017C43.1913 52.8617 42.8313 52.9217 42.4913 52.9817C42.3313 53.0117 42.1113 52.7917 42.1513 52.6417C42.2513 52.3117 42.2513 51.9317 42.6313 51.7217C43.0513 51.7217 43.2113 52.0317 43.3413 52.4017L43.3313 52.4017Z" clip-rule="evenodd" fill-rule="evenodd"></path>
<path fill="#201C1A" d="M45.1616 54.5917C44.8916 54.7317 44.6616 54.8417 44.4416 54.9617C44.2316 54.9217 44.0916 54.8017 44.0516 54.5617C44.0116 54.3117 44.1116 54.1217 44.3216 53.9817C44.4816 53.8717 44.6316 53.7417 44.8216 53.6017C44.9716 53.6917 45.1116 53.7917 45.2816 53.9017C45.2516 54.0317 45.2316 54.1517 45.2116 54.2717C45.1916 54.3717 45.1816 54.4717 45.1716 54.5917L45.1616 54.5917Z" clip-rule="evenodd" fill-rule="evenodd"></path>
<path fill="#201C1A" d="M65.3119 56.4717C65.1119 56.5417 64.9119 56.6117 64.6719 56.6917C64.5319 56.5117 64.4019 56.3617 64.2919 56.2017C64.1619 56.0017 64.2019 55.8217 64.4019 55.6817C64.5819 55.5517 64.7819 55.4417 64.9719 55.3317C65.3319 55.6217 65.4219 55.9017 65.3119 56.4717Z" clip-rule="evenodd" fill-rule="evenodd"></path>
<path fill="#201C1A" d="M42.6714 56.4217C42.5214 56.4617 42.4014 56.3817 42.3914 56.2517C42.3714 56.0517 42.4214 55.8517 42.4314 55.6717C42.6314 55.5017 42.8514 55.3817 43.0714 55.5117C43.2814 55.6317 43.4614 55.8317 43.6114 56.0317C43.6614 56.1017 43.6314 56.2917 43.5714 56.3817C43.4214 56.6317 43.1614 56.7417 42.9114 56.8117C42.7114 56.7217 42.7314 56.5417 42.6514 56.4217C42.7714 56.4417 42.8814 56.4817 42.9914 56.4817C43.0314 56.4817 43.1014 56.3817 43.1014 56.3217C43.1014 56.2717 43.0414 56.1917 42.9914 56.1617C42.9414 56.1417 42.8414 56.1517 42.8014 56.1917C42.7414 56.2517 42.7014 56.3517 42.6614 56.4417L42.6714 56.4217Z" clip-rule="evenodd" fill-rule="evenodd"></path>
<path fill="#201C1A" d="M57.5209 51.8817C57.9609 52.0917 58.1309 52.3517 58.0309 52.7917C57.9309 52.8117 57.8309 52.8317 57.7409 52.8617C57.3275 52.9684 56.9375 52.865 56.5709 52.5517C56.5509 52.3617 56.6509 52.2617 56.8309 52.2617C57.1309 52.2617 57.3809 52.2117 57.5309 51.8917L57.5209 51.8817Z" clip-rule="evenodd" fill-rule="evenodd"></path>
<path fill="#201C1A" d="M46.4102 55.4617C46.6302 55.7317 46.7902 55.9217 46.9602 56.1217C46.9202 56.4917 46.6602 56.6217 46.3502 56.6717C46.0302 56.7217 45.8302 56.5417 45.6602 56.2417C45.7202 56.1617 45.7902 56.0017 45.8702 55.9917C46.1602 55.9517 46.2402 55.7017 46.4002 55.4617L46.4102 55.4617Z" clip-rule="evenodd" fill-rule="evenodd"></path>
<path fill="#201C1A" d="M47.7502 54.8017C47.7102 54.7317 47.6702 54.6917 47.6602 54.6517C47.6602 54.5217 47.6602 54.4017 47.6602 54.2817C47.7002 54.2317 47.7202 54.1717 47.7502 54.1517C47.9602 54.0217 48.1702 53.9017 48.4302 53.7517C48.4402 53.7517 48.5302 53.7517 48.5902 53.7917C48.9202 54.0417 48.9502 54.3017 48.6502 54.5317C48.3802 54.7317 48.0802 54.8317 47.7502 54.8017Z" clip-rule="evenodd" fill-rule="evenodd"></path>
<path fill="#201C1A" d="M69.0203 52.2717C68.8603 52.4417 68.7103 52.6017 68.5303 52.8117C68.3203 52.7517 68.0903 52.6817 67.8203 52.6017C67.8403 52.4817 67.8203 52.3617 67.8703 52.3017C67.9803 52.1717 68.1203 52.0517 68.2703 51.9817C68.6003 51.8417 68.8503 51.9717 69.0203 52.2717Z" clip-rule="evenodd" fill-rule="evenodd"></path>
</g>
<mask height="18" width="26" y="81" x="45" maskUnits="userSpaceOnUse" style="mask-type:alpha" id="mask1_11218_862159">
<path stroke-linecap="round" stroke="black" fill="#D9D9D9" d="M52.3054 92.8946C49.6358 91.4686 46.5449 83.5388 46.0786 81.1653C46.2156 84.7482 45.5064 93.7342 46.6922 96.4759C47.1645 97.5681 48.0105 98.1903 51.199 98.4609C53.7497 98.6774 67.8282 96.5616 70.316 96.022C68.6417 96.3246 63.8785 96.0435 61.1271 95.6777C59.4119 95.4496 54.975 94.3206 52.3054 92.8946Z"></path>
</mask>
<g mask="url(#mask1_11218_862159)">
<path fill="#201C1A" d="M46.002 98.9602C46.142 99.0002 46.292 99.0202 46.432 99.0702C46.882 99.2502 46.992 99.4402 46.922 99.8602C46.872 100.2 46.612 100.37 46.142 100.37C46.092 100.37 46.042 100.35 46.002 100.34L46.002 98.9602Z" clip-rule="evenodd" fill-rule="evenodd"></path>
<path fill="#201C1A" d="M46.002 91.9102C46.252 91.9302 46.502 91.9402 46.742 91.9802C47.012 92.0202 47.142 92.2902 47.022 92.5502C46.982 92.6402 46.942 92.7602 46.872 92.8002C46.602 92.9602 46.362 93.2102 46.002 93.1402L46.002 91.9102Z" clip-rule="evenodd" fill-rule="evenodd"></path>
<path fill="#201C1A" d="M46.002 95.5901C46.302 95.6501 46.602 95.7201 46.842 95.9501C46.882 96.4001 46.642 96.7001 46.292 96.9401C46.222 96.9901 46.102 96.9601 46.002 96.9701L46.002 95.5901Z" clip-rule="evenodd" fill-rule="evenodd"></path>
<path fill="#201C1A" d="M57.9619 85.0102C57.9119 85.1302 57.8719 85.2502 57.8219 85.3602C57.7319 85.5802 57.5719 85.6702 57.3419 85.6602C57.2619 85.6602 57.1919 85.6602 57.1119 85.6602C56.5419 85.6602 56.5019 85.6202 56.4219 85.0002L57.9519 85.0002L57.9619 85.0102Z" clip-rule="evenodd" fill-rule="evenodd"></path>
<path fill="#201C1A" d="M54.1318 85.0102L54.1318 85.4002C54.0318 85.4702 53.9318 85.5502 53.8318 85.6202C53.4018 85.9102 53.0918 85.8102 52.9318 85.3102C52.9018 85.2202 52.9118 85.1102 52.9118 85.0102L54.1418 85.0102L54.1318 85.0102Z" clip-rule="evenodd" fill-rule="evenodd"></path>
<path fill="#201C1A" d="M65.3216 85.0102C65.3216 85.0102 65.3016 85.1102 65.2816 85.1602C65.0716 85.6402 65.0616 85.6902 64.3916 85.6602C64.1016 85.6502 64.0216 85.5602 63.9516 85.2402C63.9316 85.1702 63.9416 85.0902 63.9316 85.0102L65.3116 85.0102L65.3216 85.0102Z" clip-rule="evenodd" fill-rule="evenodd"></path>
<path fill="#201C1A" d="M68.8528 85.0102C68.8528 85.1102 68.8528 85.2102 68.8528 85.3102C68.8328 85.5102 68.7128 85.6302 68.5228 85.6502C68.2528 85.6802 67.9828 85.7002 67.6728 85.5902C67.6528 85.3902 67.6428 85.2002 67.6328 85.0102L68.8628 85.0102L68.8528 85.0102Z" clip-rule="evenodd" fill-rule="evenodd"></path>
<path fill="#201C1A" d="M61.6417 85.0102C61.6417 85.2002 61.6417 85.3902 61.6217 85.5902C60.9517 85.8102 60.5717 85.5002 60.2617 85.0102L61.6417 85.0102Z" clip-rule="evenodd" fill-rule="evenodd"></path>
<path fill="#201C1A" d="M50.293 85.0102C50.243 85.1502 50.203 85.3002 50.153 85.4402C50.113 85.5502 50.063 85.6702 49.983 85.7702C49.893 85.8902 49.753 86.0102 49.603 85.9202C49.513 85.8702 49.423 85.7302 49.403 85.6202C49.363 85.4202 49.383 85.2202 49.373 85.0202L50.293 85.0202L50.293 85.0102Z" clip-rule="evenodd" fill-rule="evenodd"></path>
<path fill="#201C1A" d="M46.0022 88.2302C46.0722 88.2502 46.1522 88.2602 46.2122 88.2802C46.6122 88.4102 46.6722 88.5202 46.5322 88.9302C46.4922 89.0502 46.4722 89.1702 46.4222 89.2802C46.3422 89.4602 46.1922 89.5202 45.9922 89.4602L45.9922 88.2302L46.0022 88.2302Z" clip-rule="evenodd" fill-rule="evenodd"></path>
<path fill="#201C1A" d="M46.462 85.0102C46.4286 85.2435 46.2753 85.3469 46.002 85.3202L46.002 85.0102L46.462 85.0102Z" clip-rule="evenodd" fill-rule="evenodd"></path>
<path fill="#201C1A" d="M61.7914 88.8802C61.7514 88.9702 61.7214 89.0702 61.6714 89.1502C61.4714 89.5102 61.0514 89.6102 60.7114 89.3902C60.6914 89.3802 60.6714 89.3602 60.6514 89.3402C60.4814 89.2002 60.3114 89.0502 60.1514 88.9202C60.0714 88.6902 60.1314 88.4902 60.2614 88.3302C60.5714 87.9002 60.9414 87.8902 61.2814 88.2102C61.4814 88.4002 61.6114 88.6402 61.7914 88.8802Z" clip-rule="evenodd" fill-rule="evenodd"></path>
<path fill="#201C1A" d="M59.8114 94.5202C59.4914 94.6902 59.2414 94.8602 58.9714 94.9702C58.6414 95.1002 58.3914 94.9702 58.1914 94.6402C58.3314 94.3502 58.4614 94.0502 58.6114 93.7702C58.8014 93.4302 59.1514 93.3902 59.4314 93.6602C59.5214 93.7402 59.5914 93.8502 59.6414 93.9702C59.7114 94.1302 59.7414 94.3002 59.8114 94.5202Z" clip-rule="evenodd" fill-rule="evenodd"></path>
<path fill="#201C1A" d="M62.7928 87.6602C62.6428 87.6102 62.5728 87.5802 62.5028 87.5602C61.9928 87.3802 61.8428 87.1002 61.9928 86.5902C62.0328 86.4302 62.1528 86.3302 62.3128 86.3102C62.6528 86.2502 62.9628 86.2902 63.2528 86.4802C63.5228 86.6502 63.5928 87.0302 63.3528 87.2602C63.1928 87.4202 62.9928 87.5202 62.7928 87.6602Z" clip-rule="evenodd" fill-rule="evenodd"></path>
<path fill="#201C1A" d="M62.5818 95.0102C62.2918 94.8702 62.0618 94.6802 62.1318 94.3602C62.2218 93.9202 62.3218 93.4402 62.9818 93.3902C63.1318 93.5902 63.3018 93.8302 63.4818 94.0702C63.4118 94.3002 63.3418 94.5102 63.2618 94.7502C63.0318 94.8302 62.8018 94.9202 62.5818 95.0102Z" clip-rule="evenodd" fill-rule="evenodd"></path>
<path fill="#201C1A" d="M62.3729 90.0202C62.5629 90.0502 62.7629 90.0802 62.9629 90.1302C63.0829 90.1602 63.2029 90.2102 63.3129 90.2702C63.4829 90.3602 63.5929 90.5102 63.5629 90.7002C63.5329 90.9002 63.4329 91.1002 63.2129 91.1602C62.9929 91.2302 62.7729 91.2802 62.5529 91.3202C62.3829 91.3502 62.2129 91.2802 62.1729 91.1302C62.0829 90.7902 62.0129 90.4302 62.2429 90.1102C62.2729 90.0702 62.3229 90.0502 62.3729 90.0202Z" clip-rule="evenodd" fill-rule="evenodd"></path>
<path fill="#201C1A" d="M67.1514 90.3902C67.0914 90.6002 67.0614 90.7702 66.9914 90.9302C66.9114 91.1202 66.7614 91.2702 66.5514 91.3202C66.2714 91.3902 65.9614 91.3102 65.8614 91.1402C65.6914 90.8502 65.6914 90.5302 65.8814 90.2902C66.0214 90.1102 66.1914 89.9702 66.4514 89.9602C66.7714 89.9502 66.9814 90.1002 67.1514 90.3902Z" clip-rule="evenodd" fill-rule="evenodd"></path>
<path fill="#201C1A" d="M70.0914 91.5002C69.7014 91.2502 69.7714 90.7902 69.4414 90.5602C69.5114 90.4102 69.5414 90.2902 69.6114 90.1902C69.8014 89.8902 69.9814 89.8402 70.3014 90.0002C70.3914 90.0402 70.4814 90.0902 70.5614 90.1502C70.8814 90.4002 70.9214 90.8602 70.6314 91.1402C70.4914 91.2802 70.3014 91.3702 70.0914 91.5102L70.0914 91.5002Z" clip-rule="evenodd" fill-rule="evenodd"></path>
<path fill="#201C1A" d="M66.6127 97.0901C66.8027 97.4701 66.9927 97.8401 67.1927 98.2201C66.8627 98.6101 66.4627 98.5801 66.0627 98.5101C65.8927 98.4801 65.7827 98.2801 65.8227 98.0901C65.8527 97.9701 65.9127 97.8501 65.9427 97.7301C66.0527 97.2601 66.0527 97.2601 66.6127 97.0901Z" clip-rule="evenodd" fill-rule="evenodd"></path>
<path fill="#201C1A" d="M69.9729 93.5802C70.2829 93.5502 70.5129 93.6802 70.7129 93.9002C70.8229 94.0202 70.8729 94.1602 70.8229 94.3202C70.7929 94.4202 70.7429 94.5102 70.7129 94.6002C70.5929 94.9502 70.4629 95.0502 70.1829 95.0102C69.8629 94.9702 69.6529 94.7502 69.6629 94.3902C69.6629 94.2502 69.6429 94.1702 69.5729 94.0502C69.4329 93.8302 69.5229 93.6502 69.7429 93.6002C69.8129 93.5802 69.8929 93.5802 69.9629 93.5702L69.9729 93.5802Z" clip-rule="evenodd" fill-rule="evenodd"></path>
<path fill="#201C1A" d="M63.8418 96.1102C64.1418 95.7169 64.6085 95.4735 65.2418 95.3802C65.4518 95.8802 65.3418 96.2902 64.9318 96.6202C64.3618 96.8002 64.2418 96.2302 63.8418 96.1102Z" clip-rule="evenodd" fill-rule="evenodd"></path>
<path fill="#201C1A" d="M69.6527 86.2202C70.0527 86.3002 70.4827 86.2102 70.8227 86.5602C70.8227 86.6802 70.8627 86.8402 70.8427 86.9802C70.8127 87.2402 70.6027 87.4502 70.3527 87.4902C70.1027 87.5302 69.9127 87.4502 69.7827 87.2202C69.7127 87.0902 69.5927 86.9802 69.5327 86.8402C69.4427 86.6502 69.4327 86.4502 69.6527 86.2202Z" clip-rule="evenodd" fill-rule="evenodd"></path>
<path fill="#201C1A" d="M65.1217 88.3602C65.1884 88.9002 65.0017 89.2735 64.5617 89.4802C64.4917 89.4502 64.4017 89.4002 64.3117 89.3702C64.0217 89.2702 63.9617 89.0502 63.9717 88.7702C63.9717 88.4802 64.1417 88.3002 64.3717 88.1802C64.4517 88.1402 64.5717 88.1502 64.6617 88.1802C64.8217 88.2302 64.9817 88.3102 65.1317 88.3702L65.1217 88.3602Z" clip-rule="evenodd" fill-rule="evenodd"></path>
<path fill="#201C1A" d="M64.7116 98.8802C64.9616 99.0002 65.1316 99.1302 65.1716 99.3802C65.2216 99.7002 65.1216 99.9802 64.9416 100.23C64.8416 100.37 64.6916 100.41 64.5416 100.36C64.4016 100.31 64.2616 100.24 64.1416 100.16C63.9816 100.06 63.9416 99.8902 64.0116 99.7002C64.1216 99.4002 64.2216 99.2902 64.7216 98.8802L64.7116 98.8802Z" clip-rule="evenodd" fill-rule="evenodd"></path>
<path fill="#201C1A" d="M49.2422 89.2302C49.2622 89.0902 49.2422 88.8902 49.3322 88.7702C49.4722 88.5702 49.6622 88.3902 49.8622 88.2302C50.0322 88.0902 50.2322 88.0902 50.4222 88.2002C50.5722 88.2902 50.6522 88.5202 50.6022 88.7402C50.5022 89.1902 50.2922 89.3502 49.8022 89.3502C49.6822 89.3502 49.5522 89.3402 49.4322 89.3202C49.3822 89.3202 49.3422 89.2802 49.2522 89.2302L49.2422 89.2302Z" clip-rule="evenodd" fill-rule="evenodd"></path>
<path fill="#201C1A" d="M68.8325 88.3402C68.8425 88.5302 68.8525 88.6602 68.8525 88.7802C68.8525 88.8802 68.8325 88.9802 68.8325 89.0802C68.5325 89.2502 68.2325 89.3702 67.8925 89.3302C67.7325 89.3202 67.5925 89.2502 67.5225 89.1002C67.4525 88.9502 67.5125 88.8102 67.6125 88.6802C67.7625 88.5102 67.9025 88.3402 68.0925 88.1202C68.3025 88.1802 68.5325 88.2502 68.8225 88.3302L68.8325 88.3402Z" clip-rule="evenodd" fill-rule="evenodd"></path>
<path fill="#201C1A" d="M63.8516 92.7901C63.8916 92.5801 63.9216 92.3601 63.9716 92.1401C64.0216 91.9201 64.1916 91.8001 64.4216 91.8101C64.7016 91.8101 65.1316 92.1901 65.1616 92.4701C65.1616 92.5401 65.1616 92.6501 65.1116 92.6801C64.9316 92.8001 64.7416 92.9501 64.5316 93.0001C64.2916 93.0601 64.0216 93.0801 63.8516 92.7901Z" clip-rule="evenodd" fill-rule="evenodd"></path>
<path fill="#201C1A" d="M57.3224 93.0302C57.0924 92.7802 56.6424 93.0102 56.4824 92.6102C56.9924 91.7902 57.3724 91.7302 58.1124 92.3902C58.0224 92.7502 57.7224 92.8702 57.3224 93.0302Z" clip-rule="evenodd" fill-rule="evenodd"></path>
<path fill="#201C1A" d="M58.8613 86.6102L59.6713 86.6102C59.7213 86.6702 59.7913 86.7402 59.8413 86.8302C59.9713 87.0602 60.0413 87.3102 59.8413 87.5302C59.6613 87.7202 59.4213 87.6602 59.1913 87.6402C59.1213 87.6402 59.0513 87.5902 58.9813 87.5602C58.5413 87.3802 58.4813 87.1302 58.7213 86.8002C58.7513 86.7602 58.7813 86.7202 58.8513 86.6202L58.8613 86.6102Z" clip-rule="evenodd" fill-rule="evenodd"></path>
<path fill="#201C1A" d="M47.4121 86.9202C47.4621 86.7802 47.4921 86.6802 47.5321 86.5902C47.6721 86.2302 47.7921 86.1702 48.1621 86.2702C48.5721 86.3802 48.6421 86.5102 48.5321 86.9202C48.5021 87.0202 48.4821 87.1102 48.4621 87.2102C48.4421 87.2802 48.4321 87.3602 48.4121 87.4402C48.3221 87.4902 48.2421 87.5402 48.1521 87.5902C48.0221 87.6602 47.8921 87.6302 47.8121 87.5202C47.6721 87.3402 47.5621 87.1402 47.4121 86.9202Z" clip-rule="evenodd" fill-rule="evenodd"></path>
<path fill="#201C1A" d="M52.2012 94.7902C52.0012 94.8502 51.8312 94.9302 51.6612 94.9502C51.4012 94.9902 51.1712 94.7202 51.2412 94.4702C51.3212 94.2002 51.4412 93.9502 51.6712 93.7702C51.8212 93.6502 51.9912 93.6302 52.1712 93.6802C52.3412 93.7202 52.4812 93.9302 52.4312 94.0902C52.3712 94.3102 52.2912 94.5202 52.1912 94.7902L52.2012 94.7902Z" clip-rule="evenodd" fill-rule="evenodd"></path>
<path fill="#201C1A" d="M62.5018 98.5402C62.4318 98.5002 62.2618 98.4502 62.1918 98.3502C62.0818 98.1602 62.0218 97.9302 61.9718 97.7102C61.9318 97.5502 62.1418 97.3602 62.3118 97.3802C62.5318 97.4102 62.7618 97.4502 62.9818 97.4902C63.1318 97.5202 63.2818 97.7302 63.2718 97.8902C63.2518 98.2802 62.9818 98.5302 62.5018 98.5402Z" clip-rule="evenodd" fill-rule="evenodd"></path>
<path fill="#201C1A" d="M58.7116 91.2302C58.6716 90.8802 58.6316 90.5702 58.6016 90.2802C58.8416 90.0102 59.0816 90.0002 59.3816 90.1002C59.6116 90.1802 59.7016 90.3402 59.7716 90.5202C59.8016 90.6002 59.8116 90.7502 59.7716 90.8102C59.6416 90.9602 59.4916 91.0902 59.3316 91.2102C59.1616 91.3302 58.9716 91.4002 58.7216 91.2302L58.7116 91.2302Z" clip-rule="evenodd" fill-rule="evenodd"></path>
<path fill="#201C1A" d="M48.7521 98.2502C48.1821 98.4402 47.7621 98.1302 47.2921 98.0302C47.1921 97.7202 47.4021 97.5402 47.4821 97.3302C48.3421 97.1402 48.2621 97.0502 48.5821 97.8702C48.6221 97.9802 48.6721 98.0902 48.7421 98.2502L48.7521 98.2502Z" clip-rule="evenodd" fill-rule="evenodd"></path>
<path fill="#201C1A" d="M49.2617 92.2702C49.4917 91.8002 49.8417 91.7202 50.2917 91.8702C50.3917 92.1202 50.4917 92.3702 50.6017 92.6402C50.5217 92.7302 50.4517 92.8402 50.3517 92.9102C50.0517 93.1102 49.7717 93.0602 49.5717 92.7702C49.4617 92.6102 49.3617 92.4302 49.2717 92.2702L49.2617 92.2702Z" clip-rule="evenodd" fill-rule="evenodd"></path>
<path fill="#201C1A" d="M53.6017 93.1502C53.4817 93.0602 53.3217 92.9802 53.2217 92.8502C53.1117 92.7202 53.0517 92.5402 52.9817 92.3802C52.8617 92.0902 53.0517 91.8102 53.3617 91.8102C53.6317 91.8102 53.8517 91.9302 54.0317 92.1102C54.1017 92.1802 54.1217 92.3402 54.1117 92.4602C54.0917 92.6402 53.9117 92.8502 53.6017 93.1502Z" clip-rule="evenodd" fill-rule="evenodd"></path>
<path fill="#201C1A" d="M59.412 97.3302C59.542 97.5702 59.662 97.7902 59.762 97.9802C59.692 98.4002 59.432 98.5802 59.042 98.6802C58.882 98.5002 58.702 98.2902 58.502 98.0502C58.662 97.8302 58.732 97.5502 58.972 97.4002C59.082 97.3302 59.252 97.3602 59.422 97.3402L59.412 97.3302Z" clip-rule="evenodd" fill-rule="evenodd"></path>
<path fill="#201C1A" d="M55.9117 87.3802C55.2417 87.6102 55.0917 87.0702 54.7617 86.8202C54.8617 86.4402 55.2117 86.3802 55.4417 86.2002C55.6317 86.0502 55.9317 86.2002 55.9617 86.4502C55.9917 86.7502 56.0217 87.0502 55.9217 87.3802L55.9117 87.3802Z" clip-rule="evenodd" fill-rule="evenodd"></path>
<path fill="#201C1A" d="M48.0113 89.8202C48.1313 89.9702 48.2413 90.1002 48.3513 90.2402C48.7613 90.7402 48.7313 90.9102 48.1513 91.3202C47.7913 91.1202 47.5113 90.8702 47.5413 90.3902C47.5613 90.1102 47.6013 89.8802 48.0113 89.8202Z" clip-rule="evenodd" fill-rule="evenodd"></path>
<path fill="#201C1A" d="M52.2824 86.9102C52.1424 87.3702 51.7824 87.4302 51.4424 87.4902C51.2824 87.5202 51.0624 87.3002 51.1024 87.1502C51.2024 86.8202 51.2024 86.4402 51.5824 86.2302C52.0024 86.2302 52.1624 86.5402 52.2924 86.9102L52.2824 86.9102Z" clip-rule="evenodd" fill-rule="evenodd"></path>
<path fill="#201C1A" d="M54.1128 89.1002C53.8428 89.2402 53.6128 89.3502 53.3928 89.4702C53.1828 89.4302 53.0428 89.3102 53.0028 89.0702C52.9628 88.8202 53.0628 88.6302 53.2728 88.4902C53.4328 88.3802 53.5828 88.2502 53.7728 88.1102C53.9228 88.2002 54.0628 88.3002 54.2328 88.4102C54.2028 88.5402 54.1828 88.6602 54.1628 88.7802C54.1428 88.8802 54.1328 88.9802 54.1228 89.1002L54.1128 89.1002Z" clip-rule="evenodd" fill-rule="evenodd"></path>
<path fill="#201C1A" d="M51.6226 90.9302C51.4726 90.9702 51.3526 90.8902 51.3426 90.7602C51.3226 90.5602 51.3726 90.3602 51.3826 90.1802C51.5826 90.0102 51.8026 89.8902 52.0226 90.0202C52.2326 90.1402 52.4126 90.3402 52.5626 90.5402C52.6126 90.6102 52.5826 90.8002 52.5226 90.8902C52.3726 91.1402 52.1126 91.2502 51.8626 91.3202C51.6626 91.2302 51.6826 91.0502 51.6026 90.9302C51.7226 90.9502 51.8326 90.9902 51.9426 90.9902C51.9826 90.9902 52.0526 90.8902 52.0526 90.8302C52.0526 90.7802 51.9926 90.7002 51.9426 90.6702C51.8926 90.6502 51.7926 90.6602 51.7526 90.7002C51.6926 90.7602 51.6526 90.8602 51.6126 90.9502L51.6226 90.9302Z" clip-rule="evenodd" fill-rule="evenodd"></path>
<path fill="#201C1A" d="M54.7227 94.3202C54.8127 93.9202 55.1327 93.7902 55.4627 93.6902C55.7427 93.6102 55.9827 93.7802 55.9627 94.0602C55.9427 94.3002 55.8527 94.5402 55.8027 94.7602C55.476 94.8268 55.116 94.6768 54.7227 94.3102L54.7227 94.3202Z" clip-rule="evenodd" fill-rule="evenodd"></path>
<path fill="#201C1A" d="M66.4721 86.3902C66.9121 86.6002 67.0821 86.8602 66.9821 87.3002C66.8821 87.3202 66.7821 87.3402 66.6921 87.3702C66.2787 87.4769 65.8887 87.3735 65.5221 87.0602C65.5021 86.8702 65.6021 86.7702 65.7821 86.7702C66.0821 86.7702 66.3321 86.7202 66.4821 86.4002L66.4721 86.3902Z" clip-rule="evenodd" fill-rule="evenodd"></path>
<path fill="#201C1A" d="M48.6125 93.7402C48.6125 93.9902 48.6325 94.1902 48.6125 94.3902C48.5825 94.6302 48.3225 94.7602 48.0925 94.6502C47.8425 94.5402 47.6025 94.4202 47.3125 94.2802C47.4925 94.0602 47.6725 93.8102 47.8925 93.5902C47.9625 93.5202 48.1325 93.5102 48.2425 93.5302C48.3625 93.5502 48.4625 93.6402 48.6225 93.7302L48.6125 93.7402Z" clip-rule="evenodd" fill-rule="evenodd"></path>
<path fill="#201C1A" d="M70.1418 97.3501C70.2818 97.6901 70.4018 98.0001 70.5218 98.2801C70.2918 98.6301 69.9818 98.5601 69.6918 98.4801C69.6118 98.4601 69.5318 98.3501 69.5018 98.2601C69.4618 98.1401 69.4718 98.0101 69.4718 97.8801C69.4718 97.4501 69.5618 97.3801 70.1418 97.3401L70.1418 97.3501Z" clip-rule="evenodd" fill-rule="evenodd"></path>
<path fill="#201C1A" d="M56.8224 96.6202C56.7824 96.5602 56.7224 96.5002 56.6924 96.4402C56.4824 95.9502 56.7524 95.5302 57.2924 95.5102C57.5524 95.5002 57.8124 95.9202 57.7024 96.1902C57.6224 96.3902 57.5124 96.5402 57.2724 96.5602C57.1224 96.5702 56.9724 96.6002 56.8124 96.6302L56.8224 96.6202Z" clip-rule="evenodd" fill-rule="evenodd"></path>
<path fill="#201C1A" d="M49.4514 95.8502C49.7314 95.4702 50.0114 95.3902 50.3614 95.6102C50.3914 95.8102 50.4314 96.0002 50.4514 96.2002C50.4714 96.4602 50.3714 96.6302 50.1814 96.6802C49.9414 96.7502 49.7414 96.6702 49.6314 96.4302C49.5514 96.2502 49.5114 96.0502 49.4414 95.8602L49.4514 95.8502Z" clip-rule="evenodd" fill-rule="evenodd"></path>
<path fill="#201C1A" d="M53.2228 95.4802C53.6528 95.5702 53.8728 95.8302 54.0028 96.2302C53.7428 96.4702 53.5828 96.8002 53.1528 96.8102C52.9928 96.3702 52.8628 95.9602 53.2228 95.4702L53.2228 95.4802Z" clip-rule="evenodd" fill-rule="evenodd"></path>
<path fill="#201C1A" d="M55.3613 89.9702C55.5813 90.2402 55.7413 90.4302 55.9113 90.6302C55.8713 91.0002 55.6113 91.1302 55.3013 91.1802C54.9813 91.2302 54.7813 91.0502 54.6113 90.7502C54.6713 90.6702 54.7413 90.5102 54.8213 90.5002C55.1113 90.4602 55.1913 90.2102 55.3513 89.9702L55.3613 89.9702Z" clip-rule="evenodd" fill-rule="evenodd"></path>
<path fill="#201C1A" d="M61.4627 92.0502C61.4727 92.1602 61.4827 92.2802 61.5027 92.4002C61.116 92.7069 60.7327 92.8202 60.3527 92.7402C60.1927 92.4602 60.3527 92.2702 60.5427 92.1002C60.8127 91.8602 60.8827 91.8602 61.4627 92.0502Z" clip-rule="evenodd" fill-rule="evenodd"></path>
<path fill="#201C1A" d="M56.7013 89.3102C56.6613 89.2402 56.6213 89.2002 56.6113 89.1602C56.6113 89.0302 56.6113 88.9102 56.6113 88.7902C56.6513 88.7402 56.6713 88.6802 56.7013 88.6602C56.9113 88.5302 57.1213 88.4102 57.3813 88.2602C57.3913 88.2602 57.4813 88.2602 57.5413 88.3002C57.8713 88.5502 57.9013 88.8102 57.6013 89.0402C57.3313 89.2402 57.0313 89.3402 56.7013 89.3102Z" clip-rule="evenodd" fill-rule="evenodd"></path>
<path fill="#201C1A" d="M52.2722 97.9602C52.1022 98.4502 51.6522 98.3902 51.2822 98.4802C51.0522 98.1802 51.0422 98.0902 51.2122 97.9002C51.2622 97.8402 51.3122 97.7902 51.3722 97.7402C51.7322 97.4502 51.9322 97.5002 52.2722 97.9502L52.2722 97.9602Z" clip-rule="evenodd" fill-rule="evenodd"></path>
<path fill="#201C1A" d="M54.7717 97.9502C55.2417 97.3602 55.3217 97.3402 55.8117 97.7402C55.7417 98.0202 55.6117 98.2802 55.3217 98.4902C55.0617 98.3802 54.9017 98.1702 54.7617 97.9402L54.7717 97.9502Z" clip-rule="evenodd" fill-rule="evenodd"></path>
<path fill="#201C1A" d="M67.9628 95.8802C68.2028 95.8102 68.4128 95.7502 68.6728 95.6702C68.6728 95.9502 68.7028 96.1802 68.6728 96.4002C68.6528 96.5602 68.5428 96.6702 68.3628 96.6902C68.1728 96.7102 67.9828 96.6102 67.9528 96.4302C67.9228 96.2602 67.9528 96.0802 67.9528 95.8802L67.9628 95.8802Z" clip-rule="evenodd" fill-rule="evenodd"></path>
<path fill="#201C1A" d="M67.9123 92.7302C68.1123 92.5202 68.2623 92.3602 68.4323 92.1802C68.7223 92.2902 68.8523 92.4602 68.8523 92.7502C68.8523 92.9102 68.8023 93.0502 68.6423 93.1302C68.4923 93.2002 68.3423 93.1802 68.2223 93.0702C68.1323 92.9902 68.0523 92.8902 67.9023 92.7302L67.9123 92.7302Z" clip-rule="evenodd" fill-rule="evenodd"></path>
<path fill="#201C1A" d="M66.9416 94.7902C66.6416 94.8102 66.3716 94.8402 66.1016 94.8402C65.9616 94.8402 65.8916 94.7402 65.9116 94.5402C66.1116 94.5402 66.3116 94.5602 66.4816 94.5002C66.6216 94.4502 66.7316 94.2802 66.8516 94.1602C66.9449 94.3202 66.9749 94.5268 66.9416 94.7802L66.9416 94.7902Z" clip-rule="evenodd" fill-rule="evenodd"></path>
<path fill="#201C1A" d="M60.992 95.5702C61.222 95.7002 61.382 95.8602 61.292 96.2002C61.012 96.2502 60.752 96.3002 60.502 96.1202C60.662 95.8002 60.652 95.8002 60.992 95.5702Z" clip-rule="evenodd" fill-rule="evenodd"></path>
<path fill="#201C1A" d="M66.3222 93.9902C66.2222 94.0202 66.1422 94.0502 66.0622 94.0702C66.0422 94.0702 65.9922 94.0002 65.9922 93.9602C66.0222 93.8502 66.1022 93.8002 66.2222 93.8302C66.2522 93.8402 66.2722 93.9002 66.3222 93.9902Z" clip-rule="evenodd" fill-rule="evenodd"></path>
</g>
<path fill="#FFFEFB" d="M62.3948 48.8987L60.1152 48.8032L59.9387 53.0152L62.2183 53.1107L62.3948 48.8987Z"></path>
<path stroke-linejoin="round" stroke-linecap="round" stroke="#201C1A" d="M62.3948 48.8987L60.1152 48.8032L59.9387 53.0152L62.2183 53.1107L62.3948 48.8987Z"></path>
<path stroke-linejoin="round" stroke-linecap="round" stroke="#201C1A" d="M59.942 78.3929C57.4369 78.289 53.6959 76.9971 53.7147 71.3015C53.7323 66.273 56.2493 59.644 59.6611 52.9945"></path>
<path stroke-linejoin="round" stroke-linecap="round" stroke="#201C1A" d="M59.9421 78.3931C58.4845 78.3265 56.2114 77.1454 56.3252 71.4589C56.4199 66.4282 58.1136 59.7256 60.2251 53.0196"></path>
<path stroke-linejoin="round" stroke-linecap="round" stroke="#201C1A" d="M59.944 78.3942C59.5374 78.3795 58.7287 77.2946 58.9343 71.6025C59.1094 66.5841 59.991 59.7899 60.7876 53.0308"></path>
<path stroke-linejoin="round" stroke-linecap="round" stroke="#201C1A" d="M59.942 78.391C62.4506 78.5096 66.2909 77.5455 66.7638 71.8691C67.1733 66.8587 65.2553 60.0285 62.4335 53.1124"></path>
<path stroke-linejoin="round" stroke-linecap="round" stroke="#201C1A" d="M59.9428 78.3906C61.4004 78.4573 63.7639 77.4774 64.1563 71.7886C64.4888 66.7805 63.3919 59.9468 61.885 53.0837"></path>
<path stroke-linejoin="round" stroke-linecap="round" stroke="#201C1A" d="M59.9416 78.3902C60.3482 78.4049 61.2496 77.4059 61.5322 71.7114C61.7843 66.6908 61.5084 59.8537 61.3051 53.0619"></path>
<path fill="#FFFEFB" d="M61.8029 16.3348C61.4099 16.9837 61.2571 17.7324 61.2221 18.4538C60.8073 28.2107 59.9351 37.9337 59.4818 47.7925C59.4502 48.5287 60.2317 49.2942 61.0642 49.4742C61.6191 49.5942 62.5364 49.1343 62.8229 48.696C63.1094 48.2577 63.1592 47.7344 63.2158 47.2406C64.0711 37.8472 64.6161 28.5875 65.4714 19.1941C65.5654 18.2575 65.7294 16.6843 64.9037 15.929C63.9988 15.0989 62.3555 15.3698 61.7881 16.3382L61.8029 16.3348Z"></path>
<path stroke-linejoin="round" stroke-linecap="round" stroke="#201C1A" d="M61.8266 16.6378C61.4336 17.2868 61.2774 18.0207 61.2424 18.7422C60.8073 28.4107 59.9327 38.0567 59.4738 47.8238C59.4388 48.5452 60.235 49.3073 61.0527 49.4907C61.6077 49.6107 62.525 49.1508 62.8115 48.7125C63.098 48.2742 63.1512 47.7657 63.2078 47.2719C64.0687 37.9702 64.6308 28.7841 65.4918 19.4824C65.5709 18.5492 65.7531 16.9874 64.9308 16.2468C64.0259 15.4167 62.386 15.7023 61.8152 16.6559L61.8266 16.6378Z"></path>
<path stroke-linejoin="round" stroke-linecap="round" stroke="#201C1A" d="M42.6602 69.9764C44.5742 70.7441 47.4136 71.2207 49.9844 70.9373C52.7795 70.6176 55.1431 70.041 57.4375 68.8289C60.8791 67.0109 63.878 65.7603 67.3854 65.3692C68.8543 65.2162 70.338 65.4629 71.8035 65.6984"></path>
<path stroke-linejoin="round" stroke-linecap="round" stroke="#201C1A" d="M50.373 77.6522C52.0155 80.8707 57.7474 81.92 60.3591 81.8133"></path>
<path stroke-linejoin="round" stroke-linecap="round" stroke="#201C1A" d="M54.1113 85.1039C56.3414 86.0312 58.7436 86.5622 61.157 86.6718"></path>
<path stroke-linejoin="round" stroke-linecap="round" stroke="#201C1A" d="M67.7416 52.6604C67.6601 53.1134 67.2003 53.4057 66.7722 53.5665C65.5389 54.0684 64.2014 54.2531 62.8718 54.405C58.3904 54.9434 53.8829 55.3017 49.3754 55.4584C47.116 55.5458 44.8577 55.5709 42.6073 55.5632C41.9878 55.5667 38.2119 55.8026 37.5176 54.6758"></path>
</svg>
