<svg xmlns="http://www.w3.org/2000/svg" fill="none" viewBox="0 0 119 119" height="119" width="119">
<circle stroke-linecap="round" stroke="#201C1A" fill="#CCE3FF" r="59" cy="59.5" cx="59.5"></circle>
<path fill="#FFFEFB" d="M47.7175 90.6364C43.9946 91.0214 40.8153 91.1727 38.6686 87.6115C37.1061 85.0128 35.8153 82.1665 35.5979 79.1278C35.5164 78.0416 35.5979 76.9141 35.9919 75.8966C36.6033 74.3292 37.962 73.1467 39.4838 72.4592C41.0055 71.7717 42.6903 71.538 44.3479 71.4417L45.0952 74.8654C43.6821 74.9617 42.174 75.0992 41.1006 76.0341C40.0137 76.9829 39.6468 78.5779 39.8099 80.0216C40.0408 81.9878 40.8696 83.8853 42.0381 85.4665C43.2202 87.0752 45.0952 87.0615 46.9294 86.9102L47.7175 90.6227V90.6364Z"></path>
<path stroke-linejoin="round" stroke-linecap="round" stroke="#201C1A" d="M47.7175 90.6364C43.9946 91.0214 40.8153 91.1727 38.6686 87.6115C37.1061 85.0128 35.8153 82.1665 35.5979 79.1278C35.5164 78.0416 35.5979 76.9141 35.9919 75.8966C36.6033 74.3292 37.962 73.1467 39.4838 72.4592C41.0055 71.7717 42.6903 71.538 44.3479 71.4417L45.0952 74.8654C43.6821 74.9617 42.174 75.0992 41.1006 76.0341C40.0137 76.9829 39.6468 78.5779 39.8099 80.0216C40.0408 81.9878 40.8696 83.8853 42.0381 85.4665C43.2202 87.0752 45.0952 87.0615 46.9294 86.9102L47.7175 90.6227V90.6364Z"></path>
<path fill="#FFFEFB" d="M79.4161 65.9693C78.9678 72.2942 77.8401 79.7191 76.5901 86.4152C76.2368 88.3264 75.8564 90.2239 75.4352 92.1214C75.0683 93.7989 74.8917 95.3113 73.6824 96.6313C72.1199 98.3225 66.9026 99.5875 61.7939 99.395C54.8102 99.12 50.0004 97.6763 48.7911 96.0126C47.9216 94.8163 47.6363 93.2626 47.283 91.8464C46.8754 90.2239 46.5085 88.5877 46.1689 86.9377C45.5031 83.6515 44.9732 80.3378 44.5928 77.0104C44.1716 73.3529 44.0357 69.338 43.9678 65.6393"></path>
<mask height="14" width="27" y="86" x="45" maskUnits="userSpaceOnUse" style="mask-type:alpha" id="mask0_10021_745764">
<path stroke-linecap="round" stroke="black" fill="#D9D9D9" d="M52.5 93.3125C50.125 92.0625 47.1458 88.5 46.0625 86.25C46.7292 89.875 47.7774 94.8155 49.125 96.5C49.6067 97.1021 53.3125 98.3125 56.5625 98.9375C61.8849 99.961 69.6875 98.9375 71.4375 97.6875C71.4375 95.625 66.8066 97.4112 61.1875 96.5C56.5625 95.75 55.0859 94.6735 52.5 93.3125Z"></path>
</mask>
<g mask="url(#mask0_10021_745764)">
<path fill="#201C1A" d="M45.6348 98.21C45.7748 98.25 45.9248 98.27 46.0648 98.32C46.5148 98.5 46.6248 98.69 46.5548 99.11C46.5048 99.45 46.2448 99.62 45.7748 99.62C45.7248 99.62 45.6748 99.6 45.6348 99.59V98.21Z" clip-rule="evenodd" fill-rule="evenodd"></path>
<path fill="#201C1A" d="M45.6348 91.16C45.8848 91.18 46.1348 91.19 46.3748 91.23C46.6448 91.27 46.7748 91.54 46.6548 91.8C46.6148 91.89 46.5748 92.01 46.5048 92.05C46.2348 92.21 45.9948 92.46 45.6348 92.39V91.16Z" clip-rule="evenodd" fill-rule="evenodd"></path>
<path fill="#201C1A" d="M45.6348 94.84C45.9348 94.9 46.2348 94.97 46.4748 95.2C46.5148 95.65 46.2748 95.95 45.9248 96.19C45.8548 96.24 45.7348 96.21 45.6348 96.22V94.84Z" clip-rule="evenodd" fill-rule="evenodd"></path>
<path fill="#201C1A" d="M45.635 87.48C45.705 87.5 45.785 87.51 45.845 87.53C46.245 87.66 46.305 87.77 46.165 88.18C46.125 88.3 46.105 88.42 46.055 88.53C45.975 88.71 45.825 88.77 45.625 88.71V87.48H45.635Z" clip-rule="evenodd" fill-rule="evenodd"></path>
<path fill="#201C1A" d="M61.4251 88.13C61.3851 88.22 61.3551 88.32 61.3051 88.4C61.1051 88.76 60.6851 88.86 60.3451 88.64C60.3251 88.63 60.3051 88.61 60.2851 88.59C60.1151 88.45 59.9451 88.3 59.7851 88.17C59.7051 87.94 59.7651 87.74 59.8951 87.58C60.2051 87.15 60.5751 87.14 60.9151 87.46C61.1151 87.65 61.2451 87.89 61.4251 88.13Z" clip-rule="evenodd" fill-rule="evenodd"></path>
<path fill="#201C1A" d="M59.4452 93.77C59.1252 93.94 58.8752 94.11 58.6052 94.22C58.2752 94.35 58.0252 94.22 57.8252 93.89C57.9652 93.6 58.0952 93.3 58.2452 93.02C58.4352 92.68 58.7852 92.64 59.0652 92.91C59.1552 92.99 59.2252 93.1 59.2752 93.22C59.3452 93.38 59.3752 93.55 59.4452 93.77Z" clip-rule="evenodd" fill-rule="evenodd"></path>
<path fill="#201C1A" d="M62.4247 86.91C62.2747 86.86 62.2047 86.83 62.1347 86.81C61.6247 86.63 61.4747 86.35 61.6247 85.84C61.6647 85.68 61.7847 85.58 61.9447 85.56C62.2847 85.5 62.5947 85.54 62.8847 85.73C63.1547 85.9 63.2247 86.28 62.9847 86.51C62.8247 86.67 62.6247 86.77 62.4247 86.91Z" clip-rule="evenodd" fill-rule="evenodd"></path>
<path fill="#201C1A" d="M62.2146 94.26C61.9246 94.12 61.6946 93.93 61.7646 93.61C61.8546 93.17 61.9546 92.69 62.6146 92.64C62.7646 92.84 62.9346 93.08 63.1146 93.32C63.0446 93.55 62.9746 93.76 62.8946 94C62.6646 94.08 62.4346 94.17 62.2146 94.26Z" clip-rule="evenodd" fill-rule="evenodd"></path>
<path fill="#201C1A" d="M62.0047 89.27C62.1947 89.3 62.3947 89.33 62.5947 89.38C62.7147 89.41 62.8347 89.46 62.9447 89.52C63.1147 89.61 63.2247 89.76 63.1947 89.95C63.1647 90.15 63.0647 90.35 62.8447 90.41C62.6247 90.48 62.4047 90.53 62.1847 90.57C62.0147 90.6 61.8447 90.53 61.8047 90.38C61.7147 90.04 61.6447 89.68 61.8747 89.36C61.9047 89.32 61.9547 89.3 62.0047 89.27Z" clip-rule="evenodd" fill-rule="evenodd"></path>
<path fill="#201C1A" d="M66.7852 89.64C66.7252 89.85 66.6952 90.02 66.6252 90.18C66.5452 90.37 66.3952 90.52 66.1852 90.57C65.9052 90.64 65.5952 90.56 65.4952 90.39C65.3252 90.1 65.3252 89.78 65.5152 89.54C65.6552 89.36 65.8252 89.22 66.0852 89.21C66.4052 89.2 66.6152 89.35 66.7852 89.64Z" clip-rule="evenodd" fill-rule="evenodd"></path>
<path fill="#201C1A" d="M71.4846 99.89C71.1146 99.78 70.8746 99.53 70.6846 99.24C70.7546 98.94 71.0246 99.07 71.1846 98.96C71.3046 98.79 71.4246 98.6 71.5646 98.4C71.6846 98.43 71.7846 98.44 71.8646 98.49C72.3346 98.73 72.3946 99.25 71.9846 99.57C71.8346 99.69 71.6446 99.78 71.4846 99.88V99.89Z" clip-rule="evenodd" fill-rule="evenodd"></path>
<path fill="#201C1A" d="M69.7252 90.75C69.3352 90.5 69.4052 90.04 69.0752 89.81C69.1452 89.66 69.1752 89.54 69.2452 89.44C69.4352 89.14 69.6152 89.09 69.9352 89.25C70.0252 89.29 70.1152 89.34 70.1952 89.4C70.5152 89.65 70.5552 90.11 70.2652 90.39C70.1252 90.53 69.9352 90.62 69.7252 90.76V90.75Z" clip-rule="evenodd" fill-rule="evenodd"></path>
<path fill="#201C1A" d="M71.8653 87.32C72.0053 87.46 72.1553 87.62 72.3153 87.78C72.2653 87.95 72.2253 88.09 72.1753 88.23C72.0553 88.57 71.9853 88.64 71.6253 88.54C71.3653 88.47 71.0453 88.7 70.8253 88.24C70.8253 88.22 70.8053 88.07 70.8153 87.92C70.8253 87.72 70.9553 87.6 71.1353 87.55C71.3653 87.48 71.6053 87.41 71.8753 87.32H71.8653Z" clip-rule="evenodd" fill-rule="evenodd"></path>
<path fill="#201C1A" d="M53.1946 98.27C53.3246 98.37 53.5246 98.45 53.5846 98.58C53.7146 98.87 53.8546 99.19 53.7446 99.53C53.6946 99.69 53.5646 99.78 53.4046 99.78C52.9646 99.78 52.6146 99.62 52.4746 99.11C52.6746 98.86 52.7646 98.5 53.2046 98.27H53.1946Z" clip-rule="evenodd" fill-rule="evenodd"></path>
<path fill="#201C1A" d="M66.2455 96.34C66.4355 96.72 66.6255 97.09 66.8255 97.47C66.4955 97.86 66.0955 97.83 65.6955 97.76C65.5255 97.73 65.4155 97.53 65.4555 97.34C65.4855 97.22 65.5455 97.1 65.5755 96.98C65.6855 96.51 65.6855 96.51 66.2455 96.34Z" clip-rule="evenodd" fill-rule="evenodd"></path>
<path fill="#201C1A" d="M69.6048 92.83C69.9148 92.8 70.1448 92.93 70.3448 93.15C70.4548 93.27 70.5048 93.41 70.4548 93.57C70.4248 93.67 70.3748 93.76 70.3448 93.85C70.2248 94.2 70.0948 94.3 69.8148 94.26C69.4948 94.22 69.2848 94 69.2948 93.64C69.2948 93.5 69.2748 93.42 69.2048 93.3C69.0648 93.08 69.1548 92.9 69.3748 92.85C69.4448 92.83 69.5248 92.83 69.5948 92.82L69.6048 92.83Z" clip-rule="evenodd" fill-rule="evenodd"></path>
<path fill="#201C1A" d="M67.1047 99.3C67.1847 99.07 67.2447 98.88 67.3147 98.67C67.5247 98.57 67.7447 98.46 67.9947 98.33C68.1947 98.54 68.5447 98.68 68.4547 99.05C68.3747 99.37 68.2247 99.69 67.8447 99.77C67.4847 99.85 67.2747 99.64 67.0947 99.3H67.1047Z" clip-rule="evenodd" fill-rule="evenodd"></path>
<path fill="#201C1A" d="M63.4746 95.36C63.7746 94.9667 64.2413 94.7233 64.8746 94.63C65.0846 95.13 64.9746 95.54 64.5646 95.87C63.9946 96.05 63.8746 95.48 63.4746 95.36Z" clip-rule="evenodd" fill-rule="evenodd"></path>
<path fill="#201C1A" d="M69.2855 85.47C69.6855 85.55 70.1155 85.46 70.4555 85.81C70.4555 85.93 70.4955 86.09 70.4755 86.23C70.4455 86.49 70.2355 86.7 69.9855 86.74C69.7355 86.78 69.5455 86.7 69.4155 86.47C69.3455 86.34 69.2255 86.23 69.1655 86.09C69.0755 85.9 69.0655 85.7 69.2855 85.47Z" clip-rule="evenodd" fill-rule="evenodd"></path>
<path fill="#201C1A" d="M64.7545 87.61C64.8212 88.15 64.6345 88.5233 64.1945 88.73C64.1245 88.7 64.0345 88.65 63.9445 88.62C63.6545 88.52 63.5945 88.3 63.6045 88.02C63.6045 87.73 63.7745 87.55 64.0045 87.43C64.0845 87.39 64.2045 87.4 64.2945 87.43C64.4545 87.48 64.6145 87.56 64.7645 87.62L64.7545 87.61Z" clip-rule="evenodd" fill-rule="evenodd"></path>
<path fill="#201C1A" d="M71.6352 90.87C71.8552 91.13 72.0352 91.34 72.2452 91.6C72.2252 92.09 71.7752 92.19 71.3652 92.37C71.2652 92.21 71.2052 92.05 71.0952 91.93C70.9952 91.82 70.8552 91.76 70.7452 91.69C70.7152 91.5 70.8252 91.45 70.9352 91.37C71.1452 91.23 71.3452 91.08 71.6352 90.87Z" clip-rule="evenodd" fill-rule="evenodd"></path>
<path fill="#201C1A" d="M64.3454 98.13C64.5954 98.25 64.7654 98.38 64.8054 98.63C64.8554 98.95 64.7554 99.23 64.5754 99.48C64.4754 99.62 64.3254 99.66 64.1754 99.61C64.0354 99.56 63.8954 99.49 63.7754 99.41C63.6154 99.31 63.5754 99.14 63.6454 98.95C63.7554 98.65 63.8554 98.54 64.3554 98.13H64.3454Z" clip-rule="evenodd" fill-rule="evenodd"></path>
<path fill="#201C1A" d="M48.875 88.48C48.895 88.34 48.875 88.14 48.965 88.02C49.105 87.82 49.295 87.64 49.495 87.48C49.665 87.34 49.865 87.34 50.055 87.45C50.205 87.54 50.285 87.77 50.235 87.99C50.135 88.44 49.925 88.6 49.435 88.6C49.315 88.6 49.185 88.59 49.065 88.57C49.015 88.57 48.975 88.53 48.885 88.48H48.875Z" clip-rule="evenodd" fill-rule="evenodd"></path>
<path fill="#201C1A" d="M68.4653 87.59C68.4753 87.78 68.4853 87.91 68.4853 88.03C68.4853 88.13 68.4653 88.23 68.4653 88.33C68.1653 88.5 67.8653 88.62 67.5253 88.58C67.3653 88.57 67.2253 88.5 67.1553 88.35C67.0853 88.2 67.1453 88.06 67.2453 87.93C67.3953 87.76 67.5353 87.59 67.7253 87.37C67.9353 87.43 68.1653 87.5 68.4553 87.58L68.4653 87.59Z" clip-rule="evenodd" fill-rule="evenodd"></path>
<path fill="#201C1A" d="M63.4854 92.04C63.5254 91.83 63.5554 91.61 63.6054 91.39C63.6554 91.17 63.8254 91.05 64.0554 91.06C64.3354 91.06 64.7654 91.44 64.7954 91.72C64.7954 91.79 64.7954 91.9 64.7454 91.93C64.5654 92.05 64.3754 92.2 64.1654 92.25C63.9254 92.31 63.6554 92.33 63.4854 92.04Z" clip-rule="evenodd" fill-rule="evenodd"></path>
<path fill="#201C1A" d="M56.9552 92.28C56.7252 92.03 56.2752 92.26 56.1152 91.86C56.6252 91.04 57.0052 90.98 57.7452 91.64C57.6552 92 57.3552 92.12 56.9552 92.28Z" clip-rule="evenodd" fill-rule="evenodd"></path>
<path fill="#201C1A" d="M58.4951 85.86H59.3051C59.3551 85.92 59.4251 85.99 59.4751 86.08C59.6051 86.31 59.6751 86.56 59.4751 86.78C59.2951 86.97 59.0551 86.91 58.8251 86.89C58.7551 86.89 58.6851 86.84 58.6151 86.81C58.1751 86.63 58.1151 86.38 58.3551 86.05C58.3851 86.01 58.4151 85.97 58.4851 85.87L58.4951 85.86Z" clip-rule="evenodd" fill-rule="evenodd"></path>
<path fill="#201C1A" d="M47.0449 86.17C47.0949 86.03 47.1249 85.93 47.1649 85.84C47.3049 85.48 47.4249 85.42 47.7949 85.52C48.2049 85.63 48.2749 85.76 48.1649 86.17C48.1349 86.27 48.1149 86.36 48.0949 86.46C48.0749 86.53 48.0649 86.61 48.0449 86.69C47.9549 86.74 47.8749 86.79 47.7849 86.84C47.6549 86.91 47.5249 86.88 47.4449 86.77C47.3049 86.59 47.1949 86.39 47.0449 86.17Z" clip-rule="evenodd" fill-rule="evenodd"></path>
<path fill="#201C1A" d="M51.835 94.04C51.635 94.1 51.465 94.18 51.295 94.2C51.035 94.24 50.805 93.97 50.875 93.72C50.955 93.45 51.075 93.2 51.305 93.02C51.455 92.9 51.625 92.88 51.805 92.93C51.975 92.97 52.115 93.18 52.065 93.34C52.005 93.56 51.925 93.77 51.825 94.04H51.835Z" clip-rule="evenodd" fill-rule="evenodd"></path>
<path fill="#201C1A" d="M62.1346 97.79C62.0646 97.75 61.8946 97.7 61.8246 97.6C61.7146 97.41 61.6546 97.18 61.6046 96.96C61.5646 96.8 61.7746 96.61 61.9446 96.63C62.1646 96.66 62.3946 96.7 62.6146 96.74C62.7646 96.77 62.9146 96.98 62.9046 97.14C62.8846 97.53 62.6146 97.78 62.1346 97.79Z" clip-rule="evenodd" fill-rule="evenodd"></path>
<path fill="#201C1A" d="M58.3454 90.48C58.3054 90.13 58.2654 89.82 58.2354 89.53C58.4754 89.26 58.7154 89.25 59.0154 89.35C59.2454 89.43 59.3354 89.59 59.4054 89.77C59.4354 89.85 59.4454 90 59.4054 90.06C59.2754 90.21 59.1254 90.34 58.9654 90.46C58.7954 90.58 58.6054 90.65 58.3554 90.48H58.3454Z" clip-rule="evenodd" fill-rule="evenodd"></path>
<path fill="#201C1A" d="M48.3849 97.5C47.8149 97.69 47.3949 97.38 46.9249 97.28C46.8249 96.97 47.0349 96.79 47.1149 96.58C47.9749 96.39 47.8949 96.3 48.2149 97.12C48.2549 97.23 48.3049 97.34 48.3749 97.5H48.3849Z" clip-rule="evenodd" fill-rule="evenodd"></path>
<path fill="#201C1A" d="M48.8945 91.52C49.1245 91.05 49.4745 90.97 49.9245 91.12C50.0245 91.37 50.1245 91.62 50.2345 91.89C50.1545 91.98 50.0845 92.09 49.9845 92.16C49.6845 92.36 49.4045 92.31 49.2045 92.02C49.0945 91.86 48.9945 91.68 48.9045 91.52H48.8945Z" clip-rule="evenodd" fill-rule="evenodd"></path>
<path fill="#201C1A" d="M53.2355 92.4C53.1155 92.31 52.9555 92.23 52.8555 92.1C52.7455 91.97 52.6855 91.79 52.6155 91.63C52.4955 91.34 52.6855 91.06 52.9955 91.06C53.2655 91.06 53.4855 91.18 53.6655 91.36C53.7355 91.43 53.7555 91.59 53.7455 91.71C53.7255 91.89 53.5455 92.1 53.2355 92.4Z" clip-rule="evenodd" fill-rule="evenodd"></path>
<path fill="#201C1A" d="M59.0448 96.58C59.1748 96.82 59.2948 97.04 59.3948 97.23C59.3248 97.65 59.0648 97.83 58.6748 97.93C58.5148 97.75 58.3348 97.54 58.1348 97.3C58.2948 97.08 58.3648 96.8 58.6048 96.65C58.7148 96.58 58.8848 96.61 59.0548 96.59L59.0448 96.58Z" clip-rule="evenodd" fill-rule="evenodd"></path>
<path fill="#201C1A" d="M55.5445 86.63C54.8745 86.86 54.7245 86.32 54.3945 86.07C54.4945 85.69 54.8445 85.63 55.0745 85.45C55.2645 85.3 55.5645 85.45 55.5945 85.7C55.6245 86 55.6545 86.3 55.5545 86.63H55.5445Z" clip-rule="evenodd" fill-rule="evenodd"></path>
<path fill="#201C1A" d="M47.6451 89.07C47.7651 89.22 47.8751 89.35 47.9851 89.49C48.3951 89.99 48.3651 90.16 47.7851 90.57C47.4251 90.37 47.1451 90.12 47.1751 89.64C47.1951 89.36 47.2351 89.13 47.6451 89.07Z" clip-rule="evenodd" fill-rule="evenodd"></path>
<path fill="#201C1A" d="M51.9152 86.16C51.7752 86.62 51.4152 86.68 51.0752 86.74C50.9152 86.77 50.6952 86.55 50.7352 86.4C50.8352 86.07 50.8352 85.69 51.2152 85.48C51.6352 85.48 51.7952 85.79 51.9252 86.16H51.9152Z" clip-rule="evenodd" fill-rule="evenodd"></path>
<path fill="#201C1A" d="M53.7446 88.35C53.4746 88.49 53.2446 88.6 53.0246 88.72C52.8146 88.68 52.6746 88.56 52.6346 88.32C52.5946 88.07 52.6946 87.88 52.9046 87.74C53.0646 87.63 53.2146 87.5 53.4046 87.36C53.5546 87.45 53.6946 87.55 53.8646 87.66C53.8346 87.79 53.8146 87.91 53.7946 88.03C53.7746 88.13 53.7646 88.23 53.7546 88.35H53.7446Z" clip-rule="evenodd" fill-rule="evenodd"></path>
<path fill="#201C1A" d="M51.2554 90.18C51.1054 90.22 50.9854 90.14 50.9754 90.01C50.9554 89.81 51.0054 89.61 51.0154 89.43C51.2154 89.26 51.4354 89.14 51.6554 89.27C51.8654 89.39 52.0454 89.59 52.1954 89.79C52.2454 89.86 52.2154 90.05 52.1554 90.14C52.0054 90.39 51.7454 90.5 51.4954 90.57C51.2954 90.48 51.3154 90.3 51.2354 90.18C51.3554 90.2 51.4654 90.24 51.5754 90.24C51.6154 90.24 51.6854 90.14 51.6854 90.08C51.6854 90.03 51.6254 89.95 51.5754 89.92C51.5254 89.9 51.4254 89.91 51.3854 89.95C51.3254 90.01 51.2854 90.11 51.2454 90.2L51.2554 90.18Z" clip-rule="evenodd" fill-rule="evenodd"></path>
<path fill="#201C1A" d="M54.3555 93.57C54.4455 93.17 54.7655 93.04 55.0955 92.94C55.3755 92.86 55.6155 93.03 55.5955 93.31C55.5755 93.55 55.4855 93.79 55.4355 94.01C55.1088 94.0766 54.7488 93.9266 54.3555 93.56V93.57Z" clip-rule="evenodd" fill-rule="evenodd"></path>
<path fill="#201C1A" d="M72.0946 94.76C72.1846 94.95 72.2546 95.08 72.3346 95.23C72.2046 95.37 72.1046 95.52 71.9746 95.63C71.7746 95.82 71.4446 95.86 71.2746 95.72C71.0946 95.57 70.9846 95.37 71.0646 95.12C71.0946 95.03 71.1146 94.93 71.1546 94.82C71.4546 94.68 71.7546 94.74 72.0946 94.76Z" clip-rule="evenodd" fill-rule="evenodd"></path>
<path fill="#201C1A" d="M66.1049 85.64C66.5449 85.85 66.7149 86.11 66.6149 86.55C66.5149 86.57 66.4149 86.59 66.3249 86.62C65.9115 86.7267 65.5215 86.6233 65.1549 86.31C65.1349 86.12 65.2349 86.02 65.4149 86.02C65.7149 86.02 65.9649 85.97 66.1149 85.65L66.1049 85.64Z" clip-rule="evenodd" fill-rule="evenodd"></path>
<path fill="#201C1A" d="M48.2453 92.99C48.2453 93.24 48.2653 93.44 48.2453 93.64C48.2153 93.88 47.9553 94.01 47.7253 93.9C47.4753 93.79 47.2353 93.67 46.9453 93.53C47.1253 93.31 47.3053 93.06 47.5253 92.84C47.5953 92.77 47.7653 92.76 47.8753 92.78C47.9953 92.8 48.0953 92.89 48.2553 92.98L48.2453 92.99Z" clip-rule="evenodd" fill-rule="evenodd"></path>
<path fill="#201C1A" d="M69.7746 96.6C69.9146 96.94 70.0346 97.25 70.1546 97.53C69.9246 97.88 69.6146 97.81 69.3246 97.73C69.2446 97.71 69.1646 97.6 69.1346 97.51C69.0946 97.39 69.1046 97.26 69.1046 97.13C69.1046 96.7 69.1946 96.63 69.7746 96.59V96.6Z" clip-rule="evenodd" fill-rule="evenodd"></path>
<path fill="#201C1A" d="M56.4552 95.87C56.4152 95.81 56.3552 95.75 56.3252 95.69C56.1152 95.2 56.3852 94.78 56.9252 94.76C57.1852 94.75 57.4452 95.17 57.3352 95.44C57.2552 95.64 57.1452 95.79 56.9052 95.81C56.7552 95.82 56.6052 95.85 56.4452 95.88L56.4552 95.87Z" clip-rule="evenodd" fill-rule="evenodd"></path>
<path fill="#201C1A" d="M49.0852 95.1C49.3652 94.72 49.6452 94.64 49.9952 94.86C50.0252 95.06 50.0652 95.25 50.0852 95.45C50.1052 95.71 50.0052 95.88 49.8152 95.93C49.5752 96 49.3752 95.92 49.2652 95.68C49.1852 95.5 49.1452 95.3 49.0752 95.11L49.0852 95.1Z" clip-rule="evenodd" fill-rule="evenodd"></path>
<path fill="#201C1A" d="M52.8547 94.73C53.2847 94.82 53.5047 95.08 53.6347 95.48C53.3747 95.72 53.2147 96.05 52.7847 96.06C52.6247 95.62 52.4947 95.21 52.8547 94.72V94.73Z" clip-rule="evenodd" fill-rule="evenodd"></path>
<path fill="#201C1A" d="M54.9951 89.22C55.2151 89.49 55.3751 89.68 55.5451 89.88C55.5051 90.25 55.2451 90.38 54.9351 90.43C54.6151 90.48 54.4151 90.3 54.2451 90C54.3051 89.92 54.3751 89.76 54.4551 89.75C54.7451 89.71 54.8251 89.46 54.9851 89.22H54.9951Z" clip-rule="evenodd" fill-rule="evenodd"></path>
<path fill="#201C1A" d="M60.6046 98.42C60.6646 98.44 60.7446 98.45 60.7946 98.5C60.9946 98.7 61.1346 98.93 61.1246 99.23C61.1246 99.45 60.8546 99.64 60.6446 99.55C60.5046 99.49 60.3846 99.4 60.2646 99.31C60.1246 99.2 60.0046 99.05 60.0946 98.85C60.1846 98.64 60.3446 98.48 60.6046 98.43V98.42Z" clip-rule="evenodd" fill-rule="evenodd"></path>
<path fill="#201C1A" d="M61.0955 91.3C61.1055 91.41 61.1155 91.53 61.1355 91.65C60.7488 91.9567 60.3655 92.07 59.9855 91.99C59.8255 91.71 59.9855 91.52 60.1755 91.35C60.4455 91.11 60.5155 91.11 61.0955 91.3Z" clip-rule="evenodd" fill-rule="evenodd"></path>
<path fill="#201C1A" d="M56.3351 88.56C56.2951 88.49 56.2551 88.45 56.2451 88.41C56.2451 88.28 56.2451 88.16 56.2451 88.04C56.2851 87.99 56.3051 87.93 56.3351 87.91C56.5451 87.78 56.7551 87.66 57.0151 87.51C57.0251 87.51 57.1151 87.51 57.1751 87.55C57.5051 87.8 57.5351 88.06 57.2351 88.29C56.9651 88.49 56.6651 88.59 56.3351 88.56Z" clip-rule="evenodd" fill-rule="evenodd"></path>
<path fill="#201C1A" d="M49.5251 98.52C49.7518 98.6 49.9318 98.7734 50.0651 99.04C49.9851 99.39 49.7651 99.56 49.3851 99.55C48.8751 99.13 48.8751 99.09 49.5251 98.52Z" clip-rule="evenodd" fill-rule="evenodd"></path>
<path fill="#201C1A" d="M51.905 97.21C51.735 97.7 51.285 97.64 50.915 97.73C50.685 97.43 50.675 97.34 50.845 97.15C50.895 97.09 50.945 97.04 51.005 96.99C51.365 96.7 51.565 96.75 51.905 97.2V97.21Z" clip-rule="evenodd" fill-rule="evenodd"></path>
<path fill="#201C1A" d="M54.4045 97.2C54.8745 96.61 54.9545 96.59 55.4445 96.99C55.3745 97.27 55.2445 97.53 54.9545 97.74C54.6945 97.63 54.5345 97.42 54.3945 97.19L54.4045 97.2Z" clip-rule="evenodd" fill-rule="evenodd"></path>
<path fill="#201C1A" d="M57.035 98.28C57.2683 98.4934 57.395 98.7167 57.415 98.95C57.175 99.05 56.915 99.15 56.665 99.26C56.645 99.26 56.615 99.26 56.545 99.26C56.495 99.03 56.445 98.8 56.375 98.53C56.605 98.44 56.805 98.36 57.025 98.27L57.035 98.28Z" clip-rule="evenodd" fill-rule="evenodd"></path>
<path fill="#201C1A" d="M67.5946 95.13C67.8346 95.06 68.0446 95 68.3046 94.92C68.3046 95.2 68.3346 95.43 68.3046 95.65C68.2846 95.81 68.1746 95.92 67.9946 95.94C67.8046 95.96 67.6146 95.86 67.5846 95.68C67.5546 95.51 67.5846 95.33 67.5846 95.13H67.5946Z" clip-rule="evenodd" fill-rule="evenodd"></path>
<path fill="#201C1A" d="M67.5452 91.98C67.7452 91.77 67.8952 91.61 68.0652 91.43C68.3552 91.54 68.4852 91.71 68.4852 92C68.4852 92.16 68.4352 92.3 68.2752 92.38C68.1252 92.45 67.9752 92.43 67.8552 92.32C67.7652 92.24 67.6852 92.14 67.5352 91.98H67.5452Z" clip-rule="evenodd" fill-rule="evenodd"></path>
<path fill="#201C1A" d="M66.5754 94.04C66.2754 94.06 66.0054 94.09 65.7354 94.09C65.5954 94.09 65.5254 93.99 65.5454 93.79C65.7454 93.79 65.9454 93.81 66.1154 93.75C66.2554 93.7 66.3654 93.53 66.4854 93.41C66.5787 93.57 66.6087 93.7766 66.5754 94.03V94.04Z" clip-rule="evenodd" fill-rule="evenodd"></path>
<path fill="#201C1A" d="M60.6248 94.82C60.8548 94.95 61.0148 95.11 60.9248 95.45C60.6448 95.5 60.3848 95.55 60.1348 95.37C60.2948 95.05 60.2848 95.05 60.6248 94.82Z" clip-rule="evenodd" fill-rule="evenodd"></path>
<path fill="#201C1A" d="M65.955 93.24C65.855 93.27 65.775 93.3 65.695 93.32C65.675 93.32 65.625 93.25 65.625 93.21C65.655 93.1 65.735 93.05 65.855 93.08C65.885 93.09 65.905 93.15 65.955 93.24Z" clip-rule="evenodd" fill-rule="evenodd"></path>
</g>
<path stroke-linejoin="round" stroke-linecap="round" stroke="#201C1A" d="M79.4161 65.9693C78.9678 72.2942 77.8401 79.7191 76.5901 86.4152C76.2368 88.3264 75.8564 90.2239 75.4352 92.1214C75.0683 93.7989 74.8917 95.3113 73.6824 96.6313C72.1199 98.3225 66.9026 99.5875 61.7939 99.395C54.8102 99.12 50.0004 97.6763 48.7911 96.0126C47.9216 94.8163 47.6363 93.2626 47.283 91.8464C46.8754 90.2239 46.5085 88.5877 46.1689 86.9377C45.5031 83.6515 44.9732 80.3378 44.5928 77.0104C44.1716 73.3529 44.0357 69.338 43.9678 65.6393"></path>
<path fill="#FFFEFB" d="M43.9814 65.6393C43.9814 67.3168 45.5168 69.5167 61.9706 70.053C76.8619 70.548 79.4162 67.7018 79.4162 65.9555C79.4162 62.7243 66.0467 61.8031 60.9787 61.8031C48.3836 61.8031 43.9814 63.3156 43.9814 65.6393Z"></path>
<mask height="10" width="37" y="61" x="43" maskUnits="userSpaceOnUse" style="mask-type:alpha" id="mask1_10021_745764">
<path fill="#FFFCF8" d="M43.9814 65.6393C43.9814 67.3168 45.5168 69.5167 61.9706 70.053C76.8619 70.548 79.4162 67.7018 79.4162 65.9555C79.4162 62.7243 66.0467 61.8031 60.9787 61.8031C48.3836 61.8031 43.9814 63.3156 43.9814 65.6393Z"></path>
</mask>
<g mask="url(#mask1_10021_745764)">
<path fill="#201C1A" d="M57.2237 67.2987C57.0137 67.1787 56.8937 67.0087 56.8737 66.7487C56.8637 66.4487 56.9737 66.1987 57.1637 65.9787C57.3137 65.7987 57.5337 65.8387 57.7337 65.8487C58.0537 65.8587 58.4437 66.1587 58.5337 66.4587C58.6137 66.6887 58.5337 66.9387 58.3137 67.0487C58.1637 67.1287 57.9837 67.1787 57.8137 67.2187C57.6137 67.2587 57.4137 67.2787 57.2137 67.2987H57.2237Z" clip-rule="evenodd" fill-rule="evenodd"></path>
<path fill="#201C1A" d="M56.7032 64.6088C56.5732 65.1188 56.1632 65.2188 55.7932 65.3488C55.7032 65.3788 55.5332 65.3188 55.4632 65.2388C55.2932 65.0588 55.1732 64.8388 55.0332 64.6488C55.1032 64.2688 55.2432 63.9788 55.5232 63.7888C55.6132 63.7288 55.8032 63.6988 55.8632 63.7488C56.1732 63.9888 56.5632 64.1588 56.7032 64.6088Z" clip-rule="evenodd" fill-rule="evenodd"></path>
<path fill="#201C1A" d="M59.3238 61.8288C58.9938 61.6688 58.8838 61.4288 58.8338 61.1388C58.7838 60.8388 58.9038 60.5888 59.0438 60.3488C59.1738 60.1188 59.3738 60.0588 59.6238 60.1588C59.7638 60.2188 59.8938 60.2988 60.0338 60.3788C60.1138 60.5888 60.1838 60.8088 60.2738 61.0488C60.1938 61.1688 60.0938 61.2888 60.0438 61.4188C59.9138 61.7288 59.6038 61.7188 59.3238 61.8288Z" clip-rule="evenodd" fill-rule="evenodd"></path>
<path fill="#201C1A" d="M55.2336 67.4788C55.6236 67.2888 55.8936 67.3788 56.1636 67.6488C56.4036 67.8888 56.6436 68.1088 56.5736 68.4888C56.5636 68.5588 56.5636 68.6488 56.5136 68.7088C56.3236 68.9488 56.0336 68.9988 55.7636 69.0088C55.5836 69.0088 55.4136 68.8788 55.3336 68.6488C55.1936 68.2788 55.1636 67.9188 55.2336 67.4788Z" clip-rule="evenodd" fill-rule="evenodd"></path>
<path fill="#201C1A" d="M70.5735 69.2287C70.2535 68.9987 70.0035 68.8387 69.7635 68.6587C69.6035 68.5387 69.5535 68.3087 69.6835 68.1887C69.9635 67.9387 70.2035 67.6487 70.5735 67.5087C70.8535 67.3987 71.0235 67.4787 71.1435 67.7987C71.3535 68.3287 71.3435 68.3487 70.9435 68.7087C70.8735 68.7787 70.7735 68.8287 70.7235 68.8987C70.6735 68.9687 70.6435 69.0787 70.5835 69.2287H70.5735Z" clip-rule="evenodd" fill-rule="evenodd"></path>
<path fill="#201C1A" d="M68.8636 62.0087C69.1536 62.2587 69.4436 62.4587 69.5936 62.7787C69.3936 63.2587 68.9736 63.3787 68.5636 63.5087C68.3536 63.5687 68.1236 63.4287 68.1036 63.2287C68.0736 62.9487 68.0436 62.6787 68.1936 62.4087C68.3336 62.1587 68.5436 62.0687 68.8736 61.9987L68.8636 62.0087Z" clip-rule="evenodd" fill-rule="evenodd"></path>
<path fill="#201C1A" d="M67.9934 65.9787C68.1834 65.8487 68.3934 65.7087 68.5834 65.5787C68.7834 65.6787 68.9534 65.7387 69.0934 65.8287C69.5634 66.1387 69.5534 66.6987 69.0934 67.0087C69.0134 67.0687 68.9134 67.1087 68.8234 67.1387C68.6634 67.2087 68.4634 67.1387 68.3634 66.9887C68.2634 66.8187 68.1534 66.6487 68.0834 66.4587C68.0334 66.3187 68.0234 66.1687 67.9834 65.9587L67.9934 65.9787Z" clip-rule="evenodd" fill-rule="evenodd"></path>
<path fill="#201C1A" d="M72.4231 69.1787C72.5631 69.2587 72.6631 69.2987 72.7331 69.3687C73.6031 70.1487 73.1931 70.3887 72.4831 70.6987C72.2531 70.7987 72.0731 70.7187 71.8831 70.4987C71.7331 70.3087 71.7031 70.0487 71.8331 69.8687C71.9931 69.6487 72.1831 69.4487 72.4131 69.1887L72.4231 69.1787Z" clip-rule="evenodd" fill-rule="evenodd"></path>
<path fill="#201C1A" d="M71.7832 63.3488C71.7732 63.1188 71.7632 62.9788 71.7532 62.8288C71.7532 62.5688 71.7332 62.2788 72.0432 62.1988C72.3532 62.1188 72.6932 62.0788 72.9532 62.3688C73.2132 62.6488 73.2432 62.7988 73.0432 63.3488H71.7832Z" clip-rule="evenodd" fill-rule="evenodd"></path>
<path fill="#201C1A" d="M66.9331 67.5287C67.3631 67.6887 67.5131 67.9787 67.4431 68.3887C67.4131 68.6187 67.0731 68.9887 66.8531 69.0387C66.6331 69.0887 66.4431 68.9688 66.3031 68.8288C66.1631 68.6888 66.0631 68.4987 65.9531 68.3387C66.0631 67.7687 66.5531 67.7087 66.9331 67.5287Z" clip-rule="evenodd" fill-rule="evenodd"></path>
<path fill="#201C1A" d="M46.5338 61.9387C46.8838 62.1287 47.2038 62.2887 47.3238 62.6687C47.3838 62.8587 47.3738 63.0187 47.2338 63.1587C46.9738 63.4287 46.6738 63.5787 46.2438 63.5187C46.2038 63.3787 46.1938 63.2287 46.1338 63.1087C45.8538 62.5887 46.0538 62.2387 46.5338 61.9487V61.9387Z" clip-rule="evenodd" fill-rule="evenodd"></path>
<path fill="#201C1A" d="M57.8232 69.4587C57.9432 69.6187 58.0632 69.7787 58.1932 69.9287C58.4532 70.2487 58.4432 70.3787 58.1832 70.5987C57.6532 71.0387 57.2932 70.9587 57.0032 70.3387C56.9632 70.2487 56.9232 70.1587 56.9032 70.0587C56.8532 69.8087 56.9832 69.5987 57.2232 69.5287C57.2732 69.5187 57.3232 69.5087 57.3732 69.5087C57.5232 69.4887 57.6632 69.4687 57.8432 69.4487L57.8232 69.4587Z" clip-rule="evenodd" fill-rule="evenodd"></path>
<path fill="#201C1A" d="M60.0134 68.7587C59.8034 69.0887 59.4934 69.0987 59.1434 69.0187C58.9534 68.8287 58.8434 68.5687 58.7534 68.3087C58.6434 68.0087 58.8034 67.7687 59.1234 67.6887C59.3134 67.6387 59.5134 67.6187 59.7534 67.5687C59.8134 67.6887 59.9134 67.7987 59.9434 67.9387C59.9934 68.2087 59.9934 68.4787 60.0234 68.7587H60.0134Z" clip-rule="evenodd" fill-rule="evenodd"></path>
<path fill="#201C1A" d="M75.3532 62.3287C75.6732 62.3987 75.9332 62.4387 76.1632 62.2187C76.2132 62.1787 76.3732 62.1987 76.4432 62.2387C76.6932 62.3887 76.8732 62.8587 76.7832 63.1087C76.6932 63.3287 76.5432 63.4987 76.2832 63.5287C75.7732 63.5887 75.2832 63.1587 75.2832 62.6387C75.2832 62.5687 75.3132 62.4987 75.3532 62.3287Z" clip-rule="evenodd" fill-rule="evenodd"></path>
<path fill="#201C1A" d="M65.413 70.6687C64.953 70.7087 64.693 70.5587 64.513 70.2987C64.433 70.1887 64.403 70.0087 64.423 69.8787C64.453 69.7087 64.543 69.5487 64.643 69.3987C64.783 69.1887 65.073 69.1787 65.223 69.3687C65.383 69.5587 65.533 69.7687 65.673 69.9687C65.783 70.1187 65.833 70.3187 65.723 70.4687C65.633 70.5887 65.443 70.6487 65.403 70.6687H65.413Z" clip-rule="evenodd" fill-rule="evenodd"></path>
<path fill="#201C1A" d="M51.6331 65.1887C51.3531 64.9187 51.3831 64.6587 51.5531 64.4087C51.7631 64.1187 52.0631 63.9587 52.4031 64.0287C52.6331 64.0687 52.9031 64.1587 53.0131 64.4287C52.5831 65.2287 52.5631 65.2387 51.6331 65.1887Z" clip-rule="evenodd" fill-rule="evenodd"></path>
<path fill="#201C1A" d="M79.8234 65.7288C80.0034 65.8988 80.1934 66.0688 80.3634 66.2588C80.6334 66.5888 80.5134 66.9288 80.1034 67.0788C79.8934 67.1588 79.7134 67.1488 79.5134 67.0788C79.1734 66.9488 79.0434 66.7788 79.1534 66.4488C79.2534 66.1488 79.2934 65.7788 79.8334 65.7288H79.8234Z" clip-rule="evenodd" fill-rule="evenodd"></path>
<path fill="#201C1A" d="M51.2135 66.3187C50.8835 66.6687 50.5835 66.9887 50.2535 67.3387C50.1135 67.2687 49.9835 67.1987 49.8335 67.1187C49.8335 66.9087 49.8335 66.7087 49.8335 66.5087C49.8235 66.2187 49.9835 66.0187 50.2135 65.9087C50.4735 65.7887 50.7635 65.7787 50.9835 66.0087C51.0635 66.0987 51.1335 66.1987 51.2135 66.3087V66.3187Z" clip-rule="evenodd" fill-rule="evenodd"></path>
<path fill="#201C1A" d="M70.4032 63.7987C70.6132 63.9087 70.8232 63.9987 71.0032 64.1287C71.0732 64.1787 71.1132 64.2987 71.1332 64.3887C71.1832 64.7987 70.8432 65.2587 70.4332 65.3387C70.3732 65.3487 70.2732 65.3187 70.2232 65.2787C69.9232 64.9987 69.8432 64.3687 70.0832 64.0287C70.1432 63.9387 70.2732 63.8887 70.4032 63.8087V63.7987Z" clip-rule="evenodd" fill-rule="evenodd"></path>
<path fill="#201C1A" d="M61.3429 69.5487C61.6329 69.6687 61.8929 69.7687 62.0429 70.0687C61.9829 70.1887 61.9329 70.3287 61.8529 70.4487C61.6629 70.7187 61.3629 70.8487 61.0729 70.8187C60.7529 70.7887 60.5329 70.5587 60.5029 70.2087C60.7296 69.9354 61.0129 69.7154 61.3529 69.5487H61.3429Z" clip-rule="evenodd" fill-rule="evenodd"></path>
<path fill="#201C1A" d="M77.4933 65.2087C77.3433 65.0387 77.2333 64.9187 77.1133 64.7787C77.1433 64.6687 77.1533 64.5587 77.2033 64.4787C77.3133 64.2887 77.2433 63.9387 77.5133 63.9287C77.8733 63.9287 78.2633 63.9387 78.5333 64.2687C78.7433 64.5287 78.6433 64.8287 78.3033 64.8587C78.1533 64.8687 78.0133 64.8687 77.8833 64.9787C77.7833 65.0587 77.6633 65.1087 77.4833 65.2087H77.4933Z" clip-rule="evenodd" fill-rule="evenodd"></path>
<path fill="#201C1A" d="M71.7637 66.0987C72.3103 65.9587 72.767 66.0954 73.1337 66.5087C73.0837 66.6487 73.0237 66.8087 72.9637 66.9687C72.7037 67.0487 72.4637 67.1287 72.2237 67.1887C72.0137 67.2387 71.7937 67.0887 71.7737 66.8787C71.7537 66.6287 71.7737 66.3787 71.7737 66.0887L71.7637 66.0987Z" clip-rule="evenodd" fill-rule="evenodd"></path>
<path fill="#201C1A" d="M78.0435 67.3687C78.3935 67.6287 78.7535 67.8287 78.6235 68.3287C77.7735 68.9187 77.7335 68.7787 77.1035 68.4187C77.3635 68.0287 77.6235 67.6487 78.0435 67.3687Z" clip-rule="evenodd" fill-rule="evenodd"></path>
<path fill="#201C1A" d="M69.2829 69.6387C69.2429 69.7487 69.2029 69.8187 69.2029 69.8887C69.2029 70.4587 68.8729 70.6687 68.3029 70.6787C68.2329 70.2887 67.9829 69.9187 68.1229 69.4887C68.7729 69.0987 68.7829 69.0987 69.2929 69.6387H69.2829Z" clip-rule="evenodd" fill-rule="evenodd"></path>
<path fill="#201C1A" d="M44.3436 65.1587C44.3336 64.8487 44.1936 64.5987 44.2936 64.3087C44.3936 64.0087 44.4836 63.8787 44.7236 63.8587C44.9836 63.8387 45.2836 64.0487 45.3636 64.2987C45.3636 64.3187 45.3636 64.3487 45.3736 64.3687C45.4136 65.0387 45.3936 65.2687 44.6236 65.2187C44.5536 65.2187 44.4836 65.1887 44.3436 65.1587Z" clip-rule="evenodd" fill-rule="evenodd"></path>
<path fill="#201C1A" d="M79.9633 69.4088C80.0633 69.4988 80.1833 69.5888 80.2833 69.6988C80.6033 70.0388 80.5233 70.3988 80.0933 70.5988C80.0033 70.6388 79.9033 70.6588 79.7833 70.6988C79.5933 70.5988 79.3933 70.4988 79.1933 70.3988C79.1067 69.8988 79.36 69.5721 79.9533 69.4188L79.9633 69.4088Z" clip-rule="evenodd" fill-rule="evenodd"></path>
<path fill="#201C1A" d="M60.093 64.9487C59.883 65.0287 59.743 65.0887 59.613 65.1287C59.473 65.1687 59.323 65.2187 59.173 65.2087C58.783 65.2087 58.583 64.8287 58.803 64.5087C58.993 64.2187 59.283 64.0587 59.623 64.0087C59.873 63.9687 60.073 64.1387 60.093 64.3887C60.113 64.5687 60.093 64.7387 60.093 64.9387V64.9487Z" clip-rule="evenodd" fill-rule="evenodd"></path>
<path fill="#201C1A" d="M44.2129 67.9087C44.4429 67.8287 44.6329 67.7587 44.8429 67.6887C45.1629 67.7687 45.4529 67.9087 45.6329 68.2087C45.6829 68.2987 45.6329 68.4987 45.5129 68.5287C45.2529 68.5987 45.0029 68.6887 44.7829 68.8687C44.5829 69.0187 44.2729 68.8487 44.1629 68.6087C44.0929 68.4587 44.0929 68.4487 44.2229 67.9187L44.2129 67.9087Z" clip-rule="evenodd" fill-rule="evenodd"></path>
<path fill="#201C1A" d="M64.4735 65.9087C64.7635 65.9487 65.0335 65.9687 65.3035 66.0187C65.4635 66.0487 65.5735 66.1587 65.6035 66.3287C65.6335 66.4987 65.5635 66.6287 65.4135 66.7087C65.1935 66.8287 64.9635 66.9487 64.7335 67.0387C64.5835 67.0887 64.4335 67.0387 64.3335 66.8987C64.2935 66.8387 64.2535 66.7687 64.2235 66.6987C64.0535 66.3687 64.0535 66.3187 64.3135 66.0287C64.3635 65.9787 64.4335 65.9387 64.4835 65.8987L64.4735 65.9087Z" clip-rule="evenodd" fill-rule="evenodd"></path>
<path fill="#201C1A" d="M80.4631 62.7387C80.4231 63.2987 79.8731 63.2387 79.6031 63.5487C79.4531 63.4387 79.3131 63.3487 79.1931 63.2287C78.8631 62.8887 79.0031 62.4287 79.4731 62.3387C79.8631 62.2687 80.2331 62.2887 80.4731 62.7387H80.4631Z" clip-rule="evenodd" fill-rule="evenodd"></path>
<path fill="#201C1A" d="M49.1835 65.0088C48.9035 65.0788 48.6835 65.1288 48.4435 65.1888C48.0935 65.0788 47.9735 64.7688 47.8635 64.4588C47.8035 64.2988 47.9035 64.1588 48.0435 64.0788C48.3635 63.8988 48.8535 63.9888 49.0835 64.2588C49.2735 64.4788 49.2235 64.7288 49.1835 65.0088Z" clip-rule="evenodd" fill-rule="evenodd"></path>
<path fill="#201C1A" d="M52.7133 68.2488C52.6633 68.5288 52.5533 68.7488 52.3533 68.9188C52.0633 69.1688 51.6533 69.0688 51.5833 68.6988C51.5233 68.4088 51.5533 68.0988 51.5733 67.7988C51.5733 67.7188 51.6933 67.6488 51.7833 67.5388C52.1233 67.7588 52.5233 67.8788 52.7233 68.2488H52.7133Z" clip-rule="evenodd" fill-rule="evenodd"></path>
<path fill="#201C1A" d="M48.0532 67.7587C48.2532 67.6887 48.4432 67.6087 48.6332 67.5587C48.7932 67.5187 49.0132 67.6487 49.0332 67.8187C49.0632 68.0187 49.0532 68.2187 49.0632 68.4187C49.0732 68.6787 48.9432 68.8287 48.7132 68.9387C48.4032 69.0787 48.2632 69.0387 48.1532 68.7087C48.0532 68.4287 47.9132 68.1487 48.0532 67.7687V67.7587Z" clip-rule="evenodd" fill-rule="evenodd"></path>
<path fill="#201C1A" d="M73.6437 68.4888C73.5137 68.0088 73.6737 67.6987 74.1737 67.5287C74.3737 67.6587 74.5837 67.7987 74.8137 67.9487C74.8137 68.1587 74.8237 68.3588 74.8137 68.5588C74.7937 68.7988 74.6037 68.9188 74.3737 68.8288C74.1437 68.7388 73.9237 68.6188 73.6437 68.4888Z" clip-rule="evenodd" fill-rule="evenodd"></path>
<path fill="#201C1A" d="M50.2238 70.7387C50.1738 70.7387 50.0438 70.7387 49.9238 70.6887C49.8438 70.6587 49.7338 70.5687 49.7238 70.4887C49.6938 70.3187 49.6738 70.1287 49.7138 69.9687C49.7738 69.7087 50.1238 69.4987 50.3638 69.5387C50.6238 69.5687 50.8638 69.8287 50.9038 70.1087C50.9638 70.5787 50.8038 70.7587 50.2338 70.7587L50.2238 70.7387Z" clip-rule="evenodd" fill-rule="evenodd"></path>
<path fill="#201C1A" d="M66.333 64.9187C66.363 64.6387 66.393 64.3987 66.423 64.1587C66.653 63.8587 66.923 63.8587 67.213 64.0287C67.373 64.1287 67.463 64.2587 67.463 64.4587C67.463 64.6787 67.463 64.8987 67.463 65.1387C67.023 65.2987 66.693 65.1987 66.333 64.9187Z" clip-rule="evenodd" fill-rule="evenodd"></path>
<path fill="#201C1A" d="M57.0935 62.4087C57.2435 62.3487 57.4035 62.2787 57.5635 62.2187C58.0035 62.0587 58.1135 62.2787 58.2335 62.5987C58.2735 62.7087 58.2635 62.8487 58.2535 62.9687C58.2435 63.2187 58.1235 63.3387 57.8835 63.3687C57.8135 63.3787 57.7335 63.3787 57.6535 63.3687C57.5535 63.3587 57.4535 63.3387 57.3535 63.3187C57.1535 63.0487 56.9435 62.7887 57.0835 62.3987L57.0935 62.4087Z" clip-rule="evenodd" fill-rule="evenodd"></path>
<path fill="#201C1A" d="M47.1736 66.8987C47.0536 67.0087 46.9436 67.0987 46.8536 67.1787C46.3436 67.1387 45.9936 66.9387 45.8636 66.4587C45.8136 66.2787 45.8836 66.1287 46.1536 65.8587C46.2636 65.9287 46.3836 66.0187 46.5136 66.0887C46.6436 66.1587 46.7936 66.1987 46.9336 66.2587C46.9736 66.2787 47.0136 66.3287 47.0336 66.3687C47.0836 66.5387 47.1236 66.7087 47.1836 66.8887L47.1736 66.8987Z" clip-rule="evenodd" fill-rule="evenodd"></path>
<path fill="#201C1A" d="M53.4932 70.2187C53.5232 70.1187 53.5632 69.9487 53.6232 69.7887C53.6932 69.5887 53.8032 69.3987 54.0432 69.3887C54.2732 69.3787 54.4232 69.5487 54.5232 69.7287C54.6432 69.9387 54.6332 70.1787 54.4432 70.3687C54.3032 70.5187 54.1632 70.6587 54.0032 70.7887C53.8232 70.9387 53.5832 70.8387 53.5432 70.6087C53.5232 70.5087 53.5232 70.4087 53.5032 70.2287L53.4932 70.2187Z" clip-rule="evenodd" fill-rule="evenodd"></path>
<path fill="#201C1A" d="M65.0033 63.4087C64.8433 63.2687 64.7233 63.1687 64.6133 63.0687C64.3933 62.8387 64.3533 62.6987 64.4433 62.5387C64.6033 62.2687 64.8833 62.1187 65.1333 62.1787C65.3033 62.2187 65.4733 62.3387 65.7533 62.6287C65.6033 62.9587 65.3233 63.1587 64.9933 63.4187L65.0033 63.4087Z" clip-rule="evenodd" fill-rule="evenodd"></path>
<path fill="#201C1A" d="M74.9632 64.6087C74.9232 64.6987 74.8932 64.7787 74.8632 64.8387C74.5932 65.3087 74.2832 65.3587 73.8932 64.9787C73.7532 64.8387 73.5632 64.7187 73.6332 64.4087C73.9232 64.2387 74.2732 64.1187 74.6832 64.0787C74.7832 64.2587 74.8732 64.4387 74.9632 64.5987V64.6087Z" clip-rule="evenodd" fill-rule="evenodd"></path>
<path fill="#201C1A" d="M50.2438 62.1187C50.4538 62.3587 50.6038 62.5287 50.7438 62.7087C50.9238 62.9487 50.8438 63.2087 50.5338 63.2787C50.2038 63.3587 49.8938 63.2787 49.6238 63.0887C49.5138 63.0087 49.4838 62.8487 49.5638 62.7487C49.7638 62.5387 49.9838 62.3487 50.2438 62.1187Z" clip-rule="evenodd" fill-rule="evenodd"></path>
<path fill="#201C1A" d="M62.1137 66.1687C61.7737 66.5687 61.3437 66.6487 60.9337 66.7287C60.8337 66.7487 60.7037 66.5987 60.5537 66.5087C60.8837 66.1687 61.0737 65.7787 61.5137 65.5487C61.7037 65.7387 61.8837 65.9387 62.1137 66.1787V66.1687Z" clip-rule="evenodd" fill-rule="evenodd"></path>
<path fill="#201C1A" d="M61.2133 62.1687C61.3133 62.1887 61.3633 62.1987 61.4033 62.2187C61.8833 62.4987 61.9033 63.2087 61.4433 63.4787C61.2333 63.5987 60.9233 63.4787 60.9033 63.2587C60.8733 62.9887 60.8733 62.6987 60.9233 62.4387C60.9433 62.3287 61.1233 62.2487 61.2133 62.1787V62.1687Z" clip-rule="evenodd" fill-rule="evenodd"></path>
<path fill="#201C1A" d="M63.1533 63.8687C63.6833 64.1087 63.6533 64.4987 63.6133 64.8887C63.5933 65.0787 63.3333 65.2087 63.1433 65.1487C62.7233 65.0187 62.5633 64.5487 62.8133 64.1687C62.8933 64.0487 63.0333 63.9787 63.1533 63.8687Z" clip-rule="evenodd" fill-rule="evenodd"></path>
<path fill="#201C1A" d="M75.5832 65.9587C76.0532 65.7187 76.3832 65.8888 76.6832 66.1288C76.9132 66.3188 76.8232 66.7588 76.5332 66.8788C76.4232 66.9288 76.2932 66.9488 76.1432 66.9888C75.8832 66.7088 75.7732 66.3487 75.5732 65.9587H75.5832Z" clip-rule="evenodd" fill-rule="evenodd"></path>
<path fill="#201C1A" d="M46.7635 69.6987C47.2935 69.9387 46.8735 70.3187 47.0535 70.5987C46.6235 70.7387 46.2335 70.8387 45.8635 70.5787C45.7935 70.5287 45.7135 70.4187 45.7235 70.3487C45.7235 70.2787 45.8435 70.1487 45.9035 70.1587C46.2835 70.1887 46.4535 69.8387 46.7535 69.6987H46.7635Z" clip-rule="evenodd" fill-rule="evenodd"></path>
<path fill="#201C1A" d="M75.4629 70.0987C75.7029 69.6487 76.2129 69.9387 76.5229 69.7087C76.7329 69.9687 76.6129 70.2287 76.6529 70.4687C76.5729 70.5187 76.5129 70.5587 76.4529 70.5887C75.7729 70.8287 75.7729 70.8287 75.4729 70.0987H75.4629Z" clip-rule="evenodd" fill-rule="evenodd"></path>
<path fill="#201C1A" d="M54.733 66.1987C54.573 66.5387 54.473 66.8087 54.333 67.0687C54.293 67.1387 54.173 67.1987 54.083 67.1987C53.813 67.2087 53.413 66.7387 53.453 66.4787C53.483 66.2787 53.673 66.1287 53.893 66.1687C54.043 66.1887 54.183 66.2587 54.323 66.2687C54.433 66.2787 54.553 66.2387 54.733 66.2087V66.1987Z" clip-rule="evenodd" fill-rule="evenodd"></path>
<path fill="#201C1A" d="M62.7236 68.4688C62.8036 68.3487 62.8936 68.2287 62.9536 68.0987C63.0036 67.9987 63.0036 67.8688 63.0436 67.7188C63.3136 67.8988 63.5336 68.0487 63.7436 68.1887C63.7436 68.2887 63.7636 68.3387 63.7436 68.3787C63.4436 69.0487 63.2436 69.0688 62.7336 68.4688H62.7236Z" clip-rule="evenodd" fill-rule="evenodd"></path>
<path fill="#201C1A" d="M54.7138 62.6487C54.5738 62.9287 54.3438 63.0987 54.0338 63.1787C53.7238 63.0287 53.8538 62.6787 53.6738 62.4887C54.1138 62.0187 54.2938 62.0487 54.7138 62.6487Z" clip-rule="evenodd" fill-rule="evenodd"></path>
</g>
<path fill="#78A4DD" d="M77.1872 68.4855C74.8911 69.5442 70.4209 70.328 61.9563 70.053C53.7769 69.778 49.2796 69.1042 46.834 68.2792C51.9291 64.9793 70.7334 65.3093 77.1872 68.4855Z"></path>
<path stroke-linejoin="round" stroke-linecap="round" stroke="#201C1A" d="M43.9814 65.6393C43.9814 67.3168 45.5168 69.5167 61.9706 70.053C76.8619 70.548 79.4162 67.7018 79.4162 65.9555C79.4162 62.7243 66.0467 61.8031 60.9787 61.8031C48.3836 61.8031 43.9814 63.3156 43.9814 65.6393Z"></path>
<path stroke-linejoin="round" stroke-linecap="round" stroke="#201C1A" d="M46.8066 68.293C51.8338 64.9655 70.7197 65.3093 77.2007 68.4717"></path>
<path fill="#FFFEFB" d="M62.3782 64.4843C61.9842 62.6281 59.9326 61.0331 58.0576 60.8818C54.688 60.6069 50.9923 61.5693 50.4489 59.0119C50.0141 56.9907 52.0657 55.4507 53.8592 54.7219C56.1282 53.8007 60.6255 53.8145 60.6255 52.577C60.6255 49.9508 54.2532 51.7382 50.5576 52.2057C48.4923 52.467 45.0141 53.237 43.8864 50.8858C42.9081 48.8508 43.8864 46.5821 46.3048 45.1521C48.1391 44.0659 50.2315 43.5571 52.2695 43.1171C54.3347 42.6634 60.082 41.8934 59.6472 38.6759C59.2396 35.6922 51.3728 37.4247 48.8592 37.4522C46.0195 37.4797 42.8945 37.3835 40.6527 35.3622C37.7451 32.7223 37.8538 27.7724 40.0548 24.4999C42.2559 21.2275 46.2233 19.6462 50.5576 19.5912C53.1934 19.55 54.8103 20.6225 55.0005 22.4237C55.2451 24.7612 52.0385 25.9161 49.2532 26.1911C44.1309 26.6724 44.5929 31.2511 46.2913 32.2548C47.8673 33.176 49.8646 33.286 51.6445 33.3685C56.0739 33.5748 64.0087 32.2273 64.6065 38.1122C65.0141 42.0584 62.4597 43.8734 57.6907 44.8771C54.1309 45.6196 50.3538 46.1421 50.8836 47.8058C51.6038 50.047 56.0875 46.9671 60.3945 47.8058C63.0576 48.3145 65.1228 50.1433 65.0005 52.8932C64.8918 55.3682 62.8673 56.2344 60.6934 56.6469C57.9896 57.1694 55.4353 56.5232 55.6255 58.1594C55.7478 59.2456 59.1173 58.2831 61.2913 60.3731C62.1608 61.2118 62.5548 62.0231 62.3782 64.5118V64.4843Z"></path>
<path stroke-linejoin="round" stroke-linecap="round" stroke="#201C1A" d="M62.3782 64.4843C61.9842 62.6281 59.9326 61.0331 58.0576 60.8818C54.688 60.6069 50.9923 61.5693 50.4489 59.0119C50.0141 56.9907 52.0657 55.4507 53.8592 54.7219C56.1282 53.8007 60.6255 53.8145 60.6255 52.577C60.6255 49.9508 54.2532 51.7382 50.5576 52.2057C48.4923 52.467 45.0141 53.237 43.8864 50.8858C42.9081 48.8508 43.8864 46.5821 46.3048 45.1521C48.1391 44.0659 50.2315 43.5571 52.2695 43.1171C54.3347 42.6634 60.082 41.8934 59.6472 38.6759C59.2396 35.6922 51.3728 37.4247 48.8592 37.4522C46.0195 37.4797 42.8945 37.3835 40.6527 35.3622C37.7451 32.7223 37.8538 27.7724 40.0548 24.4999C42.2559 21.2275 46.2233 19.6462 50.5576 19.5912C53.1934 19.55 54.8103 20.6225 55.0005 22.4237C55.2451 24.7612 52.0385 25.9161 49.2532 26.1911C44.1309 26.6724 44.5929 31.2511 46.2913 32.2548C47.8673 33.176 49.8646 33.286 51.6445 33.3685C56.0739 33.5748 64.0087 32.2273 64.6065 38.1122C65.0141 42.0584 62.4597 43.8734 57.6907 44.8771C54.1309 45.6196 50.3538 46.1421 50.8836 47.8058C51.6038 50.047 56.0875 46.9671 60.3945 47.8058C63.0576 48.3145 65.1228 50.1433 65.0005 52.8932C64.8918 55.3682 62.8673 56.2344 60.6934 56.6469C57.9896 57.1694 55.4353 56.5232 55.6255 58.1594C55.7478 59.2456 59.1173 58.2831 61.2913 60.3731C62.1608 61.2118 62.5548 62.0231 62.3782 64.5118V64.4843Z"></path>
</svg>
