<svg xmlns="http://www.w3.org/2000/svg" fill="none" viewBox="0 0 80 80" height="80" width="80">
<circle stroke="#201C1A" fill="#FBF9EB" r="39.5" cy="40" cx="40"></circle>
<path stroke-miterlimit="10" stroke="#201C1A" fill="#F09F54" d="M44.1172 18.1474C45.9342 18.1553 47.7053 18.109 49.4795 18.1884L49.4111 20.9736C49.3313 21.0093 49.2447 21.064 49.1689 21.1484C49.0656 21.2636 49.0084 21.4057 48.9951 21.5546C48.987 21.645 48.993 21.7468 49.0283 21.8505C49.0647 21.9573 49.1244 22.0448 49.1953 22.1122C49.2624 22.176 49.3377 22.2178 49.3994 22.246L49.3486 25.2763C49.239 27.0377 49.1064 28.7965 48.9658 30.5556L48.5342 35.8476C48.1636 40.4893 47.8392 45.1081 47.6074 49.7646C47.4494 52.9306 47.2168 56.1661 47.0811 59.3466C47.0668 59.6645 47.0928 60.0775 47.1074 60.4238C47.1203 60.7278 47.1215 60.9819 47.1035 61.1689C46.9474 61.1931 46.7629 61.2063 46.5498 61.2148C46.3046 61.2246 46.0095 61.2306 45.7539 61.2636C43.9916 61.4917 42.7446 61.6962 40.9727 61.7538H40.9717C37.5598 61.8684 34.061 61.8957 30.6279 61.8056L29.1611 61.7597C27.823 61.7102 26.6735 61.585 25.4316 61.4286L24.1494 61.2636C23.8658 61.2265 23.5568 61.2168 23.2871 61.206C23.0986 61.1984 22.9273 61.1889 22.7725 61.1738L22.125 48.6386C21.9586 45.425 21.7852 42.2115 21.6094 38.998L21.0801 29.3554C20.9463 26.9294 20.7885 24.5344 20.7861 22.1279C20.8609 22.0719 20.9359 21.9955 20.9902 21.8896C21.0463 21.7801 21.0668 21.6675 21.0713 21.5654L21.0742 21.5058L21.0625 21.4472C21.046 21.3631 21.0133 21.2836 20.9658 21.2128C20.919 21.1431 20.8635 21.0896 20.8086 21.0497C20.8033 21.0459 20.7973 21.0426 20.792 21.039V18.291C20.8163 18.2948 20.8414 18.2993 20.8652 18.3027C20.8981 18.3073 20.9445 18.3127 20.9912 18.3144L20.9951 18.3154C24.7965 18.4228 28.6638 18.2499 32.458 18.207L34.0791 18.1982C37.4396 18.1982 40.7767 18.1334 44.1172 18.1474Z"></path>
<mask height="46" width="10" y="17" x="20" maskUnits="userSpaceOnUse" style="mask-type:alpha" id="mask0_8151_89573">
<path stroke-miterlimit="10" stroke="#201C1A" fill="#F09F54" d="M20.8652 18.3026C20.8982 18.3072 20.9445 18.3136 20.9912 18.3153H20.9951C25.8259 18.4519 25.6013 18.3614 27.041 18.3436C27.0795 21.6126 27.3863 36.0864 27.5537 40.163C27.5983 41.248 27.6605 43.0157 27.7354 45.0995C27.8102 47.1822 27.8986 49.5792 27.9951 51.9178C28.0916 54.2559 28.1969 56.5385 28.3066 58.3934C28.389 59.7848 28.4743 60.9565 28.5635 61.7303C27.4717 61.6697 26.4848 61.5612 25.4316 61.4286L24.1494 61.2635C23.8658 61.2265 23.5568 61.2167 23.2871 61.2059C23.0986 61.1984 22.9273 61.1888 22.7725 61.1737L22.125 48.6385C21.9586 45.4249 21.7852 42.2115 21.6094 38.9979L21.0801 29.3553C20.9463 26.9294 20.7885 24.5343 20.7861 22.1278C20.8609 22.0718 20.9359 21.9955 20.9902 21.8895C21.0463 21.7801 21.0668 21.6674 21.0713 21.5653L21.0742 21.5057L21.0625 21.4471C21.046 21.3631 21.0133 21.2836 20.9658 21.2128C20.919 21.143 20.8635 21.0895 20.8086 21.0497C20.8033 21.0458 20.7973 21.0426 20.792 21.0389V18.2909C20.8163 18.2948 20.8414 18.2993 20.8652 18.3026Z"></path>
</mask>
<g mask="url(#mask0_8151_89573)">
<path fill="#201C1A" d="M24.479 22.9693C24.159 22.9693 23.879 22.8793 23.729 22.5693C23.659 22.4093 23.579 22.2693 23.669 22.0693C23.739 21.9193 23.709 21.7293 23.739 21.5493C23.799 21.2193 24.159 21.0993 24.439 21.2793C24.889 21.5593 24.999 22.0193 25.079 22.4793C25.129 22.7493 24.809 22.9893 24.469 22.9693H24.479Z" clip-rule="evenodd" fill-rule="evenodd"></path>
<path fill="#201C1A" d="M20.2388 41.3493C20.0288 41.2293 19.9088 41.0593 19.8888 40.7993C19.8788 40.4993 19.9888 40.2493 20.1788 40.0293C20.3288 39.8493 20.5488 39.8893 20.7488 39.8993C21.0688 39.9093 21.4588 40.2093 21.5488 40.5093C21.6288 40.7393 21.5488 40.9893 21.3288 41.0993C21.1788 41.1793 20.9988 41.2293 20.8288 41.2693C20.6288 41.3093 20.4288 41.3293 20.2288 41.3493H20.2388Z" clip-rule="evenodd" fill-rule="evenodd"></path>
<path fill="#201C1A" d="M23.3891 27.8693C23.1791 27.9893 22.9791 28.1693 22.7491 28.2093C22.4891 28.2593 22.1591 28.2593 21.9391 28.1393C21.7591 28.0393 21.6991 27.7293 21.5991 27.5193C21.6791 27.3093 21.7391 27.1193 21.8091 26.9293C21.8891 26.9093 21.9591 26.8593 22.0291 26.8693C22.3291 26.9093 22.6291 26.9493 22.9091 27.0293C23.2591 27.1293 23.4691 27.3593 23.3891 27.8693Z" clip-rule="evenodd" fill-rule="evenodd"></path>
<path fill="#201C1A" d="M30.579 27.7192C30.579 27.7192 30.579 27.7592 30.549 27.7992C30.229 28.3692 29.939 28.4492 29.379 28.1192C29.249 28.0392 29.139 27.9392 28.989 27.8192C28.939 27.5492 28.929 27.2492 29.009 26.9192C29.289 26.8792 29.559 26.8292 29.809 26.7892C30.159 26.9892 30.539 27.1292 30.579 27.7192Z" clip-rule="evenodd" fill-rule="evenodd"></path>
<path fill="#201C1A" d="M24.6891 17.6893C24.8991 17.9893 25.1591 18.2093 25.1091 18.5893C25.0791 18.7793 25.0191 18.9293 24.8391 19.0193C24.6991 19.0793 24.5591 19.1493 24.4091 19.1693C24.0391 19.2293 23.8891 19.1493 23.6791 18.7793C23.6391 18.7093 23.6091 18.6393 23.5791 18.5693C23.5891 18.4993 23.5891 18.4193 23.6191 18.3493C23.7858 17.8759 24.1424 17.6526 24.6891 17.6793V17.6893Z" clip-rule="evenodd" fill-rule="evenodd"></path>
<path fill="#201C1A" d="M22.339 35.8793C22.009 35.7193 21.899 35.4793 21.849 35.1893C21.799 34.8893 21.919 34.6393 22.059 34.3993C22.189 34.1693 22.389 34.1093 22.639 34.2093C22.779 34.2693 22.909 34.3493 23.049 34.4293C23.129 34.6393 23.199 34.8593 23.289 35.0993C23.209 35.2193 23.109 35.3393 23.059 35.4693C22.929 35.7793 22.619 35.7693 22.339 35.8793Z" clip-rule="evenodd" fill-rule="evenodd"></path>
<path fill="#201C1A" d="M26.369 45.2292C26.539 45.2992 26.659 45.3392 26.759 45.3992C27.149 45.6192 27.199 45.8792 26.949 46.2692C26.769 46.5492 26.519 46.7492 26.199 46.9192C25.899 46.6792 25.549 46.4792 25.439 46.0292C25.469 45.8192 25.689 45.7692 25.849 45.6492C26.009 45.5292 26.159 45.3992 26.359 45.2292H26.369Z" clip-rule="evenodd" fill-rule="evenodd"></path>
<path fill="#201C1A" d="M29.1289 45.8493C29.2489 45.6693 29.3389 45.4793 29.4789 45.3493C29.5689 45.2593 29.7589 45.1893 29.8789 45.2193C30.2289 45.2893 30.4889 45.5493 30.5289 45.8793C30.5689 46.1793 30.5289 46.5293 30.2689 46.7793C30.0689 46.9693 29.8789 46.9693 29.6589 46.8093C29.3389 46.5893 29.2389 46.2593 29.1289 45.8493Z" clip-rule="evenodd" fill-rule="evenodd"></path>
<path fill="#201C1A" d="M19.7588 25.7993C19.8088 25.6893 19.8388 25.6093 19.8788 25.5493C20.0888 25.1893 20.4188 25.0693 20.7588 25.2393C20.9188 25.3193 21.0488 25.4293 21.1988 25.5293C21.2788 25.5793 21.3688 25.6393 21.3688 25.6393C21.3988 25.7793 21.4088 25.8093 21.4088 25.8293C21.2588 26.2093 21.0688 26.6493 20.6388 26.6693C20.1488 26.6893 19.9588 26.2293 19.7688 25.8093L19.7588 25.7993Z" clip-rule="evenodd" fill-rule="evenodd"></path>
<path fill="#201C1A" d="M29.9291 24.8493C29.5558 24.6893 29.2791 24.4293 29.0991 24.0693C29.2291 23.7193 29.2191 23.2793 29.7091 23.0593C30.1591 23.2093 30.3891 23.5693 30.4691 24.0393C30.5291 24.4393 30.2091 24.6093 29.9291 24.8493Z" clip-rule="evenodd" fill-rule="evenodd"></path>
<path fill="#201C1A" d="M26.5392 28.1993C26.2692 28.2393 26.0192 28.2793 25.7692 28.3093C25.5092 28.1993 25.4192 27.9493 25.3192 27.7293C25.2192 27.5193 25.2992 27.3293 25.5092 27.2193C25.7292 27.1093 25.9692 27.0193 26.2392 26.8893C26.4292 26.9793 26.6492 27.0993 26.8692 27.1993C27.1192 27.6693 26.7392 27.8993 26.5492 28.1893L26.5392 28.1993Z" clip-rule="evenodd" fill-rule="evenodd"></path>
<path fill="#201C1A" d="M28.5789 52.1192H27.4689C27.3989 51.9392 27.2989 51.7893 27.2689 51.6293C27.1889 51.2093 27.3189 51.0392 27.7389 50.9392C27.8389 50.9192 27.9289 50.8892 28.0289 50.8692C28.4189 50.7692 28.4989 50.8392 28.6489 51.1792C28.7789 51.4892 28.6389 51.7692 28.5789 52.1192Z" clip-rule="evenodd" fill-rule="evenodd"></path>
<path fill="#201C1A" d="M24.469 47.0693C24.599 47.1693 24.689 47.2193 24.759 47.2893C25.189 47.6993 25.199 47.9293 24.819 48.3793C24.639 48.5993 24.409 48.6693 24.139 48.5893C23.849 48.5093 23.629 48.3093 23.599 48.0193C23.569 47.7393 23.719 47.4793 23.949 47.3093C24.089 47.2093 24.259 47.1593 24.469 47.0693Z" clip-rule="evenodd" fill-rule="evenodd"></path>
<path fill="#201C1A" d="M22.0989 50.2293C21.9889 49.8893 21.8089 49.5993 21.9289 49.2293C22.0789 49.0993 22.2289 48.9093 22.4989 49.0393C22.8389 49.2193 23.2889 49.2593 23.4089 49.7393C23.4689 49.9893 23.3689 50.1993 23.1489 50.2993C22.8089 50.4493 22.4689 50.4493 22.0989 50.2293Z" clip-rule="evenodd" fill-rule="evenodd"></path>
<path fill="#201C1A" d="M22.2089 20.9592C21.8223 20.5592 21.7489 20.1426 21.9889 19.7092C22.2189 19.6592 22.4589 19.5992 22.7289 19.5392C22.8489 19.6492 22.9889 19.7492 23.1089 19.8792C23.4089 20.2292 23.2789 20.7092 22.8389 20.8492C22.6289 20.9192 22.3989 20.9292 22.2089 20.9592Z" clip-rule="evenodd" fill-rule="evenodd"></path>
<path fill="#201C1A" d="M27.1489 21.7693C27.3889 21.5093 27.7289 21.4893 28.0489 21.3893C28.2289 21.5993 28.4089 21.7993 28.6089 22.0393C28.5989 22.1393 28.5889 22.2693 28.5689 22.3893C28.5089 22.7493 28.2689 22.9193 27.9389 22.8693C27.3889 22.7893 27.1489 22.4493 27.1489 21.7793V21.7693Z" clip-rule="evenodd" fill-rule="evenodd"></path>
<path fill="#201C1A" d="M30.4088 61.2692C30.4088 61.2692 30.3288 61.3192 30.2788 61.3292C29.6088 61.4792 29.4388 61.3992 29.1388 60.8192C29.0588 60.6592 29.1188 60.4392 29.2788 60.3592C29.5788 60.2292 29.8788 60.1092 30.1888 59.9992C30.3388 59.9392 30.5688 60.0792 30.5888 60.2492C30.6088 60.3892 30.5888 60.5492 30.5688 60.6892C30.5288 60.8792 30.4588 61.0692 30.4088 61.2592V61.2692Z" clip-rule="evenodd" fill-rule="evenodd"></path>
<path fill="#201C1A" d="M29.9487 41.5793C30.3787 41.7393 30.5288 42.0293 30.4588 42.4393C30.4288 42.6693 30.0888 43.0393 29.8688 43.0893C29.6488 43.1393 29.4587 43.0193 29.3187 42.8793C29.1787 42.7393 29.0787 42.5493 28.9688 42.3893C29.0787 41.8193 29.5687 41.7593 29.9487 41.5793Z" clip-rule="evenodd" fill-rule="evenodd"></path>
<path fill="#201C1A" d="M20.8388 43.5093C20.9588 43.6693 21.0788 43.8293 21.2088 43.9793C21.4688 44.2993 21.4588 44.4293 21.1988 44.6493C20.6688 45.0893 20.3088 45.0093 20.0188 44.3893C19.9788 44.2993 19.9388 44.2093 19.9188 44.1093C19.8688 43.8593 19.9988 43.6493 20.2388 43.5793C20.2888 43.5693 20.3388 43.5593 20.3888 43.5593C20.5388 43.5393 20.6788 43.5193 20.8588 43.4993L20.8388 43.5093Z" clip-rule="evenodd" fill-rule="evenodd"></path>
<path fill="#201C1A" d="M23.899 26.4892C23.849 26.2392 23.799 26.0492 23.769 25.8592C23.669 25.2492 23.689 25.2092 24.329 24.9092C25.049 25.2792 24.989 25.5792 24.919 25.9692C24.849 26.3392 24.599 26.4592 23.899 26.4892Z" clip-rule="evenodd" fill-rule="evenodd"></path>
<path fill="#201C1A" d="M29.9789 21.1792C29.5789 21.0592 29.3089 20.9292 29.1289 20.5992C29.2489 20.2592 29.2889 19.8492 29.6489 19.5292C29.8589 19.5892 30.0789 19.6292 30.2689 19.7192C30.3589 19.7592 30.4689 19.9192 30.4589 20.0192C30.4289 20.2892 30.3589 20.5692 30.2689 20.8192C30.2189 20.9492 30.0789 21.0492 29.9789 21.1792Z" clip-rule="evenodd" fill-rule="evenodd"></path>
<path fill="#201C1A" d="M29.5891 49.0893C29.8591 49.1393 30.1091 49.1793 30.3691 49.2293C30.5491 49.5393 30.4491 49.8693 30.4591 50.1693C30.2191 50.4593 29.9191 50.5093 29.6091 50.4493C29.4691 50.4193 29.3391 50.3193 29.2291 50.2193C29.0791 50.0893 29.0791 49.9093 29.0891 49.7193C29.0991 49.5693 29.0991 49.5693 29.5791 49.0793L29.5891 49.0893Z" clip-rule="evenodd" fill-rule="evenodd"></path>
<path fill="#201C1A" d="M24.9591 51.5993C24.9591 51.5993 24.9591 51.7393 24.9491 51.8393C24.8991 52.0793 24.6091 52.3193 24.4091 52.2993C24.1291 52.2693 23.7791 52.0493 23.7591 51.8393C23.7391 51.5893 23.7391 51.3293 23.7591 51.0793C23.7791 50.9193 24.0091 50.7693 24.1691 50.8093C24.3691 50.8593 24.5591 50.9193 24.7391 51.0093C24.9691 51.1093 24.9491 51.3293 24.9491 51.6093L24.9591 51.5993Z" clip-rule="evenodd" fill-rule="evenodd"></path>
<path fill="#201C1A" d="M23.029 42.8093C22.819 43.1393 22.509 43.1493 22.159 43.0693C21.969 42.8793 21.859 42.6193 21.769 42.3593C21.659 42.0593 21.819 41.8193 22.139 41.7393C22.329 41.6893 22.529 41.6693 22.769 41.6193C22.829 41.7393 22.929 41.8493 22.959 41.9893C23.009 42.2593 23.009 42.5293 23.039 42.8093H23.029Z" clip-rule="evenodd" fill-rule="evenodd"></path>
<path fill="#201C1A" d="M23.7889 28.9393C24.1389 28.6593 24.4789 28.5993 24.9089 28.9793C24.9489 29.1393 25.0489 29.3993 25.0889 29.6693C25.1289 29.9293 24.9189 30.0693 24.6489 30.0093C24.3589 29.9393 24.0689 29.8793 23.7489 29.8093C23.6989 29.7193 23.6489 29.6093 23.5889 29.4993C23.6589 29.3093 23.7189 29.1193 23.7789 28.9393H23.7889Z" clip-rule="evenodd" fill-rule="evenodd"></path>
<path fill="#201C1A" d="M22.3291 56.3293C22.6191 56.4493 22.8391 56.5493 23.0891 56.6493V57.4293C22.8991 57.4793 22.7091 57.5193 22.5291 57.5993C22.2191 57.7393 21.9891 57.5793 21.7591 57.4393C21.5291 57.2893 21.5191 56.8893 21.7491 56.7093C21.9291 56.5693 22.1291 56.4593 22.3291 56.3293Z" clip-rule="evenodd" fill-rule="evenodd"></path>
<path fill="#201C1A" d="M20.7289 61.7493C20.9789 61.7993 21.1489 61.8893 21.2489 62.0793C21.3589 62.2993 21.5089 62.5193 21.3489 62.8393C21.1289 62.8793 20.8589 62.8993 20.7589 63.2393C20.7089 63.3993 20.3489 63.3493 20.2489 63.1493C20.1189 62.8793 20.0089 62.5893 20.0789 62.2893C20.0989 62.1993 20.1689 62.1093 20.2489 62.0493C20.3889 61.9393 20.5489 61.8593 20.7289 61.7493Z" clip-rule="evenodd" fill-rule="evenodd"></path>
<path fill="#201C1A" d="M28.4291 44.7193C27.9691 44.7593 27.7091 44.6092 27.5291 44.3492C27.4491 44.2392 27.4191 44.0593 27.4391 43.9293C27.4691 43.7593 27.5591 43.5993 27.6591 43.4493C27.7991 43.2393 28.0891 43.2292 28.2391 43.4192C28.3991 43.6092 28.5491 43.8193 28.6891 44.0193C28.7991 44.1693 28.8491 44.3693 28.7391 44.5193C28.6491 44.6393 28.4591 44.6993 28.4191 44.7193H28.4291Z" clip-rule="evenodd" fill-rule="evenodd"></path>
<path fill="#201C1A" d="M21.4189 29.4292C21.3889 29.7992 20.9989 30.1892 20.6089 30.2092C20.5389 30.2092 20.4589 30.1892 20.3989 30.1492C20.1589 29.9892 20.0289 29.3792 20.1689 29.1192C20.3289 28.8192 20.7389 28.7092 21.0989 28.8692C21.2689 28.9492 21.4389 29.2392 21.4289 29.4292H21.4189Z" clip-rule="evenodd" fill-rule="evenodd"></path>
<path fill="#201C1A" d="M28.3789 28.5893C28.5889 28.9593 28.6789 29.3193 28.6289 29.7093C28.5989 29.9593 28.4589 30.0693 28.2189 30.0293C28.0189 29.9893 27.8289 29.9593 27.6289 29.9193C27.2889 29.8493 27.1289 29.5093 27.3289 29.2293C27.4189 29.0893 27.5689 28.9793 27.7189 28.8893C27.9089 28.7793 28.1189 28.7093 28.3789 28.5893Z" clip-rule="evenodd" fill-rule="evenodd"></path>
<path fill="#201C1A" d="M21.409 18.4093C21.309 18.7793 21.109 19.0693 20.779 19.2693C20.499 18.9693 20.239 18.6793 19.939 18.3593C20.059 18.2293 20.149 18.1093 20.249 18.0093C20.739 17.5293 20.929 17.5593 21.279 18.1493C21.329 18.2393 21.369 18.3293 21.409 18.4093Z" clip-rule="evenodd" fill-rule="evenodd"></path>
<path fill="#201C1A" d="M24.359 43.5992C24.649 43.7192 24.909 43.8192 25.059 44.1192C24.999 44.2392 24.949 44.3792 24.869 44.4992C24.679 44.7692 24.379 44.8992 24.089 44.8692C23.769 44.8392 23.549 44.6092 23.519 44.2592C23.7457 43.9859 24.029 43.7659 24.369 43.5992H24.359Z" clip-rule="evenodd" fill-rule="evenodd"></path>
<path fill="#201C1A" d="M23.079 30.9592C23.079 31.0892 23.109 31.2392 23.109 31.3892C23.099 31.8092 22.979 31.9092 22.539 31.9192C22.109 31.9192 22.109 31.9192 21.729 31.4392C21.799 31.1892 21.849 30.8892 22.129 30.7592C22.459 30.6092 22.779 30.7092 23.079 30.9692V30.9592Z" clip-rule="evenodd" fill-rule="evenodd"></path>
<path fill="#201C1A" d="M20.2889 58.3293C21.2389 58.2893 21.3989 58.4593 21.2689 59.3093C21.2289 59.5993 20.8889 59.7793 20.6389 59.6193C20.4489 59.4993 20.2789 59.3493 20.1389 59.1793C20.0689 59.0993 20.0489 58.9393 20.0789 58.8293C20.1189 58.6693 20.2189 58.5093 20.2989 58.3393L20.2889 58.3293Z" clip-rule="evenodd" fill-rule="evenodd"></path>
<path fill="#201C1A" d="M28.019 59.4893C27.779 59.3593 27.539 59.2293 27.249 59.0793C27.289 58.9193 27.289 58.7393 27.369 58.5993C27.489 58.3993 27.689 58.2793 27.929 58.2593C28.049 58.2593 28.179 58.2393 28.289 58.2793C28.499 58.3493 28.529 58.4093 28.759 58.9293C28.619 59.2693 28.339 59.3993 28.009 59.4893H28.019Z" clip-rule="evenodd" fill-rule="evenodd"></path>
<path fill="#201C1A" d="M28.5691 25.6093C28.3991 25.5793 28.2291 25.5493 28.0691 25.5293C27.9191 25.5093 27.8391 25.5893 27.7991 25.7493C27.9691 26.0393 28.3291 26.0093 28.5591 26.1893C28.6391 26.3893 28.4991 26.4893 28.3491 26.5193C28.0291 26.5693 27.6891 26.6293 27.4191 26.3393C27.2891 26.1993 27.2291 26.0393 27.2591 25.8493C27.3391 25.3893 27.8291 25.0093 28.2991 25.0393C28.4791 25.0493 28.5691 25.2193 28.5591 25.6093H28.5691Z" clip-rule="evenodd" fill-rule="evenodd"></path>
<path fill="#201C1A" d="M23.1091 38.9992C22.8991 39.0792 22.7591 39.1392 22.6291 39.1792C22.4891 39.2192 22.3391 39.2692 22.1891 39.2592C21.7991 39.2592 21.5991 38.8792 21.8191 38.5592C22.0091 38.2692 22.2991 38.1092 22.6391 38.0592C22.8891 38.0192 23.0891 38.1892 23.1091 38.4392C23.1291 38.6192 23.1091 38.7892 23.1091 38.9892V38.9992Z" clip-rule="evenodd" fill-rule="evenodd"></path>
<path fill="#201C1A" d="M27.4891 39.9593C27.7791 39.9993 28.0491 40.0193 28.3191 40.0693C28.4791 40.0993 28.5891 40.2093 28.6191 40.3793C28.6491 40.5493 28.5791 40.6793 28.4291 40.7593C28.2091 40.8793 27.9791 40.9993 27.7491 41.0893C27.5991 41.1393 27.4491 41.0893 27.3491 40.9493C27.3091 40.8893 27.2691 40.8193 27.2391 40.7493C27.0691 40.4193 27.0691 40.3693 27.3291 40.0793C27.3791 40.0293 27.4491 39.9893 27.4991 39.9493L27.4891 39.9593Z" clip-rule="evenodd" fill-rule="evenodd"></path>
<path fill="#201C1A" d="M23.089 60.7593C22.969 61.1493 22.729 61.3193 22.399 61.3493C22.109 61.3793 21.929 61.2093 21.769 60.9593C21.799 60.5593 22.079 60.3093 22.369 60.0693C22.529 59.9393 22.799 59.9993 22.889 60.1893C22.969 60.3693 23.019 60.5693 23.079 60.7693L23.089 60.7593Z" clip-rule="evenodd" fill-rule="evenodd"></path>
<path fill="#201C1A" d="M21.9288 23.5893C22.1088 23.5093 22.2488 23.4493 22.3788 23.3793C22.5088 23.3093 22.6288 23.2393 22.7388 23.1793C23.0388 23.3193 23.0688 23.5893 23.1988 23.8093C23.3188 24.0093 23.2688 24.1893 23.1088 24.3593C22.8988 24.5693 22.7588 24.6093 22.4988 24.4893C22.1488 24.3193 21.8188 24.1293 21.9288 23.6093V23.5893Z" clip-rule="evenodd" fill-rule="evenodd"></path>
<path fill="#201C1A" d="M23.1091 52.8193C23.1091 53.1393 23.1191 53.3893 23.1091 53.6393C23.0891 53.8493 22.8691 54.0993 22.6791 54.1193C22.3791 54.1493 22.1391 54.0093 21.9591 53.7893C21.8191 53.6293 21.7791 53.4193 21.9091 53.2293C21.9591 53.1493 22.0591 53.0293 22.1091 53.0393C22.3891 53.0993 22.5791 52.9193 22.8091 52.8093C22.8691 52.7793 22.9591 52.8093 23.1191 52.8193H23.1091Z" clip-rule="evenodd" fill-rule="evenodd"></path>
<path fill="#201C1A" d="M25.3989 20.4893C25.5289 20.1993 25.6089 19.9593 25.7289 19.7493C25.8389 19.5593 26.0989 19.5493 26.2489 19.7093C26.3789 19.8593 26.4989 20.0193 26.6289 20.1793C26.8789 20.4993 26.7489 20.8993 26.3589 20.9993C26.2689 21.0193 26.1489 20.9993 26.0689 20.9593C25.8589 20.8293 25.6589 20.6793 25.3989 20.4893Z" clip-rule="evenodd" fill-rule="evenodd"></path>
<path fill="#201C1A" d="M27.9688 54.5292C28.2088 54.6892 28.4688 54.8792 28.7588 55.0792C28.5688 55.4692 28.3788 55.7792 27.9388 55.8292C27.6988 55.8592 27.6088 55.7992 27.2588 55.3792C27.5488 55.1592 27.4588 54.6492 27.9688 54.5392V54.5292Z" clip-rule="evenodd" fill-rule="evenodd"></path>
<path fill="#201C1A" d="M27.6288 33.6993C27.5588 33.3793 27.2888 33.0893 27.5188 32.6793C27.6788 32.6793 27.8488 32.6793 28.0088 32.6793C28.1588 32.6793 28.3088 32.6493 28.4488 32.6393C28.4988 32.6793 28.5588 32.6993 28.5788 32.7393C28.8988 33.3893 28.7488 33.6693 28.0388 33.7593C27.9888 33.7593 27.9388 33.7593 27.8888 33.7593C27.8188 33.7593 27.7388 33.7293 27.6288 33.7093V33.6993Z" clip-rule="evenodd" fill-rule="evenodd"></path>
<path fill="#201C1A" d="M26.9388 53.3993C26.7688 53.7993 26.3588 53.8793 26.0488 54.1693C25.9388 54.0493 25.8188 53.9693 25.7488 53.8493C25.6488 53.6793 25.5988 53.4893 25.5088 53.2593C25.6588 53.1593 25.8088 53.0393 25.9688 52.9293C26.3888 52.6693 26.5788 52.7193 26.8188 53.1293C26.8688 53.2093 26.8988 53.3093 26.9388 53.3893V53.3993Z" clip-rule="evenodd" fill-rule="evenodd"></path>
<path fill="#201C1A" d="M21.4488 21.8393C21.4088 21.9593 21.4088 22.0393 21.3588 22.0893C21.1888 22.2793 21.0188 22.4593 20.8288 22.6193C20.6588 22.7593 20.3488 22.7393 20.1988 22.5993C19.9988 22.4293 19.9388 22.1393 20.0888 21.9193C20.2788 21.6293 20.4788 21.3893 20.8888 21.5793C20.9588 21.6093 21.1088 21.5093 21.1788 21.5493C21.2988 21.6093 21.3788 21.7393 21.4588 21.8293L21.4488 21.8393Z" clip-rule="evenodd" fill-rule="evenodd"></path>
<path fill="#201C1A" d="M27.8692 48.4693C27.8692 48.4693 27.8092 48.4693 27.7092 48.4493C27.5392 48.4193 27.4092 48.2493 27.4092 48.0593C27.4092 47.8393 27.4092 47.6193 27.4392 47.3993C27.4592 47.1693 27.7692 47.0393 27.9692 47.1693C28.2792 47.3693 28.4092 47.7193 28.5892 48.0093C28.6792 48.1493 28.5392 48.3793 28.3792 48.4293C28.3292 48.4393 28.2792 48.4593 28.2292 48.4593C28.1592 48.4593 28.0792 48.4593 27.8592 48.4593L27.8692 48.4693Z" clip-rule="evenodd" fill-rule="evenodd"></path>
<path fill="#201C1A" d="M30.3292 35.3593C30.0892 35.3293 29.8392 35.3193 29.5992 35.2693C29.2792 35.2093 29.1292 34.8393 29.3292 34.5593C29.4592 34.3793 29.6392 34.2393 29.7892 34.0893C30.5192 34.4993 30.5892 34.6593 30.3292 35.3593Z" clip-rule="evenodd" fill-rule="evenodd"></path>
<path fill="#201C1A" d="M20.1092 36.4593C20.2592 36.3993 20.4192 36.3293 20.5792 36.2693C21.0192 36.1093 21.1292 36.3293 21.2492 36.6493C21.2892 36.7593 21.2792 36.8993 21.2692 37.0193C21.2592 37.2693 21.1392 37.3893 20.8992 37.4193C20.8292 37.4293 20.7492 37.4293 20.6692 37.4193C20.5692 37.4093 20.4692 37.3893 20.3692 37.3693C20.1692 37.0993 19.9592 36.8393 20.0992 36.4493L20.1092 36.4593Z" clip-rule="evenodd" fill-rule="evenodd"></path>
<path fill="#201C1A" d="M25.9891 48.9892C26.2191 49.0392 26.4391 49.0792 26.6791 49.1292C26.8291 49.2892 26.9991 49.4792 26.9291 49.7192C26.8391 49.9892 26.6191 50.1592 26.3291 50.3192C26.0891 50.0592 25.8491 49.8092 25.5991 49.5292C25.5691 49.2492 25.7791 49.1092 25.9991 48.9792L25.9891 48.9892Z" clip-rule="evenodd" fill-rule="evenodd"></path>
<path fill="#201C1A" d="M25.769 24.4392C25.749 24.3192 25.739 24.2192 25.729 24.1192C25.669 23.6292 25.919 23.4992 26.379 23.3492C26.559 23.2892 26.869 23.5592 26.929 23.7892C26.999 24.0992 26.679 24.5492 26.369 24.5392C26.169 24.5392 25.979 24.4692 25.769 24.4292V24.4392Z" clip-rule="evenodd" fill-rule="evenodd"></path>
<path fill="#201C1A" d="M27.8888 19.3492C27.7588 19.0292 27.6588 18.7793 27.5488 18.4893C27.6788 18.2393 27.8188 17.9693 27.9688 17.6693C28.1888 17.7593 28.3588 17.8393 28.5188 17.9093C28.7388 18.5493 28.4488 18.9492 27.8888 19.3492Z" clip-rule="evenodd" fill-rule="evenodd"></path>
<path fill="#201C1A" d="M25.7488 35.5293C25.6088 35.3593 25.4688 35.1893 25.3188 34.9893C25.5788 34.9493 25.7988 34.9093 25.9288 34.6193C26.0488 34.3693 26.2588 34.3293 26.4288 34.4193C26.7388 34.5893 26.8488 34.8293 26.7388 35.1093C26.5588 35.5693 26.4588 35.6093 25.7488 35.5293Z" clip-rule="evenodd" fill-rule="evenodd"></path>
<path fill="#201C1A" d="M26.7391 60.2093C26.8091 60.4393 26.8791 60.6793 26.9591 60.9493C26.7391 61.0193 26.5391 61.0593 26.3691 61.1393C26.2191 61.2093 26.1091 61.3993 25.8591 61.2793C25.8591 60.9593 25.9291 60.6093 25.7491 60.2793C25.6691 60.1393 25.8491 59.9593 26.0091 59.9993C26.2491 60.0593 26.4891 60.1293 26.7491 60.2093H26.7391Z" clip-rule="evenodd" fill-rule="evenodd"></path>
<path fill="#201C1A" d="M21.3392 54.7992C21.4392 55.0592 21.4892 55.2392 21.2692 55.3892C21.1692 55.4592 21.0692 55.5392 20.9792 55.6192C20.5892 55.9292 20.3792 55.9192 20.0092 55.5492C19.9792 55.5192 19.9592 55.4692 19.9292 55.4192C20.1792 54.8492 20.2492 54.8092 20.7892 54.8292C20.9592 54.8292 21.1292 54.8092 21.3392 54.7892V54.7992Z" clip-rule="evenodd" fill-rule="evenodd"></path>
<path fill="#201C1A" d="M28.0291 62.0992C28.3491 62.2992 28.6191 62.4592 28.9291 62.6492C28.6991 62.8492 28.5091 63.0492 28.2991 63.1992C27.9991 63.4192 27.6591 63.2692 27.5491 62.8992C27.4591 62.6192 27.5091 62.3992 27.7691 62.2592C27.8591 62.2092 27.9391 62.1492 28.0291 62.0992Z" clip-rule="evenodd" fill-rule="evenodd"></path>
<path fill="#201C1A" d="M21.6489 45.9493C21.8689 45.6993 22.0689 45.4793 22.2189 45.3193C22.6389 45.2793 22.5989 45.5993 22.7389 45.7593C22.8289 45.7493 22.9289 45.7293 23.0189 45.7193C23.0489 45.7493 23.0889 45.7893 23.0989 45.8293C23.1389 46.0193 23.0889 46.1693 22.9189 46.2893C22.7089 46.4293 22.5189 46.4693 22.0089 46.4693C21.8989 46.3193 21.7789 46.1393 21.6489 45.9593V45.9493Z" clip-rule="evenodd" fill-rule="evenodd"></path>
<path fill="#201C1A" d="M28.0189 37.4593C27.8589 37.3193 27.7389 37.2193 27.6289 37.1193C27.4089 36.8893 27.3689 36.7493 27.4589 36.5893C27.6189 36.3193 27.8989 36.1693 28.1489 36.2293C28.3189 36.2693 28.4889 36.3893 28.7689 36.6793C28.6189 37.0093 28.3389 37.2093 28.0089 37.4693L28.0189 37.4593Z" clip-rule="evenodd" fill-rule="evenodd"></path>
<path fill="#201C1A" d="M20.749 52.1093C20.389 51.8693 20.009 51.7093 19.939 51.2393C19.989 51.0493 20.099 50.9393 20.319 50.9893C20.389 51.0093 20.459 51.0493 20.529 51.0493C21.069 51.0493 21.069 51.0493 21.179 51.4793C21.269 51.8193 21.089 51.9893 20.749 52.1093Z" clip-rule="evenodd" fill-rule="evenodd"></path>
<path fill="#201C1A" d="M25.1288 40.2192C24.7888 40.6192 24.3588 40.6992 23.9488 40.7792C23.8488 40.7992 23.7188 40.6492 23.5688 40.5592C23.8988 40.2192 24.0889 39.8292 24.5289 39.5992C24.7189 39.7892 24.8988 39.9892 25.1288 40.2292V40.2192Z" clip-rule="evenodd" fill-rule="evenodd"></path>
<path fill="#201C1A" d="M26.3889 31.9493C26.1189 31.7593 25.9389 31.6393 25.7589 31.5093C25.7589 31.2693 25.7389 31.0393 25.7589 30.8193C25.7789 30.6593 26.0189 30.5193 26.1689 30.5693C26.3089 30.6193 26.4489 30.6793 26.5789 30.7593C26.7789 30.8793 26.8289 31.0793 26.7189 31.2793C26.6589 31.3893 26.5689 31.4793 26.5089 31.5893C26.4589 31.6693 26.4389 31.7693 26.3789 31.9493H26.3889Z" clip-rule="evenodd" fill-rule="evenodd"></path>
<path fill="#201C1A" d="M24.2289 36.2193C24.3289 36.2393 24.3789 36.2493 24.4189 36.2693C24.8989 36.5493 24.9189 37.2593 24.4589 37.5293C24.2489 37.6493 23.9389 37.5293 23.9189 37.3093C23.8889 37.0393 23.8889 36.7493 23.9389 36.4893C23.9589 36.3793 24.1389 36.2993 24.2289 36.2293V36.2193Z" clip-rule="evenodd" fill-rule="evenodd"></path>
<path fill="#201C1A" d="M26.1689 37.9193C26.6989 38.1593 26.6689 38.5493 26.6289 38.9393C26.6089 39.1293 26.3489 39.2593 26.1589 39.1993C25.7389 39.0693 25.5789 38.5993 25.8289 38.2193C25.9089 38.0993 26.0489 38.0293 26.1689 37.9193Z" clip-rule="evenodd" fill-rule="evenodd"></path>
<path fill="#201C1A" d="M20.0688 47.8993C20.0888 47.8293 20.0988 47.7793 20.1188 47.7393C20.2288 47.5893 20.1388 47.2893 20.4188 47.2793C20.7088 47.2693 20.8488 47.5193 20.9988 47.6993C21.1588 47.8893 21.1588 48.1193 21.0088 48.3293C20.9288 48.4393 20.7988 48.5293 20.7188 48.5993C20.4588 48.5793 20.3888 48.4193 20.2988 48.2593C20.2288 48.1293 20.1288 48.0093 20.0488 47.8993H20.0688Z" clip-rule="evenodd" fill-rule="evenodd"></path>
<path fill="#201C1A" d="M26.4892 57.6593C26.3692 57.5293 26.2692 57.3793 26.1292 57.2893C25.9892 57.1993 25.8192 57.1593 25.6392 57.0893C25.6992 56.7793 25.9092 56.6293 26.1192 56.5093C26.4392 56.3293 26.8092 56.5693 26.7792 56.9493C26.7692 57.1493 26.7292 57.3493 26.6792 57.5393C26.6692 57.5893 26.5592 57.6093 26.4792 57.6593H26.4892Z" clip-rule="evenodd" fill-rule="evenodd"></path>
<path fill="#201C1A" d="M24.8891 62.4193C24.8391 62.6693 24.7991 62.8893 24.7591 63.1293C24.2491 63.3393 23.9991 62.9193 23.6191 62.7193C23.6991 62.5993 23.7491 62.5193 23.8091 62.4393C23.8491 62.3793 23.8991 62.3193 23.9591 62.2493C24.1491 62.2593 24.3491 62.2593 24.5491 62.2893C24.6591 62.3093 24.7691 62.3693 24.8991 62.4193H24.8891Z" clip-rule="evenodd" fill-rule="evenodd"></path>
<path fill="#201C1A" d="M20.2188 33.2992C20.3988 33.2792 20.5387 33.2592 20.7087 33.2392C20.6387 33.0792 20.5887 32.9492 20.5287 32.7992C20.8387 32.6292 21.1287 32.8492 21.4087 32.7892C21.4387 32.7892 21.4888 32.8492 21.5088 32.8892C21.5988 33.0992 21.3988 33.5292 21.1488 33.5192C20.9388 33.5192 20.8387 33.6592 20.6887 33.7092C20.5687 33.7492 20.3787 33.7092 20.2687 33.6492C20.2087 33.6092 20.2287 33.4292 20.2188 33.3092V33.2992Z" clip-rule="evenodd" fill-rule="evenodd"></path>
<path fill="#201C1A" d="M24.7192 58.4893C24.7992 58.6293 24.8592 58.7393 24.9292 58.8593C24.8692 59.0993 24.8292 59.3593 24.4892 59.3493C24.1992 59.3493 23.7992 58.9893 23.7492 58.6993C23.7192 58.5593 23.8592 58.3793 23.9992 58.3893C24.2192 58.4093 24.4492 58.4493 24.7192 58.4893Z" clip-rule="evenodd" fill-rule="evenodd"></path>
<path fill="#201C1A" d="M23.7388 55.1593C23.9188 54.9893 24.0688 54.8192 24.2588 54.6892C24.3388 54.6392 24.4988 54.6492 24.6088 54.6892C24.7688 54.7492 24.8188 54.9093 24.7888 55.0693C24.7688 55.1893 24.6988 55.3092 24.6388 55.4192C24.4188 55.7892 24.0488 55.7693 23.8288 55.3793C23.8088 55.3393 23.7988 55.2892 23.7488 55.1492L23.7388 55.1593Z" clip-rule="evenodd" fill-rule="evenodd"></path>
<path fill="#201C1A" d="M25.7388 42.5193C25.8188 42.3993 25.9088 42.2793 25.9688 42.1493C26.0188 42.0493 26.0188 41.9193 26.0588 41.7693C26.3288 41.9493 26.5488 42.0993 26.7588 42.2393C26.7588 42.3393 26.7788 42.3893 26.7588 42.4293C26.4588 43.0993 26.2588 43.1193 25.7488 42.5193H25.7388Z" clip-rule="evenodd" fill-rule="evenodd"></path>
<path fill="#201C1A" d="M23.979 32.6293C24.369 32.7093 24.539 32.9693 24.739 33.1693C24.559 33.6193 24.479 33.6593 24.159 33.5093C24.089 33.4793 24.019 33.4493 23.959 33.4093C23.739 33.2693 23.699 33.1193 23.839 32.8293C23.869 32.7593 23.929 32.7093 23.989 32.6293H23.979Z" clip-rule="evenodd" fill-rule="evenodd"></path>
</g>
<path stroke-miterlimit="10" stroke="#201C1A" d="M20.3062 23.8615H49.8663"></path>
<path fill="#FFCB96" d="M59.3511 61.7685C56.8885 58.029 54.4515 51.298 48.3588 50.945C44.1749 50.7013 39.8632 52.7685 37.8437 56.2055L37.0257 58.5837L35.2021 62.0879H55.2695L59.3426 61.7769L59.3511 61.7685Z"></path>
<mask height="13" width="25" y="50" x="35" maskUnits="userSpaceOnUse" style="mask-type:alpha" id="mask1_8151_89573">
<path fill="#FFC99B" d="M59.3511 61.7685C56.8885 58.029 54.4515 51.298 48.3588 50.945C44.1749 50.7013 39.8632 52.7685 37.8437 56.2055L37.0257 58.5837L35.2021 62.0879H55.2695L59.3426 61.7769L59.3511 61.7685Z"></path>
</mask>
<g mask="url(#mask1_8151_89573)">
<path fill="#201C1A" d="M37.8013 58.8489C37.5913 58.7289 37.4713 58.5589 37.4513 58.2989C37.4413 57.9989 37.5513 57.7489 37.7413 57.5289C37.8913 57.3489 38.1113 57.3889 38.3113 57.3989C38.6313 57.4089 39.0213 57.7089 39.1113 58.0089C39.1913 58.2389 39.1113 58.4889 38.8913 58.5989C38.7413 58.6789 38.5613 58.7289 38.3913 58.7689C38.1913 58.8089 37.9913 58.8289 37.7913 58.8489H37.8013Z" clip-rule="evenodd" fill-rule="evenodd"></path>
<path fill="#201C1A" d="M37.2813 56.1589C37.1513 56.6689 36.7413 56.7689 36.3713 56.8989C36.2813 56.9289 36.1113 56.8689 36.0413 56.7889C35.8713 56.6089 35.7513 56.3889 35.6113 56.1989C35.6813 55.8189 35.8213 55.5289 36.1013 55.3389C36.1913 55.2789 36.3813 55.2489 36.4413 55.2989C36.7513 55.5389 37.1413 55.7089 37.2813 56.1589Z" clip-rule="evenodd" fill-rule="evenodd"></path>
<path fill="#201C1A" d="M39.9015 53.3789C39.5715 53.2189 39.4615 52.9789 39.4115 52.6889C39.3615 52.3889 39.4815 52.1389 39.6215 51.8989C39.7515 51.6689 39.9515 51.6089 40.2015 51.7089C40.3415 51.7689 40.4715 51.8489 40.6115 51.9289C40.6915 52.1389 40.7615 52.3589 40.8515 52.5989C40.7715 52.7189 40.6715 52.8389 40.6215 52.9689C40.4915 53.2789 40.1815 53.2689 39.9015 53.3789Z" clip-rule="evenodd" fill-rule="evenodd"></path>
<path fill="#201C1A" d="M35.8117 59.0289C36.2017 58.8389 36.4717 58.9289 36.7417 59.1989C36.9817 59.4389 37.2217 59.6589 37.1517 60.0389C37.1417 60.1089 37.1417 60.1989 37.0917 60.2589C36.9017 60.4989 36.6117 60.5489 36.3417 60.5589C36.1617 60.5589 35.9917 60.4289 35.9117 60.1989C35.7717 59.8289 35.7417 59.4689 35.8117 59.0289Z" clip-rule="evenodd" fill-rule="evenodd"></path>
<path fill="#201C1A" d="M51.1516 60.7789C50.8316 60.5489 50.5816 60.3889 50.3416 60.2089C50.1816 60.0889 50.1316 59.8589 50.2616 59.7389C50.5416 59.4889 50.7816 59.1989 51.1516 59.0589C51.4316 58.9489 51.6016 59.0289 51.7216 59.3489C51.9316 59.8789 51.9216 59.8989 51.5216 60.2589C51.4516 60.3289 51.3516 60.3789 51.3016 60.4489C51.2516 60.5189 51.2216 60.6289 51.1616 60.7789H51.1516Z" clip-rule="evenodd" fill-rule="evenodd"></path>
<path fill="#201C1A" d="M49.4417 53.5589C49.7317 53.8089 50.0217 54.0089 50.1717 54.3289C49.9717 54.8089 49.5517 54.9289 49.1417 55.0589C48.9317 55.1189 48.7017 54.9789 48.6817 54.7789C48.6517 54.4989 48.6217 54.2289 48.7717 53.9589C48.9117 53.7089 49.1217 53.6189 49.4517 53.5489L49.4417 53.5589Z" clip-rule="evenodd" fill-rule="evenodd"></path>
<path fill="#201C1A" d="M48.5715 57.5289C48.7615 57.3989 48.9715 57.2589 49.1615 57.1289C49.3615 57.2289 49.5315 57.2889 49.6715 57.3789C50.1415 57.6889 50.1315 58.2489 49.6715 58.5589C49.5915 58.6189 49.4915 58.6589 49.4015 58.6889C49.2415 58.7589 49.0415 58.6889 48.9415 58.5389C48.8415 58.3689 48.7315 58.1989 48.6615 58.0089C48.6115 57.8689 48.6015 57.7189 48.5615 57.5089L48.5715 57.5289Z" clip-rule="evenodd" fill-rule="evenodd"></path>
<path fill="#201C1A" d="M53.0017 60.7289C53.1417 60.8089 53.2417 60.8489 53.3117 60.9189C54.1817 61.6989 53.7717 61.9389 53.0617 62.2489C52.8317 62.3489 52.6517 62.2689 52.4617 62.0489C52.3117 61.8589 52.2817 61.5989 52.4117 61.4189C52.5717 61.1989 52.7617 60.9989 52.9917 60.7389L53.0017 60.7289Z" clip-rule="evenodd" fill-rule="evenodd"></path>
<path fill="#201C1A" d="M52.3613 54.8989C52.3513 54.6689 52.3413 54.5289 52.3313 54.3789C52.3313 54.1189 52.3113 53.8289 52.6213 53.7489C52.9313 53.6689 53.2713 53.6289 53.5313 53.9189C53.7913 54.1989 53.8213 54.3489 53.6213 54.8989H52.3613Z" clip-rule="evenodd" fill-rule="evenodd"></path>
<path fill="#201C1A" d="M47.5112 59.0789C47.9412 59.2389 48.0913 59.5289 48.0213 59.9389C47.9913 60.1689 47.6513 60.5389 47.4313 60.5889C47.2113 60.6389 47.0212 60.5189 46.8812 60.3789C46.7412 60.2389 46.6412 60.0489 46.5312 59.8889C46.6412 59.3189 47.1312 59.2589 47.5112 59.0789Z" clip-rule="evenodd" fill-rule="evenodd"></path>
<path fill="#201C1A" d="M38.4013 61.0089C38.5213 61.1689 38.6413 61.3289 38.7713 61.4789C39.0313 61.7989 39.0213 61.9289 38.7613 62.1489C38.2313 62.5889 37.8713 62.5089 37.5813 61.8889C37.5413 61.7989 37.5013 61.7089 37.4813 61.6089C37.4313 61.3589 37.5613 61.1489 37.8013 61.0789C37.8513 61.0689 37.9013 61.0589 37.9513 61.0589C38.1013 61.0389 38.2413 61.0189 38.4213 60.9989L38.4013 61.0089Z" clip-rule="evenodd" fill-rule="evenodd"></path>
<path fill="#201C1A" d="M40.5915 60.3089C40.3815 60.6389 40.0715 60.6489 39.7215 60.5689C39.5315 60.3789 39.4215 60.1189 39.3315 59.8589C39.2215 59.5589 39.3815 59.3189 39.7015 59.2389C39.8915 59.1889 40.0915 59.1689 40.3315 59.1189C40.3915 59.2389 40.4915 59.3489 40.5215 59.4889C40.5715 59.7589 40.5715 60.0289 40.6015 60.3089H40.5915Z" clip-rule="evenodd" fill-rule="evenodd"></path>
<path fill="#201C1A" d="M55.9313 53.8789C56.2513 53.9489 56.5113 53.9889 56.7413 53.7689C56.7913 53.7289 56.9513 53.7489 57.0213 53.7889C57.2713 53.9389 57.4513 54.4089 57.3613 54.6589C57.2713 54.8789 57.1213 55.0489 56.8613 55.0789C56.3513 55.1389 55.8613 54.7089 55.8613 54.1889C55.8613 54.1189 55.8913 54.0489 55.9313 53.8789Z" clip-rule="evenodd" fill-rule="evenodd"></path>
<path fill="#201C1A" d="M50.7717 51.7589C50.9617 51.8089 51.1117 51.8389 51.2517 51.8989C51.7717 52.1189 51.8817 52.8289 51.4517 53.1389C51.3617 53.2089 51.2117 53.2489 51.1017 53.2289C50.6917 53.1589 50.3817 52.7889 50.3517 52.3889C50.3417 52.1989 50.3917 52.1189 50.7717 51.7689V51.7589Z" clip-rule="evenodd" fill-rule="evenodd"></path>
<path fill="#201C1A" d="M45.9916 62.2189C45.5316 62.2589 45.2716 62.1089 45.0916 61.8489C45.0116 61.7389 44.9816 61.5589 45.0016 61.4289C45.0316 61.2589 45.1216 61.0989 45.2216 60.9489C45.3616 60.7389 45.6516 60.7289 45.8016 60.9189C45.9616 61.1089 46.1116 61.3189 46.2516 61.5189C46.3616 61.6689 46.4116 61.8689 46.3016 62.0189C46.2116 62.1389 46.0216 62.1989 45.9816 62.2189H45.9916Z" clip-rule="evenodd" fill-rule="evenodd"></path>
<path fill="#201C1A" d="M56.2614 50.0689H57.1314C57.2514 50.2389 57.4014 50.4389 57.5514 50.6489C57.2514 51.1889 56.7614 51.2489 56.2514 51.2389C56.0514 51.2389 55.9014 50.9989 55.9814 50.7989C56.0614 50.5589 56.1714 50.3389 56.2814 50.0789L56.2614 50.0689Z" clip-rule="evenodd" fill-rule="evenodd"></path>
<path fill="#201C1A" d="M50.9813 55.3489C51.1913 55.4589 51.4013 55.5489 51.5813 55.6789C51.6513 55.7289 51.6913 55.8489 51.7113 55.9389C51.7613 56.3489 51.4213 56.8089 51.0113 56.8889C50.9513 56.8989 50.8513 56.8689 50.8013 56.8289C50.5013 56.5489 50.4213 55.9189 50.6613 55.5789C50.7213 55.4889 50.8513 55.4389 50.9813 55.3589V55.3489Z" clip-rule="evenodd" fill-rule="evenodd"></path>
<path fill="#201C1A" d="M41.9215 61.0989C42.2115 61.2189 42.4715 61.3189 42.6215 61.6189C42.5615 61.7389 42.5115 61.8789 42.4315 61.9989C42.2415 62.2689 41.9415 62.3989 41.6515 62.3689C41.3315 62.3389 41.1115 62.1089 41.0815 61.7589C41.3082 61.4855 41.5915 61.2655 41.9315 61.0989H41.9215Z" clip-rule="evenodd" fill-rule="evenodd"></path>
<path fill="#201C1A" d="M58.0714 56.7589C57.9214 56.5889 57.8114 56.4689 57.6914 56.3289C57.7214 56.2189 57.7314 56.1089 57.7814 56.0289C57.8914 55.8389 57.8214 55.4889 58.0914 55.4789C58.4514 55.4789 58.8414 55.4889 59.1114 55.8189C59.3214 56.0789 59.2214 56.3789 58.8814 56.4089C58.7314 56.4189 58.5914 56.4189 58.4614 56.5289C58.3614 56.6089 58.2414 56.6589 58.0614 56.7589H58.0714Z" clip-rule="evenodd" fill-rule="evenodd"></path>
<path fill="#201C1A" d="M52.3413 57.6489C52.888 57.5089 53.3446 57.6456 53.7113 58.0589C53.6613 58.1989 53.6013 58.3589 53.5413 58.5189C53.2813 58.5989 53.0413 58.6789 52.8013 58.7389C52.5913 58.7889 52.3713 58.6389 52.3513 58.4289C52.3313 58.1789 52.3513 57.9289 52.3513 57.6389L52.3413 57.6489Z" clip-rule="evenodd" fill-rule="evenodd"></path>
<path fill="#201C1A" d="M48.7113 50.1089C48.9013 50.0389 49.0313 49.9789 49.1813 49.9389C49.5013 49.8489 49.6913 49.9589 49.7113 50.2689C49.7313 50.4889 49.7113 50.7189 49.7113 50.9289C49.5013 51.2289 49.2113 51.2689 48.8913 51.2389C48.6013 51.2089 48.4413 50.9989 48.5013 50.7089C48.5413 50.5189 48.6313 50.3289 48.7013 50.1089H48.7113Z" clip-rule="evenodd" fill-rule="evenodd"></path>
<path fill="#201C1A" d="M58.6216 58.9189C58.9716 59.1789 59.3316 59.3789 59.2016 59.8789C58.3516 60.4689 58.3116 60.3289 57.6816 59.9689C57.9416 59.5789 58.2016 59.1989 58.6216 58.9189Z" clip-rule="evenodd" fill-rule="evenodd"></path>
<path fill="#201C1A" d="M49.8616 61.1889C49.8216 61.2989 49.7816 61.3689 49.7816 61.4389C49.7816 62.0089 49.4516 62.2189 48.8816 62.2289C48.8116 61.8389 48.5616 61.4689 48.7016 61.0389C49.3516 60.6489 49.3616 60.6489 49.8716 61.1889H49.8616Z" clip-rule="evenodd" fill-rule="evenodd"></path>
<path fill="#201C1A" d="M40.6716 56.4989C40.4616 56.5789 40.3216 56.6389 40.1916 56.6789C40.0516 56.7189 39.9016 56.7689 39.7516 56.7589C39.3616 56.7589 39.1616 56.3789 39.3816 56.0589C39.5716 55.7689 39.8616 55.6089 40.2016 55.5589C40.4516 55.5189 40.6516 55.6889 40.6716 55.9389C40.6916 56.1189 40.6716 56.2889 40.6716 56.4889V56.4989Z" clip-rule="evenodd" fill-rule="evenodd"></path>
<path fill="#201C1A" d="M45.0516 57.4589C45.3416 57.4989 45.6116 57.5189 45.8816 57.5689C46.0416 57.5989 46.1516 57.7089 46.1816 57.8789C46.2116 58.0489 46.1416 58.1789 45.9916 58.2589C45.7716 58.3789 45.5416 58.4989 45.3116 58.5889C45.1616 58.6389 45.0116 58.5889 44.9116 58.4489C44.8716 58.3889 44.8316 58.3189 44.8016 58.2489C44.6316 57.9189 44.6316 57.8689 44.8916 57.5789C44.9416 57.5289 45.0116 57.4889 45.0616 57.4489L45.0516 57.4589Z" clip-rule="evenodd" fill-rule="evenodd"></path>
<path fill="#201C1A" d="M53.3415 50.9989C52.9715 51.0889 52.6215 51.1589 52.2215 51.0289C52.1715 50.7589 52.1215 50.4989 52.3515 50.2689C52.5715 50.0389 53.0315 49.9389 53.3315 50.1089C53.4315 50.1589 53.5115 50.2889 53.5415 50.3989C53.6015 50.6089 53.5215 50.7989 53.3415 50.9989Z" clip-rule="evenodd" fill-rule="evenodd"></path>
<path fill="#201C1A" d="M45.1913 51.1989C45.1213 50.8789 44.8513 50.5889 45.0813 50.1789C45.2413 50.1789 45.4113 50.1789 45.5713 50.1789C45.7213 50.1789 45.8713 50.1489 46.0113 50.1389C46.0613 50.1789 46.1213 50.1989 46.1413 50.2389C46.4613 50.8889 46.3113 51.1689 45.6013 51.2589C45.5513 51.2589 45.5013 51.2589 45.4513 51.2589C45.3813 51.2589 45.3013 51.2289 45.1913 51.2089V51.1989Z" clip-rule="evenodd" fill-rule="evenodd"></path>
<path fill="#201C1A" d="M54.2214 60.0389C54.0914 59.5589 54.2514 59.2489 54.7514 59.0789C54.9514 59.2089 55.1614 59.3489 55.3914 59.4989C55.3914 59.7089 55.4014 59.9089 55.3914 60.1089C55.3714 60.3489 55.1814 60.4689 54.9514 60.3789C54.7214 60.2889 54.5014 60.1689 54.2214 60.0389Z" clip-rule="evenodd" fill-rule="evenodd"></path>
<path fill="#201C1A" d="M46.9116 56.4689C46.9416 56.1889 46.9716 55.9489 47.0016 55.7089C47.2316 55.4089 47.5016 55.4089 47.7916 55.5789C47.9516 55.6789 48.0416 55.8089 48.0416 56.0089C48.0416 56.2289 48.0416 56.4489 48.0416 56.6889C47.6016 56.8489 47.2716 56.7489 46.9116 56.4689Z" clip-rule="evenodd" fill-rule="evenodd"></path>
<path fill="#201C1A" d="M47.8917 52.8589C47.6517 52.8289 47.4017 52.8189 47.1617 52.7689C46.8417 52.7089 46.6917 52.3389 46.8917 52.0589C47.0217 51.8789 47.2017 51.7389 47.3517 51.5889C48.0817 51.9989 48.1517 52.1589 47.8917 52.8589Z" clip-rule="evenodd" fill-rule="evenodd"></path>
<path fill="#201C1A" d="M37.6717 53.9589C37.8217 53.8989 37.9817 53.8289 38.1417 53.7689C38.5817 53.6089 38.6917 53.8289 38.8117 54.1489C38.8517 54.2589 38.8417 54.3989 38.8317 54.5189C38.8217 54.7689 38.7017 54.8889 38.4617 54.9189C38.3917 54.9289 38.3117 54.9289 38.2317 54.9189C38.1317 54.9089 38.0317 54.8889 37.9317 54.8689C37.7317 54.5989 37.5217 54.3389 37.6617 53.9489L37.6717 53.9589Z" clip-rule="evenodd" fill-rule="evenodd"></path>
<path fill="#201C1A" d="M34.0713 61.7689C34.1013 61.6689 34.1413 61.4989 34.2013 61.3389C34.2713 61.1389 34.3813 60.9489 34.6213 60.9389C34.8513 60.9289 35.0013 61.0989 35.1013 61.2789C35.2213 61.4889 35.2113 61.7289 35.0213 61.9189C34.8813 62.0689 34.7413 62.2089 34.5813 62.3389C34.4013 62.4889 34.1613 62.3889 34.1213 62.1589C34.1013 62.0589 34.1013 61.9589 34.0813 61.7789L34.0713 61.7689Z" clip-rule="evenodd" fill-rule="evenodd"></path>
<path fill="#201C1A" d="M43.3113 53.0289C43.1713 52.8589 43.0313 52.6889 42.8813 52.4889C43.1413 52.4489 43.3613 52.4089 43.4913 52.1189C43.6113 51.8689 43.8213 51.8289 43.9913 51.9189C44.3013 52.0889 44.4113 52.3289 44.3013 52.6089C44.1213 53.0689 44.0213 53.1089 43.3113 53.0289Z" clip-rule="evenodd" fill-rule="evenodd"></path>
<path fill="#201C1A" d="M35.2715 50.6089C35.1015 50.7789 34.9515 50.9589 34.7815 51.0989C34.4415 51.3889 33.9515 51.2489 33.8015 50.8289C33.7515 50.6689 33.8115 50.4989 33.9615 50.4389C34.2115 50.3289 34.4715 50.2589 34.7415 50.1989C35.0115 50.1389 35.1615 50.2889 35.2715 50.6189V50.6089Z" clip-rule="evenodd" fill-rule="evenodd"></path>
<path fill="#201C1A" d="M45.5814 54.9589C45.4214 54.8189 45.3014 54.7189 45.1914 54.6189C44.9714 54.3889 44.9314 54.2489 45.0214 54.0889C45.1814 53.8189 45.4614 53.6689 45.7114 53.7289C45.8814 53.7689 46.0514 53.8889 46.3314 54.1789C46.1814 54.5089 45.9014 54.7089 45.5714 54.9689L45.5814 54.9589Z" clip-rule="evenodd" fill-rule="evenodd"></path>
<path fill="#201C1A" d="M55.5413 56.1589C55.5013 56.2489 55.4713 56.3289 55.4413 56.3889C55.1713 56.8589 54.8613 56.9089 54.4713 56.5289C54.3313 56.3889 54.1413 56.2689 54.2113 55.9589C54.5013 55.7889 54.8513 55.6689 55.2613 55.6289C55.3613 55.8089 55.4513 55.9889 55.5413 56.1489V56.1589Z" clip-rule="evenodd" fill-rule="evenodd"></path>
<path fill="#201C1A" d="M42.6913 57.7189C42.3513 58.1189 41.9213 58.1989 41.5113 58.2789C41.4113 58.2989 41.2813 58.1489 41.1313 58.0589C41.4613 57.7189 41.6514 57.3289 42.0914 57.0989C42.2814 57.2889 42.4613 57.4889 42.6913 57.7289V57.7189Z" clip-rule="evenodd" fill-rule="evenodd"></path>
<path fill="#201C1A" d="M54.8313 51.7489C54.9713 52.1089 55.5213 52.2789 55.3513 52.8589C55.2813 52.8789 55.1913 52.9289 55.1013 52.9389C54.4313 52.9689 54.3113 52.8589 54.2613 52.1889C54.2413 51.8789 54.3613 51.7789 54.8313 51.7589V51.7489Z" clip-rule="evenodd" fill-rule="evenodd"></path>
<path fill="#201C1A" d="M58.8514 53.0989C58.7014 53.0489 58.5414 53.0389 58.5014 52.9589C58.3514 52.6889 58.1614 52.6189 57.8714 52.7489C57.8314 52.7689 57.7414 52.6989 57.6514 52.6689C57.8714 52.3089 58.1214 52.0189 58.5414 51.9189C58.8614 51.8389 59.1114 52.0189 59.0614 52.3489C59.0314 52.5889 58.9314 52.8189 58.8414 53.0989H58.8514Z" clip-rule="evenodd" fill-rule="evenodd"></path>
<path fill="#201C1A" d="M41.7914 53.7189C41.8914 53.7389 41.9414 53.7489 41.9814 53.7689C42.4614 54.0489 42.4814 54.7589 42.0214 55.0289C41.8114 55.1489 41.5014 55.0289 41.4814 54.8089C41.4514 54.5389 41.4514 54.2489 41.5014 53.9889C41.5214 53.8789 41.7014 53.7989 41.7914 53.7289V53.7189Z" clip-rule="evenodd" fill-rule="evenodd"></path>
<path fill="#201C1A" d="M43.7314 55.4189C44.2614 55.6589 44.2314 56.0489 44.1914 56.4389C44.1714 56.6289 43.9114 56.7589 43.7214 56.6989C43.3014 56.5689 43.1414 56.0989 43.3914 55.7189C43.4714 55.5989 43.6114 55.5289 43.7314 55.4189Z" clip-rule="evenodd" fill-rule="evenodd"></path>
<path fill="#201C1A" d="M56.1614 57.5089C56.6314 57.2689 56.9614 57.4389 57.2614 57.6789C57.4914 57.8689 57.4014 58.3089 57.1114 58.4289C57.0014 58.4789 56.8714 58.4989 56.7214 58.5389C56.4614 58.2589 56.3514 57.8989 56.1514 57.5089H56.1614Z" clip-rule="evenodd" fill-rule="evenodd"></path>
<path fill="#201C1A" d="M56.0415 61.6489C56.2815 61.1989 56.7915 61.4889 57.1015 61.2589C57.3115 61.5189 57.1915 61.7789 57.2315 62.0189C57.1515 62.0689 57.0915 62.1089 57.0315 62.1389C56.3515 62.3789 56.3515 62.3789 56.0515 61.6489H56.0415Z" clip-rule="evenodd" fill-rule="evenodd"></path>
<path fill="#201C1A" d="M36.7914 52.0989C36.8214 52.3389 37.0714 52.5589 36.7914 52.8389C36.5814 52.8189 36.3414 52.8089 36.1014 52.7689C35.8514 52.7289 35.7414 52.4989 35.8414 52.2489C35.9814 51.8789 36.1514 51.8089 36.5414 51.9589C36.6314 51.9889 36.7114 52.0589 36.8014 52.0989H36.7914Z" clip-rule="evenodd" fill-rule="evenodd"></path>
<path fill="#201C1A" d="M37.7812 50.7989C37.9613 50.7789 38.1012 50.7589 38.2712 50.7389C38.2012 50.5789 38.1512 50.4489 38.0912 50.2989C38.4012 50.1289 38.6912 50.3489 38.9712 50.2889C39.0012 50.2889 39.0513 50.3489 39.0713 50.3889C39.1613 50.5989 38.9613 51.0289 38.7113 51.0189C38.5013 51.0189 38.4012 51.1589 38.2512 51.2089C38.1312 51.2489 37.9412 51.2089 37.8312 51.1489C37.7712 51.1089 37.7912 50.9289 37.7812 50.8089V50.7989Z" clip-rule="evenodd" fill-rule="evenodd"></path>
<path fill="#201C1A" d="M35.3116 57.7489C35.1516 58.0889 35.0516 58.3589 34.9116 58.6189C34.8716 58.6889 34.7516 58.7489 34.6616 58.7489C34.3916 58.7589 33.9916 58.2889 34.0316 58.0289C34.0616 57.8289 34.2516 57.6789 34.4716 57.7189C34.6216 57.7389 34.7616 57.8089 34.9016 57.8189C35.0116 57.8289 35.1316 57.7889 35.3116 57.7589V57.7489Z" clip-rule="evenodd" fill-rule="evenodd"></path>
<path fill="#201C1A" d="M43.3013 60.0189C43.3813 59.8989 43.4713 59.7789 43.5313 59.6489C43.5813 59.5489 43.5813 59.4189 43.6213 59.2689C43.8913 59.4489 44.1113 59.5989 44.3213 59.7389C44.3213 59.8389 44.3413 59.8889 44.3213 59.9289C44.0213 60.5989 43.8213 60.6189 43.3113 60.0189H43.3013Z" clip-rule="evenodd" fill-rule="evenodd"></path>
<path fill="#201C1A" d="M35.2915 54.1989C35.1515 54.4789 34.9215 54.6489 34.6115 54.7289C34.3015 54.5789 34.4315 54.2289 34.2515 54.0389C34.6915 53.5689 34.8715 53.5989 35.2915 54.1989Z" clip-rule="evenodd" fill-rule="evenodd"></path>
<path fill="#201C1A" d="M41.5415 50.1289C41.9315 50.2089 42.1015 50.4689 42.3015 50.6689C42.1215 51.1189 42.0415 51.1589 41.7215 51.0089C41.6515 50.9789 41.5815 50.9489 41.5215 50.9089C41.3015 50.7689 41.2615 50.6189 41.4015 50.3289C41.4315 50.2589 41.4915 50.2089 41.5515 50.1289H41.5415Z" clip-rule="evenodd" fill-rule="evenodd"></path>
</g>
<path stroke-linejoin="round" stroke-linecap="round" stroke="#201C1A" d="M57.7494 59.382C56.3434 55.1551 52.543 51.1719 48.3591 50.9366C44.1752 50.7013 39.9146 52.4072 37.844 56.1971C37.06 57.6341 36.1397 61.2055 34.9468 62.0794H59.7093C59.7093 62.0794 59.8371 61.2139 58.8998 60.592C57.9624 59.9702 57.7494 59.382 57.7494 59.382Z"></path>
<path stroke-linejoin="round" stroke-linecap="round" stroke="#201C1A" d="M42.624 55.987L43.0501 56.1971"></path>
<path stroke-linejoin="round" stroke-linecap="round" stroke="#201C1A" d="M45.709 54.3148L46.135 54.5248"></path>
<path stroke-linejoin="round" stroke-linecap="round" stroke="#201C1A" d="M50.7622 55.0458C51.6143 55.3063 52.8158 56.7013 52.8925 57.0879"></path>
<path fill="#FFCB96" d="M43.059 61.9029C41.6956 59.8357 40.3493 56.113 36.9834 55.9197C34.6656 55.7853 32.2882 56.9282 31.172 58.8273L30.7203 60.1382L29.7148 62.0794H40.8094L43.0675 61.9029H43.059Z"></path>
<path stroke-linejoin="round" stroke-linecap="round" stroke="#201C1A" d="M42.1726 60.592C41.3972 58.2559 39.2925 56.0458 36.9832 55.9198C34.674 55.7937 32.3136 56.7349 31.1718 58.8273C30.7372 59.6257 30.226 61.592 29.5698 62.0794H43.2633C43.2633 62.0794 43.3315 61.6005 42.8117 61.2559C42.2919 60.9114 42.1726 60.592 42.1726 60.592Z"></path>
<path stroke-linejoin="round" stroke-linecap="round" stroke="#201C1A" d="M35.0488 59.8525L35.2874 59.9702"></path>
<path stroke-linejoin="round" stroke-linecap="round" stroke="#201C1A" d="M38.3125 58.1887C38.7812 58.3315 39.4458 59.1046 39.4884 59.3231"></path>
</svg>
