<svg xmlns="http://www.w3.org/2000/svg" fill="none" viewBox="0 0 292 124" height="124" width="292">
<g clip-path="url(#clip0_8194_47)">
<path fill="#201C1A" d="M58.8115 93.2264C62.5279 91.5215 66.0133 87.3959 66.6432 86.7223C68.5119 84.7647 72.8582 82.1125 74.181 81.46C75.9447 80.597 79.8711 79.3341 83.2935 80.4918C83.2935 80.4918 83.3985 80.4707 82.9996 80.1339C82.0757 79.3551 79.7241 76.9766 75.4198 77.5028C72.2913 77.8817 70.3176 79.9655 69.1418 82.9124C68.4909 84.5332 67.0842 85.3331 66.7272 85.6698C66.7272 85.6698 67.4411 84.2596 67.798 81.8389C68.029 80.3023 68.7849 77.8185 69.4358 76.4082C69.4358 76.4082 70.6116 75.5242 71.5354 71.1039C72.2493 67.6939 72.3333 64.2419 72.2703 63.421C72.2283 63.0842 72.1024 63 72.1024 63C72.1024 63 71.8084 64.3892 71.4935 65.2522C70.7376 67.3782 68.7219 71.5249 68.4279 72.7457C68.05 74.3244 67.987 76.0715 68.029 77.3765C68.029 77.3765 67.6721 78.2606 67.5461 78.9131L67.2941 80.4918C67.2941 80.4918 66.6852 78.9341 65.6774 77.5659C64.7115 76.2609 62.15 72.2826 58.2446 72.1563C55.3051 72.0721 53.3734 74.7243 52.6595 75.6294C51.9876 76.4924 51.9876 76.8292 51.2317 77.2081C50.1819 77.7343 50.2239 78.0711 50.2239 78.0711C50.2239 78.0711 56.0819 75.2716 61.688 77.0608C63.3678 77.608 64.5436 78.0711 65.6984 79.3341C66.6852 80.4076 66.8322 81.6284 66.9162 81.881C66.9162 81.881 66.7062 83.6281 66.2023 85.0805C65.3414 87.5853 58.5805 95.3735 47.4943 94.0053C47.4943 94.0053 46.0246 94.4683 46.6964 95.0367C46.6964 95.0367 53.4994 95.6471 58.8115 93.2054"></path>
<path fill="#201C1A" d="M291.244 42.6453H291.328C291.013 42.5611 290.887 42.8979 290.656 43.2557C290.089 44.1187 289.459 44.8975 288.41 44.5607C288.011 44.4345 287.57 44.224 287.108 43.9082C285.26 42.7084 283.832 41.9296 282.824 41.6139C279.99 40.7298 277.344 40.8772 274.846 42.098C272.347 43.3189 270.688 45.2554 269.849 47.9286C268.589 51.949 270.478 55.843 275.497 59.6319C278.037 61.5263 279.549 62.705 280.053 63.1471C280.557 63.5891 281.061 64.2416 281.586 65.0836C282.51 66.5781 282.677 68.262 282.111 70.1354C281.586 71.7982 280.599 72.977 279.171 73.6295C277.743 74.282 276.378 74.0715 274.552 73.4822C271.15 72.4087 269.135 69.8828 267.875 66.7465C267.245 65.1888 268.505 64.1785 269.408 62.0104C269.597 61.5473 268.82 61.3789 268.526 61.2948C268.316 61.2316 267.917 61.6315 267.749 62.1578C267.749 62.1578 265.544 66.4518 262.941 69.6091C262.584 69.967 262.038 70.5563 261.975 70.7879C261.849 71.1668 262.521 71.7351 262.878 71.7982C263.067 71.8193 263.529 71.272 263.907 70.7668C264.536 69.967 265.46 69.8407 266.174 70.0512C266.678 70.2195 267.203 70.5563 267.77 71.1036C269.891 73.0401 271.801 74.261 273.523 74.8082C276.504 75.7555 279.381 75.5871 282.132 74.3241C284.882 73.0612 286.709 71.0405 287.57 68.283C288.326 65.8834 288.032 63.568 286.73 61.3158C285.701 59.5687 282.866 56.8955 278.184 53.254C275.161 50.9386 274.027 48.5811 274.783 46.2026C275.266 44.666 276.211 43.5925 277.659 42.94C279.087 42.2875 280.683 42.2454 282.405 42.7716C284.231 43.3399 285.68 44.3924 286.751 45.8868C287.822 47.3813 288.368 49.0863 288.368 51.0018C288.368 52.5804 288.137 52.8751 288.452 53.1488C288.578 53.254 289.501 53.5276 289.627 53.1488L289.669 53.0014C290.341 47.5076 291.79 43.8661 291.79 43.8661C291.874 43.6346 291.979 43.2768 291.979 43.2347C292.126 42.7926 291.601 42.7084 291.244 42.6032"></path>
<path fill="#201C1A" d="M188.529 120.232C187.311 122.064 185.421 122.969 182.86 122.969C180.172 122.969 178.576 122.127 178.093 120.422C177.778 119.369 177.631 116.065 177.631 110.466C177.631 104.867 177.82 101.941 178.219 100.888C178.618 99.8359 179.353 98.9518 180.445 98.2572C181.537 97.5415 182.692 97.2047 183.909 97.2047C186.219 97.2047 188.004 98.2361 189.284 100.299C190.565 102.362 191.216 105.288 191.216 109.097C191.216 113.833 190.334 117.559 188.55 120.253M185.022 96.026C181.726 96.026 179.269 97.1837 177.631 99.4991V73.8613H177.379C177.127 73.8613 176.666 74.0087 176.015 74.2823C173.81 75.2085 171.521 75.6715 169.128 75.6715H168.225C167.742 75.6715 167.511 75.8189 167.511 76.0925C167.511 76.4083 167.7 76.9555 168.057 76.9345C169.527 76.8503 171.5 77.0187 171.731 77.145C171.941 77.2713 171.983 78.1764 172.109 79.9656C172.34 82.9756 172.445 87.3748 172.445 89.9218V121.537C172.445 122.885 172.613 123.537 172.97 123.537C173.264 123.537 173.726 123.348 174.335 122.969C174.944 122.59 175.49 122.4 175.952 122.4C176.477 122.4 177.463 122.653 178.933 123.2C180.403 123.727 181.81 124 183.153 124C186.996 124 190.292 122.527 193.022 119.559C195.751 116.591 197.116 113.013 197.116 108.803C197.116 104.951 196.003 101.857 193.799 99.5201C191.594 97.1837 188.676 96.026 185.043 96.026"></path>
<path fill="#201C1A" d="M22.8023 40.4349L23.8521 40.2665C23.8521 40.2665 40.1245 66.8725 40.3765 67.504C40.6074 68.1354 41.2163 68.4301 41.3003 68.0933C41.3843 67.7355 45.8986 44.6447 45.8986 44.6447L57.0898 61.8418C57.0898 61.8418 59.8193 65.6516 60.0503 65.5464C60.2813 65.4411 60.4282 64.8097 60.5962 64.3887C60.7642 63.9677 66.6642 33.0677 66.7482 32.8782C66.8532 32.7099 69.2258 32.4994 69.7087 32.3941C70.1917 32.2889 69.7087 31.0259 69.5828 31.0049L61.562 32.3731L61.751 33.6571C61.856 33.8044 62.8218 33.6571 63.0528 33.5729C63.2838 33.4887 65.2575 33.0256 65.2365 33.2782C65.2155 33.5308 60.9951 56.6216 60.8692 56.6847C60.7432 56.7689 48.6911 35.9725 48.0822 34.9832C47.4733 34.0149 47.0114 34.3727 46.9274 34.6253C46.8224 34.8779 42.4761 55.5481 42.3921 55.7165L32.1458 38.5825C32.1458 38.5825 34.4134 38.0774 34.8753 37.9721L34.4554 36.5197L21.1436 39.2561L21.5005 40.6664C21.5005 40.6664 22.4453 40.498 22.8233 40.4138"></path>
<path fill="#201C1A" d="M135.113 60.4108C135.113 60.2635 135.281 59.211 135.071 59.0216C134.861 58.8321 129.549 59.1689 129.486 58.6006C129.465 58.3901 128.961 28.2899 128.961 27.7427C128.961 27.4269 128.919 18.46 128.898 10.8403V0H128.52C128.142 0 127.491 0.210491 126.568 0.610423C123.397 1.95756 120.08 2.63113 116.657 2.63113L114.747 2.67323C114.432 2.71533 114.327 2.84162 114.327 3.2626C114.327 3.72568 114.432 4.20981 114.873 4.16771C116.972 3.97827 119.912 4.16771 120.227 4.33611C120.521 4.5045 120.773 6.25157 120.962 8.8406C121.109 10.7561 121.213 13.0504 121.297 15.3448C121.465 30.037 121.801 57.8639 121.801 58.1585C121.801 58.5585 121.591 58.9163 121.591 58.9163L117.497 59.1058C117.392 59.211 117.539 60.4739 117.812 60.516C118.106 60.5581 125.707 60.3687 125.938 60.3687C126.169 60.3687 135.155 60.5581 135.155 60.4318"></path>
<path fill="#201C1A" d="M203.016 32.7946C203.121 32.8578 212.57 61.6529 213.032 63.4842C213.494 65.3154 214.186 65.0628 214.543 64.5577C214.9 64.0525 233.524 35.9099 233.629 35.9099L237.871 36.4572C238.018 36.4151 238.123 35.7626 238.27 35.3416C238.417 34.8995 237.871 35.0679 237.409 34.9416C236.947 34.8364 228.443 33.5735 228.149 33.6787C227.855 33.7839 227.771 34.9627 228.149 35.1311C228.548 35.3205 232.412 35.6994 232.412 35.6994L218.05 56.4748L211.415 33.6366C211.415 33.6366 215.425 33.9944 216.496 34.0786C216.79 34.0786 216.769 33.7208 216.853 33.3209C216.916 32.9209 216.937 32.5841 216.58 32.4789C216.097 32.3316 199.237 30.6055 199.027 30.6687C198.817 30.7529 198.817 32.1211 198.985 32.1842L203.016 32.7525"></path>
<path fill="#201C1A" d="M78.5064 35.1733C79.7242 32.1632 81.7609 30.4583 84.6374 30.0373C87.6609 29.5953 89.9915 30.353 91.5873 32.3316C93.7709 35.0049 95.2407 38.9831 96.0176 44.2875C96.8154 49.7603 96.3745 54.2648 94.6948 57.7589C93.8129 59.6112 92.1962 60.7058 89.8235 61.0636C86.737 61.5267 84.1335 60.5163 82.0128 58.0536C79.8922 55.5908 78.4854 51.9283 77.7715 47.066C77.0576 42.1615 77.2886 38.2043 78.5064 35.1943M77.1836 59.106C80.774 61.8003 84.9103 62.7896 89.5926 62.095C94.1069 61.4214 97.6553 59.2955 100.217 55.6961C102.778 52.0967 103.723 47.9711 103.03 43.2982C102.338 38.5411 100.196 34.7944 96.6055 32.037C93.036 29.3006 88.9207 28.2692 84.3014 28.9427C79.7242 29.6163 76.1548 31.7633 73.5722 35.4048C70.9896 39.0252 70.0447 43.2561 70.7376 48.0553C71.4305 52.7282 73.5722 56.3907 77.1626 59.085"></path>
<path fill="#201C1A" d="M37.395 91.9209C26.2878 88.3215 20.8076 63.3784 14.7816 42.1609L18.708 41.34L18.351 39.9508L14.5296 40.6875L12.514 32.0784L12.136 31.9521C11.8841 32.6468 10.6453 37.0881 8.18867 39.3614C5.12316 42.203 0.671878 42.7924 0.125966 42.9398C-0.251973 43.045 0.167959 44.4974 0.335932 44.4974L7.72674 43.3397C11.1282 55.2745 15.7265 68.9353 18.75 76.6603C24.2301 90.5948 32.5028 92.3208 37.059 92.805C37.5419 92.8471 37.9829 92.1525 37.353 91.942"></path>
<path fill="#201C1A" d="M50.2869 118.19C50.2869 118.885 47.2004 121.937 44.4708 122.105C38.3608 122.505 37.101 107.392 50.0769 107.266C50.0769 107.266 50.3079 116.843 50.2869 118.19ZM60.8272 116.275C60.7012 119.137 58.7485 120.442 57.5517 120.463C56.3759 120.463 55.809 118.674 55.725 117.601C55.662 116.822 55.536 96.0886 55.368 96.3412C54.9901 96.8884 49.9929 97.583 50.0349 97.2673L50.0769 106.129C50.0769 106.129 49.384 106.192 48.3342 106.297C37.6889 107.371 34.4974 113.601 34.3924 117.306C34.2454 122.042 38.2978 124 43.7569 123.915C47.6203 123.852 50.2029 119.874 50.4128 119.642C50.6228 119.411 50.7698 119.579 50.8328 120.042C51.1897 123.263 53.5833 124.252 56.0819 123.789C61.5201 122.779 62.171 116.169 62.171 115.896C62.171 115.622 60.8902 114.78 60.8272 116.254"></path>
<path fill="#201C1A" d="M147.165 118.169C147.165 118.864 144.142 121.979 141.412 122.147C135.302 122.547 133.979 109.265 146.955 109.118C146.955 109.118 147.186 116.822 147.165 118.169ZM157.706 116.359C157.58 119.222 155.627 120.527 154.43 120.548C153.254 120.548 152.687 118.758 152.603 117.685C152.519 116.611 152.414 104.677 152.351 102.361C152.183 96.9095 149.139 94.131 143.407 94.7204C137.675 95.3098 133.329 98.9934 133.412 101.498C133.496 104.003 136.016 104.55 136.793 104.382C137.57 104.214 139.208 103.729 139.292 101.372C139.355 99.0144 137.696 99.246 137.486 98.9302C137.402 98.7829 137.591 97.8146 138.032 97.3936C138.683 96.7622 140.32 95.8781 142.819 95.7097C145.318 95.5413 146.724 97.2252 146.871 98.8039C146.955 99.688 146.976 108.023 146.976 108.023C146.976 108.023 146.283 108.066 145.234 108.171C134.588 109.244 131.397 113.58 131.292 117.285C131.145 122.021 135.197 123.979 140.656 123.894C144.52 123.831 147.102 119.853 147.312 119.621C147.522 119.39 147.669 119.558 147.732 120.021C148.089 123.242 150.483 124.336 152.981 123.873C158.419 122.863 159.049 116.38 159.07 115.98C159.091 115.622 157.811 115.012 157.727 116.338"></path>
<path fill="#201C1A" d="M144.604 40.1403C144.793 32.7521 148.152 27.2793 152.435 27.2162C156.614 27.1741 159.28 33.0889 159.175 40.2245L144.604 40.1403ZM152.519 26.1006C148.131 26.1006 144.457 27.7424 141.496 31.0892C138.536 34.436 137.066 38.6248 137.045 43.6555C137.045 48.4757 138.557 52.5382 141.622 55.8219C144.688 59.1055 148.53 60.7684 153.128 60.7894C156.803 60.7894 159.742 59.7159 161.947 57.5268C162.766 56.727 163.585 55.6956 164.383 54.4116C165.18 53.1276 165.579 52.2435 165.579 51.7383C165.579 51.3805 165.369 51.2121 164.97 51.2121C164.613 51.2121 164.341 51.4016 164.131 51.8015C162.682 54.3484 161.359 56.0744 160.12 56.9796C158.902 57.8847 157.244 58.3056 155.207 58.3056C142.882 58.3056 144.583 42.8346 144.604 41.6558C144.604 41.298 159.154 41.5085 159.154 41.5085C161.863 41.5716 165.348 41.4243 165.621 41.277C165.663 39.993 165.894 26.1006 152.498 26.1006"></path>
<path fill="#201C1A" d="M252.19 36.6253C256.348 37.1936 258.09 43.4452 256.957 50.4755L242.553 48.2654C243.813 40.9824 247.949 36.0569 252.169 36.6253M261.093 62.1788C260.736 62.1157 260.421 62.2841 260.169 62.6419C258.363 64.9573 256.789 66.4728 255.445 67.1885C254.101 67.9042 252.421 68.0726 250.385 67.7779C238.186 65.9676 242.112 50.9176 242.322 49.7388C242.385 49.381 256.747 51.7385 256.747 51.7385C259.413 52.2016 262.878 52.5594 263.193 52.4541C263.424 51.1912 265.67 37.4672 252.421 35.5097C248.075 34.8571 244.212 35.9517 240.789 38.8354C237.388 41.7191 235.288 45.6553 234.553 50.6229C233.839 55.401 234.742 59.6319 237.304 63.3365C239.865 67.0411 243.414 69.2303 247.97 69.9459C251.602 70.5142 254.668 69.8617 257.188 68.0094C258.111 67.3358 259.077 66.4307 260.043 65.273C261.009 64.1364 261.555 63.3155 261.618 62.8103C261.681 62.4735 261.492 62.263 261.093 62.1999"></path>
<path fill="#201C1A" d="M186.954 55.9483C186.87 56.7482 182.985 60.0739 179.794 59.9476C172.634 59.695 172.655 44.0556 187.752 45.4027C187.752 45.4027 187.143 54.3907 186.954 55.9483ZM199.405 55.401C198.943 58.7268 196.507 60.0108 195.122 59.9055C193.736 59.8003 193.316 57.6322 193.337 56.3693C193.337 55.1063 194.618 41.2139 194.807 38.5197C195.248 32.1418 192.014 28.5845 185.274 28.6056C178.555 28.6266 173.054 32.4154 172.865 35.3202C172.676 38.246 175.532 39.1722 176.456 39.0669C177.379 38.9617 179.353 38.6039 179.689 35.8464C180.046 33.1101 178.072 33.1943 177.862 32.7943C177.778 32.6259 178.114 31.4893 178.66 31.0683C179.479 30.3947 181.495 29.5738 184.413 29.658C187.353 29.7422 188.97 31.8892 188.76 33.7205C188.718 34.1415 187.857 44.0766 187.857 44.0766C187.857 44.0766 187.038 44.0766 185.799 44.0766C173.306 44.0766 169.086 48.7916 168.519 53.0856C167.805 58.5794 172.277 61.3158 178.66 61.8631C183.153 62.242 186.618 57.9058 186.891 57.6533C187.164 57.4217 187.332 57.6112 187.332 58.1795C187.374 61.9683 189.998 63.8627 192.959 63.6101C199.405 63.0629 200.917 55.7588 200.938 55.3379C200.98 54.6643 199.573 53.696 199.342 55.401"></path>
<path fill="#201C1A" d="M47.0114 92.0055C47.1794 92.0055 47.5574 91.9424 49.0061 92.216C49.0061 92.216 50.5599 92.3423 52.1766 91.5635C52.5965 91.3741 51.8407 90.6163 47.6413 91.0162C41.9093 91.5846 37.563 95.2892 37.6469 97.794C37.7309 100.299 40.2505 100.846 41.0274 100.678C41.8043 100.509 43.442 100.046 43.526 97.6677C43.589 95.2892 41.9303 95.5418 41.7203 95.2261C41.6363 95.0787 41.8253 94.1104 42.2662 93.6895C42.9171 93.058 44.5548 92.1318 47.0534 92.0055"></path>
<path fill="#201C1A" d="M112.773 109.834V105.434C112.773 105.792 112.773 106.129 112.773 106.508C112.773 107.708 112.773 108.802 112.773 109.834ZM112.773 110.255C112.731 115.159 112.563 118.043 112.29 118.906C111.954 119.979 111.261 120.884 110.169 121.642C109.077 122.4 107.86 122.779 106.495 122.779C105.403 122.779 104.332 122.421 103.324 121.705C102.296 120.99 101.519 120.085 100.994 118.969C99.7759 116.359 99.167 113.202 99.167 109.518C99.167 105.834 99.8599 102.593 101.267 100.298C102.673 98.0041 104.542 96.8675 106.894 96.8675C108.72 96.8675 110.232 97.5621 111.408 98.9513C112.227 99.9406 112.689 102.088 112.773 105.35V110.255ZM119.24 122.589C119.009 122.589 118.757 122.316 118.589 122C118.421 120.779 118.232 114.612 118.232 105.413V75.6711C118.232 74.9554 118.106 74.5134 117.896 74.3239L117.602 74.1976C117.308 74.1766 116.909 74.2608 116.699 74.3239C116.447 74.4292 114.264 75.3764 112.017 76.1762C109.938 76.913 107.188 77.355 106.999 77.4392C106.621 77.6076 106.894 78.7863 107.293 78.7232C107.482 78.7021 108.699 78.5548 109.791 78.5548C110.337 78.5548 111.051 78.4706 112.248 78.7863C112.5 78.8495 112.668 79.1652 112.752 80.0282C112.815 81.0807 112.836 85.9851 112.836 89.0793V97.2253C112.836 97.8357 112.836 98.3199 112.836 98.6356C111.345 96.6359 109.119 95.6466 106.159 95.6466C102.317 95.6466 99.209 96.9727 96.8154 99.6038C94.4428 102.235 93.246 105.666 93.246 109.897C93.246 114.128 94.4428 117.39 96.8154 120.042C99.188 122.695 102.212 124.021 105.886 124.021C108.469 124.021 110.694 123.137 112.563 121.39L112.5 123.031C112.5 123.431 112.962 123.81 113.34 123.958L113.634 124.021C114.012 124.021 118.337 123.937 118.589 123.937C118.841 123.937 121.675 123.768 122.095 123.705C122.515 123.642 122.137 122.716 122.011 122.526C121.843 122.274 119.597 122.61 119.303 122.632"></path>
<path fill="#201C1A" d="M250.763 109.813V105.414C250.763 105.772 250.763 106.109 250.763 106.487C250.763 107.687 250.763 108.782 250.763 109.813ZM250.763 110.255C250.721 115.16 250.553 118.043 250.28 118.906C249.944 119.98 249.251 120.885 248.159 121.643C247.067 122.401 245.849 122.779 244.485 122.779C243.393 122.779 242.322 122.422 241.314 121.706C240.285 120.99 239.508 120.085 238.983 118.97C237.766 116.359 237.157 113.202 237.157 109.518C237.157 105.835 237.85 102.593 239.256 100.299C240.663 98.0047 242.532 96.868 244.884 96.868C246.731 96.868 248.222 97.5626 249.398 98.9519C250.217 99.9412 250.679 102.088 250.763 105.351V110.255ZM257.167 122.485C256.936 122.485 256.684 122.211 256.516 121.895C256.348 120.674 256.222 114.612 256.222 105.393V75.6506C256.222 74.9349 256.096 74.4929 255.886 74.3034L255.592 74.1771C255.298 74.1561 254.899 74.2403 254.689 74.3034C254.437 74.4087 252.253 75.3559 250.007 76.1557C247.928 76.8925 245.177 77.3345 244.989 77.4187C244.611 77.6081 244.884 78.7658 245.282 78.7027C245.471 78.6606 246.689 78.5132 247.781 78.5343C248.327 78.5343 249.041 78.4501 250.238 78.7658C250.49 78.829 250.658 79.1447 250.742 80.0077C250.805 81.0602 250.826 85.9646 250.826 89.0588V97.2048C250.826 97.8152 250.826 98.2993 250.826 98.6151C249.335 96.6154 247.109 95.6261 244.149 95.6261C240.306 95.6261 237.199 96.9312 234.805 99.5833C232.433 102.214 231.236 105.645 231.236 109.876C231.236 114.107 232.433 117.37 234.805 120.022C237.178 122.674 240.201 124 243.876 124C246.458 124 248.684 123.116 250.553 121.369V122.758C250.553 123.158 250.931 123.685 251.329 123.832L251.518 123.874H251.749C252.127 123.916 256.327 123.832 256.6 123.811C256.873 123.811 259.728 123.685 260.148 123.621C260.568 123.558 260.19 122.864 260.064 122.674C259.896 122.422 257.544 122.485 257.23 122.506"></path>
<path fill="#201C1A" d="M88.7527 122.316C88.6057 122.19 88.4377 121.664 88.4377 120.338V105.287C88.4377 101.793 88.0388 99.4358 87.2409 98.1729C85.8132 95.9627 83.5245 94.8682 80.333 94.8682C76.7006 94.8682 73.7191 96.2574 71.4305 99.0359V96.0469C71.4305 95.2681 71.2835 94.8682 70.9685 94.8682C70.7376 94.8682 70.4436 95.0366 70.0447 95.3733C69.4148 95.9206 68.344 96.3837 66.7902 96.8047C65.2365 97.2257 63.8087 97.4572 62.4649 97.4993H62.2969C61.982 97.5624 62.108 98.5518 62.2969 98.5728H62.7379H64.3336C65.3624 98.5728 65.9084 98.8254 65.9923 99.3095C66.0763 99.8147 66.1183 102.425 66.1183 107.14V121.537L65.9294 122.463C65.8664 122.611 65.0895 122.737 64.8585 122.8L64.2286 122.842C64.0607 122.906 64.0607 123.747 64.2916 123.769C64.5226 123.769 68.7639 123.769 69.2468 123.769H73.3202C73.6561 123.769 73.5931 122.821 73.3202 122.821C72.5013 122.758 71.6404 122.485 71.6404 122.021V101.772C71.6404 100.825 71.8714 100.067 72.3123 99.5411C73.8241 97.7098 75.6718 96.8047 77.8974 96.8047C80.1231 96.8047 81.6558 97.7308 82.4117 99.6042C82.7686 100.467 82.9366 103.161 82.9366 107.687V120.464C82.9366 121.622 82.8946 122.295 82.7476 122.463C82.5377 122.695 82.4117 122.695 82.0128 122.758L81.1519 122.927C81.1309 123.305 81.0889 123.516 81.2569 123.811H82.3067C83.6295 123.811 84.9103 123.769 87.1989 123.769C88.4377 123.769 90.0755 123.769 90.9153 123.726C91.0833 123.558 91.1043 122.674 90.8523 122.463C90.0125 122.442 89.0676 122.59 88.7527 122.316Z"></path>
<path fill="#201C1A" d="M229.199 121.432C228.59 121.432 228.065 121.453 227.498 121.327C226.931 121.201 226.575 120.716 226.428 119.896C226.281 119.075 226.218 116.233 226.218 113.076V94.805C226.218 94.6156 226.155 94.4893 225.336 94.7208C224.244 95.0366 222.585 95.4996 219.478 96.1732C218.89 96.2995 216.727 96.4258 216.622 96.6573C216.517 96.8889 216.517 97.7308 216.79 97.794C217 97.8571 219.919 97.4783 220.234 97.794C220.234 97.9834 220.234 98.215 220.276 98.4676V98.636C220.276 99.099 220.318 99.7515 220.36 100.53C220.402 101.33 220.423 102.088 220.423 102.572V112.676C220.423 115.728 220.003 117.938 219.163 119.327C217.987 121.243 216.181 122.19 213.704 122.19C211.415 122.19 209.903 121.348 209.168 119.643C208.706 118.548 208.475 116.338 208.475 112.991V94.805V94.784C208.37 94.784 208.035 94.8682 207.804 94.9313C206.712 95.2471 205.053 95.8575 201.945 96.531C201.358 96.6573 199.195 96.7836 199.09 97.0152C198.985 97.2467 198.985 98.0887 199.258 98.1518C199.405 98.1939 201.085 98.0255 202.218 98.0676C202.47 98.1308 202.68 98.2571 202.701 98.4255C202.701 98.4676 202.701 98.636 202.722 98.9096V113.812C202.722 116.675 202.785 118.443 202.89 119.075C202.995 119.727 203.373 120.443 203.961 121.222C205.431 123.095 207.888 124.021 211.31 124.021C215.152 124.021 218.134 122.611 220.255 119.832V123.284C220.255 123.642 220.402 123.811 220.674 123.811L221.157 123.684C224.055 122.653 225.168 122.884 228.8 122.884C230.06 122.884 229.85 122.295 229.85 122C229.85 121.706 229.787 121.432 229.241 121.432"></path>
</g>
<defs>
<clipPath id="clip0_8194_47">
<rect fill="white" height="124" width="292"></rect>
</clipPath>
</defs>
</svg>
