<svg xmlns="http://www.w3.org/2000/svg" fill="none" viewBox="0 0 80 80" height="80" width="80">
<circle stroke="#201C1A" fill="#FBF9EB" r="39.5" cy="40" cx="40"></circle>
<path stroke-linejoin="round" stroke-linecap="round" stroke="#201C1A" fill="#75AB45" d="M20 30.5001C20.922 33.2659 21.7309 36.7163 26 41.0001C30.2691 45.2838 35.8944 45.4731 37.2362 45.667C38 46.5001 38.2585 47.2031 38.448 49.0001C38.8391 52.7391 37.5 57.5001 37.5 57.5001L42.3673 57.5001C42.3673 57.5001 41.7453 50.6991 41.9649 47.3615C42.1209 44.9841 44.5603 38.1699 50.6828 36.0538C56 34.2161 60.5 34.5001 60.5 34.5001C60.5 34.5001 54.5 29.5001 46.8279 33.0698C40.096 36.4933 41.2533 42.3952 41.2533 42.3952C41.2533 42.3952 40.8867 43.16 40.6893 43.8083C40.3507 42.5825 39.9795 41.2079 40.0009 38.6191C40.5703 37.4228 41.308 34.9271 41.3409 31.4756C41.3737 28.024 40.7343 24.567 41.1214 22.0715C41.5085 19.5761 42.3673 17.4353 42.3673 17.4353C42.3673 17.4353 38.1815 20.3726 37.1895 28.0929C36.1975 35.8133 38.7147 38.9335 38.7147 38.9335C38.7147 38.9335 39.7303 43.3248 39.2675 44.6819C38.7559 44.4821 38.448 43.8379 38.448 43.8379C38.448 43.8379 38.1669 35.8065 33.4866 31.2361C29.8234 27.6588 26.7379 26.464 22.7442 25.7373C19.4826 25.1407 17 25.7372 17 25.7372C18.5 27.5001 19.5 29.0001 20 30.5001Z"></path>
<path stroke-linejoin="round" stroke-linecap="round" stroke="#201C1A" d="M17.5 26.0001C17.5 26.0001 24.0457 27.5299 30.1563 34.3411C34.5039 39.1786 37.0665 44.325 37.0665 44.325"></path>
<mask height="42" width="25" y="17" x="36" maskUnits="userSpaceOnUse" style="mask-type:luminance" id="mask0_11220_902085">
<path fill="white" d="M58.0007 34.4999C57.0007 34.4999 56.4828 34.0451 50.6887 36.0514C44.5662 38.1675 42.1268 44.9817 41.9708 47.3591C41.7535 50.702 41.8674 58.4608 41.8674 58.4608L37.6431 58.3779C37.6431 58.3779 38.8685 51.7428 38.5007 47.9999C38.6463 46.7353 38.7077 45.9999 39.1555 44.6236C39.1797 44.6508 39.225 44.6689 39.2628 44.684C39.7233 43.3216 38.7077 38.9304 38.7077 38.9304C38.7077 38.9304 36.1905 35.8102 37.1848 28.0951C38.1746 20.3694 42.3626 17.4375 42.3626 17.4375C42.3626 17.4375 41.5061 19.5835 41.122 22.0714C40.7349 24.5668 41.3766 28.0292 41.349 31.4784C41.3139 34.9247 40.5762 37.4204 40.0091 38.6219C39.9929 41.2085 40.3641 42.5831 40.6952 43.8059C40.8979 43.1553 41.2591 42.3928 41.2591 42.3928C41.2591 42.3928 40.1041 36.4961 46.8338 33.0674C53.4676 29.6924 60.3919 34.3776 60.5007 34.4999L58.0007 34.4999Z"></path>
</mask>
<g mask="url(#mask0_11220_902085)">
<path fill="#201C1A" d="M40.5033 48.6459C40.6988 48.5748 40.8676 48.5215 41.0897 48.4415C41.2497 48.5215 41.4452 48.6281 41.6051 48.7081C41.6821 49.2649 41.8272 49.7181 42.0405 50.0676C41.8628 50.3342 41.765 50.3964 41.5962 50.2986C41.4007 50.1742 41.2141 50.0943 40.9831 50.0409C40.8498 50.0143 40.7343 49.8632 40.6277 49.7566C40.4766 49.5967 40.3433 49.419 40.1834 49.2235C40.1567 48.9836 40.4411 48.8592 40.5033 48.6459Z" clip-rule="evenodd" fill-rule="evenodd"></path>
<path fill="#201C1A" d="M39.0824 45.2871C38.6026 44.9227 38.5492 44.7184 38.8247 44.283C39.0024 43.9986 39.1624 43.7054 39.5089 43.5632C39.8643 43.7765 40.1398 44.0342 40.0154 44.4785C39.9265 44.8072 39.7755 45.1093 39.3845 45.1893C39.2779 45.2071 39.1712 45.2604 39.0824 45.2871Z" clip-rule="evenodd" fill-rule="evenodd"></path>
<path fill="#201C1A" d="M53.2179 52.6799C53.4311 52.0845 53.8399 51.9246 54.3375 51.969C54.7018 51.6936 54.9417 51.4004 54.8884 50.9294C54.8617 50.6984 54.995 50.5473 55.2083 50.4674C55.4215 50.3874 55.6259 50.3074 55.8214 50.2363C56.1679 50.343 56.2479 50.6451 56.3634 50.885C56.2479 51.1604 56.1413 51.4004 56.0169 51.6847C55.5281 51.587 55.2616 51.9602 54.9061 52.2178C54.8884 52.3689 54.8706 52.5199 54.8439 52.7065C54.7195 52.7687 54.5774 52.8309 54.4441 52.9109C54.3286 52.982 54.2397 53.0886 54.1331 53.1775C53.7599 53.1508 53.5378 52.8754 53.209 52.671L53.2179 52.6799Z" clip-rule="evenodd" fill-rule="evenodd"></path>
<path fill="#201C1A" d="M48.19 48.7526C48.19 49.0369 48.2078 49.3301 48.19 49.6145C48.19 49.7922 48.0656 49.8988 47.8879 49.9166C47.5947 49.9521 47.2925 49.9521 47.0349 49.7122C46.9371 49.5256 46.9815 49.2946 46.9904 49.0725C47.0082 48.5393 47.3814 48.3261 47.8701 48.5482C47.9679 48.5926 48.0656 48.6637 48.19 48.7437L48.19 48.7526Z" clip-rule="evenodd" fill-rule="evenodd"></path>
<path fill="#201C1A" d="M52.0557 25.4898C51.8691 25.3832 51.7625 25.2321 51.7447 25.0011C51.7358 24.7345 51.8336 24.5124 52.0024 24.3169C52.1357 24.1569 52.3312 24.1925 52.5089 24.2014C52.7932 24.2103 53.1398 24.4768 53.2197 24.7434C53.2908 24.9478 53.2197 25.1699 53.0242 25.2677C52.891 25.3387 52.731 25.3832 52.58 25.4187C52.4022 25.4543 52.2245 25.472 52.0468 25.4898L52.0557 25.4898Z" clip-rule="evenodd" fill-rule="evenodd"></path>
<path fill="#201C1A" d="M51.5933 23.0996C51.4778 23.5528 51.1135 23.6416 50.7847 23.7571C50.7047 23.7838 50.5537 23.7305 50.4915 23.6594C50.3404 23.4994 50.2338 23.304 50.1094 23.1351C50.1716 22.7975 50.296 22.5398 50.5448 22.371C50.6247 22.3176 50.7936 22.291 50.8469 22.3354C51.1223 22.5487 51.4689 22.6997 51.5933 23.0996Z" clip-rule="evenodd" fill-rule="evenodd"></path>
<path fill="#201C1A" d="M53.9203 20.6293C53.6271 20.4871 53.5293 20.2739 53.4849 20.0162C53.4405 19.7496 53.5471 19.5275 53.6715 19.3142C53.787 19.1098 53.9647 19.0565 54.1868 19.1454C54.3112 19.1987 54.4268 19.2698 54.5512 19.3409C54.6222 19.5275 54.6844 19.723 54.7644 19.9362C54.6933 20.0428 54.6045 20.1495 54.56 20.265C54.4445 20.5404 54.1691 20.5316 53.9203 20.6293Z" clip-rule="evenodd" fill-rule="evenodd"></path>
<path fill="#201C1A" d="M52.8907 47.0998C52.9707 47.2864 53.0418 47.4285 53.0773 47.5796C53.1929 48.0239 52.9885 48.1572 52.562 48.2816C52.2776 48.3615 51.9578 48.1572 51.8956 47.855C51.8511 47.6596 51.8156 47.4641 51.7889 47.2597C51.7712 47.1442 51.8867 46.9842 52.0111 46.9665C52.1444 46.9487 52.2865 46.922 52.4109 46.9398C52.5798 46.9665 52.7486 47.0464 52.8819 47.0909L52.8907 47.0998Z" clip-rule="evenodd" fill-rule="evenodd"></path>
<path fill="#201C1A" d="M37.7748 32.1719C37.8992 32.1985 38.0147 32.2163 38.1213 32.2518C38.2546 32.2963 38.3524 32.3851 38.3879 32.5362C38.4146 32.6428 38.4235 32.7583 38.4412 32.865C38.4768 33.1049 38.4146 33.2382 38.1924 33.3537C37.9436 33.4781 37.9259 33.4781 37.3127 33.3981C37.2594 33.3181 37.1883 33.2293 37.1439 33.1315C36.9929 32.8294 37.0195 32.6961 37.2683 32.4918C37.3039 32.4651 37.3394 32.4384 37.3749 32.4118C37.4905 32.3407 37.606 32.2696 37.7659 32.1719L37.7748 32.1719Z" clip-rule="evenodd" fill-rule="evenodd"></path>
<path fill="#201C1A" d="M50.2862 25.6497C50.6327 25.4809 50.8726 25.5608 51.1126 25.8007C51.3258 26.014 51.5391 26.2095 51.4769 26.5471C51.468 26.6093 51.468 26.6893 51.4236 26.7426C51.2547 26.9559 50.997 27.0003 50.7571 27.0092C50.5972 27.0092 50.4461 26.8937 50.375 26.6893C50.2506 26.3605 50.224 26.0407 50.2862 25.6497Z" clip-rule="evenodd" fill-rule="evenodd"></path>
<path fill="#201C1A" d="M46.6516 47.7929C46.5095 47.9262 46.3673 48.0684 46.2073 48.1928C45.9141 48.4238 45.6031 48.3172 45.4787 47.9617C45.4076 47.7574 45.3099 47.553 45.3454 47.3131C45.3721 47.1709 45.4254 47.0199 45.5587 47.0021C45.8164 46.9665 46.0918 46.9754 46.3495 47.0021C46.4295 47.0021 46.5183 47.1443 46.545 47.242C46.5983 47.3842 46.5983 47.5441 46.6427 47.7929L46.6516 47.7929Z" clip-rule="evenodd" fill-rule="evenodd"></path>
<path fill="#201C1A" d="M50.0195 55.9677C50.0817 55.4434 50.5082 55.3812 50.837 55.2302C51.0858 55.1147 51.5034 55.3901 51.5923 55.6567C51.6367 55.8078 51.6367 55.9766 51.5212 56.101C51.3968 56.2343 51.2635 56.3498 51.148 56.4564C50.7304 56.3587 50.3216 56.3142 50.0195 55.9677Z" clip-rule="evenodd" fill-rule="evenodd"></path>
<path fill="#201C1A" d="M46.1895 56.7762C46.5094 57.0339 46.5183 57.0339 46.6516 57.3805C46.5894 57.7714 46.1984 57.9047 45.994 58.1891C45.914 58.2957 45.7186 58.269 45.6297 58.1624C45.4875 57.9936 45.3542 57.807 45.2565 57.6115C45.1499 57.3982 45.2565 57.1494 45.4786 57.0517C45.603 56.9984 45.7274 56.9628 45.8518 56.9184C45.9585 56.8829 46.0562 56.8296 46.1895 56.7762Z" clip-rule="evenodd" fill-rule="evenodd"></path>
<path fill="#201C1A" d="M57.5021 28.9374C57.6532 28.9996 57.7598 29.0351 57.8487 29.0884C58.1952 29.2839 58.2397 29.5149 58.0175 29.8615C57.8576 30.1103 57.6354 30.288 57.3511 30.4391C57.0845 30.2258 56.7735 30.0481 56.6758 29.6482C56.7024 29.4616 56.8979 29.4172 57.0401 29.3106C57.1823 29.2039 57.3155 29.0884 57.4933 28.9374L57.5021 28.9374Z" clip-rule="evenodd" fill-rule="evenodd"></path>
<path fill="#201C1A" d="M59.9551 29.4884C60.0617 29.3285 60.1417 29.1597 60.2661 29.0441C60.346 28.9642 60.5149 28.902 60.6215 28.9286C60.9325 28.9908 61.1635 29.2219 61.1991 29.5151C61.2346 29.7817 61.1991 30.0926 60.968 30.3148C60.7903 30.4836 60.6215 30.4836 60.426 30.3414C60.1417 30.146 60.0528 29.8527 59.9551 29.4884Z" clip-rule="evenodd" fill-rule="evenodd"></path>
<path fill="#201C1A" d="M38.3529 29.3018C38.3766 29.6454 38.2167 30.0215 37.8731 30.4303C37.6421 30.4925 37.4733 30.3592 37.3133 30.2437C37.1445 30.1193 37.0645 29.9416 37.1445 29.7017C37.1978 29.5417 37.2156 29.364 37.2511 29.1685C37.4644 28.9464 37.7309 28.9286 38.0153 29.1152C38.1308 29.1863 38.2463 29.2485 38.3441 29.3107L38.3529 29.3018Z" clip-rule="evenodd" fill-rule="evenodd"></path>
<path fill="#201C1A" d="M52.9698 51.3293C52.5255 51.7292 52.1612 51.5692 51.7969 51.2849C51.8324 51.0717 51.8591 50.8762 51.8857 50.6807C51.939 50.3341 52.0368 50.2275 52.3389 50.2186C52.6677 50.2186 52.9342 50.4052 52.9698 50.6985C52.9876 50.8939 52.9698 51.0983 52.9698 51.3293Z" clip-rule="evenodd" fill-rule="evenodd"></path>
<path fill="#201C1A" d="M49.1575 58.2157C49.0242 57.8958 48.8021 57.6737 48.6955 57.3627C48.5888 57.0606 48.6688 56.8917 48.8821 56.7229C48.9176 56.6963 48.962 56.6874 49.0509 56.6429C49.4063 56.9095 49.8239 57.1405 49.9217 57.6559C49.8684 58.0647 49.5485 58.1269 49.1575 58.2157Z" clip-rule="evenodd" fill-rule="evenodd"></path>
<path fill="#201C1A" d="M46.8477 39.3871C46.9365 39.1205 47.1142 38.9961 47.3186 38.8806C47.523 38.7739 47.6918 38.7651 47.8873 38.8806C48.2249 39.0761 48.3138 39.4759 48.0828 39.7869C47.7007 40.2934 47.2742 40.1335 46.9898 39.7247C46.9187 39.6181 46.8832 39.4848 46.8477 39.3871Z" clip-rule="evenodd" fill-rule="evenodd"></path>
<path fill="#201C1A" d="M59.4651 35.0596L58.4788 35.0596C58.4166 34.8997 58.3278 34.7664 58.3011 34.6242C58.23 34.251 58.3455 34.1 58.7187 34.0111C58.8076 33.9934 58.8876 33.9667 58.9764 33.9489C59.3229 33.8601 59.394 33.9223 59.5273 34.2244C59.6428 34.4998 59.5184 34.7486 59.4651 35.0596Z" clip-rule="evenodd" fill-rule="evenodd"></path>
<path fill="#201C1A" d="M55.8135 30.5724C55.9291 30.6612 56.009 30.7057 56.0712 30.7679C56.4533 31.1322 56.4622 31.3366 56.1245 31.7364C55.9646 31.9319 55.7602 31.9941 55.5203 31.923C55.2626 31.8519 55.0672 31.6742 55.0405 31.4165C55.0138 31.1677 55.1471 30.9367 55.3515 30.7856C55.4759 30.6968 55.6269 30.6524 55.8135 30.5724Z" clip-rule="evenodd" fill-rule="evenodd"></path>
<path fill="#201C1A" d="M51.2823 45.6604C51.4334 46.1224 51.3179 46.4867 50.9269 46.7355C50.687 46.8866 50.5004 46.7355 50.3138 46.6111C50.2516 46.4157 50.1894 46.2202 50.145 46.0247C50.0561 45.6426 50.2694 45.4116 50.6692 45.456C50.7314 45.456 50.8025 45.4738 50.8647 45.4915C51.0069 45.5449 51.158 45.6071 51.2912 45.6604L51.2823 45.6604Z" clip-rule="evenodd" fill-rule="evenodd"></path>
<path fill="#201C1A" d="M47.0963 42.1149C47.6205 42.0971 48.0559 42.106 48.1537 42.7191C47.9315 42.9235 47.9493 43.35 47.5672 43.5011C47.114 43.4655 47.0429 43.0746 46.8652 42.7458C46.9363 42.5503 47.0163 42.3459 47.0963 42.1149Z" clip-rule="evenodd" fill-rule="evenodd"></path>
<path fill="#201C1A" d="M53.7078 33.3803C53.6101 33.0782 53.4501 32.8205 53.5568 32.4917C53.69 32.3762 53.8233 32.2074 54.0632 32.3229C54.3654 32.4828 54.7652 32.5184 54.8718 32.9449C54.9252 33.167 54.8363 33.3536 54.6408 33.4425C54.3387 33.5758 54.0366 33.5758 53.7078 33.3803Z" clip-rule="evenodd" fill-rule="evenodd"></path>
<path fill="#201C1A" d="M39.792 50.3519C39.9608 50.6096 40.0763 50.7873 39.9697 51.045C39.8542 51.3205 39.6498 51.4715 39.3832 51.5515C39.1167 51.6315 38.8323 51.4982 38.7168 51.2316C38.6813 51.1605 38.6901 51.045 38.7168 50.9739C38.8145 50.7784 38.9389 50.5918 39.0633 50.3786C39.1344 50.3786 39.2233 50.3519 39.3121 50.3519C39.4632 50.3519 39.6231 50.3519 39.792 50.3519Z" clip-rule="evenodd" fill-rule="evenodd"></path>
<path fill="#201C1A" d="M55.7417 46.9753C55.9372 47.0731 56.1504 47.1886 56.337 47.2863C56.3548 47.3752 56.3815 47.4285 56.3637 47.4641C56.2156 47.9617 55.8424 48.1868 55.2441 48.1394C55.1375 47.9972 55.022 47.8373 54.8887 47.6595C55.0664 47.313 55.333 47.0997 55.7328 46.9842L55.7417 46.9753Z" clip-rule="evenodd" fill-rule="evenodd"></path>
<path fill="#201C1A" d="M49.9132 47.8817C49.8776 47.9795 49.8421 48.1039 49.7977 48.246C49.7355 48.2638 49.6733 48.2905 49.6111 48.3082C49.5489 48.3171 49.4778 48.3082 49.4067 48.3171C48.7403 48.3793 48.4026 47.9795 48.7758 47.2242C48.918 46.9309 49.3711 46.9487 49.54 47.2419C49.6466 47.4285 49.7532 47.624 49.9043 47.8906L49.9132 47.8817Z" clip-rule="evenodd" fill-rule="evenodd"></path>
<path fill="#201C1A" d="M40.913 46.6288C40.6731 46.5221 40.4776 46.4422 40.4509 46.1934C40.4243 45.9002 40.4421 45.6069 40.6553 45.367C40.7531 45.2604 40.9485 45.2071 41.0818 45.287C41.2151 45.367 41.3484 45.4559 41.4461 45.5803C41.7394 45.9268 41.5972 46.38 41.1707 46.5399C41.0907 46.5755 41.0019 46.5932 40.9041 46.6199L40.913 46.6288Z" clip-rule="evenodd" fill-rule="evenodd"></path>
<path fill="#201C1A" d="M54.054 50.0764C53.7638 49.8276 53.5446 49.5463 53.3965 49.2323C53.5831 49.0724 53.6364 48.7791 53.9119 48.6636C54.1251 48.5748 54.2495 48.5659 54.3917 48.7258C54.5072 48.8502 54.6049 49.0102 54.6849 49.1257C54.6405 49.5788 54.445 49.881 54.0451 50.0853L54.054 50.0764Z" clip-rule="evenodd" fill-rule="evenodd"></path>
<path fill="#201C1A" d="M42.6261 51.5604C42.5284 51.5249 42.4128 51.4893 42.3151 51.4449C42.0663 51.3382 41.933 51.1339 41.9508 50.8673C41.9508 50.8051 41.9863 50.7074 42.0308 50.6985C42.244 50.6274 42.3329 50.4763 42.4306 50.2897C42.5106 50.1387 42.7238 50.1298 42.8482 50.2364C42.9193 50.2986 42.9815 50.3608 43.0348 50.4319C43.3636 50.8318 43.2836 51.2227 42.8216 51.4804C42.7594 51.516 42.6972 51.5337 42.6261 51.5604Z" clip-rule="evenodd" fill-rule="evenodd"></path>
<path fill="#201C1A" d="M37.0566 36.3569C37.1011 36.2236 37.1366 36.117 37.1722 36.0104C37.2788 35.7083 37.5631 35.5039 37.8741 35.5039C38.0963 35.5039 38.3451 35.7172 38.3895 35.9482C38.4606 36.3303 38.3628 36.4813 37.9452 36.6146C37.6253 36.7212 37.3291 36.6324 37.0566 36.348L37.0566 36.3569Z" clip-rule="evenodd" fill-rule="evenodd"></path>
<path fill="#201C1A" d="M55.9725 53.5153C56.1857 53.6041 56.3368 53.7196 56.3635 53.9062C56.3901 54.1461 56.3723 54.4038 56.3368 54.6437C56.3101 54.7859 56.1591 54.857 56.0169 54.8392C55.7503 54.7948 55.4838 54.7593 55.235 54.6615C55.0039 54.5727 54.9951 54.3594 55.0484 54.1995C55.3771 53.9595 55.6615 53.7463 55.9725 53.5153Z" clip-rule="evenodd" fill-rule="evenodd"></path>
<path fill="#201C1A" d="M61.0915 43.19C61.0915 43.19 61.0204 43.2344 60.976 43.2433C60.3806 43.3766 60.2296 43.3055 59.963 42.7901C59.8919 42.648 59.9452 42.4525 60.0874 42.3814C60.354 42.2659 60.6205 42.1593 60.896 42.0615C61.0293 42.0082 61.2336 42.1326 61.2514 42.2837C61.2692 42.4081 61.2514 42.5502 61.2336 42.6746C61.1981 42.8434 61.1359 43.0123 61.0915 43.1811L61.0915 43.19Z" clip-rule="evenodd" fill-rule="evenodd"></path>
<path fill="#201C1A" d="M60.6833 25.6942C61.0654 25.8364 61.1987 26.0941 61.1365 26.4584C61.1098 26.6628 60.8077 26.9915 60.6122 27.036C60.4167 27.0804 60.2479 26.9738 60.1235 26.8494C59.9991 26.725 59.9102 26.5561 59.8125 26.414C59.9102 25.9075 60.3456 25.8542 60.6833 25.6942Z" clip-rule="evenodd" fill-rule="evenodd"></path>
<path fill="#201C1A" d="M42.5551 20.7271C42.8661 20.8959 43.1504 21.0381 43.2571 21.3757C43.3104 21.5445 43.3015 21.6867 43.1771 21.8111C42.9461 22.051 42.6795 22.1843 42.2974 22.131C42.2619 22.0066 42.253 21.8733 42.1997 21.7667C41.9509 21.3046 42.1286 20.9936 42.5551 20.7359L42.5551 20.7271Z" clip-rule="evenodd" fill-rule="evenodd"></path>
<path fill="#201C1A" d="M58.3184 47.8906C58.2473 47.4908 58.2739 47.1353 58.7626 46.9487C58.9759 47.0465 59.2247 47.1442 59.4468 47.2775C59.5446 47.3397 59.6334 47.473 59.5712 47.624C59.4913 47.8284 59.4202 48.0328 59.3402 48.2727C59.2069 48.2283 59.0825 48.2016 58.967 48.1572C58.7715 48.0772 58.576 47.9884 58.3272 47.8817L58.3184 47.8906Z" clip-rule="evenodd" fill-rule="evenodd"></path>
<path fill="#201C1A" d="M41.1708 28.8575C41.4107 28.9997 41.5351 29.1685 41.5351 29.4262C41.5351 29.6572 41.4374 29.8083 41.2952 29.9593C41.1441 30.1193 40.9753 30.1815 40.7532 30.1815C40.4866 30.1815 40.3355 30.0393 40.1934 29.7994C40.4066 29.3995 40.6021 28.9641 41.1708 28.8486L41.1708 28.8575Z" clip-rule="evenodd" fill-rule="evenodd"></path>
<path fill="#201C1A" d="M52.5886 27.4092C52.6953 27.5513 52.8019 27.6935 52.9174 27.8268C53.1484 28.1111 53.1395 28.2266 52.9085 28.4221C52.4376 28.8131 52.1177 28.742 51.86 28.1911C51.8245 28.1111 51.7889 28.0312 51.7711 27.9423C51.7267 27.7202 51.8422 27.5336 52.0555 27.4714C52.0999 27.4625 52.1443 27.4536 52.1888 27.4536C52.3221 27.4358 52.4465 27.418 52.6064 27.4003L52.5886 27.4092Z" clip-rule="evenodd" fill-rule="evenodd"></path>
<path fill="#201C1A" d="M50.8909 48.5748C50.9887 48.6193 51.0686 48.6637 51.1486 48.6903C51.5218 48.8147 51.4952 49.108 51.4596 49.4101C51.4596 49.4545 51.433 49.4989 51.3974 49.5256C51.1575 49.7033 50.8909 49.7922 50.5888 49.7833C50.3756 49.7833 50.2867 49.6144 50.2156 49.4456C50.189 49.3834 50.1623 49.3212 50.1445 49.2679C50.2926 48.9658 50.5414 48.7348 50.8909 48.5748Z" clip-rule="evenodd" fill-rule="evenodd"></path>
<path fill="#201C1A" d="M39.1255 28.6531C39.0278 28.4576 38.93 28.2888 38.8678 28.1111C38.8234 27.9689 38.8145 27.809 38.8234 27.6579C38.8323 27.4713 39.0011 27.3469 39.1966 27.3469C39.5876 27.3469 39.9963 27.7024 40.023 28.0844C40.023 28.1466 40.0141 28.2266 39.9785 28.271C39.7653 28.5465 39.5076 28.7331 39.1344 28.662L39.1255 28.6531Z" clip-rule="evenodd" fill-rule="evenodd"></path>
<path fill="#201C1A" d="M60.3636 32.3673C60.6035 32.4117 60.8256 32.4473 61.0567 32.4917C61.2166 32.7671 61.1277 33.0604 61.1366 33.3269C60.9234 33.5846 60.6568 33.6291 60.3813 33.5757C60.2569 33.5491 60.1414 33.4602 60.0437 33.3714C59.9104 33.2559 59.9104 33.0959 59.9193 32.9271C59.9282 32.7938 59.9282 32.7938 60.3547 32.3584L60.3636 32.3673Z" clip-rule="evenodd" fill-rule="evenodd"></path>
<path fill="#201C1A" d="M56.2495 34.5976C56.2495 34.5976 56.2495 34.722 56.2406 34.8108C56.1962 35.0241 55.9385 35.2373 55.7608 35.2196C55.512 35.1929 55.201 34.9974 55.1833 34.8108C55.1655 34.5887 55.1655 34.3576 55.1833 34.1355C55.201 33.9933 55.4054 33.86 55.5476 33.8956C55.7253 33.94 55.8941 33.9933 56.054 34.0733C56.2584 34.1622 56.2406 34.3576 56.2406 34.6064L56.2495 34.5976Z" clip-rule="evenodd" fill-rule="evenodd"></path>
<path fill="#201C1A" d="M54.5332 26.7871C54.3466 27.0804 54.0711 27.0892 53.7601 27.0182C53.5913 26.8493 53.4935 26.6183 53.4136 26.3873C53.3158 26.1207 53.458 25.9074 53.7423 25.8364C53.9112 25.7919 54.0889 25.7742 54.3021 25.7297C54.3554 25.8364 54.4443 25.9341 54.471 26.0585C54.5154 26.2984 54.5154 26.5383 54.542 26.7871L54.5332 26.7871Z" clip-rule="evenodd" fill-rule="evenodd"></path>
<path fill="#201C1A" d="M38.6729 47.855C38.8862 47.6951 39.0817 47.6329 38.9751 47.313C38.8951 47.0464 39.3127 46.7976 39.5793 46.922C39.8281 47.0375 40.0058 47.2419 40.1569 47.464C40.0325 47.6951 39.9169 47.9083 39.8014 48.1216C39.3749 48.2638 39.0639 47.9883 38.6641 47.855L38.6729 47.855Z" clip-rule="evenodd" fill-rule="evenodd"></path>
<path fill="#201C1A" d="M53.9123 38.8005C54.17 38.9072 54.3655 38.996 54.5876 39.0849L54.5876 39.778C54.4188 39.8224 54.25 39.8579 54.09 39.929C53.8146 40.0534 53.6102 39.9112 53.4058 39.7868C53.2015 39.6536 53.1926 39.2981 53.397 39.1382C53.5569 39.0138 53.7346 38.9161 53.9123 38.8005Z" clip-rule="evenodd" fill-rule="evenodd"></path>
<path fill="#201C1A" d="M46.7676 45.9179C46.9808 45.6514 47.1585 45.4381 47.5051 45.4381C47.8072 45.4381 48.0293 45.5358 48.1715 45.7935C48.1715 45.838 48.1804 45.8913 48.1715 45.9268C48.0293 46.3415 47.748 46.5251 47.3274 46.4777C47.2652 46.4777 47.1941 46.46 47.1141 46.4511C47.0164 46.2911 46.9097 46.1223 46.7765 45.9091L46.7676 45.9179Z" clip-rule="evenodd" fill-rule="evenodd"></path>
<path fill="#201C1A" d="M52.4895 43.6166C52.7116 43.661 52.8627 43.741 52.9516 43.9098C53.0493 44.1053 53.1826 44.3008 53.0404 44.5851C52.8449 44.6207 52.605 44.6384 52.5162 44.9405C52.4717 45.0827 52.1518 45.0383 52.063 44.8606C51.9475 44.6207 51.8497 44.363 51.9119 44.0964C51.9297 44.0164 51.9919 43.9365 52.063 43.8831C52.1874 43.7854 52.3296 43.7143 52.4895 43.6166Z" clip-rule="evenodd" fill-rule="evenodd"></path>
<path fill="#201C1A" d="M45.9765 43.6077C46.1631 43.7498 46.3497 43.9009 46.5629 44.0697C46.5629 44.1941 46.5896 44.3363 46.5629 44.4607C46.5363 44.5584 46.4563 44.6917 46.3763 44.7184C46.1275 44.7895 45.8876 44.9761 45.5944 44.8605C45.1857 44.2208 45.2301 44.0786 45.9854 43.6077L45.9765 43.6077Z" clip-rule="evenodd" fill-rule="evenodd"></path>
<path fill="#201C1A" d="M59.3323 28.4843C58.9235 28.5198 58.6925 28.3865 58.5326 28.1555C58.4615 28.0578 58.4348 27.8978 58.4526 27.7823C58.4793 27.6313 58.5592 27.4891 58.6481 27.3558C58.7725 27.1692 59.0302 27.1603 59.1635 27.3292C59.3056 27.498 59.4389 27.6846 59.5633 27.8623C59.661 27.9956 59.7055 28.1733 59.6077 28.3066C59.5278 28.4132 59.3589 28.4665 59.3234 28.4843L59.3323 28.4843Z" clip-rule="evenodd" fill-rule="evenodd"></path>
<path fill="#201C1A" d="M46.918 36.3304C46.9446 36.1704 46.9624 36.0638 46.9802 35.9572C47.0513 35.5573 47.0957 35.5396 47.5044 35.6195C48.0464 35.735 48.0909 35.7972 48.0731 36.3126C48.0731 36.5081 47.9931 36.6591 47.8065 36.7302C47.7088 36.7747 47.6022 36.8102 47.4867 36.8635C47.3001 36.6858 47.1223 36.5259 46.918 36.3304Z" clip-rule="evenodd" fill-rule="evenodd"></path>
<path fill="#201C1A" d="M47.0883 23.615C46.8395 23.3751 46.8662 23.144 47.0172 22.9219C47.2038 22.6642 47.4704 22.522 47.7725 22.5842C47.9769 22.6198 48.2168 22.6997 48.3145 22.9397C47.9324 23.6505 47.9147 23.6594 47.0883 23.615Z" clip-rule="evenodd" fill-rule="evenodd"></path>
<path fill="#201C1A" d="M42.636 46.9753C42.7338 47.0109 42.8226 47.0375 42.8937 47.082C43.2314 47.2952 43.3025 47.5085 43.1603 47.8728C42.9737 48.3615 42.4939 48.4326 42.1562 48.0239C42.1207 47.9794 42.0762 47.8995 42.0851 47.8461C42.1296 47.4996 42.1384 47.1175 42.6272 46.9753L42.636 46.9753Z" clip-rule="evenodd" fill-rule="evenodd"></path>
<path fill="#201C1A" d="M49.6998 41.1552C49.6998 41.244 49.6998 41.3329 49.6998 41.4306C49.6731 41.6883 49.5132 41.8038 49.2821 41.6972C49.0778 41.5994 48.8823 41.4928 48.6957 41.3684C48.5624 41.2796 48.4824 41.1463 48.4824 40.9686C48.4824 40.7731 48.6068 40.6042 48.7845 40.5776C48.8912 40.5598 49.0067 40.5598 49.1222 40.5598C49.6198 40.5598 49.6998 40.6487 49.6998 41.164L49.6998 41.1552Z" clip-rule="evenodd" fill-rule="evenodd"></path>
<path fill="#201C1A" d="M39.6778 24.2191C39.8555 24.5923 39.6423 24.9211 39.7222 25.2499C39.4645 25.5075 39.1802 25.4098 38.8781 25.392C38.7803 25.2143 38.6737 25.0366 38.5937 24.8589C38.4871 24.6101 38.5937 24.4057 38.8514 24.3524C39.1091 24.2991 39.3757 24.2724 39.6778 24.2191Z" clip-rule="evenodd" fill-rule="evenodd"></path>
<path fill="#201C1A" d="M37.7577 19.1898C37.8643 19.2342 37.9443 19.2698 38.0243 19.3053C38.2375 19.4119 38.282 19.5985 38.2464 19.8207C38.2287 19.9095 38.1665 19.9806 38.1576 20.0695C38.0598 20.6204 37.7488 20.5582 37.3756 20.3449C37.2779 20.2916 37.189 20.2116 37.1357 20.1139C37.0824 20.025 37.0469 19.9006 37.0735 19.8029C37.1713 19.483 37.3667 19.252 37.7577 19.1809L37.7577 19.1898Z" clip-rule="evenodd" fill-rule="evenodd"></path>
<path fill="#201C1A" d="M39.0376 34.0468C39.3486 33.9846 39.6241 33.9668 39.8551 34.1356C39.9351 34.1889 40.0062 34.2956 40.0239 34.3933C40.0595 34.6332 39.9351 34.8287 39.784 34.9887C39.7307 35.042 39.6241 35.0864 39.5441 35.0775C39.3486 35.0775 39.1531 35.042 38.9666 35.0153C38.8007 34.7428 38.8273 34.417 39.0465 34.0379L39.0376 34.0468Z" clip-rule="evenodd" fill-rule="evenodd"></path>
<path fill="#201C1A" d="M45.0612 42.9413C44.8657 43.0835 44.6524 43.2345 44.4392 43.3856C44.0393 43.2967 43.7905 43.0568 43.5684 42.7103C43.6928 42.6036 43.8083 42.5059 43.9238 42.4082C44.2881 42.106 44.3681 42.0972 44.6968 42.4082C44.8124 42.5148 44.919 42.6392 45.0167 42.7547C45.0434 42.7813 45.0434 42.8347 45.0612 42.9324L45.0612 42.9413Z" clip-rule="evenodd" fill-rule="evenodd"></path>
<path fill="#201C1A" d="M44.7419 48.628C44.8397 48.9124 44.9285 49.1345 44.9907 49.3744C45.044 49.5699 44.9552 49.7387 44.7597 49.7832C44.6086 49.8276 44.4576 49.8454 44.2976 49.872C44.0311 49.6765 43.8089 49.4722 43.8533 49.099C43.88 48.8857 43.96 48.7702 44.1732 48.7169C44.3421 48.6725 44.5198 48.6547 44.7419 48.6191L44.7419 48.628Z" clip-rule="evenodd" fill-rule="evenodd"></path>
<path fill="#201C1A" d="M54.5333 55.3101C54.6843 56.1631 54.4711 56.3852 53.5914 56.2964C53.5292 56.1276 53.4403 55.941 53.3959 55.7544C53.3426 55.4967 53.4847 55.2923 53.7424 55.2745C54.009 55.2568 54.2845 55.2212 54.5333 55.3101Z" clip-rule="evenodd" fill-rule="evenodd"></path>
<path fill="#201C1A" d="M42.0137 54.2172C42.1114 54.075 42.2092 53.9506 42.3069 53.7996C42.5824 53.7463 42.8756 53.693 43.1422 53.844C43.3821 53.9684 43.3554 54.5015 43.1244 54.6704C42.769 54.9192 42.4224 54.8659 42.1203 54.5193C42.0936 54.4838 42.0759 54.4393 42.0581 54.4038C42.0403 54.3594 42.0314 54.3149 42.0137 54.2172Z" clip-rule="evenodd" fill-rule="evenodd"></path>
<path fill="#201C1A" d="M41.002 38.8005C41.1797 38.9072 41.3485 39.0049 41.5084 39.1293C41.6684 39.2448 41.7128 39.5025 41.6151 39.6713C41.5706 39.7424 41.4907 39.8224 41.4196 39.8313C40.9664 39.9024 40.531 39.9112 40.1934 39.538C40.2467 39.0316 40.6465 38.9605 40.9931 38.8094L41.002 38.8005Z" clip-rule="evenodd" fill-rule="evenodd"></path>
<path fill="#201C1A" d="M45.9331 50.2186C46.1552 50.2897 46.3329 50.343 46.4573 50.5385C46.5639 50.7251 46.5817 50.9117 46.5639 51.1161C46.5462 51.2938 46.4395 51.4004 46.2707 51.4271C45.8353 51.4982 45.4355 51.2138 45.3644 50.7518C45.3466 50.6629 45.4088 50.5207 45.4888 50.4674C45.6221 50.3608 45.7909 50.2986 45.9331 50.2186Z" clip-rule="evenodd" fill-rule="evenodd"></path>
<path fill="#201C1A" d="M43.586 52.1379C43.8259 51.8446 44.057 51.9424 44.3413 52.049C44.4835 52.3334 44.6434 52.6444 44.8211 52.982C44.7145 53.062 44.6168 53.1953 44.5457 53.1864C44.2613 53.142 43.9859 53.0709 43.7104 52.982C43.6482 52.9642 43.5949 52.8398 43.586 52.7599C43.5683 52.5377 43.586 52.3156 43.586 52.1379Z" clip-rule="evenodd" fill-rule="evenodd"></path>
<path fill="#201C1A" d="M61.2164 46.4155C61.0742 46.4955 60.9231 46.5755 60.7899 46.6466C60.4078 46.5844 60.1856 46.38 60.0879 45.9801C60.1501 45.8646 60.2123 45.6958 60.31 45.5536C60.4167 45.4026 60.5588 45.2604 60.7632 45.3315C60.9587 45.4026 61.1097 45.5447 61.1364 45.7758C61.1631 45.9712 61.1808 46.1756 61.2075 46.4066L61.2164 46.4155Z" clip-rule="evenodd" fill-rule="evenodd"></path>
<path fill="#201C1A" d="M46.7149 24.619C46.4217 24.93 46.1551 25.2144 45.8619 25.5254C45.7375 25.4632 45.622 25.4009 45.4887 25.3299C45.4887 25.1433 45.4887 24.9656 45.4887 24.7878C45.4798 24.5302 45.622 24.3524 45.8263 24.2547C46.0574 24.1481 46.315 24.1392 46.5105 24.3436C46.5816 24.4235 46.6438 24.5124 46.7149 24.6101L46.7149 24.619Z" clip-rule="evenodd" fill-rule="evenodd"></path>
<path fill="#201C1A" d="M38.3532 39.2447C38.2821 39.4225 38.2021 39.6091 38.131 39.7868C38.0244 40.0267 37.7489 40.1777 37.5446 40.0978C37.2869 40 37.1092 39.6979 37.2069 39.4491C37.278 39.2447 37.3402 39.0048 37.589 38.9337C37.8467 38.8538 38.0422 38.9337 38.3532 39.2447Z" clip-rule="evenodd" fill-rule="evenodd"></path>
<path fill="#201C1A" d="M38.1567 46.5044L37.3925 46.5044C36.9394 45.9713 36.9394 45.9446 37.3481 45.527C37.3925 45.5181 37.4369 45.4914 37.4725 45.5003C37.9701 45.5981 38.1833 45.8913 38.1567 46.5044Z" clip-rule="evenodd" fill-rule="evenodd"></path>
<path fill="#201C1A" d="M42.2888 40.5866C42.7153 40.471 43.0174 40.7554 43.3995 40.8354C43.4084 41.0397 43.4173 41.2174 43.4351 41.4129C43.3462 41.4129 43.2751 41.4307 43.2218 41.4129C43.1685 41.3863 43.1418 41.3063 43.0796 41.2708C42.9464 41.1997 42.8042 41.2708 42.7953 41.4218C42.7953 41.4662 42.8308 41.5107 42.822 41.5551C42.8042 41.7062 42.6709 41.7861 42.5287 41.7328C42.2622 41.6351 42.0667 41.253 42.1378 40.9775C42.1733 40.8531 42.2266 40.7287 42.2799 40.5954L42.2888 40.5866Z" clip-rule="evenodd" fill-rule="evenodd"></path>
<path fill="#201C1A" d="M49.5674 54.386C49.5497 54.5193 49.6563 54.7859 49.4075 54.9191C49.1942 55.0258 49.0254 54.8392 48.8566 54.7503C48.5722 54.6081 48.5545 54.5459 48.6078 54.2083C48.6255 54.1017 48.6255 53.9861 48.6611 53.8795C48.7144 53.7107 48.8477 53.6396 49.0254 53.6218C49.212 53.6041 49.3897 53.6218 49.5141 53.7729C49.5497 53.8262 49.5674 53.8973 49.5763 53.9595C49.5852 54.075 49.5763 54.1816 49.5763 54.3771L49.5674 54.386Z" clip-rule="evenodd" fill-rule="evenodd"></path>
<path fill="#201C1A" d="M38.5215 41.1019C38.5837 40.9775 38.6192 40.8442 38.7081 40.7643C38.8236 40.6665 38.9835 40.6221 39.1168 40.5421C39.5167 40.3111 39.6677 40.4533 39.8366 40.8354C39.9343 41.0664 39.9432 41.3152 39.7832 41.5906C39.3834 41.4129 38.9213 41.4129 38.5304 41.1019L38.5215 41.1019Z" clip-rule="evenodd" fill-rule="evenodd"></path>
<path fill="#201C1A" d="M48.5723 44.4074C48.6434 44.1497 48.981 44.1142 49.0077 43.8121C49.0165 43.6788 49.3364 43.6433 49.4964 43.7143C49.7274 43.8299 49.9051 44.2475 49.7896 44.4696C49.6652 44.7095 49.5053 44.9228 49.3364 45.1894C49.1854 45.0205 49.0787 44.8873 48.9543 44.7717C48.83 44.6473 48.6967 44.5229 48.5723 44.4074Z" clip-rule="evenodd" fill-rule="evenodd"></path>
<path fill="#201C1A" d="M55.7151 27.489C55.9728 27.5956 56.2039 27.6845 56.3371 27.9511C56.2838 28.0577 56.2394 28.1821 56.1683 28.2887C55.9995 28.5286 55.7329 28.6442 55.4752 28.6175C55.1909 28.5908 54.9954 28.3865 54.9688 28.0755C55.1702 27.8326 55.4219 27.6371 55.724 27.489L55.7151 27.489Z" clip-rule="evenodd" fill-rule="evenodd"></path>
<path fill="#201C1A" d="M47.2745 55.2745C47.4167 55.3545 47.5678 55.4433 47.7188 55.5144C47.8699 55.5855 48.0298 55.6388 48.2075 55.7099C48.1364 55.9143 48.0742 56.1009 48.012 56.2964C47.8876 56.3497 47.7721 56.4208 47.6477 56.4563C47.4345 56.5007 47.2479 56.4563 47.1324 56.243C47.1146 56.2075 47.0968 56.1631 47.0702 56.1186C46.8628 55.8106 46.931 55.5263 47.2745 55.2656L47.2745 55.2745Z" clip-rule="evenodd" fill-rule="evenodd"></path>
<path fill="#201C1A" d="M60.0957 49.7387L60.0957 48.7969C60.3267 48.7347 60.54 48.6813 60.7532 48.6191C61.085 48.862 61.1413 49.2471 60.9221 49.7743C60.6733 49.8098 60.4067 49.8365 60.0957 49.7387Z" clip-rule="evenodd" fill-rule="evenodd"></path>
<path fill="#201C1A" d="M52.099 40.5776C52.9431 40.5421 53.0853 40.6932 52.9698 41.4484C52.9342 41.7061 52.6321 41.8661 52.41 41.7239C52.2412 41.6173 52.0901 41.484 51.9657 41.3329C51.9035 41.2618 51.8857 41.1197 51.9124 41.0219C51.9479 40.8798 52.0368 40.7376 52.1079 40.5865L52.099 40.5776Z" clip-rule="evenodd" fill-rule="evenodd"></path>
<path fill="#201C1A" d="M45.3732 40.7998C45.6309 40.5599 45.8886 40.5243 46.173 40.551C46.404 40.5687 46.5284 40.6754 46.5639 40.862C46.6261 41.1996 46.5461 41.3862 46.3151 41.484C46.2529 41.5106 46.1818 41.5195 46.1196 41.5373C45.6487 41.6883 45.3999 41.5195 45.3555 41.0219C45.3555 40.9597 45.3732 40.8886 45.3821 40.7998L45.3732 40.7998Z" clip-rule="evenodd" fill-rule="evenodd"></path>
<path fill="#201C1A" d="M44.3686 30.4658C44.182 30.3325 43.9777 30.2348 43.8266 30.0748C43.56 29.7994 43.6045 29.5061 43.9244 29.2751C44.0132 29.2129 44.1287 29.1774 44.2176 29.1329C44.5197 29.1596 44.7241 29.3195 44.7507 29.5861C44.7774 29.8882 44.7952 30.2259 44.3686 30.4658Z" clip-rule="evenodd" fill-rule="evenodd"></path>
<path fill="#201C1A" d="M58.9674 41.6085C58.7541 41.493 58.5409 41.3775 58.2832 41.2442C58.3187 41.102 58.3187 40.9421 58.3898 40.8177C58.4965 40.64 58.6742 40.5333 58.8874 40.5156C58.9941 40.5156 59.1096 40.4978 59.2073 40.5333C59.3939 40.5955 59.4206 40.6488 59.6249 41.1109C59.5005 41.413 59.2517 41.5285 58.9585 41.6085L58.9674 41.6085Z" clip-rule="evenodd" fill-rule="evenodd"></path>
<path fill="#201C1A" d="M47.6835 58.3313C47.8079 58.5623 47.9323 58.7756 48.0212 58.9977C48.1456 59.3176 48.0478 59.6375 47.5858 59.6108C47.4791 59.6108 47.3636 59.5753 47.2659 59.5664C47.0971 59.3532 46.9727 59.1488 46.9727 58.8822C46.9727 58.5979 47.0437 58.4824 47.3281 58.3935C47.4347 58.358 47.5413 58.3491 47.6746 58.3313L47.6835 58.3313Z" clip-rule="evenodd" fill-rule="evenodd"></path>
<path fill="#201C1A" d="M40.5841 36.6414C40.5841 36.3837 40.5663 36.1349 40.5841 35.895C40.6107 35.5662 40.9573 35.3796 41.2238 35.5751C41.4549 35.7439 41.6948 35.9216 41.7925 36.2415C41.5526 36.3304 41.3038 36.3481 41.1705 36.5969C41.0728 36.7658 40.8595 36.7391 40.593 36.6414L40.5841 36.6414Z" clip-rule="evenodd" fill-rule="evenodd"></path>
<path fill="#201C1A" d="M40.6095 23.5883C40.6006 23.3129 40.4762 23.0907 40.565 22.833C40.6539 22.5665 40.7339 22.451 40.9471 22.4332C41.1782 22.4154 41.4447 22.602 41.5158 22.8241C41.5158 22.8419 41.5158 22.8686 41.5247 22.8863C41.5602 23.4817 41.5425 23.6861 40.8583 23.6416C40.7961 23.6416 40.7339 23.615 40.6095 23.5883Z" clip-rule="evenodd" fill-rule="evenodd"></path>
<path fill="#201C1A" d="M38.4952 22.8952C38.3175 23.1351 38.1576 23.3483 37.9799 23.5794C37.6156 23.7038 37.2868 23.6771 37.0469 23.2328C37.1446 23.1351 37.2601 23.0462 37.349 22.9307C37.429 22.833 37.4734 22.7086 37.5445 22.5842C37.8999 22.5308 38.2376 22.4864 38.4952 22.8863L38.4952 22.8952Z" clip-rule="evenodd" fill-rule="evenodd"></path>
<path fill="#201C1A" d="M54.6041 23.4017C54.4175 23.4728 54.2931 23.5261 54.1776 23.5617C54.0532 23.5972 53.9199 23.6416 53.7867 23.6327C53.4401 23.6327 53.2624 23.2951 53.4579 23.0107C53.6267 22.7531 53.8844 22.6109 54.1865 22.5665C54.4087 22.5309 54.5864 22.682 54.6041 22.9041C54.6219 23.0641 54.6041 23.2151 54.6041 23.3928L54.6041 23.4017Z" clip-rule="evenodd" fill-rule="evenodd"></path>
<path fill="#201C1A" d="M58.3379 54.3327C58.5423 54.0839 58.6578 53.8973 58.8177 53.7463C59.0399 53.5419 59.342 53.613 59.5019 53.8707C59.6174 54.0662 59.573 54.4571 59.4131 54.6171C59.2442 54.7859 58.8621 54.8392 58.6755 54.7059C58.56 54.6171 58.4712 54.4838 58.3468 54.3416L58.3379 54.3327Z" clip-rule="evenodd" fill-rule="evenodd"></path>
<path fill="#201C1A" d="M42.1033 34.2511C42.2277 34.1534 42.3344 34.0734 42.4499 33.9934C42.752 33.789 42.9119 33.8512 43.0363 34.2244C43.0541 34.2689 43.063 34.3133 43.0719 34.3488C43.2407 34.8642 43.2229 34.9086 42.6898 35.1663C42.3699 34.962 42.0322 34.7665 42.1033 34.2422L42.1033 34.2511Z" clip-rule="evenodd" fill-rule="evenodd"></path>
<path fill="#201C1A" d="M40.4941 26.0318C40.6985 25.9607 40.8673 25.8985 41.0539 25.8363C41.3383 25.9074 41.596 26.0318 41.7559 26.2984C41.8003 26.3783 41.7559 26.556 41.6493 26.5827C41.4182 26.6449 41.1961 26.7249 41.0006 26.8848C40.8229 27.0181 40.5475 26.867 40.4497 26.6538C40.3875 26.5205 40.3875 26.5116 40.503 26.0407L40.4941 26.0318Z" clip-rule="evenodd" fill-rule="evenodd"></path>
<path fill="#201C1A" d="M56.8273 56.1454C56.7207 55.6656 56.8095 55.2835 57.2982 55.0436C57.4848 55.2924 57.6714 55.5323 57.8669 55.7811C57.6892 56.0477 57.5292 56.3053 57.3515 56.5808C57.1027 56.5275 56.9695 56.3053 56.8273 56.1454Z" clip-rule="evenodd" fill-rule="evenodd"></path>
<path fill="#201C1A" d="M58.4969 24.2547C58.7546 24.2903 58.9945 24.308 59.2344 24.3525C59.3766 24.3791 59.4744 24.4769 59.501 24.6279C59.5277 24.779 59.4655 24.8945 59.3322 24.9656C59.1367 25.0722 58.9323 25.1788 58.728 25.2588C58.5947 25.3032 58.4614 25.2588 58.3725 25.1344C58.337 25.0811 58.3015 25.0189 58.2748 24.9567C58.1237 24.6635 58.1237 24.619 58.3548 24.3614C58.3992 24.3169 58.4614 24.2814 58.5058 24.2458L58.4969 24.2547Z" clip-rule="evenodd" fill-rule="evenodd"></path>
<path fill="#201C1A" d="M43.0535 37.1744C43.4267 37.752 43.409 37.9031 42.9202 38.3562C42.7159 38.2585 42.4937 38.1607 42.2894 38.063C42.165 37.3788 42.3338 37.1922 43.0535 37.1744Z" clip-rule="evenodd" fill-rule="evenodd"></path>
<path fill="#201C1A" d="M40.842 55.1414C41.1441 55.3013 41.4196 55.4524 41.5173 55.8522C41.4373 55.9855 41.3396 56.1632 41.2241 56.3143C41.1263 56.4476 40.9664 56.5098 40.8065 56.4476C40.6554 56.3854 40.5399 56.2787 40.5221 56.101C40.5221 56.0388 40.5221 55.9677 40.4955 55.9055C40.3622 55.5679 40.5132 55.3457 40.8509 55.1502L40.842 55.1414Z" clip-rule="evenodd" fill-rule="evenodd"></path>
<path fill="#201C1A" d="M54.587 42.7369C54.4803 43.0834 54.2671 43.2344 53.9739 43.2611C53.7162 43.2878 53.5562 43.1367 53.4141 42.9146C53.4407 42.5591 53.6895 42.337 53.9472 42.1237C54.0894 42.0082 54.3293 42.0615 54.4093 42.2304C54.4803 42.3903 54.5248 42.568 54.5781 42.7457L54.587 42.7369Z" clip-rule="evenodd" fill-rule="evenodd"></path>
<path fill="#201C1A" d="M44.9113 23.455C44.6626 23.5172 44.4671 23.5616 44.2538 23.6149C43.9428 23.5172 43.8362 23.2417 43.7384 22.9663C43.6851 22.8241 43.774 22.6997 43.8984 22.6286C44.1827 22.4687 44.6181 22.5486 44.8225 22.7886C44.9913 22.984 44.9469 23.2062 44.9113 23.455Z" clip-rule="evenodd" fill-rule="evenodd"></path>
<path fill="#201C1A" d="M53.1215 57.5938C52.8105 57.7715 52.5173 57.9315 52.2507 58.0825C52.0464 58.0203 51.9131 57.9137 51.8331 57.736C51.7354 57.5139 51.7265 57.3095 51.8154 57.0962C52.0464 57.0785 52.2685 57.034 52.4729 57.0607C52.6595 57.0873 52.8461 57.1851 53.006 57.2917C53.0771 57.3361 53.0771 57.4783 53.1127 57.5849L53.1215 57.5938Z" clip-rule="evenodd" fill-rule="evenodd"></path>
<path fill="#201C1A" d="M56.1693 57.878C55.7161 58.0113 55.4229 57.7981 55.1296 57.5937C55.0141 57.5137 54.9786 57.3538 55.0674 57.2294C55.1563 57.105 55.2807 56.9983 55.4051 56.9184C55.5384 56.8384 55.6628 56.9361 55.7605 57.0339C55.8583 57.1316 55.9649 57.0783 56.0715 57.0783C56.2759 57.0783 56.4092 57.2383 56.3559 57.4249C56.3114 57.5759 56.2314 57.7092 56.1604 57.8691L56.1693 57.878Z" clip-rule="evenodd" fill-rule="evenodd"></path>
<path fill="#201C1A" d="M48.0473 26.3339C48.0029 26.5827 47.9051 26.7782 47.7274 26.9292C47.4697 27.1514 47.1054 27.0625 47.0432 26.7337C46.9899 26.4761 47.0166 26.2006 47.0343 25.934C47.0343 25.8629 47.141 25.8007 47.2209 25.703C47.523 25.8985 47.8785 26.0051 48.0562 26.3339L48.0473 26.3339Z" clip-rule="evenodd" fill-rule="evenodd"></path>
<path fill="#201C1A" d="M49.7185 37.7876C49.5645 38.0897 49.3719 38.3237 49.1409 38.4895C48.9899 38.3385 48.821 38.2052 48.6877 38.0275C48.5278 37.8231 48.6433 37.3166 48.8655 37.1744C48.9721 37.1122 49.2031 37.13 49.3097 37.2366C49.4608 37.3966 49.5763 37.5921 49.7185 37.7787L49.7185 37.7876Z" clip-rule="evenodd" fill-rule="evenodd"></path>
<path fill="#201C1A" d="M57.8578 49.2856C57.7511 49.641 57.5557 49.8632 57.1647 49.9165C56.9514 49.8187 56.8004 49.6321 56.6582 49.41C56.8093 49.1701 57.0669 49.019 57.1736 48.7258C57.2535 48.5125 57.609 48.5747 57.7067 48.8058C57.7689 48.9479 57.7956 49.1079 57.8489 49.2856L57.8578 49.2856Z" clip-rule="evenodd" fill-rule="evenodd"></path>
<path fill="#201C1A" d="M46.8574 19.8652C46.9552 19.6519 46.9996 19.5542 47.0529 19.4298C47.1773 19.4031 47.3017 19.3764 47.4261 19.332C47.7104 19.2343 47.8615 19.2609 48.0037 19.4564C48.057 19.5275 48.0925 19.6075 48.137 19.6963C48.2436 19.9362 48.2169 20.0695 48.0303 20.2383C47.8526 20.3983 47.586 20.4338 47.4083 20.3183C47.3728 20.2917 47.3372 20.2561 47.3017 20.2295C47.1595 20.114 47.0174 20.0073 46.8574 19.874L46.8574 19.8652Z" clip-rule="evenodd" fill-rule="evenodd"></path>
<path fill="#201C1A" d="M43.906 25.8985C44.0837 25.8363 44.2525 25.7653 44.4213 25.7208C44.5635 25.6853 44.759 25.8008 44.7768 25.9519C44.8034 26.1296 44.7945 26.3073 44.8034 26.485C44.8123 26.716 44.6968 26.8493 44.4924 26.9471C44.217 27.0714 44.0926 27.0359 43.9948 26.7427C43.906 26.4939 43.7816 26.2451 43.906 25.9074L43.906 25.8985Z" clip-rule="evenodd" fill-rule="evenodd"></path>
<path fill="#201C1A" d="M50.935 39.9557C50.5529 39.858 50.1708 39.8846 50.002 39.467C50.1708 39.0316 50.5884 38.9694 50.9794 38.925C51.2459 38.8894 51.4414 39.2626 51.2993 39.5292C51.2104 39.6802 51.0682 39.8047 50.935 39.9557Z" clip-rule="evenodd" fill-rule="evenodd"></path>
<path fill="#201C1A" d="M54.6052 35.6817C54.6052 35.966 54.6141 36.1882 54.6052 36.4103C54.5875 36.5969 54.392 36.8191 54.2232 36.8368C53.9566 36.8635 53.7433 36.7391 53.5834 36.5436C53.459 36.4014 53.4235 36.2148 53.539 36.046C53.5834 35.9749 53.6723 35.8683 53.7167 35.8772C53.9655 35.9305 54.1343 35.7705 54.3387 35.6728C54.392 35.6461 54.472 35.6728 54.6141 35.6817L54.6052 35.6817Z" clip-rule="evenodd" fill-rule="evenodd"></path>
<path fill="#201C1A" d="M38.6729 30.9812C38.7707 30.8745 38.8329 30.7768 38.9217 30.7146C39.215 30.5013 39.446 30.5813 39.6326 30.8923C39.8725 31.2922 39.7215 31.612 39.446 31.9319C39.1705 31.9142 38.9751 31.8342 38.9129 31.5232C38.8773 31.3544 38.7707 31.1944 38.6641 30.9812L38.6729 30.9812Z" clip-rule="evenodd" fill-rule="evenodd"></path>
<path fill="#201C1A" d="M46.9093 29.8704C46.9892 29.666 47.0514 29.4794 47.1225 29.2928C47.2114 29.0707 47.4602 28.9641 47.6557 29.0352C47.9756 29.1507 48.0911 29.3106 48.0555 29.5683C48.02 29.826 47.8956 30.0304 47.6379 30.1281C47.3536 30.2347 47.1136 30.1814 46.9004 29.8704L46.9093 29.8704Z" clip-rule="evenodd" fill-rule="evenodd"></path>
<path fill="#201C1A" d="M48.7665 31.772C48.5443 31.4965 48.6154 31.23 48.651 30.9723C48.6687 30.8568 48.8287 30.759 48.9619 30.7857C49.0952 30.8034 49.2196 30.8479 49.3529 30.8656C49.7883 30.9278 49.9305 31.1322 49.815 31.5498C49.7883 31.6654 49.6195 31.7542 49.4951 31.7187C49.2226 31.6417 48.9768 31.6565 48.7576 31.7631L48.7665 31.772Z" clip-rule="evenodd" fill-rule="evenodd"></path>
<path fill="#201C1A" d="M58.4522 51.0894C58.4463 50.6985 58.6152 50.423 58.9587 50.2631C59.2608 50.3875 59.4859 50.6126 59.634 50.9384C59.5896 51.0006 59.5452 51.0805 59.483 51.1427C59.1009 51.5248 59.0742 51.5248 58.6388 51.2227C58.5855 51.1872 58.5233 51.1516 58.4434 51.0983L58.4522 51.0894Z" clip-rule="evenodd" fill-rule="evenodd"></path>
<path fill="#201C1A" d="M51.4071 42.6836C51.3715 42.808 51.3449 42.9324 51.3093 43.0657C51.1316 43.1279 50.9717 43.2079 50.8028 43.2434C50.6518 43.279 50.5007 43.2612 50.3585 43.1546C50.1097 42.9591 50.0742 42.7991 50.2608 42.5326C50.2963 42.4792 50.3408 42.4259 50.3763 42.3726C50.554 42.1416 50.6873 42.1238 50.9272 42.3104C51.0872 42.4348 51.2382 42.5503 51.4159 42.6836L51.4071 42.6836Z" clip-rule="evenodd" fill-rule="evenodd"></path>
<path fill="#201C1A" d="M58.9239 37.2012C59.1371 37.3433 59.3681 37.5122 59.6258 37.6899C59.457 38.0364 59.2882 38.3119 58.8972 38.3563C58.6839 38.383 58.604 38.3297 58.293 37.9565C58.5507 37.761 58.4707 37.3078 58.9239 37.2101L58.9239 37.2012Z" clip-rule="evenodd" fill-rule="evenodd"></path>
<path fill="#201C1A" d="M58.622 18.6922C58.5598 18.4079 58.3199 18.1502 58.5242 17.7859C58.6664 17.7859 58.8175 17.7859 58.9596 17.7859C59.0929 17.7859 59.2262 17.7593 59.3506 17.7504C59.395 17.7859 59.4484 17.8037 59.4661 17.8392C59.7505 18.4168 59.6172 18.6656 58.9863 18.7456C58.9419 18.7456 58.8974 18.7456 58.853 18.7456C58.7908 18.7456 58.7197 18.7189 58.622 18.7011L58.622 18.6922Z" clip-rule="evenodd" fill-rule="evenodd"></path>
<path fill="#201C1A" d="M38.9932 18.6923C38.8866 18.479 38.7889 18.3013 38.7089 18.1236C38.6378 17.9459 38.7356 17.7504 38.9133 17.6882C38.931 17.6882 38.9577 17.6704 38.9755 17.6704C39.2776 17.626 39.5619 17.6704 39.7485 17.937C39.8374 18.0614 39.9174 18.1947 39.8196 18.3635C39.6419 18.6834 39.3842 18.7811 38.9932 18.6923Z" clip-rule="evenodd" fill-rule="evenodd"></path>
<path fill="#201C1A" d="M40.9214 20.3628C40.797 20.2384 40.6281 20.114 40.5126 19.954C40.3171 19.6875 40.486 19.332 40.8236 19.3054C41.028 19.2876 41.2235 19.3054 41.4101 19.3054C41.7033 19.9718 41.6589 20.0784 40.9214 20.3717L40.9214 20.3628Z" clip-rule="evenodd" fill-rule="evenodd"></path>
<path fill="#201C1A" d="M58.5679 57.9136C58.4316 57.6648 58.3991 57.3982 58.4702 57.1139C58.6123 57.0517 58.7723 56.9806 58.9411 56.9273C59.1188 56.8651 59.3054 56.874 59.4298 57.0339C59.5453 57.185 59.5453 57.3627 59.4476 57.5404C59.3765 57.6737 59.3232 57.807 59.2521 57.9758C59.0388 57.958 58.8256 57.9403 58.5679 57.9225L58.5679 57.9136Z" clip-rule="evenodd" fill-rule="evenodd"></path>
<path fill="#201C1A" d="M45.8344 28.5465C45.79 28.5465 45.6745 28.5465 45.5678 28.502C45.4967 28.4754 45.399 28.3954 45.3901 28.3243C45.3635 28.1733 45.3457 28.0044 45.3812 27.8623C45.4345 27.6312 45.7455 27.4446 45.9588 27.4802C46.1898 27.5068 46.4031 27.7379 46.4386 27.9867C46.4919 28.4043 46.3498 28.5642 45.8433 28.5642L45.8344 28.5465Z" clip-rule="evenodd" fill-rule="evenodd"></path>
<path fill="#201C1A" d="M37.3663 49.5789C37.3841 49.4456 37.4019 49.3123 37.4196 49.179C37.4463 49.0013 37.4818 48.7969 37.704 48.7703C37.9883 48.7436 38.2993 48.9747 38.3704 49.2323C38.4237 49.4367 38.2993 49.7033 38.095 49.7921C37.9706 49.8455 37.8462 49.8899 37.7129 49.9254C37.4907 49.9699 37.3397 49.8188 37.3663 49.5789Z" clip-rule="evenodd" fill-rule="evenodd"></path>
<path fill="#201C1A" d="M58.0089 36.197C57.8579 36.5525 57.4936 36.6235 57.2181 36.8812C57.1204 36.7746 57.0137 36.7035 56.9515 36.5969C56.8627 36.4458 56.8183 36.277 56.7383 36.0726C56.8716 35.9838 57.0049 35.8772 57.147 35.7794C57.5202 35.5484 57.689 35.5928 57.9023 35.9571C57.9467 36.0282 57.9734 36.1171 58.0089 36.1882L58.0089 36.197Z" clip-rule="evenodd" fill-rule="evenodd"></path>
<path fill="#201C1A" d="M46.1989 53.3553C46.2877 53.4442 46.3766 53.4975 46.3944 53.5686C46.4655 53.8263 46.5188 54.0839 46.5543 54.3416C46.581 54.5815 46.3944 54.6882 46.2344 54.8126C46.1633 54.7948 46.0923 54.7948 46.0389 54.7681C45.5058 54.4927 45.4525 53.9951 45.8968 53.613C45.9767 53.5419 46.0656 53.4708 46.1989 53.3464L46.1989 53.3553Z" clip-rule="evenodd" fill-rule="evenodd"></path>
<path fill="#201C1A" d="M40.0422 37.5388C39.8645 37.8053 39.7401 37.9919 39.6157 38.1785C39.3936 38.223 39.1714 38.2585 38.9582 38.3029C38.7183 38.0541 38.8071 37.7787 38.8427 37.521C38.8604 37.361 39.0915 37.2366 39.2781 37.2811C39.5091 37.3433 39.7401 37.4321 40.0422 37.5388Z" clip-rule="evenodd" fill-rule="evenodd"></path>
<path fill="#201C1A" d="M60.1504 23.375C60.177 23.1262 60.2037 22.913 60.2304 22.6997C60.4347 22.4331 60.6746 22.4331 60.9323 22.5842C61.0745 22.673 61.1545 22.7886 61.1545 22.9663C61.1545 23.1618 61.1545 23.3572 61.1545 23.5705C60.7635 23.7127 60.4703 23.6238 60.1504 23.375Z" clip-rule="evenodd" fill-rule="evenodd"></path>
<path fill="#201C1A" d="M58.8345 31.8163C58.8345 31.8163 58.7812 31.8163 58.6924 31.7986C58.5413 31.7719 58.4258 31.6209 58.4258 31.452C58.4258 31.2565 58.4258 31.0611 58.4524 30.8656C58.4702 30.6612 58.7457 30.5457 58.9234 30.6612C59.1988 30.8389 59.3143 31.1499 59.4743 31.4076C59.5543 31.532 59.4299 31.7364 59.2877 31.7808C59.2433 31.7897 59.1988 31.8075 59.1544 31.8075C59.0922 31.8075 59.0211 31.8075 58.8256 31.8075L58.8345 31.8163Z" clip-rule="evenodd" fill-rule="evenodd"></path>
<path fill="#201C1A" d="M38.1937 56.2964C37.8028 56.4119 37.5006 56.2609 37.1719 56.1009C37.2252 55.9321 37.2785 55.7633 37.3318 55.6211C37.625 55.4967 37.8916 55.3901 38.1493 55.2834C38.487 55.5944 38.487 55.7366 38.2026 56.2964L38.1937 56.2964Z" clip-rule="evenodd" fill-rule="evenodd"></path>
<path fill="#201C1A" d="M54.5154 46.4511C54.4354 46.4688 54.311 46.5399 54.231 46.5132C54.0266 46.4333 53.8312 46.3266 53.6623 46.1845C53.4935 46.0512 53.4846 45.8735 53.6268 45.7135C53.769 45.5447 53.9378 45.3937 54.1155 45.2159C54.2666 45.3403 54.3998 45.447 54.5154 45.5358L54.5154 46.4422L54.5154 46.4511Z" clip-rule="evenodd" fill-rule="evenodd"></path>
<path fill="#201C1A" d="M45.825 38.4628C45.7895 38.3296 45.7717 38.1963 45.7184 38.0896C45.6651 37.9741 45.5407 37.8853 45.4963 37.7698C45.4607 37.6542 45.4963 37.5121 45.4963 37.4143C45.7451 37.13 45.9761 37.13 46.2338 37.3077C46.4115 37.4321 46.527 37.6009 46.5003 37.8142C46.4559 38.1785 46.2604 38.4273 45.825 38.4628Z" clip-rule="evenodd" fill-rule="evenodd"></path>
<path fill="#201C1A" d="M49.1398 34.0378C49.2553 34.0734 49.3619 34.1 49.4686 34.1356C49.7973 34.2511 49.8506 34.331 49.8329 34.6776C49.824 34.9442 49.7262 35.0597 49.4774 35.0774C49.2997 35.0952 49.122 35.0774 48.9265 35.0774C48.8377 34.8731 48.7577 34.6954 48.6777 34.5088C48.7577 34.2688 48.9354 34.1356 49.1398 34.0289L49.1398 34.0378Z" clip-rule="evenodd" fill-rule="evenodd"></path>
<path fill="#201C1A" d="M61.0197 20.1673C60.8065 20.1406 60.5843 20.1318 60.3711 20.0873C60.0867 20.034 59.9534 19.7052 60.1312 19.4564C60.2467 19.2965 60.4066 19.1721 60.5399 19.0388C61.1886 19.4031 61.2508 19.5453 61.0197 20.1673Z" clip-rule="evenodd" fill-rule="evenodd"></path>
<path fill="#201C1A" d="M44.5816 38.8717C44.8659 39.1383 44.8304 39.4492 44.777 39.7247C44.7415 39.938 44.5816 40.089 44.3594 40.1157C44.2084 40.1334 44.0573 40.0979 43.9063 40.0801C43.9329 39.8402 43.9684 39.6536 43.9862 39.4492C44.0306 39.005 44.0218 39.005 44.5816 38.8628L44.5816 38.8717Z" clip-rule="evenodd" fill-rule="evenodd"></path>
<path fill="#201C1A" d="M44.1024 55.4079C44.3957 55.4079 44.6445 55.3457 44.8844 55.4701C44.9821 55.7633 44.9288 56.0299 44.6711 56.1721C44.4312 56.3053 44.138 56.4386 43.8536 56.1987C43.7292 56.0921 43.6848 55.9943 43.7648 55.8611C43.8625 55.71 43.978 55.5767 44.1024 55.4079Z" clip-rule="evenodd" fill-rule="evenodd"></path>
<path fill="#201C1A" d="M51.9399 21.1447C52.0732 21.0914 52.2153 21.0292 52.3575 20.9759C52.7485 20.8337 52.8462 21.0292 52.9529 21.3135C52.9884 21.4113 52.9795 21.5357 52.9706 21.6423C52.9617 21.8645 52.8551 21.9711 52.6419 21.9977C52.5797 22.0066 52.5086 22.0066 52.4375 21.9977C52.3486 21.9888 52.2598 21.9711 52.1709 21.9533C51.9932 21.7134 51.8066 21.4824 51.931 21.1358L51.9399 21.1447Z" clip-rule="evenodd" fill-rule="evenodd"></path>
<path fill="#201C1A" d="M40.4773 52.7955C40.3529 52.4667 40.6195 52.3779 40.7972 52.2801C40.9838 52.1824 41.2059 52.1557 41.3925 52.1024C41.668 52.2801 41.7302 52.4934 41.5613 52.7511C41.4369 52.9377 41.3125 53.1154 41.1704 53.3286C41.0282 53.1954 40.9305 53.071 40.8061 52.9821C40.6994 52.9021 40.575 52.8577 40.4773 52.8044L40.4773 52.7955Z" clip-rule="evenodd" fill-rule="evenodd"></path>
<path fill="#201C1A" d="M43.1246 25.1344C43.018 25.2322 42.9202 25.3122 42.8402 25.3832C42.3871 25.3477 42.0761 25.17 41.9606 24.7435C41.9161 24.5835 41.9783 24.4502 42.2183 24.2103C42.316 24.2725 42.4226 24.3525 42.5381 24.4147C42.6536 24.4769 42.7869 24.5124 42.9113 24.5658C42.9469 24.5835 42.9824 24.628 43.0002 24.6635C43.0446 24.8146 43.0802 24.9656 43.1335 25.1256L43.1246 25.1344Z" clip-rule="evenodd" fill-rule="evenodd"></path>
<path fill="#201C1A" d="M46.0931 17.5016C46.2708 17.6704 46.4307 17.8215 46.6085 17.9992C46.4752 18.2213 46.4041 18.4168 46.2797 18.559C45.9953 18.8878 45.6044 18.7811 45.4711 18.3635C45.4533 18.3191 45.4444 18.2746 45.4355 18.2302C45.4355 18.1858 45.4355 18.1414 45.4355 18.0525C45.5244 17.9636 45.6221 17.8481 45.7377 17.7504C45.8354 17.6704 45.9509 17.5993 46.0931 17.5016Z" clip-rule="evenodd" fill-rule="evenodd"></path>
<path fill="#201C1A" d="M50.8382 28.8042C50.9626 29.0974 50.9271 29.3462 51.1226 29.5061C51.1759 29.5506 51.2026 29.675 51.1937 29.7549C51.1759 29.8527 51.1315 29.9682 51.0604 30.0304C50.9182 30.1548 50.7316 30.2081 50.5539 30.1459C50.4562 30.1104 50.3229 30.0304 50.3051 29.9504C50.2251 29.6394 50.1807 29.3195 50.4828 29.0796C50.5806 28.9997 50.6872 28.9197 50.8471 28.7953L50.8382 28.8042Z" clip-rule="evenodd" fill-rule="evenodd"></path>
<path fill="#201C1A" d="M57.1635 32.2784C57.3679 32.3228 57.5634 32.3584 57.7767 32.4028C57.9099 32.545 58.061 32.7138 57.9988 32.9271C57.9188 33.167 57.7233 33.318 57.4657 33.4602C57.2524 33.2292 57.0391 33.007 56.817 32.7582C56.7903 32.5094 56.9769 32.385 57.1724 32.2695L57.1635 32.2784Z" clip-rule="evenodd" fill-rule="evenodd"></path>
<path fill="#201C1A" d="M57.6082 45.3226C58.0169 45.7047 57.857 46.0246 57.5993 46.3356C57.3416 46.4244 57.1106 46.3978 56.8529 46.3444C56.7107 45.989 56.9328 45.7313 57.0306 45.447C57.0484 45.3848 57.1728 45.3315 57.2527 45.3226C57.3771 45.3048 57.5104 45.3226 57.6082 45.3226Z" clip-rule="evenodd" fill-rule="evenodd"></path>
<path fill="#201C1A" d="M37.003 52.822C37.2607 52.511 37.4562 52.28 37.6695 52.0134C37.8205 52.2089 37.9271 52.4844 38.1937 52.6177C38.2826 52.6621 38.2648 52.8576 38.1759 52.9109C38.0604 52.9731 37.9271 53.0797 37.8116 53.0531C37.5362 53.0086 37.2696 52.902 36.9941 52.822C36.9586 52.7509 36.9675 52.8131 36.9941 52.822L37.003 52.822Z" clip-rule="evenodd" fill-rule="evenodd"></path>
<path fill="#201C1A" d="M47.6482 33.6024C47.5505 33.5669 47.4527 33.558 47.3905 33.5047C47.0973 33.247 47.044 32.7139 47.2839 32.4029C47.3283 32.3407 47.435 32.2873 47.5149 32.2785C47.8437 32.2607 48.128 32.5628 48.0658 32.8827C48.0214 33.0782 47.9503 33.2648 47.8615 33.4425C47.8259 33.5136 47.7282 33.5491 47.6571 33.6024L47.6482 33.6024Z" clip-rule="evenodd" fill-rule="evenodd"></path>
<path fill="#201C1A" d="M48.7402 28.0844C48.7669 27.9956 48.8024 27.8445 48.8557 27.7024C48.9179 27.5246 49.0157 27.3558 49.2289 27.3469C49.4333 27.338 49.5666 27.4891 49.6555 27.649C49.7621 27.8356 49.7532 28.0489 49.5844 28.2177C49.46 28.351 49.3356 28.4754 49.1934 28.5909C49.0335 28.7242 48.8202 28.6354 48.7847 28.431C48.7669 28.3421 48.7669 28.2533 48.7491 28.0933L48.7402 28.0844Z" clip-rule="evenodd" fill-rule="evenodd"></path>
<path fill="#201C1A" d="M42.5207 43.9453C42.885 44.0164 42.9561 44.3363 43.1427 44.5318C43.1693 44.5584 43.1427 44.6651 43.116 44.7184C42.9738 44.9139 42.7784 45.0205 42.5473 45.0116C42.343 45.0116 42.1564 44.9138 42.0586 44.7095C41.9609 44.4873 42.0675 44.3274 42.2452 44.203C42.3518 44.123 42.4318 44.0253 42.5207 43.9453Z" clip-rule="evenodd" fill-rule="evenodd"></path>
<path fill="#201C1A" d="M60.0869 52.6977C60.0603 52.5111 60.0514 52.3511 60.2291 52.2623C60.2913 52.2267 60.3357 52.1823 60.3979 52.1468C60.7978 51.8802 61.0377 51.9513 61.2332 52.4133C61.3309 52.6355 61.2954 52.7777 61.091 52.9465C60.9222 53.0887 60.8155 53.0975 60.6023 52.982C60.4423 52.8932 60.2913 52.8043 60.0958 52.6977L60.0869 52.6977Z" clip-rule="evenodd" fill-rule="evenodd"></path>
<path fill="#201C1A" d="M43.5957 36.3215C43.6905 36.0253 43.963 35.8121 44.4132 35.6818C44.6353 35.7351 44.662 35.9039 44.662 36.0994C44.662 36.3748 44.6709 36.6503 44.3421 36.8014C44.1022 36.6503 43.8445 36.4815 43.5957 36.3215Z" clip-rule="evenodd" fill-rule="evenodd"></path>
<path fill="#201C1A" d="M50.6957 53.1953C50.5535 52.9732 50.4291 52.7866 50.3047 52.6C50.4024 52.4489 50.4913 52.3245 50.5979 52.1734C50.8023 52.129 51.0155 52.0846 51.2377 52.0402C51.5131 52.8399 51.4865 52.9198 50.6957 53.1953Z" clip-rule="evenodd" fill-rule="evenodd"></path>
<path fill="#201C1A" d="M56.9504 20.3184C56.826 20.1673 56.7016 20.0163 56.5684 19.8385C56.7994 19.803 56.9949 19.7675 57.1104 19.5098C57.217 19.2876 57.4036 19.2521 57.5547 19.3321C57.8301 19.4831 57.9279 19.6964 57.8301 19.9452C57.6702 20.3539 57.5813 20.3895 56.9504 20.3184Z" clip-rule="evenodd" fill-rule="evenodd"></path>
<path fill="#201C1A" d="M57.8307 42.2482C57.8929 42.4525 57.9551 42.6658 58.0262 42.9057C57.8307 42.9679 57.653 43.0034 57.502 43.0745C57.3687 43.1367 57.2709 43.3055 57.0488 43.1989C57.0488 42.9146 57.111 42.6036 56.951 42.3104C56.88 42.186 57.0399 42.026 57.1821 42.0616C57.3953 42.1149 57.6086 42.1771 57.8396 42.2482L57.8307 42.2482Z" clip-rule="evenodd" fill-rule="evenodd"></path>
<path fill="#201C1A" d="M39.8463 21.1269C39.8996 21.2335 39.9618 21.3579 40.024 21.4646C39.9795 21.5179 39.9618 21.5712 39.9262 21.589C39.7485 21.6867 39.5708 21.7933 39.3753 21.8555C39.0377 21.9622 38.8066 21.7756 38.8066 21.4112C38.8066 21.3668 38.8066 21.3224 38.8066 21.278C38.8422 21.0558 39.0288 20.9136 39.242 20.9581C39.4375 21.0025 39.6241 21.0736 39.8374 21.1358L39.8463 21.1269Z" clip-rule="evenodd" fill-rule="evenodd"></path>
<path fill="#201C1A" d="M49.8059 18.1679C49.6549 18.319 49.5216 18.4789 49.3705 18.6033C49.0684 18.861 48.633 18.7366 48.4997 18.3634C48.4553 18.2212 48.5086 18.0702 48.6419 18.0169C48.864 17.9191 49.0951 17.8569 49.335 17.8036C49.5749 17.7503 49.7082 17.8836 49.8059 18.1768L49.8059 18.1679Z" clip-rule="evenodd" fill-rule="evenodd"></path>
<path fill="#201C1A" d="M44.2094 32.314C44.3516 32.4028 44.5116 32.4828 44.6448 32.5983C44.7159 32.6605 44.787 32.7938 44.7781 32.8826C44.7603 33.2025 44.2983 33.5224 43.9873 33.4336C43.8896 33.4069 43.7918 33.318 43.7474 33.2292C43.6319 32.9982 43.8096 32.8027 43.854 32.5894C43.8896 32.4028 44.0317 32.3495 44.2094 32.314Z" clip-rule="evenodd" fill-rule="evenodd"></path>
<path fill="#201C1A" d="M61.1176 36.5347C61.0199 36.5436 60.931 36.588 60.8955 36.5613C60.7089 36.4369 60.5489 36.2948 60.3268 36.508C60.309 36.5258 60.1402 36.4636 60.1224 36.4103C60.0069 36.0904 60.0336 35.7883 60.3712 35.6017C60.6467 35.6106 60.9044 35.6905 61.1176 35.886L61.1176 36.5436L61.1176 36.5347Z" clip-rule="evenodd" fill-rule="evenodd"></path>
<path fill="#201C1A" d="M53.0322 37.441C53.121 37.672 53.1655 37.832 52.97 37.9653C52.8811 38.0275 52.7923 38.0986 52.7123 38.1696C52.3658 38.4451 52.1792 38.4362 51.8504 38.1074C51.8237 38.0808 51.806 38.0364 51.7793 37.9919C52.0014 37.4854 52.0636 37.4499 52.5435 37.4677C52.6945 37.4677 52.8456 37.4499 53.0322 37.4321L53.0322 37.441Z" clip-rule="evenodd" fill-rule="evenodd"></path>
<path fill="#201C1A" d="M58.9769 43.9276C59.2612 44.1053 59.5011 44.2475 59.7766 44.4163C59.5722 44.594 59.4034 44.7718 59.2168 44.905C58.9502 45.1005 58.6481 44.9672 58.5504 44.6385C58.4704 44.3897 58.5148 44.1942 58.7459 44.0698C58.8258 44.0254 58.8969 43.972 58.9769 43.9276Z" clip-rule="evenodd" fill-rule="evenodd"></path>
<path fill="#201C1A" d="M53.3086 29.5772C53.5041 29.3551 53.6818 29.1596 53.8151 29.0175C54.1883 28.9819 54.1527 29.2662 54.2771 29.4084C54.3571 29.3995 54.446 29.3818 54.5259 29.3729C54.5526 29.3995 54.5881 29.4351 54.597 29.4706C54.6326 29.6394 54.5881 29.7727 54.4371 29.8794C54.2505 30.0038 54.0816 30.0393 53.6285 30.0393C53.5307 29.906 53.4241 29.7461 53.3086 29.5861L53.3086 29.5772Z" clip-rule="evenodd" fill-rule="evenodd"></path>
<path fill="#201C1A" d="M58.9671 22.0333C58.825 21.9089 58.7183 21.8201 58.6206 21.7312C58.4251 21.5268 58.3896 21.4024 58.4695 21.2603C58.6117 21.0204 58.8605 20.8871 59.0826 20.9404C59.2337 20.9759 59.3848 21.0826 59.6336 21.3402C59.5003 21.6335 59.2515 21.8112 58.9582 22.0422L58.9671 22.0333Z" clip-rule="evenodd" fill-rule="evenodd"></path>
<path fill="#201C1A" d="M40.378 42.6837C40.4225 42.3282 40.6535 42.195 40.9112 42.0972C41.0978 42.0261 41.2844 42.0883 41.3554 42.2749C41.4088 42.4171 41.4354 42.5681 41.4621 42.7014C41.3199 42.9413 41.1244 43.0124 40.8756 43.0035C40.6535 43.0035 40.4847 42.9147 40.3691 42.6925L40.378 42.6837Z" clip-rule="evenodd" fill-rule="evenodd"></path>
<path fill="#201C1A" d="M60.0781 55.9499C60.1226 55.4523 60.1314 55.4345 60.7534 55.1591C60.94 55.2301 61.1089 55.3545 61.1266 55.5767C61.1355 55.7011 61.1089 55.8521 61.0467 55.9588C60.9756 56.0654 60.8512 56.1631 60.7357 56.1898C60.478 56.2609 60.2558 56.1543 60.0781 55.9588L60.0781 55.9499Z" clip-rule="evenodd" fill-rule="evenodd"></path>
<path fill="#201C1A" d="M46.422 34.411C46.3598 34.6243 46.2532 34.8731 46.0133 35.0241C45.8533 35.1219 45.6667 35.1219 45.4979 35.0241C45.3646 34.9442 45.3113 34.7398 45.3735 34.5354C45.4535 34.2511 45.8445 34.0023 46.1555 34.0289C46.2976 34.0378 46.4398 34.2244 46.422 34.4199L46.422 34.411Z" clip-rule="evenodd" fill-rule="evenodd"></path>
<path fill="#201C1A" d="M39.0546 57.9847C38.9569 57.7803 39.0546 57.5937 38.9124 57.4427C38.788 57.3183 38.8769 57.1317 39.0279 57.0784C39.2057 57.0073 39.3834 57.0162 39.5255 57.1495C39.6855 57.3005 39.8365 57.4605 40.032 57.6559C39.9076 57.727 39.8365 57.807 39.7388 57.8337C39.5255 57.8959 39.3123 57.9314 39.0546 57.9847Z" clip-rule="evenodd" fill-rule="evenodd"></path>
<path fill="#201C1A" d="M38.2458 59.0955C38.2191 59.1488 38.2014 59.2199 38.1658 59.2732C37.917 59.6464 37.7127 59.6553 37.4816 59.2732C37.4372 59.2021 37.4017 59.1133 37.3661 59.0333C37.2861 58.8378 37.3306 58.6956 37.5172 58.5801C37.5883 58.5357 37.6771 58.5002 37.7571 58.4646C37.8904 58.4113 38.0414 58.4557 38.0859 58.589C38.1481 58.749 38.1925 58.9267 38.2547 59.0955L38.2458 59.0955Z" clip-rule="evenodd" fill-rule="evenodd"></path>
<path fill="#201C1A" d="M41.2326 58.3934C41.4281 58.66 41.508 58.9503 41.4725 59.2642C41.1882 59.3235 40.9068 59.3235 40.6284 59.2642C40.5869 58.8673 40.7883 58.5771 41.2326 58.3934Z" clip-rule="evenodd" fill-rule="evenodd"></path>
<path fill="#201C1A" d="M50.4289 33.2825C50.3845 33.1048 50.3489 32.9715 50.3223 32.8471C50.4289 32.6161 50.6155 32.4651 50.8465 32.4562C51.0598 32.4562 51.2997 32.4739 51.4507 32.7405C51.3974 32.9182 51.3352 33.1315 51.2553 33.3803C50.9887 33.3447 50.731 33.3181 50.4289 33.2737L50.4289 33.2825Z" clip-rule="evenodd" fill-rule="evenodd"></path>
<path fill="#201C1A" d="M49.1232 50.4941C49.2476 50.5475 49.3542 50.583 49.452 50.6274C49.6386 50.7074 49.7185 50.8585 49.7097 51.0628C49.7097 51.2939 49.5586 51.436 49.372 51.5338C49.1676 51.6315 48.6967 51.4094 48.6434 51.1872C48.6256 51.1073 48.6434 50.9917 48.6967 50.9384C48.8211 50.7874 48.9722 50.6541 49.1232 50.4941Z" clip-rule="evenodd" fill-rule="evenodd"></path>
<path fill="#201C1A" d="M52.5088 35.0508C52.1889 34.8376 51.8513 34.6954 51.7891 34.2778C51.8335 34.1089 51.9312 34.0112 52.1267 34.0556C52.1889 34.0734 52.2511 34.1089 52.3133 34.1089C52.7931 34.1089 52.7931 34.1089 52.8909 34.491C52.9709 34.7931 52.8109 34.9442 52.5088 35.0508Z" clip-rule="evenodd" fill-rule="evenodd"></path>
<path fill="#201C1A" d="M44.0134 45.598C44.2445 45.598 44.4222 45.5802 44.591 45.598C44.822 45.6158 44.9376 45.7668 44.9376 46.0067C44.9376 46.2467 44.8132 46.3711 44.5732 46.3888C44.511 46.3888 44.44 46.3888 44.3689 46.3888C44.129 46.3711 44.0223 46.2644 43.9957 46.0067C43.9868 45.9001 43.9957 45.7846 44.0134 45.5891L44.0134 45.598Z" clip-rule="evenodd" fill-rule="evenodd"></path>
<path fill="#201C1A" d="M45.8534 20.887C46.04 21.1002 46.1733 21.2513 46.2977 21.4112C46.4576 21.6245 46.3865 21.8555 46.1111 21.9177C45.8178 21.9888 45.5424 21.9177 45.3025 21.7489C45.2047 21.6778 45.1781 21.5356 45.2491 21.4468C45.4269 21.2602 45.6223 21.0913 45.8534 20.887Z" clip-rule="evenodd" fill-rule="evenodd"></path>
<path fill="#201C1A" d="M56.3998 24.4857C56.0977 24.8412 55.7156 24.9122 55.3513 24.9833C55.2625 25.0011 55.147 24.8678 55.0137 24.7878C55.3069 24.4857 55.4757 24.1392 55.8667 23.9348C56.0355 24.1036 56.1955 24.2814 56.3998 24.4946L56.3998 24.4857Z" clip-rule="evenodd" fill-rule="evenodd"></path>
<path fill="#201C1A" d="M57.6711 59.5841C57.5556 59.5929 57.4667 59.6107 57.3779 59.6018C57.0313 59.5752 56.9603 59.4952 56.9336 59.1487C56.9336 59.042 56.9336 58.9265 56.9336 58.8465C56.978 58.7843 56.9958 58.731 57.0313 58.7133C57.2179 58.6066 57.4312 58.4111 57.6356 58.6422C57.8222 58.8554 58.0088 59.1131 57.7777 59.4241C57.7511 59.4597 57.7333 59.4952 57.6711 59.5841Z" clip-rule="evenodd" fill-rule="evenodd"></path>
<path fill="#201C1A" d="M38.2023 42.3637C38.2912 42.6303 38.2023 42.7458 38.0424 42.8257C37.8291 42.9413 37.6159 43.0479 37.376 43.1812C37.3315 43.0745 37.2782 42.9679 37.2338 42.8524C37.136 42.5503 37.2338 42.3637 37.5359 42.3281C37.6425 42.3104 37.758 42.3104 37.8736 42.3281C37.9802 42.3281 38.0868 42.3548 38.2023 42.3726L38.2023 42.3637Z" clip-rule="evenodd" fill-rule="evenodd"></path>
<path fill="#201C1A" d="M43.2664 31.7009C42.9287 31.6209 42.6799 31.5676 42.3956 31.5054C42.3512 31.4076 42.2801 31.3188 42.2534 31.2122C42.2268 31.1144 42.2268 30.9989 42.209 30.8479C42.3956 30.7679 42.5822 30.6968 42.7688 30.6168C43.1509 30.8478 43.3375 31.1588 43.2664 31.692L43.2664 31.7009Z" clip-rule="evenodd" fill-rule="evenodd"></path>
<path fill="#201C1A" d="M46.3672 31.7898L45.6474 31.7898C45.5497 31.6209 45.4608 31.4699 45.3809 31.3366C45.4075 31.1145 45.683 30.839 45.8429 30.8923C46.0295 30.9456 46.2339 31.0345 46.3672 31.1678C46.5005 31.3188 46.4649 31.541 46.3672 31.7898Z" clip-rule="evenodd" fill-rule="evenodd"></path>
<path fill="#201C1A" d="M55.6003 20.9314C55.6891 20.9492 55.7336 20.9581 55.7691 20.9758C56.1956 21.2246 56.2134 21.8555 55.8047 22.0954C55.6181 22.202 55.3426 22.0954 55.3248 21.8999C55.2982 21.66 55.2982 21.4023 55.3426 21.1713C55.3604 21.0736 55.5203 21.0025 55.6003 20.9403L55.6003 20.9314Z" clip-rule="evenodd" fill-rule="evenodd"></path>
<path fill="#201C1A" d="M44.5637 20.2028C44.386 20.265 44.2172 20.2206 44.0484 20.1317C43.7107 19.954 43.6929 19.9096 43.8084 19.4031C44.0306 19.3675 44.2705 19.3231 44.4926 19.2787C44.7414 19.5808 44.7651 19.8859 44.5637 20.1939L44.5637 20.2028Z" clip-rule="evenodd" fill-rule="evenodd"></path>
<path fill="#201C1A" d="M40.5664 33.3002C40.6997 32.9715 40.7797 32.7582 40.8596 32.5538C40.9396 32.3672 41.1617 32.3228 41.2773 32.4828C41.3661 32.6072 41.4461 32.7404 41.4994 32.8915C41.5794 33.1136 41.4994 33.3002 41.3395 33.4246C41.1529 33.5579 40.9751 33.5668 40.7885 33.4335C40.7175 33.3802 40.6375 33.3447 40.5664 33.3002Z" clip-rule="evenodd" fill-rule="evenodd"></path>
<path fill="#201C1A" d="M39.454 54.6703C39.0808 54.4334 38.8735 54.2024 38.832 53.9772C39.0542 53.915 39.2852 53.8528 39.5073 53.7906C39.7147 53.9921 39.6939 54.2853 39.4451 54.6703L39.454 54.6703Z" clip-rule="evenodd" fill-rule="evenodd"></path>
<path fill="#201C1A" d="M57.3239 22.442C57.7948 22.6553 57.7681 23.0018 57.7326 23.3484C57.7148 23.5172 57.4838 23.6327 57.315 23.5794C56.9418 23.4639 56.7996 23.0462 57.0217 22.7086C57.0928 22.602 57.2172 22.5398 57.3239 22.442Z" clip-rule="evenodd" fill-rule="evenodd"></path>
<path fill="#201C1A" d="M60.051 39.7779C60.1398 39.3514 60.4242 39.1826 60.6907 38.9515C60.8329 39.0937 60.9751 39.2003 61.0728 39.3425C61.1795 39.4936 61.1795 39.6802 61.0728 39.849C60.9751 40 60.8151 40.0267 60.6552 39.9823C60.4597 39.9378 60.282 39.8579 60.0332 39.7779L60.051 39.7779Z" clip-rule="evenodd" fill-rule="evenodd"></path>
<path fill="#201C1A" d="M51.4248 36.4281C51.176 36.6473 50.8976 36.6828 50.5896 36.5347C50.5274 36.3304 50.4563 36.1171 50.403 35.9038C50.3674 35.7706 50.4829 35.6284 50.634 35.6462C50.7406 35.6551 50.865 35.6817 50.945 35.7439C51.1582 35.9127 51.3537 36.0993 51.4248 36.4281Z" clip-rule="evenodd" fill-rule="evenodd"></path>
<path fill="#201C1A" d="M42.6356 57.0606C42.7778 57.1584 42.8755 57.2295 42.9911 57.3094C42.9022 57.6027 42.6179 57.6204 42.4224 57.807C42.3157 57.4694 42.5201 57.3006 42.6445 57.0518L42.6356 57.0606Z" clip-rule="evenodd" fill-rule="evenodd"></path>
<path fill="#201C1A" d="M51.9045 31.31C51.9223 31.2478 51.9311 31.2033 51.9489 31.1678C52.0467 31.0345 51.9667 30.7679 52.2155 30.759C52.4732 30.7502 52.5976 30.9723 52.7309 31.1322C52.873 31.3011 52.873 31.5054 52.7397 31.692C52.6687 31.7898 52.5531 31.8698 52.4821 31.932C52.251 31.9142 52.1888 31.772 52.1089 31.6298C52.0467 31.5143 51.9578 31.4077 51.8867 31.31L51.9045 31.31Z" clip-rule="evenodd" fill-rule="evenodd"></path>
<path fill="#201C1A" d="M42.7608 27.6223C43.2317 27.8356 42.8585 28.1732 43.0185 28.422C42.6364 28.5464 42.2899 28.6353 41.9611 28.4043C41.8989 28.3598 41.8278 28.2621 41.8367 28.1999C41.8367 28.1377 41.9433 28.0222 41.9966 28.0311C42.3343 28.0577 42.4853 27.7467 42.7519 27.6223L42.7608 27.6223Z" clip-rule="evenodd" fill-rule="evenodd"></path>
<path fill="#201C1A" d="M47.1592 53.0087C47.1325 52.8044 47.097 52.6178 47.0703 52.4223C47.2569 52.209 47.5057 52.209 47.6923 52.3068C47.8789 52.3956 48.0211 52.5911 48.1633 52.7599C48.2343 52.8399 48.1011 53.0354 47.9589 53.0532C47.6923 53.0887 47.4257 53.1154 47.1503 53.0176L47.1592 53.0087Z" clip-rule="evenodd" fill-rule="evenodd"></path>
<path fill="#201C1A" d="M51.158 19.492C51.1847 19.7052 51.4068 19.9007 51.158 20.1495C50.9714 20.1317 50.7582 20.1229 50.5449 20.0873C50.3228 20.0518 50.225 19.8474 50.3139 19.6253C50.4383 19.2965 50.5893 19.2343 50.9359 19.3676C51.0158 19.3942 51.0869 19.4564 51.1669 19.492L51.158 19.492Z" clip-rule="evenodd" fill-rule="evenodd"></path>
<path fill="#201C1A" d="M57.6088 39.9823C57.5022 39.8668 57.4133 39.7335 57.2889 39.6535C57.1645 39.5735 57.0135 39.538 56.8535 39.4758C56.9068 39.2003 57.0934 39.067 57.28 38.9604C57.5644 38.8005 57.8931 39.0137 57.8665 39.3514C57.8576 39.5291 57.8221 39.7068 57.7776 39.8756C57.7687 39.9201 57.671 39.9378 57.5999 39.9823L57.6088 39.9823Z" clip-rule="evenodd" fill-rule="evenodd"></path>
<path fill="#201C1A" d="M43.312 18.1768C43.1876 18.4167 43.0632 18.5767 42.7966 18.6033C42.5656 18.6211 42.4145 18.4967 42.2901 18.3368C42.1924 18.2124 42.1924 18.088 42.2901 17.9636C42.3523 17.8747 42.4412 17.7947 42.53 17.7325C42.6544 17.6437 42.7877 17.6437 42.9032 17.7503C43.0454 17.8836 43.1787 18.0347 43.3208 18.1857L43.312 18.1768Z" clip-rule="evenodd" fill-rule="evenodd"></path>
<path fill="#201C1A" d="M56.1871 44.2118C56.1426 44.434 56.1071 44.6295 56.0716 44.8427C55.6184 45.0293 55.3962 44.6561 55.0586 44.4784C55.1297 44.3718 55.1741 44.3007 55.2274 44.2296C55.263 44.1763 55.3074 44.123 55.3607 44.0608C55.5295 44.0697 55.7072 44.0697 55.885 44.0963C55.9827 44.1141 56.0804 44.1674 56.196 44.2118L56.1871 44.2118Z" clip-rule="evenodd" fill-rule="evenodd"></path>
<path fill="#201C1A" d="M52.0371 18.3369C52.1971 18.3191 52.3215 18.3014 52.4725 18.2836C52.4103 18.1414 52.3659 18.0259 52.3126 17.8926C52.588 17.7416 52.8457 17.937 53.0945 17.8837C53.1212 17.8837 53.1656 17.937 53.1834 17.9726C53.2633 18.1592 53.0856 18.5413 52.8635 18.5324C52.6769 18.5324 52.588 18.6568 52.4547 18.7012C52.3481 18.7368 52.1793 18.7012 52.0815 18.6479C52.0282 18.6124 52.046 18.4524 52.0371 18.3458L52.0371 18.3369Z" clip-rule="evenodd" fill-rule="evenodd"></path>
<path fill="#201C1A" d="M49.843 24.5124C49.7008 24.8145 49.6119 25.0544 49.4875 25.2855C49.452 25.3477 49.3454 25.401 49.2654 25.401C49.0255 25.4099 48.6701 24.9922 48.7056 24.7612C48.7323 24.5835 48.9011 24.4502 49.0966 24.4857C49.2299 24.5035 49.3543 24.5657 49.4787 24.5746C49.5764 24.5835 49.683 24.5479 49.843 24.5213L49.843 24.5124Z" clip-rule="evenodd" fill-rule="evenodd"></path>
<path fill="#201C1A" d="M56.0355 40.7198C56.1066 40.8442 56.1599 40.942 56.2221 41.0486C56.1688 41.2619 56.1332 41.4929 55.8311 41.484C55.5734 41.484 55.218 41.1641 55.1736 40.9064C55.1469 40.782 55.2713 40.6221 55.3957 40.631C55.5912 40.6487 55.7956 40.6843 56.0355 40.7198Z" clip-rule="evenodd" fill-rule="evenodd"></path>
<path fill="#201C1A" d="M55.1641 37.7609C55.324 37.6099 55.4573 37.4588 55.6261 37.3433C55.6972 37.2989 55.8394 37.3078 55.9371 37.3433C56.0793 37.3966 56.1237 37.5388 56.0971 37.681C56.0793 37.7876 56.0171 37.8942 55.9638 37.992C55.7683 38.3207 55.4395 38.303 55.244 37.9564C55.2263 37.9209 55.2174 37.8765 55.1729 37.7521L55.1641 37.7609Z" clip-rule="evenodd" fill-rule="evenodd"></path>
<path fill="#201C1A" d="M56.9414 26.5295C57.0125 26.4228 57.0925 26.3162 57.1458 26.2007C57.1902 26.1118 57.1902 25.9963 57.2257 25.863C57.4657 26.023 57.6611 26.1563 57.8477 26.2807C57.8477 26.3695 57.8655 26.4139 57.8477 26.4495C57.5812 27.0448 57.4035 27.0626 56.9503 26.5295L56.9414 26.5295Z" clip-rule="evenodd" fill-rule="evenodd"></path>
<path fill="#201C1A" d="M49.8245 21.3579C49.7001 21.6067 49.4957 21.7578 49.2203 21.8289C48.9448 21.6956 49.0603 21.3846 48.9004 21.2158C49.2914 20.7981 49.4513 20.8248 49.8245 21.3579Z" clip-rule="evenodd" fill-rule="evenodd"></path>
<path fill="#201C1A" d="M57.6345 52.0935C57.9011 52.2357 57.8833 52.5111 57.9544 52.7244C58.0077 52.8843 57.8033 53.062 57.6256 53.0709C57.4953 53.0709 57.3265 52.9613 57.1191 52.7422C57.2969 52.5467 57.3413 52.2268 57.6345 52.0935Z" clip-rule="evenodd" fill-rule="evenodd"></path>
<path fill="#201C1A" d="M52.0547 54.1638C52.1524 53.8972 52.2679 53.6928 52.5701 53.7195C52.6708 53.9565 52.7063 54.2586 52.6767 54.6258C52.6323 54.6614 52.5878 54.7147 52.5256 54.7414C52.3568 54.8124 52.2591 54.7769 52.2057 54.6347C52.1524 54.4926 52.1169 54.3415 52.0636 54.1638L52.0547 54.1638Z" clip-rule="evenodd" fill-rule="evenodd"></path>
<path fill="#201C1A" d="M55.3786 17.7416C55.7251 17.8127 55.8762 18.0437 56.0539 18.2214C55.894 18.6213 55.8229 18.6568 55.5385 18.5235C55.4763 18.4969 55.4142 18.4702 55.3608 18.4347C55.1654 18.3103 55.1298 18.177 55.2542 17.9193C55.2809 17.8571 55.3342 17.8127 55.3875 17.7416L55.3786 17.7416Z" clip-rule="evenodd" fill-rule="evenodd"></path>
<path fill="#201C1A" d="M38.2201 26.565C37.9624 26.7161 37.6869 26.8493 37.3937 26.6183C37.3315 26.5739 37.2693 26.4761 37.2782 26.4139C37.2871 26.3429 37.3759 26.2362 37.4381 26.2273C37.6514 26.2096 37.8735 26.2007 38.0779 26.2362C38.2201 26.2629 38.2823 26.3873 38.2201 26.565Z" clip-rule="evenodd" fill-rule="evenodd"></path>
<path fill="#201C1A" d="M56.7461 52.5644C56.7461 52.4844 56.7461 52.3956 56.7728 52.3334C56.8083 52.2712 56.8794 52.209 56.9505 52.1823C57.0215 52.1645 57.0393 52.3067 56.9682 52.44C56.9416 52.4933 56.8972 52.5377 56.8616 52.5822C56.8261 52.5822 56.7905 52.5644 56.7461 52.5555L56.7461 52.5644Z" clip-rule="evenodd" fill-rule="evenodd"></path>
</g>
<path stroke-linejoin="round" stroke="#201C1A" fill="#C8E892" d="M40.0007 53C30.7478 53 29.9432 59.2222 28.334 60H51.6673C50.0581 59.2222 49.2535 53 40.0007 53Z"></path>
<path stroke-linejoin="round" stroke-linecap="round" stroke="#201C1A" d="M39.2227 54.9445L39.554 55.1079"></path>
<path stroke-linejoin="round" stroke-linecap="round" stroke="#201C1A" d="M42.334 54.9445L42.6654 55.1079"></path>
<path stroke-linejoin="round" stroke-linecap="round" stroke="#201C1A" d="M44.668 56.5C45.3307 56.7026 46.2652 57.7876 46.3249 58.0882"></path>
<mask height="5" width="24" y="55" x="28" maskUnits="userSpaceOnUse" style="mask-type:alpha" id="mask1_11220_902085">
<path fill="#FFC99B" d="M33.5 56.5C33.5 52 29.6552 59.2222 28 60H52C50.3448 59.2222 33.5 61.0001 33.5 56.5Z"></path>
</mask>
<g mask="url(#mask1_11220_902085)">
<path fill="#201C1A" d="M37.1582 58.1673C37.2471 57.9007 37.4248 57.7763 37.6291 57.6608C37.8335 57.5542 38.0023 57.5453 38.1978 57.6608C38.5355 57.8563 38.6243 58.2561 38.3933 58.5671C38.0112 59.0736 37.5847 58.9137 37.3004 58.5049C37.2293 58.3983 37.1937 58.265 37.1582 58.1673Z" clip-rule="evenodd" fill-rule="evenodd"></path>
<path fill="#201C1A" d="M27.3672 55.1371C27.4116 55.0039 27.4472 54.8972 27.4827 54.7906C27.5893 54.4885 27.8737 54.2841 28.1847 54.2841C28.4068 54.2841 28.6556 54.4974 28.7 54.7284C28.7711 55.1105 28.6734 55.2615 28.2558 55.3948C27.9359 55.5015 27.6397 55.4126 27.3672 55.1283V55.1371Z" clip-rule="evenodd" fill-rule="evenodd"></path>
<path fill="#201C1A" d="M53.0722 59.3757C53.1167 59.5623 53.2233 59.74 53.1966 59.891C53.1611 60.1043 53.0367 60.3087 52.8501 60.4508C52.6457 60.6019 52.3436 60.5664 52.1925 60.362C52.0859 60.2198 51.9971 60.0599 51.9082 59.9088C52.08 59.4941 52.471 59.3164 53.0811 59.3757H53.0722Z" clip-rule="evenodd" fill-rule="evenodd"></path>
<path fill="#201C1A" d="M44.2229 57.5807C44.4806 57.6874 44.676 57.7762 44.8982 57.8651V58.5582C44.7294 58.6026 44.5605 58.6381 44.4006 58.7092C44.1251 58.8336 43.9208 58.6915 43.7164 58.5671C43.512 58.4338 43.5031 58.0783 43.7075 57.9184C43.8674 57.794 44.0452 57.6963 44.2229 57.5807Z" clip-rule="evenodd" fill-rule="evenodd"></path>
<path fill="#201C1A" d="M37.2285 55.1106C37.2552 54.9506 37.2729 54.844 37.2907 54.7374C37.3618 54.3375 37.4062 54.3198 37.815 54.3997C38.357 54.5153 38.4014 54.5774 38.3837 55.0928C38.3837 55.2883 38.3037 55.4394 38.1171 55.5104C38.0193 55.5549 37.9127 55.5904 37.7972 55.6437C37.6106 55.466 37.4329 55.3061 37.2285 55.1106Z" clip-rule="evenodd" fill-rule="evenodd"></path>
<path fill="#201C1A" d="M40.0103 59.9354C40.0103 60.0242 40.0103 60.1131 40.0103 60.2108C39.9836 60.4685 39.8237 60.584 39.5927 60.4774C39.3883 60.3797 39.1928 60.273 39.0062 60.1486C38.8729 60.0598 38.793 59.9265 38.793 59.7488C38.793 59.5533 38.9174 59.3845 39.0951 59.3578C39.2017 59.34 39.3172 59.34 39.4327 59.34C39.9303 59.34 40.0103 59.4289 40.0103 59.9443V59.9354Z" clip-rule="evenodd" fill-rule="evenodd"></path>
<path fill="#201C1A" d="M31.3125 57.5807C31.4902 57.6874 31.659 57.7851 31.819 57.9095C31.9789 58.025 32.0234 58.2827 31.9256 58.4515C31.8812 58.5226 31.8012 58.6026 31.7301 58.6115C31.277 58.6826 30.8416 58.6915 30.5039 58.3183C30.5572 57.8118 30.9571 57.7407 31.3036 57.5896L31.3125 57.5807Z" clip-rule="evenodd" fill-rule="evenodd"></path>
<path fill="#201C1A" d="M28.6637 58.025C28.5926 58.2027 28.5127 58.3893 28.4416 58.567C28.3349 58.8069 28.0595 58.958 27.8551 58.878C27.5974 58.7802 27.4197 58.4781 27.5175 58.2293C27.5885 58.025 27.6507 57.785 27.8995 57.714C28.1572 57.634 28.3527 57.714 28.6637 58.025Z" clip-rule="evenodd" fill-rule="evenodd"></path>
<path fill="#201C1A" d="M52.5661 57.403C52.3262 57.1986 52.113 57.012 51.873 56.7988C51.9352 56.6566 51.9708 56.5233 52.0419 56.4167C52.2818 56.0435 52.3884 56.0168 52.8238 56.1679C52.9038 56.1946 52.9838 56.2301 53.046 56.2568C53.197 56.7632 53.0637 57.1276 52.5661 57.403Z" clip-rule="evenodd" fill-rule="evenodd"></path>
<path fill="#201C1A" d="M32.5994 59.3668C33.0259 59.2513 33.328 59.5356 33.7101 59.6156C33.719 59.8199 33.7278 59.9977 33.7456 60.1931C33.6568 60.1931 33.5857 60.2109 33.5324 60.1931C33.479 60.1665 33.4524 60.0865 33.3902 60.051C33.2569 59.9799 33.1147 60.051 33.1059 60.202C33.1059 60.2465 33.1414 60.2909 33.1325 60.3353C33.1147 60.4864 32.9815 60.5663 32.8393 60.513C32.5727 60.4153 32.3772 60.0332 32.4483 59.7577C32.4839 59.6333 32.5372 59.5089 32.5905 59.3757L32.5994 59.3668Z" clip-rule="evenodd" fill-rule="evenodd"></path>
<path fill="#201C1A" d="M28.832 59.8821C28.8942 59.7577 28.9298 59.6245 29.0186 59.5445C29.1341 59.4467 29.2941 59.4023 29.4274 59.3223C29.8272 59.0913 29.9783 59.2335 30.1471 59.6156C30.2449 59.8466 30.2537 60.0954 30.0938 60.3708C29.6939 60.1931 29.2319 60.1931 28.8409 59.8821H28.832Z" clip-rule="evenodd" fill-rule="evenodd"></path>
<path fill="#201C1A" d="M42.4095 59.3579C43.2537 59.3223 43.3958 59.4734 43.2803 60.2286C43.2448 60.4863 42.9427 60.6463 42.7205 60.5041C42.5517 60.3975 42.4006 60.2642 42.2762 60.1131C42.214 60.0421 42.1963 59.8999 42.2229 59.8021C42.2585 59.66 42.3473 59.5178 42.4184 59.3667L42.4095 59.3579Z" clip-rule="evenodd" fill-rule="evenodd"></path>
<path fill="#201C1A" d="M35.6838 59.58C35.9415 59.3401 36.1992 59.3045 36.4835 59.3312C36.7145 59.349 36.8389 59.4556 36.8745 59.6422C36.9367 59.9798 36.8567 60.1664 36.6257 60.2642C36.5635 60.2908 36.4924 60.2997 36.4302 60.3175C35.9592 60.4686 35.7104 60.2997 35.666 59.8021C35.666 59.7399 35.6838 59.6688 35.6927 59.58H35.6838Z" clip-rule="evenodd" fill-rule="evenodd"></path>
<path fill="#201C1A" d="M49.2779 60.3887C49.0647 60.2732 48.8514 60.1577 48.5938 60.0244C48.6293 59.8822 48.6293 59.7223 48.7004 59.5979C48.807 59.4202 48.9847 59.3135 49.198 59.2958C49.3046 59.2958 49.4201 59.278 49.5179 59.3135C49.7045 59.3757 49.7311 59.4291 49.9355 59.8911C49.8111 60.1932 49.5623 60.3087 49.2691 60.3887H49.2779Z" clip-rule="evenodd" fill-rule="evenodd"></path>
<path fill="#201C1A" d="M30.8946 55.4216C30.8946 55.1639 30.8768 54.9151 30.8946 54.6752C30.9213 54.3464 31.2678 54.1598 31.5344 54.3553C31.7654 54.5241 32.0053 54.7018 32.1031 55.0217C31.8632 55.1106 31.6144 55.1284 31.4811 55.3772C31.3833 55.546 31.1701 55.5193 30.9035 55.4216H30.8946Z" clip-rule="evenodd" fill-rule="evenodd"></path>
<path fill="#201C1A" d="M33.3641 55.9547C33.7373 56.5322 33.7195 56.6833 33.2308 57.1364C33.0264 57.0387 32.8043 56.941 32.5999 56.8432C32.4755 56.159 32.6443 55.9724 33.3641 55.9547Z" clip-rule="evenodd" fill-rule="evenodd"></path>
<path fill="#201C1A" d="M40.029 56.5678C39.875 56.8699 39.6825 57.1039 39.4515 57.2697C39.3004 57.1187 39.1316 56.9854 38.9983 56.8077C38.8383 56.6033 38.9539 56.0968 39.176 55.9547C39.2826 55.8925 39.5137 55.9102 39.6203 56.0169C39.7713 56.1768 39.8869 56.3723 40.029 56.5589V56.5678Z" clip-rule="evenodd" fill-rule="evenodd"></path>
<path fill="#201C1A" d="M41.2455 58.7359C40.8634 58.6382 40.4813 58.6648 40.3125 58.2472C40.4813 57.8118 40.899 57.7496 41.2899 57.7052C41.5565 57.6696 41.752 58.0428 41.6098 58.3094C41.521 58.4605 41.3788 58.5849 41.2455 58.7359Z" clip-rule="evenodd" fill-rule="evenodd"></path>
<path fill="#201C1A" d="M44.9158 54.4619C44.9158 54.7462 44.9247 54.9684 44.9158 55.1905C44.898 55.3771 44.7025 55.5993 44.5337 55.617C44.2671 55.6437 44.0539 55.5193 43.8939 55.3238C43.7695 55.1816 43.734 54.995 43.8495 54.8262C43.8939 54.7551 43.9828 54.6485 44.0272 54.6574C44.276 54.7107 44.4449 54.5508 44.6492 54.453C44.7025 54.4264 44.7825 54.453 44.9247 54.4619H44.9158Z" clip-rule="evenodd" fill-rule="evenodd"></path>
<path fill="#201C1A" d="M49.2344 55.9814C49.4477 56.1236 49.6787 56.2924 49.9364 56.4701C49.7675 56.8166 49.5987 57.0921 49.2077 57.1365C48.9945 57.1632 48.9145 57.1099 48.6035 56.7367C48.8612 56.5412 48.7812 56.088 49.2344 55.9903V55.9814Z" clip-rule="evenodd" fill-rule="evenodd"></path>
<path fill="#201C1A" d="M48.3195 54.9772C48.1684 55.3327 47.8041 55.4038 47.5287 55.6614C47.4309 55.5548 47.3243 55.4837 47.2621 55.3771C47.1732 55.226 47.1288 55.0572 47.0488 54.8528C47.1821 54.764 47.3154 54.6574 47.4576 54.5596C47.8308 54.3286 47.9996 54.373 48.2128 54.7373C48.2573 54.8084 48.2839 54.8973 48.3195 54.9684V54.9772Z" clip-rule="evenodd" fill-rule="evenodd"></path>
<path fill="#201C1A" d="M30.3508 56.319C30.1731 56.5855 30.0487 56.7721 29.9243 56.9587C29.7022 57.0032 29.48 57.0387 29.2668 57.0831C29.0269 56.8343 29.1157 56.5589 29.1513 56.3012C29.169 56.1413 29.4001 56.0169 29.5867 56.0613C29.8177 56.1235 30.0487 56.2123 30.3508 56.319Z" clip-rule="evenodd" fill-rule="evenodd"></path>
<path fill="#201C1A" d="M36.1356 57.2431C36.1 57.1098 36.0823 56.9765 36.029 56.8699C35.9756 56.7543 35.8512 56.6655 35.8068 56.55C35.7713 56.4345 35.8068 56.2923 35.8068 56.1946C36.0556 55.9102 36.2866 55.9102 36.5443 56.0879C36.722 56.2123 36.8376 56.3812 36.8109 56.5944C36.7665 56.9587 36.571 57.2075 36.1356 57.2431Z" clip-rule="evenodd" fill-rule="evenodd"></path>
<path fill="#201C1A" d="M34.8921 57.6519C35.1765 57.9185 35.1409 58.2295 35.0876 58.5049C35.052 58.7182 34.8921 58.8692 34.67 58.8959C34.5189 58.9137 34.3679 58.8781 34.2168 58.8603C34.2435 58.6204 34.279 58.4338 34.2968 58.2295C34.3412 57.7852 34.3323 57.7852 34.8921 57.643V57.6519Z" clip-rule="evenodd" fill-rule="evenodd"></path>
<path fill="#201C1A" d="M33.9062 55.1017C34.001 54.8056 34.2735 54.5923 34.7237 54.462C34.9459 54.5153 34.9725 54.6841 34.9725 54.8796C34.9725 55.1551 34.9814 55.4305 34.6526 55.5816C34.4127 55.4305 34.155 55.2617 33.9062 55.1017Z" clip-rule="evenodd" fill-rule="evenodd"></path>
<path fill="#201C1A" d="M51.4282 55.3149C51.3304 55.3238 51.2416 55.3682 51.206 55.3415C51.0194 55.2171 50.8595 55.075 50.6374 55.2882C50.6196 55.306 50.4507 55.2438 50.433 55.1905C50.3175 54.8706 50.3441 54.5685 50.6818 54.3819C50.9572 54.3908 51.2149 54.4708 51.4282 54.6662V55.3238V55.3149Z" clip-rule="evenodd" fill-rule="evenodd"></path>
<path fill="#201C1A" d="M43.3427 56.2212C43.4316 56.4523 43.476 56.6122 43.2805 56.7455C43.1917 56.8077 43.1028 56.8788 43.0228 56.9499C42.6763 57.2253 42.4897 57.2164 42.1609 56.8877C42.1343 56.861 42.1165 56.8166 42.0898 56.7721C42.312 56.2657 42.3742 56.2301 42.854 56.2479C43.0051 56.2479 43.1561 56.2301 43.3427 56.2123V56.2212Z" clip-rule="evenodd" fill-rule="evenodd"></path>
<path fill="#201C1A" d="M50.3615 58.5581C50.4504 58.1316 50.7347 57.9628 51.0013 57.7318C51.1435 57.8739 51.2856 57.9805 51.3834 58.1227C51.49 58.2738 51.49 58.4604 51.3834 58.6292C51.2856 58.7803 51.1257 58.8069 50.9657 58.7625C50.7703 58.7181 50.5925 58.6381 50.3438 58.5581H50.3615Z" clip-rule="evenodd" fill-rule="evenodd"></path>
<path fill="#201C1A" d="M41.7354 55.2083C41.4866 55.4275 41.2081 55.463 40.9001 55.3149C40.8379 55.1106 40.7668 54.8973 40.7135 54.6841C40.678 54.5508 40.7935 54.4086 40.9445 54.4264C41.0512 54.4353 41.1756 54.4619 41.2555 54.5241C41.4688 54.6929 41.6643 54.8795 41.7354 55.2083Z" clip-rule="evenodd" fill-rule="evenodd"></path>
<path fill="#201C1A" d="M47.9193 58.7625C47.8127 58.647 47.7239 58.5137 47.5995 58.4337C47.4751 58.3537 47.324 58.3182 47.1641 58.256C47.2174 57.9805 47.404 57.8473 47.5906 57.7406C47.8749 57.5807 48.2037 57.7939 48.177 58.1316C48.1681 58.3093 48.1326 58.487 48.0882 58.6559C48.0793 58.7003 47.9815 58.7181 47.9105 58.7625H47.9193Z" clip-rule="evenodd" fill-rule="evenodd"></path>
<path fill="#201C1A" d="M46.346 59.5C46.4171 59.6244 46.4704 59.7222 46.5326 59.8288C46.4793 60.0421 46.4438 60.2731 46.1416 60.2642C45.884 60.2642 45.5285 59.9443 45.4841 59.6866C45.4575 59.5622 45.5819 59.4023 45.7063 59.4112C45.9017 59.429 46.1061 59.4645 46.346 59.5Z" clip-rule="evenodd" fill-rule="evenodd"></path>
<path fill="#201C1A" d="M45.4746 56.5412C45.6346 56.3901 45.7678 56.239 45.9367 56.1235C46.0078 56.0791 46.1499 56.088 46.2477 56.1235C46.3898 56.1768 46.4343 56.319 46.4076 56.4612C46.3898 56.5678 46.3276 56.6744 46.2743 56.7722C46.0788 57.1009 45.7501 57.0832 45.5546 56.7366C45.5368 56.7011 45.5279 56.6567 45.4835 56.5323L45.4746 56.5412Z" clip-rule="evenodd" fill-rule="evenodd"></path>
</g>
</svg>
