<svg xmlns="http://www.w3.org/2000/svg" fill="none" viewBox="0 0 119 119" height="119" width="119">
<g clip-path="url(#clip0_10042_839956)">
<circle stroke-linecap="round" stroke="#201C1A" fill="#FFD1B8" r="59" cy="59.5" cx="59.5"></circle>
<mask height="119" width="119" y="0" x="0" maskUnits="userSpaceOnUse" style="mask-type:alpha" id="mask0_10042_839956">
<circle stroke-linecap="round" stroke="#201C1A" fill="#B1D1F9" r="59" cy="59.5" cx="59.5"></circle>
</mask>
<g mask="url(#mask0_10042_839956)">
<ellipse fill="#FFFEFB" ry="2" rx="19" cy="55" cx="59"></ellipse>
<path stroke-linejoin="round" stroke-linecap="round" stroke="#201C1A" fill="#FFFEFB" d="M45 80.8192C44.7717 80.8447 44.53 80.8703 44.3018 80.8958C44.0601 80.9086 43.805 80.9214 43.5633 80.9469C40.5018 81.1513 37.8969 80.8831 36.0574 78.009C34.5133 75.5948 33.2377 72.9506 33.0228 70.1277C32.9557 69.1186 33.0228 68.0711 33.4122 67.1386C34.0164 65.6825 35.3592 64.5839 36.863 63.9452C38.3132 63.3321 39.8976 63.1022 41.482 63.0128C41.5492 63.0128 41.6029 63 41.67 63L42.3951 66.1806C42.1668 66.1934 41.9386 66.2062 41.7103 66.2317C40.5287 66.3339 39.3337 66.5383 38.4609 67.2536C37.3733 68.135 37.0107 69.6167 37.1853 70.9707C37.4136 72.7846 38.2326 74.5601 39.3874 76.0291C40.3944 77.3192 41.9251 77.4853 43.4827 77.4214C43.7378 77.4214 43.9795 77.3959 44.2212 77.3703L45 80.8192Z"></path>
<path fill="#FFFEFB" d="M78 55C78 55 73.7157 84.2513 73.4278 85.6042C73.1061 87.1367 71.7852 87.8652 69.7192 87.9882C69.7192 87.9882 54.1061 88.0355 49.6693 87.9409C47.5526 87.8936 45.4358 86.9665 45.131 85.519C44.4706 82.2552 40 55.2554 40 55.2554"></path>
<path fill="#EA6D44" d="M76.9831 61.0176C75.4436 69.4786 73.4305 84.7497 73.1936 85.7277C72.8722 87.1813 71.5526 87.8721 69.5056 87.9888C69.5056 87.9888 53.9079 88.0336 49.4756 87.9439C47.3609 87.8991 45.2462 87.0198 44.9586 85.647C44.485 83.4398 42.7256 71.2193 41 62.7582C41.7951 62.7134 42.6071 62.7224 43.3853 62.7582C46.1767 62.9108 48.8665 63.4491 51.6579 63.5837C57.0376 63.8619 62.2312 62.6865 67.391 61.8341C70.4699 61.3226 73.8026 60.9368 77 61.0086L76.9831 61.0176Z"></path>
<mask height="19" width="27" y="69" x="42" maskUnits="userSpaceOnUse" style="mask-type:alpha" id="mask1_10042_839956">
<path fill="#F09F54" d="M52.2069 81.2941C55.9673 84.0882 60.8021 86.3235 69 87.9884C69 87.9884 53.6382 88.0348 49.2729 87.942C47.1903 87.8955 45.1076 86.9856 44.8244 85.5649C44.3578 83.2808 42.874 74.5882 42 69C45.7604 76.8235 48.4464 78.5 52.2069 81.2941Z"></path>
</mask>
<g mask="url(#mask1_10042_839956)">
<path fill="#201C1A" d="M53.5016 71.4213C53.2714 71.2897 53.1398 71.1033 53.1179 70.8182C53.1069 70.4893 53.2275 70.2152 53.4358 69.974C53.6003 69.7766 53.8415 69.8205 54.0608 69.8314C54.4117 69.8424 54.8393 70.1713 54.938 70.5003C55.0257 70.7525 54.938 71.0266 54.6968 71.1472C54.5323 71.2349 54.3349 71.2897 54.1485 71.3336C53.9293 71.3774 53.71 71.3994 53.4907 71.4213H53.5016Z" clip-rule="evenodd" fill-rule="evenodd"></path>
<path fill="#201C1A" d="M52.9307 68.4719C52.7882 69.031 52.3386 69.1407 51.9329 69.2832C51.8342 69.3161 51.6478 69.2503 51.5711 69.1626C51.3847 68.9653 51.2531 68.724 51.0996 68.5157C51.1764 68.0991 51.3299 67.7811 51.6369 67.5728C51.7356 67.507 51.9439 67.4741 52.0097 67.5289C52.3496 67.792 52.7772 67.9784 52.9307 68.4719Z" clip-rule="evenodd" fill-rule="evenodd"></path>
<path fill="#201C1A" d="M51.3191 71.6187C51.7468 71.4104 52.0428 71.509 52.3388 71.8051C52.602 72.0682 52.8651 72.3095 52.7884 72.7261C52.7774 72.8029 52.7774 72.9015 52.7226 72.9673C52.5143 73.2305 52.1963 73.2853 51.9003 73.2963C51.7029 73.2963 51.5165 73.1537 51.4288 72.9015C51.2753 72.4959 51.2424 72.1011 51.3191 71.6187Z" clip-rule="evenodd" fill-rule="evenodd"></path>
<path fill="#201C1A" d="M60.2228 75.6755C60.4092 75.7523 60.5408 75.7961 60.6504 75.8619C61.0781 76.1032 61.1329 76.3882 60.8588 76.8159C60.6614 77.1229 60.3873 77.3422 60.0364 77.5286C59.7075 77.2654 59.3237 77.0461 59.2031 76.5527C59.236 76.3224 59.4772 76.2676 59.6527 76.136C59.8281 76.0045 59.9926 75.8619 60.2119 75.6755H60.2228Z" clip-rule="evenodd" fill-rule="evenodd"></path>
<path fill="#201C1A" d="M63.25 76.3554C63.3816 76.158 63.4803 75.9497 63.6338 75.8071C63.7324 75.7084 63.9408 75.6317 64.0723 75.6646C64.4561 75.7413 64.7412 76.0264 64.785 76.3883C64.8289 76.7172 64.785 77.1009 64.5 77.3751C64.2807 77.5834 64.0723 77.5834 63.8311 77.408C63.4803 77.1667 63.3706 76.8049 63.25 76.3554Z" clip-rule="evenodd" fill-rule="evenodd"></path>
<path fill="#201C1A" d="M68.1391 73.5375C67.7883 73.2853 67.5142 73.1099 67.251 72.9125C67.0756 72.7809 67.0208 72.5287 67.1633 72.3972C67.4703 72.1231 67.7335 71.8051 68.1391 71.6516C68.4462 71.531 68.6326 71.6187 68.7641 71.9695C68.9944 72.5507 68.9834 72.5726 68.5448 72.9673C68.4681 73.0441 68.3584 73.0989 68.3036 73.1757C68.2488 73.2524 68.2159 73.373 68.1501 73.5375H68.1391Z" clip-rule="evenodd" fill-rule="evenodd"></path>
<path fill="#201C1A" d="M47.0762 88.5699C47.1858 88.241 47.4051 88.0875 47.6573 87.9449C47.9095 87.8134 48.1178 87.8024 48.359 87.9449C48.7757 88.1862 48.8853 88.6796 48.6002 89.0633C48.1288 89.6883 47.6025 89.4909 47.2516 88.9866C47.1639 88.855 47.12 88.6905 47.0762 88.5699Z" clip-rule="evenodd" fill-rule="evenodd"></path>
<path fill="#201C1A" d="M62.6464 83.2301H61.4293C61.3526 83.0328 61.2429 82.8683 61.21 82.6929C61.1223 82.2324 61.2649 82.046 61.7254 81.9363C61.835 81.9144 61.9337 81.8815 62.0433 81.8596C62.471 81.7499 62.5587 81.8267 62.7231 82.1995C62.8657 82.5394 62.7122 82.8464 62.6464 83.2301Z" clip-rule="evenodd" fill-rule="evenodd"></path>
<path fill="#201C1A" d="M58.1397 77.6931C58.2823 77.8027 58.381 77.8575 58.4577 77.9343C58.9292 78.3838 58.9401 78.636 58.5235 79.1294C58.3261 79.3706 58.0739 79.4474 57.7779 79.3597C57.4599 79.272 57.2187 79.0527 57.1858 78.7347C57.1529 78.4277 57.3174 78.1426 57.5696 77.9562C57.7231 77.8466 57.9095 77.7917 58.1397 77.6931Z" clip-rule="evenodd" fill-rule="evenodd"></path>
<path fill="#201C1A" d="M55.5405 81.1579C55.4199 80.7851 55.2225 80.4671 55.3541 80.0615C55.5185 79.9189 55.683 79.7106 55.9791 79.8531C56.3519 80.0505 56.8453 80.0943 56.9768 80.6206C57.0426 80.8948 56.933 81.125 56.6918 81.2347C56.319 81.3991 55.9462 81.3991 55.5405 81.1579Z" clip-rule="evenodd" fill-rule="evenodd"></path>
<path fill="#201C1A" d="M65.3098 69.974C65.5181 69.8314 65.7484 69.6779 65.9567 69.5354C66.176 69.645 66.3624 69.7108 66.5159 69.8095C67.0312 70.1494 67.0203 70.7634 66.5159 71.1033C66.4282 71.1691 66.3185 71.213 66.2199 71.2459C66.0444 71.3226 65.8251 71.2459 65.7155 71.0814C65.6058 70.895 65.4852 70.7086 65.4085 70.5003C65.3537 70.3468 65.3427 70.1823 65.2988 69.9521L65.3098 69.974Z" clip-rule="evenodd" fill-rule="evenodd"></path>
<path fill="#201C1A" d="M64.1487 71.6735C64.6202 71.849 64.7847 72.1669 64.7079 72.6165C64.6751 72.8687 64.3023 73.2744 64.061 73.3292C63.8198 73.384 63.6115 73.2524 63.458 73.0989C63.3045 72.9454 63.1948 72.7371 63.0742 72.5617C63.1948 71.9367 63.7321 71.8709 64.1487 71.6735Z" clip-rule="evenodd" fill-rule="evenodd"></path>
<path fill="#201C1A" d="M54.159 73.7896C54.2906 73.9651 54.4222 74.1405 54.5647 74.305C54.8498 74.6559 54.8389 74.7984 54.5538 75.0396C53.9727 75.5221 53.5779 75.4343 53.26 74.7545C53.2161 74.6559 53.1722 74.5572 53.1503 74.4475C53.0955 74.1734 53.238 73.9432 53.5012 73.8664C53.556 73.8554 53.6108 73.8445 53.6656 73.8445C53.8301 73.8225 53.9836 73.8006 54.181 73.7787L54.159 73.7896Z" clip-rule="evenodd" fill-rule="evenodd"></path>
<path fill="#201C1A" d="M63.7534 79.9079C64.0495 79.9628 64.3236 80.0066 64.6087 80.0614C64.806 80.4013 64.6964 80.7632 64.7074 81.0921C64.4442 81.4101 64.1153 81.4649 63.7754 81.3991C63.6219 81.3662 63.4793 81.2566 63.3587 81.1469C63.1942 81.0044 63.1942 80.807 63.2052 80.5987C63.2162 80.4342 63.2162 80.4342 63.7425 79.897L63.7534 79.9079Z" clip-rule="evenodd" fill-rule="evenodd"></path>
<path fill="#201C1A" d="M58.6759 82.66C58.6759 82.66 58.6759 82.8135 58.665 82.9232C58.6102 83.1863 58.2922 83.4494 58.0729 83.4275C57.7659 83.3946 57.3821 83.1534 57.3602 82.9232C57.3383 82.649 57.3383 82.364 57.3602 82.0898C57.3821 81.9144 57.6343 81.7499 57.8097 81.7938C58.029 81.8486 58.2374 81.9144 58.4347 82.0131C58.6869 82.1227 58.665 82.364 58.665 82.671L58.6759 82.66Z" clip-rule="evenodd" fill-rule="evenodd"></path>
<path fill="#201C1A" d="M56.5601 73.0221C56.3299 73.384 55.9899 73.3949 55.6062 73.3072C55.3979 73.0989 55.2772 72.8138 55.1786 72.5287C55.058 72.1998 55.2334 71.9366 55.5843 71.8489C55.7926 71.7941 56.0119 71.7722 56.275 71.7173C56.3408 71.8489 56.4505 71.9695 56.4834 72.123C56.5382 72.4191 56.5382 72.7151 56.5711 73.0221H56.5601Z" clip-rule="evenodd" fill-rule="evenodd"></path>
<path fill="#201C1A" d="M55.7923 87.8463C56.1103 87.9778 56.3515 88.0875 56.6257 88.1971V89.0524C56.4173 89.1072 56.209 89.151 56.0116 89.2388C55.6717 89.3923 55.4196 89.2168 55.1674 89.0633C54.9152 88.8989 54.9042 88.4603 55.1564 88.2629C55.3538 88.1094 55.5731 87.9888 55.7923 87.8463Z" clip-rule="evenodd" fill-rule="evenodd"></path>
<path fill="#201C1A" d="M62.4807 75.1164C61.9764 75.1602 61.6913 74.9958 61.4939 74.7107C61.4062 74.5901 61.3733 74.3927 61.3953 74.2502C61.4281 74.0638 61.5268 73.8883 61.6365 73.7239C61.79 73.4936 62.1079 73.4826 62.2724 73.691C62.4478 73.8993 62.6123 74.1296 62.7658 74.3489C62.8864 74.5133 62.9413 74.7326 62.8206 74.8971C62.722 75.0287 62.5136 75.0944 62.4698 75.1164H62.4807Z" clip-rule="evenodd" fill-rule="evenodd"></path>
<path fill="#201C1A" d="M47.1641 84.7981C47.197 84.6008 47.2189 84.4692 47.2408 84.3376C47.3285 83.8442 47.3834 83.8223 47.8877 83.921C48.5566 84.0635 48.6114 84.1402 48.5895 84.7762C48.5895 85.0174 48.4908 85.2038 48.2605 85.2915C48.1399 85.3463 48.0083 85.3902 47.8658 85.456C47.6355 85.2367 47.4162 85.0393 47.1641 84.7981Z" clip-rule="evenodd" fill-rule="evenodd"></path>
<path fill="#201C1A" d="M47.372 69.1078C47.065 68.8118 47.0979 68.5267 47.2843 68.2526C47.5146 67.9346 47.8435 67.7592 48.2163 67.8359C48.4685 67.8798 48.7645 67.9785 48.8852 68.2745C48.4137 69.1517 48.3917 69.1626 47.372 69.1078Z" clip-rule="evenodd" fill-rule="evenodd"></path>
<path fill="#201C1A" d="M46.912 70.3468C46.5502 70.7305 46.2213 71.0814 45.8594 71.4652C45.7059 71.3884 45.5634 71.3117 45.3989 71.2239C45.3989 70.9937 45.3989 70.7744 45.3989 70.5551C45.388 70.2371 45.5634 70.0178 45.8156 69.8972C46.1007 69.7657 46.4186 69.7547 46.6599 70.0069C46.7476 70.1056 46.8243 70.2152 46.912 70.3358V70.3468Z" clip-rule="evenodd" fill-rule="evenodd"></path>
<path fill="#201C1A" d="M67.9083 75.8729C68.2701 76.0484 68.5552 76.1909 68.8622 76.3334C68.9719 76.5637 68.939 76.7939 68.7416 77.0023C68.5881 77.1558 68.4346 77.3203 68.2592 77.4628C68.0728 77.6163 67.8096 77.5615 67.6671 77.3751C67.3491 76.9584 67.3491 76.6843 67.6451 76.2457C67.7219 76.1361 67.7987 76.0264 67.9083 75.8729Z" clip-rule="evenodd" fill-rule="evenodd"></path>
<path fill="#201C1A" d="M67.6129 81.399C67.4594 81.0811 67.3168 80.785 67.1523 80.467C67.2072 80.3574 67.251 80.2258 67.3278 80.1162C67.4484 79.9298 67.6677 79.853 67.8431 79.9298C68.1392 80.0723 68.4352 80.2368 68.6655 80.467C68.9067 80.7083 68.7093 81.1468 68.3584 81.2346C68.1392 81.2894 67.9308 81.3223 67.6129 81.3881V81.399Z" clip-rule="evenodd" fill-rule="evenodd"></path>
<path fill="#201C1A" d="M66.0896 87.6269C65.7936 87.3748 65.5304 87.1445 65.2344 86.8813C65.3111 86.7059 65.355 86.5414 65.4427 86.4099C65.7387 85.9494 65.8703 85.9165 66.4076 86.1029C66.5063 86.1357 66.6049 86.1796 66.6817 86.2125C66.8681 86.8375 66.7036 87.287 66.0896 87.6269Z" clip-rule="evenodd" fill-rule="evenodd"></path>
<path fill="#201C1A" d="M67.9525 67.5837C68.1828 67.7043 68.413 67.803 68.6104 67.9455C68.6871 68.0003 68.731 68.1319 68.7529 68.2306C68.8078 68.6801 68.435 69.1845 67.9854 69.2722C67.9196 69.2832 67.81 69.2503 67.7552 69.2064C67.4262 68.8994 67.3385 68.2087 67.6016 67.8359C67.6674 67.7372 67.81 67.6824 67.9525 67.5946V67.5837Z" clip-rule="evenodd" fill-rule="evenodd"></path>
<path fill="#201C1A" d="M58.0187 73.8883C58.3367 74.0199 58.6217 74.1295 58.7862 74.4585C58.7204 74.59 58.6656 74.7435 58.5779 74.8751C58.3696 75.1712 58.0406 75.3137 57.7226 75.2808C57.3718 75.2479 57.1306 74.9957 57.0977 74.612C57.3462 74.3123 57.6569 74.071 58.0296 73.8883H58.0187Z" clip-rule="evenodd" fill-rule="evenodd"></path>
<path fill="#201C1A" d="M67.3711 84.2718C67.5465 84.0854 67.6452 83.888 67.7877 83.8222C67.9084 83.7674 68.1057 83.8442 68.2592 83.888C68.3908 83.9209 68.5004 84.0196 68.632 84.0635C69.0816 84.2279 69.1474 84.4801 69.0596 84.9955C69.0158 85.2257 68.7088 85.3683 68.5443 85.2147C68.3469 85.0283 68.1057 85.0064 67.8974 84.8968C67.7 84.7871 67.5794 84.5349 67.3711 84.2718Z" clip-rule="evenodd" fill-rule="evenodd"></path>
<path fill="#201C1A" d="M44.0167 77.5615C43.7864 77.397 43.5343 77.2764 43.3479 77.0791C43.0189 76.7392 43.0737 76.3773 43.4685 76.0922C43.5781 76.0155 43.7207 75.9716 43.8303 75.9168C44.2031 75.9497 44.4553 76.1471 44.4882 76.476C44.5211 76.8488 44.543 77.2655 44.0167 77.5615Z" clip-rule="evenodd" fill-rule="evenodd"></path>
<path fill="#201C1A" d="M66.7241 73.987C66.6802 74.1076 66.6364 74.1844 66.6364 74.2611C66.6364 74.8861 66.2745 75.1164 65.6495 75.1273C65.5728 74.6997 65.2987 74.294 65.4522 73.8226C66.1649 73.3949 66.1758 73.3949 66.735 73.987H66.7241Z" clip-rule="evenodd" fill-rule="evenodd"></path>
<path fill="#201C1A" d="M56.6491 68.8446C56.4188 68.9323 56.2653 68.9981 56.1228 69.042C55.9693 69.0858 55.8048 69.1407 55.6403 69.1297C55.2127 69.1297 54.9934 68.713 55.2346 68.3622C55.443 68.0442 55.7609 67.8688 56.1337 67.814C56.4078 67.7701 56.6271 67.9565 56.6491 68.2306C56.671 68.428 56.6491 68.6144 56.6491 68.8337V68.8446Z" clip-rule="evenodd" fill-rule="evenodd"></path>
<path fill="#201C1A" d="M61.4504 69.8973C61.7684 69.9411 62.0644 69.963 62.3605 70.0179C62.5359 70.0508 62.6565 70.1714 62.6894 70.3578C62.7223 70.5442 62.6455 70.6867 62.4811 70.7744C62.2399 70.906 61.9877 71.0376 61.7355 71.1363C61.571 71.1911 61.4065 71.1363 61.2969 70.9828C61.253 70.917 61.2092 70.8402 61.1763 70.7635C60.9899 70.4016 60.9899 70.3468 61.275 70.0288C61.3298 69.974 61.4065 69.9301 61.4614 69.8863L61.4504 69.8973Z" clip-rule="evenodd" fill-rule="evenodd"></path>
<path fill="#201C1A" d="M44.6856 68.9105C44.3785 68.9872 44.1373 69.042 43.8742 69.1078C43.4904 68.9872 43.3588 68.6473 43.2382 68.3074C43.1724 68.132 43.2821 67.9785 43.4356 67.8908C43.7865 67.6934 44.3237 67.7921 44.5759 68.0881C44.7842 68.3293 44.7294 68.6035 44.6856 68.9105Z" clip-rule="evenodd" fill-rule="evenodd"></path>
<path fill="#201C1A" d="M48.5572 72.463C48.5023 72.77 48.3817 73.0112 48.1624 73.1976C47.8445 73.4717 47.3949 73.3621 47.3182 72.9564C47.2524 72.6384 47.2853 72.2985 47.3072 71.9696C47.3072 71.8819 47.4388 71.8051 47.5375 71.6845C47.9103 71.9257 48.3488 72.0573 48.5681 72.463H48.5572Z" clip-rule="evenodd" fill-rule="evenodd"></path>
<path fill="#201C1A" d="M50.6177 86.5963C50.4276 86.9691 50.1901 87.2578 49.905 87.4625C49.7186 87.2761 49.5103 87.1116 49.3458 86.8923C49.1484 86.6402 49.291 86.0152 49.5651 85.8397C49.6967 85.763 49.9817 85.7849 50.1133 85.9165C50.2997 86.1139 50.4422 86.3551 50.6177 86.5853V86.5963Z" clip-rule="evenodd" fill-rule="evenodd"></path>
<path fill="#201C1A" d="M43.4476 71.9257C43.6668 71.849 43.8752 71.7612 44.0835 71.7064C44.2589 71.6626 44.5001 71.8051 44.5221 71.9915C44.555 72.2108 44.544 72.4301 44.555 72.6494C44.5659 72.9344 44.4234 73.0989 44.1712 73.2195C43.8313 73.373 43.6778 73.3292 43.5572 72.9673C43.4476 72.6603 43.294 72.3533 43.4476 71.9367V71.9257Z" clip-rule="evenodd" fill-rule="evenodd"></path>
<path fill="#201C1A" d="M52.12 89.2716C51.6486 89.151 51.1771 89.1839 50.9688 88.6686C51.1771 88.1313 51.6924 88.0546 52.1749 87.9997C52.5038 87.9559 52.745 88.4164 52.5696 88.7453C52.4599 88.9317 52.2845 89.0852 52.12 89.2716Z" clip-rule="evenodd" fill-rule="evenodd"></path>
<path fill="#201C1A" d="M41.2208 82.2324C41.3743 82.1118 41.5059 82.0131 41.6484 81.9145C42.0212 81.6623 42.2186 81.739 42.3721 82.1995C42.394 82.2544 42.405 82.3092 42.4159 82.353C42.6243 82.989 42.6023 83.0438 41.9445 83.3618C41.5497 83.1096 41.1331 82.8684 41.2208 82.2215V82.2324Z" clip-rule="evenodd" fill-rule="evenodd"></path>
<path fill="#201C1A" d="M56.6485 83.9977C56.6485 84.3485 56.6595 84.6227 56.6485 84.8968C56.6266 85.127 56.3853 85.4011 56.177 85.4231C55.8481 85.456 55.5849 85.3025 55.3876 85.0612C55.2341 84.8858 55.1902 84.6556 55.3327 84.4472C55.3876 84.3595 55.4972 84.2279 55.552 84.2389C55.859 84.3047 56.0674 84.1073 56.3196 83.9867C56.3853 83.9538 56.484 83.9867 56.6595 83.9977H56.6485Z" clip-rule="evenodd" fill-rule="evenodd"></path>
<path fill="#201C1A" d="M47.1535 76.8269C47.2522 76.5747 47.329 76.3444 47.4167 76.1142C47.5263 75.84 47.8333 75.7085 48.0746 75.7962C48.4693 75.9387 48.6118 76.1361 48.568 76.4541C48.5241 76.772 48.3706 77.0242 48.0526 77.1448C47.7018 77.2764 47.4057 77.2106 47.1426 76.8269H47.1535Z" clip-rule="evenodd" fill-rule="evenodd"></path>
<path fill="#201C1A" d="M49.4453 79.1732C49.1712 78.8333 49.2589 78.5044 49.3028 78.1864C49.3247 78.0439 49.5221 77.9233 49.6866 77.9561C49.851 77.9781 50.0045 78.0329 50.169 78.0548C50.7063 78.1316 50.8817 78.3838 50.7392 78.8991C50.7063 79.0416 50.4979 79.1513 50.3444 79.1074C50.0082 79.0124 49.7048 79.0307 49.4344 79.1623L49.4453 79.1732Z" clip-rule="evenodd" fill-rule="evenodd"></path>
<path fill="#201C1A" d="M66.11 79.2061C65.8908 79.1403 65.7044 79.0965 65.5289 79.0307C65.2767 78.932 65.1781 78.6688 65.2658 78.4057C65.3974 78 65.7921 77.8026 66.1868 77.9561C66.2855 78 66.3951 78.0439 66.4828 78.0987C66.8556 78.3289 66.8447 78.8004 66.4609 79.0416C66.3513 79.1184 66.2087 79.1513 66.11 79.2061Z" clip-rule="evenodd" fill-rule="evenodd"></path>
<path fill="#201C1A" d="M61.9777 85.8727C62.2409 86.0481 62.5259 86.2564 62.8439 86.4757C62.6356 86.9034 62.4273 87.2433 61.9448 87.2981C61.6817 87.331 61.583 87.2652 61.1992 86.8047C61.5172 86.5635 61.4185 86.0043 61.9777 85.8836V85.8727Z" clip-rule="evenodd" fill-rule="evenodd"></path>
<path fill="#201C1A" d="M42.3954 85.8397C42.8559 86.5524 42.834 86.7388 42.2309 87.298C41.9787 87.1774 41.7046 87.0568 41.4524 86.9362C41.2989 86.0919 41.5072 85.8617 42.3954 85.8397Z" clip-rule="evenodd" fill-rule="evenodd"></path>
<path fill="#201C1A" d="M67.8533 87.8572C68.4892 87.9559 68.6537 88.3945 68.8182 88.8112C68.9169 89.0524 68.6976 89.3265 68.4344 89.3155C68.0507 89.3046 67.7437 89.1182 67.5134 88.8112C67.3599 88.6138 67.3709 88.3835 67.5134 88.1862C67.6011 88.0546 67.7546 87.9559 67.8643 87.8572H67.8533Z" clip-rule="evenodd" fill-rule="evenodd"></path>
<path fill="#201C1A" d="M45.8259 75.1931C45.7711 75.1931 45.6286 75.1931 45.497 75.1383C45.4093 75.1054 45.2887 75.0067 45.2777 74.919C45.2448 74.7326 45.2229 74.5243 45.2667 74.3489C45.3325 74.0638 45.7163 73.8335 45.9794 73.8774C46.2645 73.9103 46.5277 74.1954 46.5715 74.5024C46.6373 75.0177 46.4619 75.2151 45.8369 75.2151L45.8259 75.1931Z" clip-rule="evenodd" fill-rule="evenodd"></path>
<path fill="#201C1A" d="M60.8472 84.6336C60.6608 85.0722 60.2113 85.1599 59.8714 85.4779C59.7508 85.3463 59.6192 85.2586 59.5424 85.127C59.4328 84.9406 59.378 84.7323 59.2793 84.4801C59.4438 84.3705 59.6082 84.2389 59.7837 84.1183C60.2442 83.8332 60.4525 83.888 60.7157 84.3376C60.7705 84.4253 60.8034 84.5349 60.8472 84.6227V84.6336Z" clip-rule="evenodd" fill-rule="evenodd"></path>
<path fill="#201C1A" d="M63.4902 68.8117C63.5231 68.5047 63.556 68.2416 63.5889 67.9784C63.8411 67.6495 64.1371 67.6495 64.4551 67.8359C64.6305 67.9455 64.7292 68.0881 64.7292 68.3073C64.7292 68.5486 64.7292 68.7898 64.7292 69.0529C64.2468 69.2284 63.885 69.1187 63.4902 68.8117Z" clip-rule="evenodd" fill-rule="evenodd"></path>
<path fill="#201C1A" d="M61.8677 79.2281C61.8677 79.2281 61.8019 79.2281 61.6922 79.2062C61.5058 79.1733 61.3633 78.9869 61.3633 78.7786C61.3633 78.5374 61.3633 78.2961 61.3962 78.0549C61.4181 77.8027 61.758 77.6602 61.9773 77.8027C62.3172 78.022 62.4597 78.4058 62.6571 78.7237C62.7558 78.8773 62.6023 79.1294 62.4268 79.1843C62.372 79.1952 62.3172 79.2172 62.2624 79.2172C62.1856 79.2172 62.0979 79.2172 61.8567 79.2172L61.8677 79.2281Z" clip-rule="evenodd" fill-rule="evenodd"></path>
<path fill="#201C1A" d="M45.8158 87.4296C45.7719 87.2652 45.75 87.1007 45.6842 86.9691C45.6184 86.8266 45.4649 86.7169 45.4101 86.5744C45.3663 86.4318 45.4101 86.2564 45.4101 86.1358C45.7171 85.7849 46.0022 85.7849 46.3202 86.0042C46.5395 86.1577 46.682 86.3661 46.6491 86.6292C46.5943 87.0788 46.3531 87.3858 45.8158 87.4296Z" clip-rule="evenodd" fill-rule="evenodd"></path>
<path fill="#201C1A" d="M49.9061 81.9693C50.0486 82.0131 50.1802 82.046 50.3118 82.0899C50.7175 82.2324 50.7833 82.3311 50.7613 82.7587C50.7504 83.0877 50.6298 83.2302 50.3228 83.2521C50.1035 83.2741 49.8842 83.2521 49.6429 83.2521C49.5333 82.9999 49.4346 82.7807 49.3359 82.5504C49.4346 82.2544 49.6539 82.0899 49.9061 81.9583V81.9693Z" clip-rule="evenodd" fill-rule="evenodd"></path>
<path fill="#201C1A" d="M42.4821 70.9827C42.3505 71.1033 42.2299 71.202 42.1312 71.2897C41.572 71.2459 41.1882 71.0266 41.0457 70.5003C40.9909 70.3029 41.0676 70.1385 41.3637 69.8424C41.4843 69.9192 41.6159 70.0178 41.7584 70.0946C41.9009 70.1713 42.0654 70.2152 42.2189 70.281C42.2628 70.3029 42.3066 70.3577 42.3286 70.4016C42.3834 70.588 42.4272 70.7744 42.493 70.9718L42.4821 70.9827Z" clip-rule="evenodd" fill-rule="evenodd"></path>
<path fill="#201C1A" d="M52.0002 75.5111C52.1537 75.8729 52.1099 76.1799 52.3511 76.3773C52.4169 76.4321 52.4498 76.5856 52.4388 76.6843C52.4169 76.8049 52.3621 76.9474 52.2743 77.0242C52.0989 77.1777 51.8687 77.2435 51.6494 77.1667C51.5288 77.1229 51.3643 77.0242 51.3424 76.9255C51.2437 76.5418 51.1889 76.147 51.5616 75.851C51.6823 75.7523 51.8138 75.6536 52.0112 75.5001L52.0002 75.5111Z" clip-rule="evenodd" fill-rule="evenodd"></path>
<path fill="#201C1A" d="M59.8058 79.7983C60.058 79.8531 60.2992 79.8969 60.5623 79.9518C60.7268 80.1272 60.9132 80.3355 60.8364 80.5987C60.7378 80.8947 60.4965 81.0811 60.1786 81.2565C59.9154 80.9715 59.6523 80.6974 59.3781 80.3903C59.3453 80.0833 59.5755 79.9298 59.8167 79.7873L59.8058 79.7983Z" clip-rule="evenodd" fill-rule="evenodd"></path>
<path fill="#201C1A" d="M48.0637 81.4319C47.9431 81.3881 47.8225 81.3771 47.7457 81.3113C47.3839 80.9934 47.3181 80.3355 47.6142 79.9517C47.669 79.875 47.8006 79.8092 47.8993 79.7982C48.3049 79.7763 48.6558 80.1491 48.5791 80.5438C48.5242 80.785 48.4365 81.0153 48.3269 81.2346C48.283 81.3223 48.1624 81.3662 48.0747 81.4319H48.0637Z" clip-rule="evenodd" fill-rule="evenodd"></path>
<path fill="#201C1A" d="M49.4121 74.623C49.445 74.5133 49.4889 74.3269 49.5546 74.1515C49.6314 73.9322 49.752 73.7239 50.0152 73.7129C50.2673 73.702 50.4318 73.8884 50.5415 74.0857C50.673 74.316 50.6621 74.5791 50.4537 74.7875C50.3002 74.9519 50.1467 75.1054 49.9713 75.248C49.7739 75.4124 49.5108 75.3028 49.4669 75.0506C49.445 74.941 49.445 74.8313 49.4231 74.6339L49.4121 74.623Z" clip-rule="evenodd" fill-rule="evenodd"></path>
<path fill="#201C1A" d="M65.5508 82.671C65.6056 82.4627 65.6495 82.3091 65.7043 82.1556C65.803 81.8267 66.1429 81.6951 66.417 81.8706C66.7679 82.0899 66.7569 82.4188 66.7569 82.7587C66.7569 83.1205 66.5595 83.3179 66.2087 83.4385C65.9894 83.1753 65.781 82.9341 65.5617 82.671H65.5508Z" clip-rule="evenodd" fill-rule="evenodd"></path>
<path fill="#201C1A" d="M44.2806 87.934C44.6314 88.2629 44.5876 88.6467 44.5218 88.9866C44.4779 89.2498 44.2806 89.4361 44.0065 89.469C43.8201 89.491 43.6337 89.4471 43.4473 89.4252C43.4802 89.1291 43.524 88.8989 43.5459 88.6467C43.6008 88.0985 43.5898 88.0985 44.2806 87.923V87.934Z" clip-rule="evenodd" fill-rule="evenodd"></path>
<path fill="#201C1A" d="M43.8207 79.8422C43.9961 79.9518 44.1935 80.0505 44.3579 80.193C44.4456 80.2698 44.5334 80.4343 44.5224 80.5439C44.5005 80.9386 43.9303 81.3333 43.5466 81.2237C43.4259 81.1908 43.3053 81.0812 43.2505 80.9715C43.108 80.6864 43.3273 80.4452 43.3821 80.1821C43.4259 79.9518 43.6014 79.886 43.8207 79.8422Z" clip-rule="evenodd" fill-rule="evenodd"></path>
<path fill="#201C1A" d="M64.6853 85.0503C64.5646 85.0612 64.455 85.1161 64.4111 85.0832C64.1809 84.9297 63.9835 84.7542 63.7094 85.0174C63.6875 85.0393 63.4792 84.9626 63.4572 84.8968C63.3147 84.502 63.3476 84.1292 63.7642 83.899C64.1041 83.91 64.4221 84.0086 64.6853 84.2499V85.0612V85.0503Z" clip-rule="evenodd" fill-rule="evenodd"></path>
<path fill="#201C1A" d="M54.7081 86.1687C54.8178 86.4538 54.8726 86.6511 54.6314 86.8156C54.5217 86.8923 54.4121 86.9801 54.3134 87.0678C53.8858 87.4077 53.6555 87.3967 53.2498 86.991C53.2169 86.9581 53.195 86.9033 53.1621 86.8485C53.4362 86.2235 53.513 86.1796 54.1051 86.2016C54.2915 86.2016 54.4779 86.1796 54.7081 86.1577V86.1687Z" clip-rule="evenodd" fill-rule="evenodd"></path>
<path fill="#201C1A" d="M55.0469 76.465C55.2881 76.1909 55.5074 75.9497 55.6719 75.7743C56.1324 75.7304 56.0885 76.0813 56.242 76.2567C56.3407 76.2457 56.4503 76.2238 56.549 76.2129C56.5819 76.2457 56.6258 76.2896 56.6367 76.3335C56.6806 76.5418 56.6258 76.7063 56.4394 76.8378C56.2091 76.9913 56.0008 77.0352 55.4416 77.0352C55.321 76.8707 55.1894 76.6734 55.0469 76.476V76.465Z" clip-rule="evenodd" fill-rule="evenodd"></path>
<path fill="#201C1A" d="M46.5503 82.4297C46.4736 82.6929 46.342 82.9999 46.046 83.1863C45.8486 83.3069 45.6184 83.3069 45.41 83.1863C45.2456 83.0876 45.1798 82.8354 45.2565 82.5832C45.3552 82.2323 45.8376 81.9253 46.2214 81.9582C46.3968 81.9692 46.5723 82.1995 46.5503 82.4407V82.4297Z" clip-rule="evenodd" fill-rule="evenodd"></path>
<path fill="#201C1A" d="M43.0625 84.7871C43.1795 84.4216 43.5157 84.1585 44.0712 83.9977C44.3454 84.0635 44.3783 84.2718 44.3783 84.513C44.3783 84.8529 44.3892 85.1928 43.9835 85.3792C43.6875 85.1928 43.3695 84.9845 43.0625 84.7871Z" clip-rule="evenodd" fill-rule="evenodd"></path>
<path fill="#201C1A" d="M51.4949 81.0373C51.44 80.818 51.3962 80.6535 51.3633 80.5C51.4949 80.2149 51.7251 80.0285 52.0102 80.0176C52.2733 80.0176 52.5694 80.0395 52.7558 80.3684C52.69 80.5877 52.6132 80.8509 52.5146 81.1579C52.1856 81.114 51.8677 81.0811 51.4949 81.0263V81.0373Z" clip-rule="evenodd" fill-rule="evenodd"></path>
<path fill="#201C1A" d="M54.06 83.2192C53.6653 82.9561 53.2486 82.7806 53.1719 82.2653C53.2267 82.057 53.3473 81.9363 53.5885 81.9912C53.6653 82.0131 53.742 82.057 53.8188 82.057C54.4109 82.057 54.4109 82.057 54.5315 82.5284C54.6302 82.9012 54.4328 83.0876 54.06 83.2192Z" clip-rule="evenodd" fill-rule="evenodd"></path>
<path fill="#201C1A" d="M58.8628 70.1823C58.49 70.6209 58.0185 70.7086 57.569 70.7963C57.4594 70.8183 57.3168 70.6538 57.1523 70.5551C57.5142 70.1823 57.7225 69.7547 58.2049 69.5025C58.4133 69.7108 58.6106 69.9301 58.8628 70.1933V70.1823Z" clip-rule="evenodd" fill-rule="evenodd"></path>
<path fill="#201C1A" d="M42.6583 79.0855C42.2416 78.9869 41.9346 78.9211 41.5838 78.8443C41.5289 78.7237 41.4412 78.6141 41.4083 78.4825C41.3754 78.3619 41.3754 78.2193 41.3535 78.0329C41.5838 77.9343 41.814 77.8465 42.0443 77.7479C42.5158 78.0329 42.746 78.4167 42.6583 79.0746V79.0855Z" clip-rule="evenodd" fill-rule="evenodd"></path>
<path fill="#201C1A" d="M46.4846 79.1952H45.5965C45.4759 78.9869 45.3663 78.8005 45.2676 78.636C45.3005 78.3619 45.6404 78.022 45.8377 78.0878C46.068 78.1536 46.3202 78.2632 46.4846 78.4277C46.6491 78.6141 46.6053 78.8882 46.4846 79.1952Z" clip-rule="evenodd" fill-rule="evenodd"></path>
<path fill="#201C1A" d="M60.0033 67.6605C60.5844 67.9236 60.5515 68.3512 60.5076 68.7788C60.4857 68.9872 60.2006 69.1297 59.9923 69.0639C59.5318 68.9214 59.3563 68.4061 59.6305 67.9894C59.7182 67.8578 59.8717 67.7811 60.0033 67.6605Z" clip-rule="evenodd" fill-rule="evenodd"></path>
<path fill="#201C1A" d="M52.724 84.9187C52.417 85.1892 52.0734 85.233 51.6933 85.0503C51.6166 84.7981 51.5289 84.535 51.4631 84.2718C51.4192 84.1073 51.5617 83.9319 51.7481 83.9538C51.8797 83.9648 52.0332 83.9977 52.1319 84.0744C52.3951 84.2828 52.6363 84.513 52.724 84.9187Z" clip-rule="evenodd" fill-rule="evenodd"></path>
<path fill="#201C1A" d="M53.3149 78.6032C53.3368 78.5264 53.3478 78.4716 53.3697 78.4277C53.4903 78.2633 53.3917 77.9343 53.6987 77.9234C54.0166 77.9124 54.1701 78.1865 54.3346 78.3839C54.51 78.5922 54.51 78.8444 54.3456 79.0746C54.2579 79.1952 54.1153 79.2939 54.0276 79.3707C53.7425 79.3487 53.6658 79.1733 53.5671 78.9979C53.4903 78.8553 53.3807 78.7238 53.293 78.6032H53.3149Z" clip-rule="evenodd" fill-rule="evenodd"></path>
<path fill="#201C1A" d="M42.0319 74.0528C42.613 74.3159 42.1525 74.7326 42.3498 75.0396C41.8784 75.1931 41.4508 75.3028 41.0451 75.0177C40.9683 74.9629 40.8806 74.8422 40.8916 74.7655C40.8916 74.6887 41.0231 74.5462 41.0889 74.5572C41.5056 74.5901 41.692 74.2063 42.0209 74.0528H42.0319Z" clip-rule="evenodd" fill-rule="evenodd"></path>
<path fill="#201C1A" d="M60.3539 89.3046C60.2223 89.162 60.1126 88.9976 59.9591 88.8989C59.8056 88.8002 59.6192 88.7563 59.4219 88.6796C59.4877 88.3397 59.7179 88.1752 59.9482 88.0436C60.299 87.8463 60.7047 88.1094 60.6718 88.5261C60.6609 88.7454 60.617 88.9647 60.5622 89.173C60.5512 89.2278 60.4306 89.2498 60.3429 89.3046H60.3539Z" clip-rule="evenodd" fill-rule="evenodd"></path>
<path fill="#201C1A" d="M50.7718 70.2152C50.5963 70.588 50.4867 70.884 50.3332 71.1691C50.2893 71.2458 50.1577 71.3116 50.0591 71.3116C49.763 71.3226 49.3244 70.8073 49.3683 70.5222C49.4012 70.3029 49.6095 70.1384 49.8507 70.1823C50.0152 70.2042 50.1687 70.281 50.3222 70.2919C50.4428 70.3029 50.5744 70.259 50.7718 70.2261V70.2152Z" clip-rule="evenodd" fill-rule="evenodd"></path>
<path fill="#201C1A" d="M57.3398 86.5634C57.5372 86.377 57.7017 86.1906 57.91 86.048C57.9977 85.9932 58.1732 86.0042 58.2938 86.048C58.4692 86.1138 58.524 86.2893 58.4911 86.4647C58.4692 86.5963 58.3924 86.7278 58.3267 86.8485C58.0854 87.2541 57.6797 87.2322 57.4385 86.8046C57.4166 86.7607 57.4056 86.7059 57.3508 86.5524L57.3398 86.5634Z" clip-rule="evenodd" fill-rule="evenodd"></path>
<path fill="#201C1A" d="M59.5312 72.7042C59.619 72.5726 59.7176 72.441 59.7834 72.2985C59.8383 72.1888 59.8383 72.0463 59.8821 71.8818C60.1782 72.0792 60.4194 72.2437 60.6496 72.3972C60.6496 72.5068 60.6716 72.5616 60.6496 72.6055C60.3207 73.3401 60.1014 73.3621 59.5422 72.7042H59.5312Z" clip-rule="evenodd" fill-rule="evenodd"></path>
<path fill="#201C1A" d="M67.4492 85.149C67.4492 85.149 67.4931 85.0942 67.515 85.0942C67.5589 85.1051 67.6027 85.138 67.6575 85.16C67.6356 85.1819 67.6137 85.2148 67.5918 85.2148C67.5479 85.2038 67.504 85.1709 67.4492 85.149Z" clip-rule="evenodd" fill-rule="evenodd"></path>
</g>
<path stroke-linejoin="round" stroke-linecap="round" stroke="#201C1A" d="M78 55C78 55 73.7157 84.2513 73.4278 85.6042C73.1061 87.1367 71.7852 87.8652 69.7192 87.9882C69.7192 87.9882 54.1061 88.0355 49.6693 87.9409C47.5526 87.8936 45.4358 86.9665 45.131 85.519C44.4706 82.2552 40 55.2554 40 55.2554"></path>
<mask height="4" width="38" y="53" x="40" maskUnits="userSpaceOnUse" style="mask-type:alpha" id="mask2_10042_839956">
<ellipse fill="#201C1A" ry="2" rx="19" cy="55" cx="59"></ellipse>
</mask>
<g mask="url(#mask2_10042_839956)">
<path fill="#201C1A" d="M52.6194 56.13C52.0894 56.14 51.7594 55.75 51.9094 55.23C51.9594 55.06 52.0394 54.89 52.1494 54.76C52.4794 54.33 52.8094 54.38 53.0793 54.88C53.2594 55.21 53.1694 55.57 53.0694 55.91C53.0094 56.11 52.8194 56.14 52.6294 56.14L52.6194 56.13Z" clip-rule="evenodd" fill-rule="evenodd"></path>
<path fill="#201C1A" d="M50.7094 54.4101C50.5394 54.3201 50.3394 54.2601 50.1894 54.1301C49.8794 53.8701 49.7694 53.5501 50.1194 53.2401C50.3094 53.0601 50.5094 52.9201 50.7694 52.8801C51.0094 52.8401 51.1694 52.9101 51.2494 53.1301C51.3094 53.2701 51.3394 53.4201 51.3894 53.5601C51.2627 53.9134 51.036 54.1967 50.7094 54.4101Z" clip-rule="evenodd" fill-rule="evenodd"></path>
<path fill="#201C1A" d="M43.7499 52.8C43.9899 52.9 44.1599 53.0301 44.1899 53.2401C44.2199 53.5101 44.1999 53.8 44.1599 54.07C44.1299 54.23 43.9599 54.31 43.7999 54.29C43.4999 54.24 43.1999 54.2 42.9199 54.09C42.6599 53.99 42.6499 53.75 42.7099 53.57C43.0799 53.3 43.3999 53.06 43.7499 52.8Z" clip-rule="evenodd" fill-rule="evenodd"></path>
<path fill="#201C1A" d="M50.8085 58.09C50.6885 57.93 50.5785 57.79 50.4785 57.65C50.3885 57.53 50.3085 57.4 50.2285 57.28C50.2285 56.91 50.5285 56.78 50.7485 56.6C50.8985 56.48 51.0485 56.42 51.2285 56.54C51.4985 56.72 51.5785 56.9 51.5085 57.17C51.4885 57.27 51.4085 57.36 51.4085 57.45C51.4185 57.83 51.1985 58 50.7885 58.09H50.8085Z" clip-rule="evenodd" fill-rule="evenodd"></path>
<path fill="#201C1A" d="M42.1285 54.82C42.2985 55.78 42.0584 56.03 41.0684 55.93C40.9984 55.74 40.8984 55.53 40.8484 55.32C40.7884 55.03 40.9484 54.8 41.2384 54.78C41.5384 54.76 41.8485 54.72 42.1285 54.82Z" clip-rule="evenodd" fill-rule="evenodd"></path>
<path fill="#201C1A" d="M46.4082 53.72C46.6382 53.44 46.7682 53.23 46.9482 53.06C47.1982 52.83 47.5382 52.91 47.7182 53.2C47.8482 53.42 47.7982 53.86 47.6182 54.04C47.4282 54.23 46.9982 54.29 46.7882 54.14C46.6582 54.04 46.5582 53.89 46.4182 53.73L46.4082 53.72Z" clip-rule="evenodd" fill-rule="evenodd"></path>
<path fill="#201C1A" d="M44.7093 55.76C44.5893 55.22 44.6893 54.79 45.2393 54.52C45.4493 54.8 45.6593 55.07 45.8793 55.35C45.6793 55.65 45.4993 55.94 45.2993 56.25C45.0193 56.19 44.8693 55.94 44.7093 55.76Z" clip-rule="evenodd" fill-rule="evenodd"></path>
<path fill="#201C1A" d="M40.5392 57.39C40.1892 57.59 39.8592 57.77 39.5592 57.94C39.3292 57.87 39.1792 57.75 39.0892 57.55C38.9792 57.3 38.9692 57.07 39.0692 56.83C39.3292 56.81 39.5792 56.76 39.8092 56.79C40.0192 56.82 40.2292 56.93 40.4092 57.05C40.4892 57.1 40.4892 57.26 40.5292 57.38L40.5392 57.39Z" clip-rule="evenodd" fill-rule="evenodd"></path>
<path fill="#201C1A" d="M43.9699 57.7101C43.4599 57.8601 43.1299 57.6201 42.7999 57.3901C42.6699 57.3001 42.6299 57.1201 42.7299 56.9801C42.8299 56.8401 42.9699 56.7201 43.1099 56.6301C43.2599 56.5401 43.3999 56.6501 43.5099 56.7601C43.6199 56.8701 43.7399 56.8101 43.8599 56.8101C44.0899 56.8101 44.2399 56.9901 44.1799 57.2001C44.1299 57.3701 44.0399 57.5201 43.9599 57.7001L43.9699 57.7101Z" clip-rule="evenodd" fill-rule="evenodd"></path>
<path fill="#201C1A" d="M46.6687 57.75C46.5154 57.47 46.4787 57.17 46.5587 56.85C46.7187 56.78 46.8987 56.7 47.0887 56.64C47.2887 56.57 47.4987 56.58 47.6387 56.76C47.7687 56.93 47.7687 57.13 47.6587 57.33C47.5787 57.48 47.5187 57.63 47.4387 57.82C47.1987 57.8 46.9587 57.78 46.6687 57.76V57.75Z" clip-rule="evenodd" fill-rule="evenodd"></path>
<path fill="#201C1A" d="M48.3691 55.54C48.4191 54.98 48.4291 54.96 49.1291 54.65C49.3391 54.73 49.5291 54.87 49.5491 55.12C49.5591 55.26 49.5291 55.43 49.4591 55.55C49.3791 55.67 49.2391 55.78 49.1091 55.81C48.8191 55.89 48.5691 55.77 48.3691 55.55V55.54Z" clip-rule="evenodd" fill-rule="evenodd"></path>
<path fill="#201C1A" d="M39.3398 53.53C39.4498 53.23 39.5798 53 39.9198 53.03C40.0332 53.2966 40.0732 53.6366 40.0398 54.05C39.9898 54.09 39.9398 54.15 39.8698 54.18C39.6798 54.26 39.5698 54.22 39.5098 54.06C39.4498 53.9 39.4098 53.73 39.3498 53.53H39.3398Z" clip-rule="evenodd" fill-rule="evenodd"></path>
<path fill="#201C1A" d="M58.6888 52.9501C58.8288 53.2901 58.9388 53.5701 59.0588 53.8501C58.9888 54.0301 58.9188 54.21 58.8288 54.4301C58.5188 54.4301 58.2188 54.46 57.9288 54.4301C57.3588 54.36 57.0088 53.62 57.3188 53.14C57.5088 52.85 57.8288 52.7301 58.1788 52.7701C58.3688 52.7901 58.5488 52.9001 58.6888 52.9501Z" clip-rule="evenodd" fill-rule="evenodd"></path>
<path fill="#201C1A" d="M76.0395 52.96C76.1595 52.94 76.2595 52.92 76.3595 52.92C77.0995 52.9 77.2595 53.06 77.2995 53.91C77.0995 54.02 76.8895 54.16 76.6595 54.25C76.1895 54.42 75.7795 54.09 75.7995 53.59C75.7995 53.49 75.8195 53.39 75.8595 53.29C75.9095 53.18 75.9795 53.07 76.0395 52.96Z" clip-rule="evenodd" fill-rule="evenodd"></path>
<path fill="#201C1A" d="M62.5483 53.83C62.3983 53.97 62.2383 54.12 62.1083 54.25C61.8283 54.28 61.6883 54.04 61.4283 54.09C61.2083 54.13 61.0583 53.92 61.0983 53.7C61.1483 53.46 61.2083 53.21 61.3183 52.99C61.4383 52.74 61.7983 52.65 62.0283 52.79C62.2483 52.92 62.4483 53.07 62.4683 53.36C62.4783 53.51 62.5183 53.65 62.5583 53.84L62.5483 53.83Z" clip-rule="evenodd" fill-rule="evenodd"></path>
<path fill="#201C1A" d="M72.8784 54.42C72.6584 54.36 72.4084 54.29 72.3884 54.03C72.3584 53.74 72.1984 53.46 72.3884 53.16C72.5884 52.83 72.7384 52.72 73.1184 52.78C73.3084 52.81 73.4284 52.92 73.4884 53.11C73.6484 53.6633 73.4484 54.1 72.8884 54.42H72.8784Z" clip-rule="evenodd" fill-rule="evenodd"></path>
<path fill="#201C1A" d="M77.1195 57.91C76.4095 58.16 76.0295 57.81 75.7695 57.22C75.8695 57.07 75.9695 56.89 76.0595 56.75C76.4695 56.71 76.8395 56.68 77.2395 56.65C77.3895 57.1 77.4095 57.52 77.1195 57.91Z" clip-rule="evenodd" fill-rule="evenodd"></path>
<path fill="#201C1A" d="M70.4997 55.9101C70.4797 55.5901 70.4597 55.3201 70.4297 55.0201C70.6297 54.9301 70.7997 54.8301 70.9897 54.7701C71.4197 54.6301 71.6397 54.7501 71.8097 55.1801C71.8397 55.2701 71.8697 55.3701 71.8997 55.4601C71.7397 55.6901 71.5797 55.9201 71.4197 56.1401C71.3097 56.2901 71.1097 56.3201 70.9397 56.2301C70.9197 56.2201 70.8997 56.2101 70.8797 56.1901C70.7597 56.1001 70.6397 56.0101 70.5097 55.9101H70.4997Z" clip-rule="evenodd" fill-rule="evenodd"></path>
<path fill="#201C1A" d="M73.9885 55.2901C73.9985 55.2101 73.9985 55.1601 74.0185 55.1101C74.0585 55.0201 74.1185 54.9301 74.1785 54.8201C74.3385 54.7901 74.5085 54.7501 74.6685 54.7101C74.8385 54.6701 74.9985 54.6301 75.1485 54.6001C75.5485 54.9601 75.5585 55.3201 75.3185 55.7201C75.1485 56.0001 74.8085 56.0701 74.5385 55.8701C74.4785 55.8301 74.4185 55.7701 74.3685 55.7201C74.2285 55.5701 74.0985 55.4301 73.9785 55.2901H73.9885Z" clip-rule="evenodd" fill-rule="evenodd"></path>
<path fill="#201C1A" d="M66.5781 55.4C66.7481 55.18 66.8881 54.98 67.0381 54.78C67.3081 54.84 67.5481 54.87 67.7881 54.95C67.8881 54.98 67.9881 55.11 68.0281 55.21C68.1181 55.46 67.9281 55.87 67.6981 55.97C67.0381 56.26 66.9181 56.2 66.5781 55.4Z" clip-rule="evenodd" fill-rule="evenodd"></path>
<path fill="#201C1A" d="M69.209 56.4601C69.479 56.6101 69.719 56.7301 69.979 56.8701C69.879 57.3601 69.839 57.8201 69.249 57.9401C68.889 57.8134 68.6257 57.5501 68.459 57.1501C68.589 57.0601 68.729 56.9601 68.859 56.8501C68.969 56.7501 69.059 56.6301 69.209 56.4601Z" clip-rule="evenodd" fill-rule="evenodd"></path>
<path fill="#201C1A" d="M68.4395 53.5201C68.6895 53.1501 69.1495 53.2101 69.4095 52.8501C69.6095 53.0701 69.7795 53.2401 69.9395 53.4301C70.2095 53.7501 70.0995 54.1501 69.6895 54.2501C69.4995 54.3001 69.2895 54.2501 69.0895 54.2501C68.9795 54.0901 68.8895 53.9401 68.7795 53.8001C68.6895 53.6901 68.5695 53.6101 68.4395 53.5001V53.5201Z" clip-rule="evenodd" fill-rule="evenodd"></path>
<path fill="#201C1A" d="M73.7784 57.17C73.6484 57.34 73.5784 57.54 73.4384 57.6C73.1984 57.71 72.9184 57.75 72.6484 57.8C72.5884 57.81 72.4984 57.76 72.4584 57.7C72.4184 57.65 72.4084 57.56 72.3784 57.49C72.3184 57.34 72.0684 57.3 72.1284 57.07C72.1984 56.84 72.3884 56.79 72.5784 56.73C73.1884 56.53 73.1884 56.53 73.7684 57.17H73.7784Z" clip-rule="evenodd" fill-rule="evenodd"></path>
<path fill="#201C1A" d="M62.8791 55.98C62.9291 55.65 62.8991 55.41 62.9991 55.27C63.1691 55.03 63.4191 54.84 63.6591 54.65C63.7091 54.61 63.8591 54.65 63.9391 54.68C64.2591 54.86 64.3891 55.26 64.2391 55.6C64.2091 55.66 64.1491 55.72 64.0891 55.76C64.0291 55.8 63.9491 55.81 63.8691 55.82C63.5791 55.87 63.2891 55.91 62.8691 55.97L62.8791 55.98Z" clip-rule="evenodd" fill-rule="evenodd"></path>
<path fill="#201C1A" d="M61.2383 56.65C61.4883 56.63 61.6883 56.6 61.8783 56.61C62.1583 56.63 62.3483 56.81 62.4283 57.07C62.5283 57.39 62.4083 57.72 62.1583 57.88C61.9683 58 61.7583 58.01 61.5783 57.91C61.3983 57.81 61.2783 57.68 61.3383 57.41C61.3783 57.21 61.2883 56.97 61.2383 56.64V56.65Z" clip-rule="evenodd" fill-rule="evenodd"></path>
<path fill="#201C1A" d="M65.6895 57.94C65.3361 57.7333 65.0861 57.5033 64.9395 57.25C65.0095 56.83 65.2595 56.58 65.6795 56.49C65.7295 56.51 65.7795 56.51 65.8195 56.54C66.4595 57.12 66.4295 57.4 65.6895 57.94Z" clip-rule="evenodd" fill-rule="evenodd"></path>
<path fill="#201C1A" d="M77.8091 55.23C77.9491 55.08 78.0591 54.9 78.2291 54.8C78.5491 54.6 78.6991 54.5 79.0191 54.86C79.0691 54.91 79.0991 54.98 79.1591 55.08C79.0791 55.25 78.9791 55.42 78.8991 55.61C78.8091 55.82 78.6191 55.91 78.4291 55.96C78.0491 56.08 77.8191 55.89 77.7891 55.46C77.7891 55.39 77.7991 55.31 77.8091 55.23Z" clip-rule="evenodd" fill-rule="evenodd"></path>
<path fill="#201C1A" d="M60.1888 54.64C60.4888 54.79 60.6088 55.03 60.7188 55.29C60.7988 55.48 60.7588 55.66 60.5988 55.76C60.1688 56.02 59.9788 56.1 59.6188 55.68C59.5188 55.57 59.4188 55.47 59.2988 55.34C59.4888 54.97 59.7788 54.76 60.1888 54.64Z" clip-rule="evenodd" fill-rule="evenodd"></path>
<path fill="#201C1A" d="M58.9188 57.4C58.8688 57.45 58.8088 57.58 58.7088 57.62C58.4788 57.71 58.2288 57.77 57.9888 57.81C57.7188 57.86 57.4888 57.57 57.6088 57.33C57.6988 57.15 57.8088 57 57.8288 56.79C57.8388 56.68 58.0188 56.57 58.1488 56.5C58.2188 56.46 58.3788 56.48 58.4288 56.53C58.6088 56.76 58.7688 57.02 58.9288 57.27C58.9388 57.29 58.9288 57.32 58.9288 57.41L58.9188 57.4Z" clip-rule="evenodd" fill-rule="evenodd"></path>
<path fill="#201C1A" d="M64.9397 53.55C64.9997 53.38 65.0497 53.21 65.1197 53C65.2997 52.94 65.5097 52.86 65.6997 52.8C66.1997 53.04 66.1697 53.4401 66.0897 53.9201C65.9597 53.9701 65.7997 54.0301 65.5997 54.1001C65.3997 53.9001 65.0497 53.87 64.9297 53.55H64.9397Z" clip-rule="evenodd" fill-rule="evenodd"></path>
<path fill="#201C1A" d="M53.8086 56.96C54.0686 56.6667 54.3786 56.4767 54.7386 56.39C55.0286 56.5 55.0986 56.78 55.2286 57.07C55.1286 57.33 55.0286 57.61 54.9086 57.89C54.8486 58.04 54.7186 58.13 54.5486 58.12C54.3186 58.12 54.0786 57.94 54.0286 57.76C53.9486 57.5 53.8786 57.23 53.8086 56.97V56.96Z" clip-rule="evenodd" fill-rule="evenodd"></path>
<path fill="#201C1A" d="M53.8691 53.83C54.2191 53.54 54.1291 52.97 54.6691 52.8C54.7891 52.9 54.9391 53.0301 55.0991 53.1701C54.9991 53.3201 54.9091 53.43 54.8291 53.55C54.9391 53.61 55.0491 53.66 55.1791 53.73C55.1391 53.8 55.1191 53.8901 55.0691 53.9201C54.9891 53.9701 54.8791 53.9901 54.7891 54.0301C54.6291 54.0901 54.5891 54.34 54.3591 54.29C54.1391 54.24 54.0191 54.09 53.8691 53.84V53.83Z" clip-rule="evenodd" fill-rule="evenodd"></path>
<path fill="#201C1A" d="M55.7188 54.9901C55.9587 54.9401 56.1287 54.8801 56.2987 54.8701C56.7287 54.8301 56.9287 55.0601 56.8787 55.5101C56.8687 55.6301 56.8487 55.7601 56.8387 55.8701C56.6087 56.0201 56.3787 56.0401 56.1787 55.9001C55.8987 55.7101 55.7487 55.4201 55.7188 55.0001V54.9901Z" clip-rule="evenodd" fill-rule="evenodd"></path>
</g>
<path fill="#FFFEFB" d="M71 39L69 37C67 38 65.1 38.8 63.5 40C61.5 41.5 57 46.5 54 51C51.6 54.6 50.6667 61.1667 50.5 64H56.5C57.7 64 62 63 64 62.5C63.6667 60 63.1 54 63.5 50C63.9 46 66 42.6667 67 41.5L71 39Z"></path>
<path stroke-linejoin="round" stroke="#201C1A" fill="#FFD1B8" d="M60.6394 57.4445L67.537 74.9926L48.8911 72.192L60.6394 57.4445Z"></path>
<path stroke-linejoin="round" stroke="#201C1A" d="M60.478 58.521L53.9082 72.9455"></path>
<path stroke-linejoin="round" stroke-linecap="round" stroke="#201C1A" d="M60.4995 57.2117C60.8191 55.1405 64.3096 53.812 65.9425 56.5335C67.5754 59.255 67.9864 64.9881 70.2969 67.4195"></path>
<path stroke-linejoin="round" stroke-linecap="round" stroke="#201C1A" fill="#FFFEFB" d="M72.7209 65.7866L69.207 69.1689L72.6286 72.6635L76.1424 69.2811L72.7209 65.7866Z"></path>
<path stroke-linejoin="round" stroke-linecap="round" stroke="#201C1A" d="M77 61.012C73.797 60.9198 70.4236 61.3706 67.3228 61.9546C62.1264 62.9279 56.8959 64.2701 51.478 63.9525C48.6668 63.7885 45.9579 63.1841 43.1467 62.9996C42.4482 62.9587 41.7156 62.9484 41 62.9791"></path>
<path stroke-linejoin="round" stroke="#201C1A" d="M69 37C63.5 39 51.3 49.1 50.5 63.5M67 41.5C64.5 45 62 54.1 64 62.5"></path>
<mask height="7" width="40" y="52" x="39" maskUnits="userSpaceOnUse" style="mask-type:alpha" id="mask3_10042_839956">
<path fill="black" d="M53 54V52L39.5 52.5L39 58L79 58.5L78.5 52.5H63.5V54H53Z"></path>
</mask>
<g mask="url(#mask3_10042_839956)">
<ellipse stroke-linejoin="round" stroke="#201C1A" ry="2" rx="19" cy="55" cx="59"></ellipse>
</g>
<path stroke-linejoin="round" stroke-linecap="round" stroke="#201C1A" fill="#FFFEFB" d="M86.7192 14.9241C87.7622 16.0909 86.6573 16.4141 85.6541 17.3836C84.6509 18.3531 84.0542 19.5802 83.0273 18.4141C81.8699 17.1061 82.0075 15.5309 83.0184 14.5698C84.0293 13.6087 85.6916 13.774 86.7269 14.9324L86.7192 14.9241Z"></path>
<path stroke-linejoin="round" stroke="#201C1A" fill="#FFFEFB" d="M117.063 11.3746C113.93 9.19346 108.739 11.9081 106.691 14.1672L108.654 16.2999C110.177 14.898 113.074 13.3579 114.601 14.2026C116.511 15.2587 116.536 17.0207 116.467 18.6754C116.398 20.3301 115.346 22.1452 114.822 23.0025L117.041 26.0248C117.447 25.651 119.217 22.0736 119.672 19.1015C120.155 15.9569 120.129 13.5093 117.063 11.3746Z"></path>
<path fill="#FFFEFB" d="M99.9815 48.5244C100.776 49.2876 102.361 50.7417 103.148 51.5127C109.073 48.3561 115.77 41.8692 118.582 36.7537L115.918 33.8585"></path>
<path stroke-linejoin="round" stroke-linecap="round" stroke="#201C1A" d="M99.9815 48.5244C100.776 49.2876 102.361 50.7417 103.148 51.5127C109.073 48.3561 115.77 41.8692 118.582 36.7537L115.918 33.8585"></path>
<path fill="#FFFEFB" d="M87.9675 46.0354C84.6324 49.2433 79.4027 50.3422 75.0847 45.7172C72.2801 42.7198 71.4409 42.059 67.0464 41.4031C67.7049 40.8125 68.2928 39.7937 70.4254 39.2643C70.0447 38.3818 68.4601 37.6981 67.6389 36.9899C69.2827 36.2477 71.7055 34.9118 74.7758 38.0807C76.169 39.5108 77.5625 41.1255 79.4041 41.8038C81.2457 42.4821 83.3932 41.3997 82.8929 39.5332"></path>
<path stroke-linejoin="round" stroke-linecap="round" stroke="#201C1A" d="M87.9675 46.0354C84.6324 49.2433 79.4027 50.3422 75.0847 45.7172C72.2801 42.7198 71.4409 42.059 67.0464 41.4031C67.7049 40.8125 68.2928 39.7937 70.4254 39.2643C70.0447 38.3818 68.4601 37.6981 67.6389 36.9899C69.2827 36.2477 71.7055 34.9118 74.7758 38.0807C76.169 39.5108 77.5625 41.1255 79.4041 41.8038C81.2458 42.4821 83.3932 41.3997 82.8929 39.5332"></path>
<path stroke-linejoin="round" stroke-linecap="round" stroke="#201C1A" fill="#FFFEFB" d="M96.5684 10.7218L104.154 12.0318C106.845 14.2702 114.493 22.2113 116.638 25.0449C119.027 28.1935 119.699 29.9949 118.124 32.9389C116.028 36.8402 111.928 41.2602 110.068 42.9565C107.057 45.7124 103.52 48.7515 99.9491 50.6817C96.3781 52.6119 94.594 52.4816 91.4896 49.3595C88.1688 46.0357 82.0413 38.6071 79.2355 34.6707L79.0354 27.119C78.544 26.585 77.5705 25.2927 77.569 24.1692C77.569 24.1692 89.1277 13.8556 94.1162 9.09528C94.7807 9.13089 96.1952 10.0483 96.5524 10.7212L96.5684 10.7218Z"></path>
<mask height="18" width="32" y="35" x="79" maskUnits="userSpaceOnUse" style="mask-type:alpha" id="mask4_10042_839956">
<path fill="#D9D9D9" d="M79.7216 35.6102C88.1089 41.6662 94.3393 45.1165 96.8744 45.3763C101.318 45.8313 106.243 45.4952 108.888 44.0237L110.882 46.1902C108.087 48.6174 105.959 50.3862 103.381 51.5366L100.866 49.982C100.16 50.3712 99.0802 51.3253 98.3962 51.6227C95.332 52.9479 93.9703 51.5308 91.0307 48.8892C88.5762 46.688 83.4155 40.6777 80.8931 37.3455L79.7216 35.6102Z"></path>
</mask>
<g mask="url(#mask4_10042_839956)">
<path fill="#201C1A" d="M102.658 43.535C102.734 43.2979 102.706 43.0857 102.54 42.8749C102.339 42.6409 102.081 42.5283 101.784 42.4942C101.545 42.4624 101.407 42.6459 101.262 42.7928C101.027 43.0232 100.941 43.5219 101.082 43.8116C101.181 44.0414 101.416 44.1749 101.659 44.1049C101.829 44.061 102 43.9735 102.156 43.8854C102.335 43.7763 102.501 43.6522 102.666 43.528L102.658 43.535Z" clip-rule="evenodd" fill-rule="evenodd"></path>
<path fill="#201C1A" d="M90.8856 35.5269C91.1282 35.4714 91.4049 35.4684 91.6068 35.3385C91.8384 35.1952 92.0882 34.9654 92.1711 34.7213C92.2377 34.5203 92.0672 34.2439 91.9966 34.0153C91.7898 33.9121 91.612 33.81 91.4267 33.715C91.3523 33.7556 91.2645 33.7665 91.2184 33.8228C91.0193 34.062 90.8201 34.3013 90.6639 34.5568C90.4686 34.8763 90.4699 35.1966 90.8856 35.5269Z" clip-rule="evenodd" fill-rule="evenodd"></path>
<path fill="#201C1A" d="M101.179 41.137C101.632 41.4324 102.012 41.2225 102.383 41.0632C102.472 41.0232 102.559 40.8594 102.556 40.7501C102.559 40.4955 102.497 40.2454 102.471 40.0041C102.153 39.7652 101.845 39.6433 101.501 39.6945C101.391 39.7118 101.226 39.8214 101.216 39.901C101.148 40.2986 100.971 40.6989 101.179 41.137Z" clip-rule="evenodd" fill-rule="evenodd"></path>
<path fill="#201C1A" d="M85.3408 40.4211C85.3408 40.4211 85.3686 40.4514 85.4192 40.4608C86.0584 40.6693 86.3336 40.5279 86.5276 39.8881C86.5702 39.737 86.5838 39.5847 86.6138 39.3894C86.4636 39.1502 86.2622 38.9162 85.9718 38.7222C85.732 38.8869 85.4929 39.0371 85.2758 39.181C85.1502 39.5761 84.9601 39.9468 85.3408 40.4211Z" clip-rule="evenodd" fill-rule="evenodd"></path>
<path fill="#201C1A" d="M80.3727 40.3386C80.3727 40.3386 80.5332 40.3307 80.6286 40.3128C80.9153 40.2447 81.2253 40.1411 81.2676 39.8225C81.32 39.4389 81.1519 39.1044 80.8185 38.894C80.7261 38.8392 80.5384 38.8023 80.4633 38.8574C80.1636 39.0633 79.8512 39.2251 79.4918 39.2902C79.3377 39.3202 79.335 39.5603 79.4761 39.6681C79.7583 39.8836 80.0481 40.0922 80.3803 40.3316L80.3727 40.3386Z" clip-rule="evenodd" fill-rule="evenodd"></path>
<path fill="#201C1A" d="M97.2594 40.8578C97.3977 40.5068 97.3138 40.2486 97.1496 39.9943C96.9785 39.7324 96.7136 39.6268 96.4404 39.5427C96.1819 39.4591 95.9887 39.553 95.8692 39.8028C95.805 39.9457 95.7623 40.0968 95.7121 40.2549C95.7978 40.4695 95.898 40.6848 95.9971 40.9291C96.1412 40.9642 96.3005 40.9854 96.4289 41.049C96.7432 41.193 96.9708 40.9695 97.2594 40.8578Z" clip-rule="evenodd" fill-rule="evenodd"></path>
<path fill="#201C1A" d="M80.7512 38.0614C81.053 37.6299 81.2131 37.1052 81.5319 36.6161C81.4407 36.5323 81.3647 36.4345 81.2927 36.4169C81.177 36.3976 81.0241 36.3985 80.9199 36.4524C80.7413 36.5469 80.5881 36.7298 80.3517 36.6399C80.1152 36.55 79.9226 36.6294 79.8194 36.8362C79.7086 37.05 79.6693 37.2958 79.8353 37.5065C80.0633 37.7999 80.2913 38.0933 80.7512 38.0614Z" clip-rule="evenodd" fill-rule="evenodd"></path>
<path fill="#201C1A" d="M104.291 42.2852C103.863 42.4131 103.722 42.6692 103.705 43.0616C103.691 43.4104 103.663 43.7441 103.98 43.9829C104.037 44.0289 104.099 44.0971 104.179 44.1076C104.49 44.1569 104.744 43.9928 104.955 43.8123C105.092 43.6869 105.13 43.4702 105.03 43.2404C104.878 42.8628 104.65 42.5695 104.291 42.2852Z" clip-rule="evenodd" fill-rule="evenodd"></path>
<path fill="#201C1A" d="M100.722 50.741C100.642 50.9124 100.579 51.0262 100.545 51.1413C100.403 51.5794 100.546 51.811 101.007 51.9321C101.339 52.0186 101.667 51.9959 102.028 51.9016C102.088 51.5111 102.213 51.1159 101.983 50.6987C101.814 50.5607 101.613 50.6761 101.408 50.6967C101.203 50.7173 100.999 50.7234 100.729 50.734L100.722 50.741Z" clip-rule="evenodd" fill-rule="evenodd"></path>
<path fill="#201C1A" d="M83.8334 37.7963C84.0045 37.4152 84.0328 37.0257 83.9183 36.6279C83.5761 36.4535 83.2773 36.1135 82.7532 36.2883C82.5171 36.7153 82.5937 37.1479 82.8605 37.5594C83.0937 37.9039 83.4543 37.8097 83.8334 37.7963Z" clip-rule="evenodd" fill-rule="evenodd"></path>
<path fill="#201C1A" d="M81.2279 42.3323C80.9632 42.0447 80.7751 41.8403 80.5801 41.6284C80.4617 41.4998 80.31 41.4716 80.149 41.494C79.607 41.5735 79.4369 41.8139 79.5669 42.3652C79.5917 42.4682 79.6165 42.5711 79.6565 42.6601C79.8164 43.0161 80.2621 43.1511 80.5776 42.9167C80.7877 42.7653 80.956 42.5685 81.2285 42.3177L81.2279 42.3323Z" clip-rule="evenodd" fill-rule="evenodd"></path>
<path fill="#201C1A" d="M88.7321 37.9706C88.9643 37.8128 89.1813 37.669 89.3914 37.5175C89.5116 37.2532 89.4056 37.0013 89.328 36.7652C89.2575 36.5366 89.0646 36.4485 88.829 36.5115C88.5859 36.5815 88.3416 36.6805 88.0467 36.7702C87.9656 36.9706 87.8827 37.2147 87.7858 37.4436C87.924 37.9734 88.3717 37.8828 88.7175 37.97L88.7321 37.9706Z" clip-rule="evenodd" fill-rule="evenodd"></path>
<path fill="#201C1A" d="M103.442 50.8102C103.413 50.9764 103.38 51.077 103.376 51.1787C103.336 51.7885 103.489 51.9695 104.09 52.0454C104.379 52.0866 104.602 51.9793 104.751 51.7307C104.914 51.4682 104.942 51.1636 104.762 50.9232C104.59 50.6904 104.295 50.5981 104.003 50.6297C103.827 50.6515 103.664 50.7321 103.442 50.8102Z" clip-rule="evenodd" fill-rule="evenodd"></path>
<path fill="#201C1A" d="M90.1652 47.6385C90.1198 48.0297 90.0396 48.383 90.149 48.7297C90.6347 48.9537 91.0361 48.752 91.437 48.5648C91.6377 48.4639 91.7143 48.1978 91.5901 48.0325C91.4178 47.7997 91.2524 47.5745 90.9509 47.4746C90.6708 47.3829 90.4492 47.461 90.1507 47.6379L90.1652 47.6385Z" clip-rule="evenodd" fill-rule="evenodd"></path>
<path fill="#201C1A" d="M107.437 51.5512C107.283 51.2172 107.217 50.8724 106.869 50.6759C106.665 50.682 106.419 50.6427 106.305 50.9291C106.173 51.3022 105.861 51.6459 106.104 52.0927C106.233 52.3237 106.455 52.413 106.691 52.3355C107.053 52.2122 107.31 51.9754 107.437 51.5512Z" clip-rule="evenodd" fill-rule="evenodd"></path>
<path fill="#201C1A" d="M93.5894 50.0372C93.355 50.0711 93.0986 50.1114 92.8643 50.1454C92.7825 50.3604 92.6957 50.5242 92.6524 50.6898C92.5126 51.2518 92.9102 51.6686 93.4743 51.5829C93.5766 51.5725 93.6801 51.5332 93.7692 51.4932C93.939 51.4347 94.0416 51.2425 94.0128 51.0593C93.9701 50.861 93.9349 50.6557 93.8556 50.4631C93.7959 50.3224 93.699 50.2019 93.583 50.0151L93.5894 50.0372Z" clip-rule="evenodd" fill-rule="evenodd"></path>
<path fill="#201C1A" d="M87.7487 43.5857C88.1093 43.4914 88.4396 43.4251 88.7496 43.3215C88.8311 43.2885 88.9155 43.1828 88.9482 43.0968C89.0511 42.7226 88.9708 42.3771 88.7137 42.0825C88.5605 41.916 88.3431 41.8925 88.1487 42.0154C88.0888 42.0566 88.0067 42.1041 87.9822 42.1686C87.7897 42.5974 87.424 42.9899 87.7557 43.5932L87.7487 43.5857Z" clip-rule="evenodd" fill-rule="evenodd"></path>
<path fill="#201C1A" d="M88.8889 50.6865C88.7363 50.5055 88.6464 50.3925 88.5495 50.2721C88.3684 50.0753 88.1815 49.8419 87.8912 49.9972C87.6009 50.1526 87.3157 50.3591 87.3209 50.7597C87.3191 51.1527 87.4009 51.2871 87.9353 51.5641L88.8889 50.6865Z" clip-rule="evenodd" fill-rule="evenodd"></path>
<path fill="#201C1A" d="M95.4712 50.4721C95.2572 50.8926 95.3457 51.2166 95.6842 51.4781C95.8671 51.6313 96.3821 51.6745 96.5834 51.5592C96.7848 51.4438 96.845 51.2206 96.8534 51.0171C96.8619 50.8137 96.8052 50.6002 96.7771 50.4025C96.2968 50.0477 95.8842 50.3436 95.4712 50.4721Z" clip-rule="evenodd" fill-rule="evenodd"></path>
<path fill="#201C1A" d="M83.5906 39.0964C83.1955 38.9708 82.8785 39.0669 82.5439 39.235C82.4804 39.3633 82.4017 39.5057 82.3521 39.6492C82.2504 39.9944 82.4348 40.2859 82.7818 40.344C82.9916 40.3745 83.2027 40.376 83.4067 40.3699C83.7201 40.3611 83.8587 40.1776 83.8575 39.8573C83.8523 39.8061 83.8693 39.7486 83.8496 39.6968C83.7702 39.5042 83.6833 39.3187 83.5906 39.0964Z" clip-rule="evenodd" fill-rule="evenodd"></path>
<path fill="#201C1A" d="M103.709 45.5876C103.73 45.7923 103.75 45.997 103.756 46.201C103.782 46.6243 103.88 46.7157 104.23 46.7011C104.938 46.665 105.155 46.3537 104.942 45.6825C104.91 45.5865 104.878 45.4906 104.823 45.4009C104.687 45.1769 104.442 45.1085 104.212 45.2227C104.167 45.25 104.122 45.2772 104.084 45.312C103.957 45.4014 103.837 45.4837 103.687 45.594L103.709 45.5876Z" clip-rule="evenodd" fill-rule="evenodd"></path>
<path fill="#201C1A" d="M89.5384 34.8376C89.4021 34.6136 89.3076 34.4349 89.198 34.2702C88.8488 33.7389 88.8058 33.7226 88.1125 33.9413C87.8253 34.7228 88.0796 34.908 88.4042 35.1545C88.7149 35.3857 88.9877 35.3024 89.5384 34.8376Z" clip-rule="evenodd" fill-rule="evenodd"></path>
<path fill="#201C1A" d="M101.564 46.5831C101.953 46.6866 102.194 46.4783 102.403 46.174C102.415 45.8978 102.317 45.6244 102.204 45.365C102.078 45.0613 101.79 44.9911 101.492 45.1534C101.314 45.2479 101.148 45.3721 100.932 45.5014C100.97 45.634 100.971 45.7869 101.046 45.9138C101.196 46.153 101.384 46.3573 101.556 46.5901L101.564 46.5831Z" clip-rule="evenodd" fill-rule="evenodd"></path>
<path fill="#201C1A" d="M91.3294 36.6153C90.8695 36.6472 90.5704 36.8386 90.5096 37.4256C90.5908 37.5746 90.6962 37.841 90.854 38.0732C91.0048 38.2979 91.2612 38.2576 91.4238 38.0241C91.5945 37.7691 91.7722 37.5217 91.9656 37.2459C91.9408 37.1429 91.902 37.0249 91.8708 36.8998C91.6855 36.8048 91.5077 36.7028 91.337 36.6083L91.3294 36.6153Z" clip-rule="evenodd" fill-rule="evenodd"></path>
<path fill="#201C1A" d="M80.2887 51.1373C80.4409 50.8015 80.5693 50.5157 80.7209 50.1944C80.5955 50.0582 80.4789 49.8859 80.3321 49.7415C80.2694 49.6734 80.1474 49.6319 80.0456 49.6277C79.6823 49.6126 79.2682 50.1195 79.3403 50.4865C79.4009 50.7802 79.5366 51.0187 79.8485 51.2209C79.9514 51.1961 80.0979 51.1731 80.2963 51.1303L80.2887 51.1373Z" clip-rule="evenodd" fill-rule="evenodd"></path>
<path fill="#201C1A" d="M87.9059 47.2026C87.7969 47.3727 87.7043 47.4999 87.6401 47.6428C87.3998 48.1715 87.8111 48.7855 88.3524 48.7206C88.4693 48.7109 88.6107 48.6367 88.68 48.5449C88.9415 48.2064 88.9184 47.7105 88.6625 47.3868C88.5378 47.2361 88.4442 47.2103 87.9129 47.2101L87.9059 47.2026Z" clip-rule="evenodd" fill-rule="evenodd"></path>
<path fill="#201C1A" d="M98.8084 51.7898C99.1844 51.4996 99.2767 51.205 99.2319 50.8829C99.2158 50.7439 99.1131 50.5868 99.0075 50.5023C98.8664 50.3946 98.6868 50.3361 98.5066 50.2923C98.2544 50.2308 98.028 50.4253 98.0468 50.6735C98.058 50.9288 98.0908 51.1922 98.1241 51.4411C98.1453 51.6312 98.2468 51.8174 98.4345 51.8543C98.5862 51.8824 98.7718 51.7955 98.816 51.7828L98.8084 51.7898Z" clip-rule="evenodd" fill-rule="evenodd"></path>
<path fill="#201C1A" d="M82.5723 49.7473L81.9138 50.3533C81.9414 50.5655 81.9672 50.8214 81.9999 51.0848C82.6031 51.2845 83.0157 50.9886 83.3947 50.6259C83.5461 50.4866 83.4925 50.2005 83.2926 50.1048C83.0649 49.9789 82.8284 49.889 82.5641 49.7688L82.5723 49.7473Z" clip-rule="evenodd" fill-rule="evenodd"></path>
<path fill="#201C1A" d="M105.421 38.0447C105.445 37.6453 105.241 37.4694 104.938 37.3986C104.577 37.3254 104.239 37.4133 104.03 37.703C103.884 37.8935 103.742 38.1497 103.847 38.4306C104.73 38.7366 104.752 38.7302 105.421 38.0447Z" clip-rule="evenodd" fill-rule="evenodd"></path>
<path fill="#201C1A" d="M93.4632 35.3354C93.7436 35.5945 94.3104 35.6181 94.6195 35.3616C94.6725 35.3128 94.7191 35.2419 94.7366 35.1699C94.8068 34.8816 94.4804 34.3294 94.1933 34.2302C93.8633 34.1145 93.4764 34.3169 93.3153 34.6887C93.2424 34.8676 93.3157 35.2055 93.4556 35.3424L93.4632 35.3354Z" clip-rule="evenodd" fill-rule="evenodd"></path>
<path fill="#201C1A" d="M79.6875 53.6747C80.2043 53.6743 80.4831 53.4457 80.5669 53.0052C80.5863 52.8895 80.5714 52.7215 80.5018 52.6458C80.3485 52.4793 80.1511 52.3255 79.9513 52.2298C79.8659 52.1826 79.6536 52.2102 79.5994 52.288C79.4457 52.4855 79.3267 52.7207 79.2292 52.9642C79.1972 53.0356 79.2423 53.1758 79.2974 53.2509C79.4216 53.4162 79.576 53.5536 79.6944 53.6823L79.6875 53.6747Z" clip-rule="evenodd" fill-rule="evenodd"></path>
<path fill="#201C1A" d="M87.6116 39.5473C87.7104 39.9736 87.893 40.3088 88.2025 40.5691C88.3993 40.7374 88.5819 40.7231 88.7357 40.5257C88.8592 40.3561 88.9821 40.2011 89.1056 40.0315C89.3142 39.7417 89.1985 39.373 88.8521 39.3004C88.6864 39.2571 88.4963 39.2783 88.3201 39.3147C88.0997 39.3638 87.892 39.457 87.6116 39.5473Z" clip-rule="evenodd" fill-rule="evenodd"></path>
<path fill="#201C1A" d="M106.525 38.6073C107.019 38.6424 107.469 38.6756 107.962 38.7107C108.02 38.5602 108.069 38.4167 108.127 38.2516C107.981 38.0927 107.842 37.9413 107.702 37.79C107.508 37.5635 107.247 37.5236 106.997 37.6005C106.716 37.6908 106.49 37.8852 106.484 38.2125C106.486 38.3364 106.502 38.4608 106.519 38.5998L106.525 38.6073Z" clip-rule="evenodd" fill-rule="evenodd"></path>
<path fill="#201C1A" d="M90.247 50.0659C90.1646 50.2954 90.0684 50.5098 90.0227 50.7335C90.0045 50.8201 90.0579 50.9388 90.1054 51.0209C90.3531 51.366 90.9308 51.4773 91.2969 51.2523C91.3492 51.2181 91.404 51.1257 91.414 51.0606C91.446 50.6398 91.0678 50.1072 90.6493 50.0171C90.5412 49.9907 90.408 50.0435 90.2539 50.0734L90.247 50.0659Z" clip-rule="evenodd" fill-rule="evenodd"></path>
<path fill="#201C1A" d="M101.108 48.1074C100.972 48.4002 100.845 48.657 100.941 48.9885C101.07 49.0375 101.205 49.1087 101.349 49.1438C101.681 49.2158 101.999 49.1052 102.197 48.8805C102.419 48.6349 102.425 48.3076 102.204 48.0218C101.842 47.9729 101.474 48.0037 101.101 48.1144L101.108 48.1074Z" clip-rule="evenodd" fill-rule="evenodd"></path>
<path fill="#201C1A" d="M93.2739 37.6496C93.3644 37.7479 93.4462 37.8824 93.5506 37.9959C93.8507 38.3068 94.0112 38.2989 94.3512 38C94.6766 37.7005 94.6766 37.7005 94.6299 37.0726C94.4028 36.9321 94.156 36.7399 93.8535 36.8365C93.4993 36.9528 93.3268 37.2514 93.2808 37.6571L93.2739 37.6496Z" clip-rule="evenodd" fill-rule="evenodd"></path>
<path fill="#201C1A" d="M88.3149 44.519C88.1224 44.5983 87.9822 44.6435 87.8408 44.7177C87.5359 44.8724 87.4687 45.088 87.6695 45.3366C87.8076 45.517 87.9829 45.6771 88.1292 45.8361C88.4971 45.9169 88.7444 45.7451 88.9657 45.4996C89.1643 45.2749 89.1391 45.0045 88.8917 44.8268C88.7291 44.7109 88.5287 44.6298 88.3225 44.512L88.3149 44.519Z" clip-rule="evenodd" fill-rule="evenodd"></path>
<path fill="#201C1A" d="M83.1237 47.0186C82.7755 46.9896 82.5166 47.088 82.3853 47.4465C82.3526 47.5325 82.2548 47.6085 82.193 47.6933C82.0374 47.9343 82.0465 48.0657 82.1986 48.2613C82.3715 48.4796 82.5156 48.5147 82.8123 48.3814C83.0497 48.2748 83.3282 48.2281 83.4496 47.9347C83.4856 47.5941 83.2639 47.3229 83.1161 47.0256L83.1237 47.0186Z" clip-rule="evenodd" fill-rule="evenodd"></path>
<path fill="#201C1A" d="M85.3912 37.4243C85.499 37.2832 85.6067 37.142 85.7139 37.0155C85.8135 36.8959 85.9298 36.9007 86.0715 36.9939C86.1448 37.3318 85.8514 37.5598 85.8027 37.8563C85.8815 38.0633 86.0571 38.0415 86.1915 37.9598C86.4685 37.7747 86.7676 37.5833 86.77 37.1758C86.7709 36.9793 86.7048 36.8164 86.5498 36.6935C86.1689 36.4011 85.5334 36.4548 85.1985 36.8048C85.0693 36.9378 85.1196 37.1291 85.3988 37.4173L85.3912 37.4243Z" clip-rule="evenodd" fill-rule="evenodd"></path>
<path fill="#201C1A" d="M98.8498 43.7553C99.0645 43.6696 99.2122 43.6175 99.3385 43.5572C99.4723 43.49 99.6207 43.4234 99.7272 43.3113C100.022 43.0397 99.9091 42.6128 99.5197 42.5238C99.1739 42.4367 98.843 42.5176 98.5509 42.7166C98.3338 42.8604 98.3008 43.1284 98.4598 43.3315C98.57 43.4817 98.7036 43.5964 98.8429 43.7478L98.8498 43.7553Z" clip-rule="evenodd" fill-rule="evenodd"></path>
<path fill="#201C1A" d="M96.205 47.5326C96.0134 47.7648 95.823 47.968 95.6534 48.1939C95.5532 48.3281 95.5466 48.4879 95.6423 48.6375C95.738 48.787 95.8815 48.8367 96.0508 48.7927C96.3008 48.7303 96.5585 48.661 96.7953 48.5689C96.9436 48.5022 97.0223 48.3599 97.0005 48.1843C96.989 48.1111 96.9705 48.0302 96.9444 47.9563C96.8432 47.5882 96.8084 47.5503 96.4097 47.512C96.337 47.5089 96.2562 47.5274 96.1905 47.532L96.205 47.5326Z" clip-rule="evenodd" fill-rule="evenodd"></path>
<path fill="#201C1A" d="M107.15 36.202C107.41 36.06 107.612 35.9446 107.835 35.8228C108.023 35.4958 107.898 35.1776 107.766 34.8664C107.7 34.7035 107.526 34.6672 107.365 34.7042C106.997 34.7908 106.689 35.2002 106.703 35.5647C106.712 35.8636 106.924 36.018 107.15 36.202Z" clip-rule="evenodd" fill-rule="evenodd"></path>
<path fill="#201C1A" d="M86.1538 43.0972C86.2146 42.8595 86.2155 42.663 86.0849 42.4756C86.0089 42.3778 85.9487 42.2516 85.8878 42.1399C85.7351 41.8424 85.4622 41.7534 85.069 41.873C84.9289 42.2675 84.9632 42.6693 85.151 43.0556C85.4641 43.2287 85.7726 43.3362 86.1538 43.0972Z" clip-rule="evenodd" fill-rule="evenodd"></path>
<path fill="#201C1A" d="M106.734 41.1128C106.966 41.2899 107.203 41.3798 107.473 41.3692C107.866 41.3564 108.107 40.9951 107.902 40.6663C107.746 40.4051 107.507 40.1914 107.283 39.9782C107.227 39.9177 107.088 39.9483 106.943 39.9277C106.839 40.331 106.62 40.7004 106.726 41.1198L106.734 41.1128Z" clip-rule="evenodd" fill-rule="evenodd"></path>
<path fill="#201C1A" d="M102.678 34.6697C102.428 34.5647 102.313 34.5163 102.17 34.4521C102.043 34.5269 101.916 34.6017 101.776 34.6614C101.457 34.801 101.349 34.9421 101.381 35.2201C101.392 35.3224 101.424 35.4184 101.456 35.5289C101.553 35.8168 101.68 35.9094 101.971 35.907C102.248 35.9039 102.503 35.7252 102.564 35.4875C102.573 35.437 102.576 35.3788 102.585 35.3283C102.616 35.1184 102.653 34.9162 102.685 34.6773L102.678 34.6697Z" clip-rule="evenodd" fill-rule="evenodd"></path>
<path fill="#201C1A" d="M109.92 37.4963C109.72 37.5826 109.52 37.6544 109.342 37.7489C109.193 37.83 109.117 38.0817 109.22 38.2243C109.337 38.3965 109.484 38.5409 109.615 38.6993C109.789 38.903 109.992 38.926 110.242 38.849C110.574 38.7391 110.653 38.6113 110.506 38.2849C110.387 38.0034 110.298 37.6939 109.927 37.5039L109.92 37.4963Z" clip-rule="evenodd" fill-rule="evenodd"></path>
<path fill="#201C1A" d="M85.4305 48.4174C85.7732 48.2278 86.0869 48.037 86.2991 47.66C86.1488 47.4208 86.0056 47.1892 85.6713 47.1754C85.3446 47.1545 84.9268 47.3992 84.8182 47.7368C84.7773 47.8443 84.8073 47.9984 84.8612 48.1026C84.9621 48.3033 85.155 48.3914 85.4305 48.4174Z" clip-rule="evenodd" fill-rule="evenodd"></path>
<path fill="#201C1A" d="M110.475 43.2335C110.247 43.1221 110.047 43.0119 109.84 42.9087C109.591 42.7891 109.295 42.8933 109.184 43.1071C109.002 43.4562 109.029 43.683 109.262 43.8746C109.494 44.0662 109.76 44.1428 110.056 44.0241C110.382 43.892 110.545 43.6585 110.482 43.2265L110.475 43.2335Z" clip-rule="evenodd" fill-rule="evenodd"></path>
<path fill="#201C1A" d="M110.385 46.3087C110.358 45.9 110.088 45.7286 109.856 45.537C109.751 45.4526 109.538 45.4947 109.445 45.6219C109.345 45.7415 109.274 45.8768 109.175 45.9964C108.853 46.3907 108.892 46.6762 109.317 46.9414C109.431 47.0189 109.644 46.9622 109.722 46.8344C109.894 46.5552 110.115 46.3752 110.385 46.2942L110.385 46.3087Z" clip-rule="evenodd" fill-rule="evenodd"></path>
<path fill="#201C1A" d="M83.3117 44.3841C83.1443 44.3844 82.9844 44.3778 82.8309 44.3933C82.7286 44.4036 82.632 44.4505 82.5064 44.4962C82.4017 44.9141 82.3475 45.3413 82.5632 45.7579C82.8926 45.888 83.1433 45.8111 83.3291 45.5422C83.5692 45.1955 83.6139 44.8188 83.3193 44.3771L83.3117 44.3841Z" clip-rule="evenodd" fill-rule="evenodd"></path>
<path fill="#201C1A" d="M91.7385 42.8923C91.5686 42.6014 91.5709 42.1939 91.1113 42.0437C90.9902 42.1552 90.8616 42.2736 90.7405 42.385C90.6269 42.4895 90.4925 42.5713 90.3796 42.6612C90.3696 42.7263 90.3381 42.7832 90.3509 42.8274C90.5614 43.5423 90.8699 43.6497 91.47 43.2233C91.5078 43.1885 91.5457 43.1536 91.5835 43.1188C91.6365 43.0701 91.6761 42.9916 91.7454 42.8999L91.7385 42.8923Z" clip-rule="evenodd" fill-rule="evenodd"></path>
<path fill="#201C1A" d="M97.2291 34.5818C97.0444 34.4723 96.9096 34.3866 96.7667 34.3224C96.6093 34.2577 96.2865 34.3171 96.1945 34.4297C96.0343 34.605 95.9675 34.9881 96.0847 35.1458C96.2088 35.3111 96.3406 35.4694 96.5026 35.5999C96.7215 35.7618 96.9443 35.6546 97.205 35.5126C97.2101 35.2143 97.2164 34.887 97.2215 34.5888L97.2291 34.5818Z" clip-rule="evenodd" fill-rule="evenodd"></path>
<path fill="#201C1A" d="M110.352 41.263C110.39 41.2282 110.489 41.1376 110.545 41.0162C110.584 40.9378 110.605 40.7931 110.557 40.7256C110.461 40.576 110.344 40.4183 110.202 40.325C109.975 40.1701 109.564 40.2549 109.411 40.4523C109.235 40.6561 109.234 41.0201 109.399 41.2598C109.681 41.6573 109.927 41.6821 110.359 41.2851L110.352 41.263Z" clip-rule="evenodd" fill-rule="evenodd"></path>
<path fill="#201C1A" d="M80.1582 46.91C80.0522 47.0075 79.9754 47.1062 79.8845 47.1898C79.7861 47.2804 79.7029 47.357 79.8352 47.5008C79.8701 47.5386 79.8198 47.6967 79.7732 47.7675C79.6421 47.9441 79.6861 48.1133 79.7369 48.2901C79.7815 48.4448 79.9668 48.5399 80.1006 48.4726C80.331 48.3585 80.5475 48.2291 80.8163 48.0656C80.8329 47.8406 80.8508 47.5866 80.8692 47.3181C80.6275 47.177 80.4068 47.0586 80.1652 46.9176L80.1582 46.91Z" clip-rule="evenodd" fill-rule="evenodd"></path>
<path fill="#201C1A" d="M94.106 48.0788C93.8883 47.8878 93.6984 47.727 93.5085 47.5663C93.1255 47.4994 92.9212 47.6875 92.8201 48.0181C92.7687 48.2052 92.7911 48.3663 92.9304 48.5177C93.0836 48.6842 93.2368 48.8507 93.404 49.0323C93.8485 48.847 94.0286 48.5414 94.106 48.0788Z" clip-rule="evenodd" fill-rule="evenodd"></path>
<path fill="#201C1A" d="M90.8503 46.0292C91.011 45.8393 91.1933 45.6577 91.3401 45.4527C91.5405 45.1844 91.3963 44.7999 91.0499 44.7272C90.8261 44.6816 90.5924 44.701 90.3744 44.6919C90.1075 45.5107 90.1659 45.6805 90.8503 46.0292Z" clip-rule="evenodd" fill-rule="evenodd"></path>
<path fill="#201C1A" d="M99.3522 39.7435C99.1969 39.8026 99.0271 39.8611 98.8642 39.9271C98.4198 40.1125 98.4897 40.3556 98.6218 40.6813C98.6681 40.7924 98.7732 40.8914 98.8644 40.9753C99.046 41.1575 99.2204 41.1648 99.423 41.0203C99.4829 40.9791 99.5435 40.9234 99.597 40.8601C99.6658 40.7829 99.7275 40.6981 99.7893 40.6133C99.7526 40.2697 99.7304 39.9267 99.3528 39.729L99.3522 39.7435Z" clip-rule="evenodd" fill-rule="evenodd"></path>
<path fill="#201C1A" d="M109.987 36.2325C110.155 36.2321 110.301 36.2236 110.424 36.2215C110.783 35.836 110.908 35.4409 110.672 34.987C110.585 34.816 110.427 34.7512 110.035 34.7349C110 34.8645 109.972 35.0162 109.923 35.1597C109.873 35.3033 109.787 35.438 109.723 35.5809C109.707 35.6239 109.711 35.6896 109.724 35.7338C109.805 35.8973 109.893 36.0538 109.973 36.2319L109.987 36.2325Z" clip-rule="evenodd" fill-rule="evenodd"></path>
<path fill="#201C1A" d="M106.294 45.4038C106.418 45.7511 106.643 45.9351 106.602 46.2246C106.591 46.3042 106.666 46.431 106.736 46.4922C106.828 46.5615 106.956 46.6251 107.066 46.6223C107.284 46.6169 107.485 46.516 107.588 46.3237C107.643 46.2168 107.694 46.0443 107.646 45.9622C107.471 45.6346 107.258 45.3273 106.812 45.3598C106.666 45.3683 106.513 45.3838 106.279 45.4032L106.294 45.4038Z" clip-rule="evenodd" fill-rule="evenodd"></path>
<path fill="#201C1A" d="M107.516 43.147C107.424 43.0922 107.275 42.9914 107.118 42.9121C106.926 42.8095 106.71 42.7423 106.522 42.9019C106.34 43.0545 106.345 43.2876 106.395 43.4935C106.451 43.736 106.625 43.9107 106.901 43.9222C107.112 43.9382 107.315 43.9466 107.527 43.9336C107.768 43.9217 107.88 43.6789 107.75 43.477C107.695 43.3874 107.626 43.3117 107.515 43.1615L107.516 43.147Z" clip-rule="evenodd" fill-rule="evenodd"></path>
<path fill="#201C1A" d="M80.6643 45.4097C80.875 44.8944 80.5592 44.6119 80.3329 44.275C80.2457 44.2713 80.1452 44.238 80.0498 44.2559C79.7416 44.3159 79.6811 44.3716 79.7713 44.652C79.8292 44.8364 79.7738 44.9433 79.7027 45.0786C79.624 45.2209 79.5871 45.4087 79.7357 45.5095C79.8699 45.6097 80.0476 45.7117 80.2414 45.6032C80.3752 45.536 80.5236 45.4694 80.6719 45.4027L80.6643 45.4097Z" clip-rule="evenodd" fill-rule="evenodd"></path>
<path fill="#201C1A" d="M94.4352 42.9679C94.4228 42.7418 94.4103 42.5156 94.3846 42.2597C94.1599 42.4106 93.9656 42.5335 93.6652 42.4046C93.4003 42.299 93.2135 42.4149 93.1475 42.6015C93.0313 42.946 93.1152 43.2043 93.3935 43.3396C93.8501 43.5624 93.9536 43.523 94.4352 42.9679Z" clip-rule="evenodd" fill-rule="evenodd"></path>
<path fill="#201C1A" d="M98.835 35.5365C99.082 35.5468 99.3209 35.5785 99.5471 35.5661C100.006 35.5488 100.28 35.1015 100.101 34.6792C100.027 34.5233 99.8633 34.4364 99.708 34.4955C99.4422 34.5863 99.1967 34.7144 98.9505 34.8571C98.7044 34.9997 98.6953 35.2177 98.8419 35.5441L98.835 35.5365Z" clip-rule="evenodd" fill-rule="evenodd"></path>
<path fill="#201C1A" d="M104.797 47.9985C104.456 47.9625 104.151 47.9353 103.926 47.9187C103.581 48.181 103.834 48.3953 103.839 48.6139C103.764 48.669 103.675 48.7235 103.6 48.7786C103.598 48.8222 103.595 48.8804 103.616 48.9176C103.718 49.0893 103.86 49.168 104.072 49.1404C104.329 49.1001 104.5 48.998 104.886 48.6428C104.865 48.4527 104.831 48.2328 104.804 48.0061L104.797 47.9985Z" clip-rule="evenodd" fill-rule="evenodd"></path>
<path fill="#201C1A" d="M94.0624 46.0096C94.086 45.7922 94.1071 45.633 94.1207 45.4807C94.127 45.1534 94.0598 45.0196 93.8802 44.9612C93.5711 44.8682 93.2547 44.9497 93.1073 45.1693C93.0065 45.3179 92.9614 45.5272 92.9515 45.9417C93.2948 46.087 93.6461 46.0433 94.0769 46.0102L94.0624 46.0096Z" clip-rule="evenodd" fill-rule="evenodd"></path>
<path fill="#201C1A" d="M110.153 48.8978C110.051 48.7117 109.977 48.5703 109.902 48.4434C109.63 48.3302 109.353 48.3478 109.149 48.5213C108.968 48.6885 108.777 48.8917 108.857 49.2371C109.042 49.3467 109.262 49.4796 109.525 49.6288C109.725 49.3896 109.923 49.1649 110.146 48.8903L110.153 48.8978Z" clip-rule="evenodd" fill-rule="evenodd"></path>
<path fill="#201C1A" d="M109.767 52.0337C109.873 51.6013 110.049 51.2156 109.774 50.8111C109.604 50.7021 109.444 50.6955 109.313 50.8866C109.274 50.9505 109.248 51.0295 109.195 51.0783C108.787 51.4544 108.787 51.4544 109.003 51.8564C109.172 52.1764 109.426 52.1797 109.767 52.0337Z" clip-rule="evenodd" fill-rule="evenodd"></path>
<path fill="#201C1A" d="M104.334 34.7531C104.342 35.081 104.347 35.3141 104.366 35.5479C104.397 35.8549 104.639 35.9959 104.922 35.833C105.228 35.6637 105.407 35.3872 105.479 35.0554C105.506 34.9182 105.418 34.7762 105.287 34.7563C104.99 34.7366 104.691 34.7461 104.334 34.7531Z" clip-rule="evenodd" fill-rule="evenodd"></path>
<path fill="#201C1A" d="M98.1711 46.0856C98.707 46.1515 99.0882 45.9126 99.4542 45.6876C99.5438 45.6331 99.5377 45.429 99.5886 45.2564C99.102 45.2289 98.6866 45.0661 98.1934 45.1985C98.1819 45.4746 98.185 45.7514 98.1781 46.0932L98.1711 46.0856Z" clip-rule="evenodd" fill-rule="evenodd"></path>
<path fill="#201C1A" d="M84.8249 50.0228C84.9696 50.3927 84.6718 50.9045 85.2044 51.225C85.2713 51.1914 85.3743 51.1666 85.4493 51.1115C85.9773 50.6675 85.9915 50.5007 85.5627 49.9588C85.3619 49.7102 85.2015 49.7181 84.8318 50.0303L84.8249 50.0228Z" clip-rule="evenodd" fill-rule="evenodd"></path>
<path fill="#201C1A" d="M82.7237 53.8444C82.8024 53.7021 82.9165 53.5831 82.8911 53.4947C82.8165 53.1859 82.9116 53.0005 83.2216 52.897C83.2658 52.8842 83.2852 52.7686 83.3324 52.6832C82.9152 52.5639 82.524 52.5186 82.1364 52.7354C81.8385 52.8978 81.7747 53.2081 82.0424 53.423C82.2323 53.5838 82.4681 53.6882 82.7313 53.8374L82.7237 53.8444Z" clip-rule="evenodd" fill-rule="evenodd"></path>
<path fill="#201C1A" d="M91.4575 40.7042C91.5295 40.3724 91.5821 40.1562 91.6278 39.9324C91.4606 39.7508 91.3156 39.5628 91.1472 39.4102C91.0206 39.3031 90.7415 39.3643 90.6628 39.5066C90.5917 39.6419 90.5275 39.7848 90.4848 39.9359C90.417 40.1661 90.5185 40.3522 90.7411 40.427C90.8631 40.4685 90.9939 40.4739 91.1159 40.5154C91.2095 40.5411 91.2942 40.6028 91.465 40.6973L91.4575 40.7042Z" clip-rule="evenodd" fill-rule="evenodd"></path>
<path fill="#201C1A" d="M96.0663 42.4315C96.0045 42.5163 95.9737 42.5586 95.9573 42.6016C95.7891 43.1479 96.2684 43.6992 96.8046 43.5831C97.0471 43.5277 97.1982 43.2209 97.0601 43.0405C96.8947 42.8153 96.6928 42.5958 96.4738 42.4338C96.3821 42.3645 96.1901 42.4293 96.0733 42.439L96.0663 42.4315Z" clip-rule="evenodd" fill-rule="evenodd"></path>
<path fill="#201C1A" d="M95.7815 45.0693C95.5476 45.62 95.8419 45.8943 96.1438 46.1616C96.2913 46.2915 96.5786 46.2088 96.6806 46.031C96.9079 45.6401 96.7017 45.173 96.2478 45.0595C96.1037 45.0244 95.949 45.0689 95.7815 45.0693Z" clip-rule="evenodd" fill-rule="evenodd"></path>
<path fill="#201C1A" d="M83.7244 42.0209C83.5885 41.9643 83.445 41.9147 83.302 41.8505C83.042 41.978 82.7895 42.0986 82.5433 42.2412C82.4316 42.3021 82.3541 42.4153 82.3841 42.5694C82.4281 42.7387 82.6052 42.8552 82.7884 42.8264C82.8907 42.8161 82.9955 42.7477 83.0821 42.7658C83.2262 42.8009 83.344 42.9441 83.5099 42.8054C83.6903 42.6673 83.7778 42.489 83.7578 42.2698C83.7538 42.1895 83.7423 42.1163 83.7175 42.0133L83.7244 42.0209Z" clip-rule="evenodd" fill-rule="evenodd"></path>
<path fill="#201C1A" d="M107.35 48.3738C107.287 48.3348 107.244 48.3039 107.201 48.2876C107.013 48.2506 106.873 47.9609 106.654 48.1484C106.427 48.3428 106.495 48.6295 106.507 48.8702C106.519 49.1254 106.679 49.2995 106.939 49.354C107.076 49.3815 107.237 49.3591 107.346 49.3563C107.529 49.1601 107.47 48.9903 107.427 48.8065C107.39 48.6593 107.382 48.4989 107.366 48.3599L107.35 48.3738Z" clip-rule="evenodd" fill-rule="evenodd"></path>
<path fill="#201C1A" d="M98.7224 37.7229C98.8669 37.9254 98.8309 38.2661 99.2378 38.283C99.3829 38.1216 99.5575 37.9468 99.7113 37.7494C99.8727 37.545 99.7957 37.2943 99.5459 37.1748C99.1822 36.9922 99.0048 37.0577 98.8141 37.4428C98.7669 37.5282 98.7551 37.6369 98.7149 37.7299L98.7224 37.7229Z" clip-rule="evenodd" fill-rule="evenodd"></path>
<path fill="#201C1A" d="M85.6733 45.0353C85.5537 44.9357 85.4486 44.8368 85.2797 44.6987C85.1398 44.9113 85.0157 45.0954 84.8689 45.3004L85.4609 45.9437C85.764 45.8325 86.0177 45.6829 86.1118 45.3447C86.1865 45.1222 86.1181 45.0174 85.8641 44.9996C85.7914 44.9966 85.7106 45.015 85.6373 45.0266C85.6355 45.0702 85.6482 45.1144 85.6464 45.158C85.6482 45.1144 85.657 45.0783 85.6664 45.0278L85.6733 45.0353Z" clip-rule="evenodd" fill-rule="evenodd"></path>
<path fill="#201C1A" d="M97.0679 37.4286C96.9178 37.5388 96.7979 37.6212 96.6553 37.7244C96.5968 37.5546 96.5441 37.4214 96.4851 37.2661C96.132 37.3533 96.0658 37.7218 95.8121 37.8714C95.7894 37.8923 95.7933 37.9725 95.8061 38.0167C95.8842 38.2384 96.3351 38.4245 96.5173 38.2428C96.6762 38.0965 96.8494 38.1328 96.9978 38.0662C97.1165 38.0129 97.2324 37.8503 97.2739 37.7283C97.2914 37.6562 97.1509 37.5339 97.0749 37.4361L97.0679 37.4286Z" clip-rule="evenodd" fill-rule="evenodd"></path>
<path fill="#201C1A" d="M103.777 40.9682C104.135 41.1141 104.399 41.2488 104.686 41.348C104.765 41.3731 104.898 41.335 104.966 41.2723C105.177 41.0918 105.152 40.4575 104.941 40.2886C104.779 40.1581 104.531 40.1769 104.392 40.3604C104.292 40.48 104.235 40.6305 104.136 40.7356C104.06 40.8198 103.941 40.8731 103.784 40.9758L103.777 40.9682Z" clip-rule="evenodd" fill-rule="evenodd"></path>
<path fill="#201C1A" d="M99.3114 48.2512C99.1673 48.2161 99.0156 48.188 98.8797 48.1314C98.7722 48.0905 98.6816 47.9921 98.5469 47.9065C98.4679 48.2308 98.4059 48.4975 98.3444 48.7497C98.4141 48.8254 98.4338 48.8772 98.4768 48.8935C99.1705 49.1917 99.3358 49.0675 99.3039 48.2582L99.3114 48.2512Z" clip-rule="evenodd" fill-rule="evenodd"></path>
<path fill="#201C1A" d="M101.32 38.2675C101.621 38.3819 101.913 38.3504 102.204 38.195C102.334 37.8656 101.992 37.6912 101.995 37.422C101.335 37.3728 101.22 37.5209 101.32 38.2675Z" clip-rule="evenodd" fill-rule="evenodd"></path>
<path fill="#201C1A" d="M93.7561 39.5403C93.5166 39.8725 93.569 40.1877 93.557 40.4783C94.0066 40.6935 94.095 40.6681 94.2327 40.3317C94.2648 40.2602 94.2969 40.1888 94.3145 40.1167C94.3835 39.8575 94.3093 39.7161 94.0013 39.5942C93.9299 39.5621 93.8496 39.566 93.7485 39.5473L93.7561 39.5403Z" clip-rule="evenodd" fill-rule="evenodd"></path>
</g>
<path stroke-linejoin="round" stroke-linecap="round" stroke="#201C1A" d="M79.0435 27.1274C79.0435 27.1274 80.8098 26.334 87.8632 19.9662C95.9256 12.6853 96.8069 10.9805 96.8069 10.9805"></path>
<path stroke-linejoin="round" stroke-linecap="round" stroke="#201C1A" d="M104.162 12.0241C104.162 12.0241 98.2736 18.5526 92.5082 23.8585C86.7427 29.1643 79.3814 34.8292 79.3814 34.8292"></path>
</g>
<circle stroke-linecap="round" stroke="#201C1A" r="59" cy="59.5" cx="59.5"></circle>
</g>
<defs>
<clipPath id="clip0_10042_839956">
<rect fill="white" height="119" width="119"></rect>
</clipPath>
</defs>
</svg>
